<svg width="11" height="20" viewBox="0 0 11 20" fill="none" xmlns="http://www.w3.org/2000/svg">
<path d="M4.92 0.119999H6.68V2.76C7.21333 2.81333 7.70667 2.93333 8.16 3.12C8.61333 3.29333 9.00667 3.53333 9.34 3.84C9.68667 4.14667 9.96 4.52 10.16 4.96C10.3733 5.4 10.4933 5.90667 10.52 6.48H8.82C8.76667 6.06667 8.64 5.72 8.44 5.44C8.25333 5.16 8.02 4.93333 7.74 4.76C7.46 4.58667 7.14 4.46667 6.78 4.4C6.43333 4.32 6.06667 4.28 5.68 4.28C5.30667 4.28 4.92667 4.31333 4.54 4.38C4.16667 4.44667 3.82667 4.56667 3.52 4.74C3.21333 4.9 2.96 5.12667 2.76 5.42C2.57333 5.7 2.48 6.06 2.48 6.5C2.48 7.03333 2.61333 7.46 2.88 7.78C3.16 8.1 3.5 8.34667 3.9 8.52C4.22 8.65333 4.56 8.76667 4.92 8.86C5.29333 8.95333 5.66667 9.04667 6.04 9.14C6.41333 9.22 6.78667 9.30667 7.16 9.4C7.53333 9.48 7.89333 9.57333 8.24 9.68C9.06667 9.94667 9.72 10.3467 10.2 10.88C10.68 11.4 10.92 12.1133 10.92 13.02C10.92 13.7 10.8067 14.2933 10.58 14.8C10.3533 15.2933 10.04 15.7067 9.64 16.04C9.25333 16.3733 8.79333 16.6333 8.26 16.82C7.72667 16.9933 7.16 17.1 6.56 17.14V19.76H4.82V17.1C4.26 17.0467 3.72667 16.9333 3.22 16.76C2.71333 16.5867 2.25333 16.3467 1.84 16.04C1.42667 15.7333 1.07333 15.3533 0.78 14.9C0.5 14.4467 0.3 13.9133 0.18 13.3H2C2.13333 13.7533 2.34 14.1267 2.62 14.42C2.9 14.7133 3.22 14.9467 3.58 15.12C3.94 15.2933 4.32667 15.4133 4.74 15.48C5.16667 15.5467 5.58667 15.58 6 15.58C6.4 15.58 6.78667 15.54 7.16 15.46C7.54667 15.3667 7.88667 15.2267 8.18 15.04C8.47333 14.8533 8.70667 14.6133 8.88 14.32C9.05333 14.0267 9.14 13.6733 9.14 13.26C9.14 12.6333 8.97333 12.1667 8.64 11.86C8.30667 11.5533 7.86 11.32 7.3 11.16C6.92667 11.04 6.53333 10.94 6.12 10.86C5.70667 10.78 5.29333 10.7 4.88 10.62C4.48 10.5267 4.08 10.42 3.68 10.3C3.28 10.18 2.90667 10.0267 2.56 9.84C2 9.54667 1.54667 9.14667 1.2 8.64C0.853333 8.12 0.68 7.46 0.68 6.66C0.68 6.00667 0.793333 5.44667 1.02 4.98C1.26 4.5 1.57333 4.1 1.96 3.78C2.34667 3.46 2.79333 3.21333 3.3 3.04C3.82 2.86667 4.36 2.76 4.92 2.72V0.119999Z" fill="#677BD3"/>
</svg>
