<svg width="292" height="62" viewBox="0 0 292 62" fill="none" xmlns="http://www.w3.org/2000/svg">
<path d="M11.1563 51V24.32H1.35625V19.8H26.5563V24.32H16.7562V51H11.1563ZM38.175 51.6C34.5217 51.6 31.735 50.4667 29.815 48.2C27.895 45.9067 26.935 42.8267 26.935 38.96C26.935 36.4 27.3617 34.1867 28.215 32.32C29.0683 30.4533 30.3217 29 31.975 27.96C33.655 26.92 35.695 26.4 38.095 26.4C41.535 26.4 44.1617 27.48 45.975 29.64C47.7883 31.7733 48.695 34.9067 48.695 39.04V40.32H32.215C32.3483 42.5067 32.9083 44.2667 33.895 45.6C34.9083 46.9333 36.335 47.6 38.175 47.6C39.5617 47.6 40.6683 47.2 41.495 46.4C42.3483 45.6 42.935 44.5733 43.255 43.32H48.415C48.1217 44.8667 47.5617 46.2667 46.735 47.52C45.935 48.7467 44.8283 49.7333 43.415 50.48C42.0017 51.2267 40.255 51.6 38.175 51.6ZM32.255 36.72H43.415C43.3083 34.6667 42.7883 33.08 41.855 31.96C40.9483 30.84 39.6817 30.28 38.055 30.28C36.375 30.28 35.0417 30.8267 34.055 31.92C33.0683 33.0133 32.4683 34.6133 32.255 36.72ZM61.4519 51.52C59.3185 51.52 57.5319 51 56.0919 49.96C54.6519 48.8933 53.5585 47.4133 52.8119 45.52C52.0919 43.6267 51.7319 41.44 51.7319 38.96C51.7319 36.4533 52.0919 34.2667 52.8119 32.4C53.5585 30.5333 54.6519 29.08 56.0919 28.04C57.5585 27 59.3585 26.48 61.4919 26.48C63.2252 26.48 64.6252 26.8267 65.6919 27.52C66.7852 28.2133 67.5852 29.08 68.0919 30.12H69.0519V27H73.9719V51H69.0519V47.88H68.0919C67.5852 48.8667 66.7852 49.72 65.6919 50.44C64.6252 51.16 63.2119 51.52 61.4519 51.52ZM62.6919 47.44C64.5052 47.44 65.9452 46.68 67.0119 45.16C68.0785 43.6133 68.6119 41.56 68.6119 39C68.6119 36.44 68.0785 34.4 67.0119 32.88C65.9452 31.3333 64.5052 30.56 62.6919 30.56C60.9852 30.56 59.6652 31.28 58.7319 32.72C57.7985 34.16 57.3319 36.2533 57.3319 39C57.3319 41.7467 57.7985 43.84 58.7319 45.28C59.6652 46.72 60.9852 47.44 62.6919 47.44ZM80.3719 51V27H85.2919V30.6H86.2519C86.6785 29.3733 87.3985 28.3733 88.4119 27.6C89.4252 26.8 90.8119 26.4 92.5719 26.4C94.2519 26.4 95.6385 26.7733 96.7319 27.52C97.8519 28.2667 98.6785 29.2933 99.2119 30.6H100.172C100.652 29.3467 101.412 28.3333 102.452 27.56C103.519 26.7867 104.932 26.4 106.692 26.4C109.305 26.4 111.225 27.2533 112.452 28.96C113.679 30.64 114.292 32.88 114.292 35.68V51H108.892V36.68C108.892 34.84 108.585 33.4133 107.972 32.4C107.385 31.3867 106.425 30.88 105.092 30.88C103.465 30.88 102.212 31.5733 101.332 32.96C100.479 34.3467 100.052 36.04 100.052 38.04V51H94.6119V36.68C94.6119 34.84 94.3185 33.4133 93.7319 32.4C93.1452 31.3867 92.1852 30.88 90.8519 30.88C89.2252 30.88 87.9719 31.5733 87.0919 32.96C86.2119 34.3467 85.7719 36.04 85.7719 38.04V51H80.3719ZM120.556 51V19.8H126.156V51H120.556ZM123.396 16.76C122.41 16.76 121.65 16.4933 121.116 15.96C120.583 15.4 120.316 14.68 120.316 13.8C120.316 12.92 120.583 12.2133 121.116 11.68C121.65 11.12 122.41 10.84 123.396 10.84C124.41 10.84 125.17 11.12 125.676 11.68C126.21 12.2133 126.476 12.92 126.476 13.8C126.476 14.68 126.21 15.4 125.676 15.96C125.17 16.4933 124.41 16.76 123.396 16.76ZM141.178 51.6C138.725 51.6 136.738 51.2 135.218 50.4C133.725 49.5733 132.605 48.52 131.858 47.24C131.138 45.96 130.738 44.6533 130.658 43.32H135.858C135.965 44.0667 136.231 44.7733 136.658 45.44C137.111 46.1067 137.725 46.64 138.498 47.04C139.271 47.44 140.245 47.64 141.418 47.64C142.751 47.64 143.751 47.3867 144.418 46.88C145.085 46.3467 145.418 45.6533 145.418 44.8C145.418 44.08 145.138 43.4667 144.578 42.96C144.018 42.4267 143.138 41.9467 141.938 41.52L139.058 40.56C137.725 40.08 136.498 39.56 135.378 39C134.285 38.4133 133.405 37.68 132.738 36.8C132.098 35.8933 131.778 34.7467 131.778 33.36C131.778 31.28 132.551 29.6 134.098 28.32C135.645 27.04 137.805 26.4 140.578 26.4C142.578 26.4 144.218 26.7333 145.498 27.4C146.805 28.04 147.791 28.92 148.458 30.04C149.125 31.1333 149.511 32.36 149.618 33.72H144.618C144.485 32.7333 144.071 31.9067 143.378 31.24C142.711 30.5733 141.711 30.24 140.378 30.24C139.231 30.24 138.351 30.48 137.738 30.96C137.151 31.44 136.858 32.08 136.858 32.88C136.858 33.68 137.151 34.3467 137.738 34.88C138.351 35.3867 139.271 35.8533 140.498 36.28L143.338 37.2C144.671 37.6533 145.885 38.1733 146.978 38.76C148.071 39.32 148.925 40.0533 149.538 40.96C150.178 41.84 150.498 42.9733 150.498 44.36C150.498 46.52 149.698 48.2667 148.098 49.6C146.525 50.9333 144.218 51.6 141.178 51.6ZM135.338 58.2V57.96L139.218 51H143.178L140.458 58.2H135.338ZM164.597 51.6C160.944 51.6 158.157 50.4667 156.237 48.2C154.317 45.9067 153.357 42.8267 153.357 38.96C153.357 36.4 153.784 34.1867 154.637 32.32C155.49 30.4533 156.744 29 158.397 27.96C160.077 26.92 162.117 26.4 164.517 26.4C167.957 26.4 170.584 27.48 172.397 29.64C174.21 31.7733 175.117 34.9067 175.117 39.04V40.32H158.637C158.77 42.5067 159.33 44.2667 160.317 45.6C161.33 46.9333 162.757 47.6 164.597 47.6C165.984 47.6 167.09 47.2 167.917 46.4C168.77 45.6 169.357 44.5733 169.677 43.32H174.837C174.544 44.8667 173.984 46.2667 173.157 47.52C172.357 48.7467 171.25 49.7333 169.837 50.48C168.424 51.2267 166.677 51.6 164.597 51.6ZM158.677 36.72H169.837C169.73 34.6667 169.21 33.08 168.277 31.96C167.37 30.84 166.104 30.28 164.477 30.28C162.797 30.28 161.464 30.8267 160.477 31.92C159.49 33.0133 158.89 34.6133 158.677 36.72ZM176.277 51V50.76L186.037 19.8H194.917L204.717 50.76V51H198.917L190.797 24.16H189.837L181.637 51H176.277ZM183.477 42.56L184.797 38.16H195.797L197.117 42.56H183.477ZM210.228 51C209.561 50.2 209.054 49.28 208.708 48.24C208.388 47.2 208.227 45.7333 208.227 43.84V19H213.668V43.2C213.668 45.28 213.894 46.88 214.348 48C214.801 49.0933 215.388 50.0133 216.108 50.76V51H210.228ZM220.247 51V27H225.647V51H220.247ZM232.059 51V27H236.979V30.6H237.939C238.366 29.3733 239.086 28.3733 240.099 27.6C241.113 26.8 242.499 26.4 244.259 26.4C245.939 26.4 247.326 26.7733 248.419 27.52C249.539 28.2667 250.366 29.2933 250.899 30.6H251.859C252.339 29.3467 253.099 28.3333 254.139 27.56C255.206 26.7867 256.619 26.4 258.379 26.4C260.993 26.4 262.913 27.2533 264.139 28.96C265.366 30.64 265.979 32.88 265.979 35.68V51H260.579V36.68C260.579 34.84 260.273 33.4133 259.659 32.4C259.073 31.3867 258.113 30.88 256.779 30.88C255.153 30.88 253.899 31.5733 253.019 32.96C252.166 34.3467 251.739 36.04 251.739 38.04V51H246.299V36.68C246.299 34.84 246.006 33.4133 245.419 32.4C244.833 31.3867 243.873 30.88 242.539 30.88C240.913 30.88 239.659 31.5733 238.779 32.96C237.899 34.3467 237.459 36.04 237.459 38.04V51H232.059Z" fill="#0223B5"/>
<path d="M284.554 20.4148L278.458 23.7527M278.912 2.00034L270.287 15.7755" stroke="#0223B5" stroke-width="1.45542"/>
<path d="M32.2741 10.0827C43.3316 -1.88646 75.6923 -2.23923 86.1253 9.362" stroke="#0223B5" stroke-width="1.70118"/>
</svg>
