<svg width="278" height="65" viewBox="0 0 278 65" fill="none" xmlns="http://www.w3.org/2000/svg">
<path d="M11 54V27.32H1.2V22.8H26.4V27.32H16.6V54H11ZM38.0188 54.6C34.3654 54.6 31.5788 53.4667 29.6588 51.2C27.7388 48.9067 26.7788 45.8267 26.7788 41.96C26.7788 39.4 27.2054 37.1867 28.0588 35.32C28.9121 33.4533 30.1654 32 31.8188 30.96C33.4987 29.92 35.5388 29.4 37.9388 29.4C41.3788 29.4 44.0054 30.48 45.8188 32.64C47.6321 34.7733 48.5388 37.9067 48.5388 42.04V43.32H32.0587C32.1921 45.5067 32.7521 47.2667 33.7388 48.6C34.7521 49.9333 36.1788 50.6 38.0188 50.6C39.4054 50.6 40.5121 50.2 41.3388 49.4C42.1921 48.6 42.7788 47.5733 43.0988 46.32H48.2588C47.9654 47.8667 47.4054 49.2667 46.5788 50.52C45.7788 51.7467 44.6721 52.7333 43.2587 53.48C41.8454 54.2267 40.0988 54.6 38.0188 54.6ZM32.0987 39.72H43.2587C43.1521 37.6667 42.6321 36.08 41.6988 34.96C40.7921 33.84 39.5254 33.28 37.8988 33.28C36.2188 33.28 34.8854 33.8267 33.8988 34.92C32.9121 36.0133 32.3121 37.6133 32.0987 39.72ZM61.2956 54.52C59.1623 54.52 57.3756 54 55.9356 52.96C54.4956 51.8933 53.4023 50.4133 52.6556 48.52C51.9356 46.6267 51.5756 44.44 51.5756 41.96C51.5756 39.4533 51.9356 37.2667 52.6556 35.4C53.4023 33.5333 54.4956 32.08 55.9356 31.04C57.4023 30 59.2023 29.48 61.3356 29.48C63.069 29.48 64.469 29.8267 65.5356 30.52C66.629 31.2133 67.429 32.08 67.9356 33.12H68.8956V30H73.8156V54H68.8956V50.88H67.9356C67.429 51.8667 66.629 52.72 65.5356 53.44C64.469 54.16 63.0556 54.52 61.2956 54.52ZM62.5356 50.44C64.349 50.44 65.789 49.68 66.8556 48.16C67.9223 46.6133 68.4556 44.56 68.4556 42C68.4556 39.44 67.9223 37.4 66.8556 35.88C65.789 34.3333 64.349 33.56 62.5356 33.56C60.829 33.56 59.509 34.28 58.5756 35.72C57.6423 37.16 57.1756 39.2533 57.1756 42C57.1756 44.7467 57.6423 46.84 58.5756 48.28C59.509 49.72 60.829 50.44 62.5356 50.44ZM80.2156 54V30H85.1356V33.6H86.0956C86.5223 32.3733 87.2423 31.3733 88.2556 30.6C89.269 29.8 90.6556 29.4 92.4156 29.4C94.0956 29.4 95.4823 29.7733 96.5756 30.52C97.6956 31.2667 98.5223 32.2933 99.0556 33.6H100.016C100.496 32.3467 101.256 31.3333 102.296 30.56C103.362 29.7867 104.776 29.4 106.536 29.4C109.149 29.4 111.069 30.2533 112.296 31.96C113.522 33.64 114.136 35.88 114.136 38.68V54H108.736V39.68C108.736 37.84 108.429 36.4133 107.816 35.4C107.229 34.3867 106.269 33.88 104.936 33.88C103.309 33.88 102.056 34.5733 101.176 35.96C100.322 37.3467 99.8956 39.04 99.8956 41.04V54H94.4556V39.68C94.4556 37.84 94.1623 36.4133 93.5756 35.4C92.989 34.3867 92.029 33.88 90.6956 33.88C89.069 33.88 87.8156 34.5733 86.9356 35.96C86.0556 37.3467 85.6156 39.04 85.6156 41.04V54H80.2156ZM125.609 54V27.32H115.809V22.8H141.009V27.32H131.209V54H125.609ZM151.108 54.52C148.975 54.52 147.188 54 145.748 52.96C144.308 51.8933 143.215 50.4133 142.468 48.52C141.748 46.6267 141.388 44.44 141.388 41.96C141.388 39.4533 141.748 37.2667 142.468 35.4C143.215 33.5333 144.308 32.08 145.748 31.04C147.215 30 149.015 29.48 151.148 29.48C152.881 29.48 154.281 29.8267 155.348 30.52C156.441 31.2133 157.241 32.08 157.748 33.12H158.708V30H163.628V54H158.708V50.88H157.748C157.241 51.8667 156.441 52.72 155.348 53.44C154.281 54.16 152.868 54.52 151.108 54.52ZM152.348 50.44C154.161 50.44 155.601 49.68 156.668 48.16C157.735 46.6133 158.268 44.56 158.268 42C158.268 39.44 157.735 37.4 156.668 35.88C155.601 34.3333 154.161 33.56 152.348 33.56C150.641 33.56 149.321 34.28 148.388 35.72C147.455 37.16 146.988 39.2533 146.988 42C146.988 44.7467 147.455 46.84 148.388 48.28C149.321 49.72 150.641 50.44 152.348 50.44ZM171.868 54C171.201 53.2 170.695 52.28 170.348 51.24C170.028 50.2 169.868 48.7333 169.868 46.84V22H175.308V46.2C175.308 48.28 175.535 49.88 175.988 51C176.441 52.0933 177.028 53.0133 177.748 53.76V54H171.868ZM191.488 54.6C187.834 54.6 185.048 53.4667 183.128 51.2C181.208 48.9067 180.248 45.8267 180.248 41.96C180.248 39.4 180.674 37.1867 181.528 35.32C182.381 33.4533 183.634 32 185.288 30.96C186.967 29.92 189.008 29.4 191.408 29.4C194.848 29.4 197.474 30.48 199.288 32.64C201.101 34.7733 202.008 37.9067 202.008 42.04V43.32H185.527C185.661 45.5067 186.221 47.2667 187.208 48.6C188.221 49.9333 189.648 50.6 191.488 50.6C192.874 50.6 193.981 50.2 194.808 49.4C195.661 48.6 196.248 47.5733 196.568 46.32H201.728C201.434 47.8667 200.874 49.2667 200.048 50.52C199.248 51.7467 198.141 52.7333 196.727 53.48C195.314 54.2267 193.568 54.6 191.488 54.6ZM185.567 39.72H196.727C196.621 37.6667 196.101 36.08 195.168 34.96C194.261 33.84 192.994 33.28 191.368 33.28C189.688 33.28 188.354 33.8267 187.368 34.92C186.381 36.0133 185.781 37.6133 185.567 39.72ZM206.684 54V30H211.604V33.6H212.564C213.044 32.3467 213.804 31.3333 214.844 30.56C215.911 29.7867 217.364 29.4 219.204 29.4C221.951 29.4 223.964 30.2533 225.244 31.96C226.551 33.64 227.204 35.88 227.204 38.68V54H221.804V39.68C221.804 37.8133 221.471 36.3867 220.804 35.4C220.138 34.3867 219.084 33.88 217.644 33.88C215.884 33.88 214.511 34.5733 213.524 35.96C212.564 37.32 212.084 39.0133 212.084 41.04V54H206.684ZM236.543 54C235.929 53.28 235.436 52.4133 235.063 51.4C234.716 50.3867 234.543 48.8667 234.543 46.84V33.96H231.263V30H234.622V24H239.902V30H243.862V33.96H239.943V46.16C239.943 48.2933 240.169 49.92 240.622 51.04C241.102 52.1333 241.676 53.04 242.342 53.76V54H236.543Z" fill="#0223B5"/>
<path d="M271.191 19.8755L264.951 23.2468M265.286 1.04015L256.513 15.0528" stroke="#0223B5" stroke-width="1.45542"/>
<path d="M31.2634 12.9811C42.3686 1.46475 74.8211 1.08094 85.2675 12.2139" stroke="#0223B5" stroke-width="1.70118"/>
</svg>
