<svg width="105" height="116" viewBox="0 0 105 116" fill="none" xmlns="http://www.w3.org/2000/svg">
<mask id="mask0_8_974" style="mask-type:luminance" maskUnits="userSpaceOnUse" x="0" y="0" width="105" height="154">
<path d="M0 0H105V154H0V0Z" fill="white"/>
</mask>
<g mask="url(#mask0_8_974)">
<path d="M40.7561 26.684C40.1186 26.684 39.6011 25.9454 39.6011 25.0344C39.6011 24.1233 40.1186 23.3848 40.7561 23.3848C41.3937 23.3848 41.9111 24.1233 41.9111 25.0344C41.9111 25.9454 41.3937 26.684 40.7561 26.684Z" fill="#232323"/>
<path d="M54.1178 34.2719C53.389 34.2719 52.7981 33.5333 52.7981 32.6223C52.7981 31.7112 53.389 30.9727 54.1178 30.9727C54.8466 30.9727 55.4375 31.7112 55.4375 32.6223C55.4375 33.5333 54.8466 34.2719 54.1178 34.2719Z" fill="#232323"/>
<path d="M39.8419 22.1536C41.9827 23.7021 42.4465 25.0717 42.709 27.8876" stroke="#232323"/>
<path d="M53.0303 29.7991C55.1711 31.3476 55.6352 32.7173 55.8973 35.5332" stroke="#232323"/>
<path d="M43.2311 35.4275C40.7566 33.4479 41.5814 31.9016 45.576 31.9016" stroke="#232323"/>
<path d="M90.92 101.357C95.6333 106.736 94.1228 113.125 93.748 112.384C91.7055 108.35 87.7777 102.299 87.7777 102.299" stroke="#232323"/>
<path d="M88.2276 103.042C92.2743 108.836 90.1046 112.629 89.8712 111.849C88.2276 106.351 84.5635 104.072 84.5635 104.072" stroke="#232323"/>
<path d="M100.327 107.525C102.891 114.074 93.7566 101.254 90.0707 100.976" stroke="#232323"/>
<path d="M78.0295 96.9608C87.1619 95.6139 96.8678 98.4513 100.393 107.474" stroke="#232323"/>
<path d="M57.9601 99.8284C42.0954 103.46 26.8045 106.519 18.5859 111.679" stroke="#232323"/>
<path d="M62.7786 42.2234C71.5709 36.6802 49.1679 57.3961 60.0628 72.8782" stroke="#232323"/>
<path d="M62.2048 58.2786C87.0128 58.2786 72.2952 62.5563 98.0988 99.0636" stroke="#232323"/>
<path d="M68.4698 41.3655C62.3663 49.9435 72.4288 50.4384 70.9442 43.8399" stroke="#232323"/>
<path d="M52.0749 74.525C52.0749 74.525 56.8291 75.8533 62.3564 71.7314" stroke="#232323"/>
<path d="M35.2141 54.7207C30.4361 56.6321 43.3691 74.8014 52.9902 74.5973" stroke="#232323"/>
<path d="M84.3675 75.344C102.348 58.6828 93.1104 -9.28097 67.3766 5.23559" stroke="#232323"/>
<path d="M73.2401 36.6926C68.8997 35.1012 67.6332 38.6012 68.0532 39.6137" stroke="#232323"/>
<path d="M43.2824 15.8455C27.4181 36.8706 40.0332 63.8208 62.9696 42.0314" stroke="#232323"/>
<path d="M42.5172 15.8457C51.6918 21.5799 66.8555 24.5744 68.7031 16.228" stroke="#232323"/>
<path d="M67.0468 34.5982C67.0468 32.5278 67.7479 27.3399 64.0763 20.8884" stroke="#232323"/>
<path d="M67.366 34.0032C84.7595 29.0339 74.4088 48.2937 66.2192 42.9867" stroke="#232323"/>
<path d="M67.5568 50.6323C83.8112 46.9741 92.3891 15.6316 72.1441 9.5377C48.0763 -13.9005 33.2327 18.7312 36.6942 29.9793" stroke="#232323"/>
<path d="M41.4053 59.0839C31.1602 46.0092 30.5069 38.1732 34.5826 41.2006" stroke="#232323"/>
<path d="M36.39 52.4268C34.115 53.6336 36.0832 56.4454 39.2285 61.2191" stroke="#232323"/>
<path d="M61.5913 71.7314L90.4531 117.604" stroke="#232323"/>
<path d="M29.2891 57.2051C10.175 57.2051 18.2576 87.1392 5.09123 105.836C-2.4746 116.579 -2.20394 143.056 29.2891 130.581" stroke="#232323"/>
<path d="M50.3145 78.8037C60.8271 127.735 103.833 153.157 103.833 109.386C103.068 105.181 100.966 102.696 97.7166 98.4906" stroke="#232323"/>
<path d="M54.7502 25.4022C57.6155 25.8835 58.7024 27.2403 60.4844 29.9895M46.34 21.1972C44.5159 19.4378 43.5493 18.7928 41.944 18.3301" stroke="#232323"/>
<path d="M40.1844 39.4287C41.9046 41.352 45.0558 41.2375 46.874 40.4845" stroke="#232323"/>
<path d="M56.0482 34.459H56.4305L59.1064 35.4147L55.2837 35.6058L56.0482 34.459Z" fill="#232323"/>
<path d="M28.907 130.792C41.5216 125.44 46.1089 120.853 63.3115 110.341" stroke="#232323"/>
<path d="M32.5385 78.8037C22.5997 86.2581 22.791 100.976 37.8906 99.6375" stroke="#232323"/>
<path d="M71.7732 78.8037C79.5585 86.0668 79.7497 90.0807 76.3092 94.286" stroke="#232323"/>
<path d="M30.8188 99.0635C31.3922 101.548 32.0088 103.81 31.7865 105.944" stroke="#232323"/>
<path d="M25.4668 107.856L28.1426 96.9609" stroke="#232323"/>
</g>
</svg>
