<svg width="30" height="30" viewBox="0 0 30 30" fill="none" xmlns="http://www.w3.org/2000/svg">
<path d="M22.5516 14.0625V19.5703C22.5538 19.7259 22.5106 19.8789 22.4274 20.0104C22.3442 20.1419 22.2244 20.2463 22.0828 20.3109L16.5141 22.7625C15.8277 23.0678 15.0799 23.2101 14.3294 23.1784C13.5788 23.1467 12.8457 22.9418 12.1875 22.5797L8.18909 20.3859C8.06124 20.316 7.9546 20.213 7.88036 20.0876C7.80612 19.9622 7.76704 19.8191 7.76721 19.6734V14.2172" stroke="#232323" stroke-linecap="round"/>
<path d="M13.7438 7.13427L4.18596 11.6624C4.11755 11.6953 4.05982 11.7469 4.01942 11.8111C3.97902 11.8754 3.95758 11.9498 3.95758 12.0257C3.95758 12.1016 3.97902 12.176 4.01942 12.2402C4.05982 12.3045 4.11755 12.3561 4.18596 12.389L13.4391 17.0765C13.8879 17.2959 14.3809 17.41 14.8805 17.41C15.3801 17.41 15.8731 17.2959 16.3219 17.0765L25.8281 12.4686C25.8966 12.4357 25.9543 12.3842 25.9947 12.3199C26.0351 12.2556 26.0565 12.1813 26.0565 12.1054C26.0565 12.0295 26.0351 11.9551 25.9947 11.8908C25.9543 11.8265 25.8966 11.775 25.8281 11.7421L16.5797 7.16239C16.1401 6.94291 15.6563 6.82632 15.165 6.82145C14.6737 6.81658 14.1876 6.92355 13.7438 7.13427Z" stroke="#232323" stroke-linecap="round"/>
<path d="M15 12.1218L4.84216 12.7265L4.98279 18.4921" stroke="#0223B5" stroke-linecap="round"/>
<path d="M4.99685 21.0562C5.65183 21.0562 6.18279 20.5252 6.18279 19.8703C6.18279 19.2153 5.65183 18.6843 4.99685 18.6843C4.34188 18.6843 3.81091 19.2153 3.81091 19.8703C3.81091 20.5252 4.34188 21.0562 4.99685 21.0562Z" stroke="#0223B5" stroke-linecap="round"/>
<path d="M5.40468 20.9812L6.34218 23.9203H3.65155L4.60311 20.9812" stroke="#0223B5" stroke-linecap="round" stroke-linejoin="round"/>
</svg>
