<svg width="88" height="29" viewBox="0 0 88 29" fill="none" xmlns="http://www.w3.org/2000/svg">
<path fill-rule="evenodd" clip-rule="evenodd" d="M0 1.83803V3.67606H1.86354H3.72708V12.1514V20.6268H5.59061H7.45415V12.1514V3.67606H9.31762H11.1812V1.83803V0H5.59061H0V1.83803ZM33.5435 10.3134V20.6268H35.5106H37.4776V16.2359V11.8451H39.7553H42.0329V10.007V8.16901H39.7553H37.4776V5.92254V3.67606H40.48H43.4824V1.83803V0H38.5129H33.5435V10.3134ZM65.8266 3.78546L63.9718 4.92694V12.8224L63.9762 20.6268H65.9456H67.9151V15.2148V9.80282H68.7434H69.5717V8.16901V6.46592H68.7434H67.9151V4.69718C67.9151 3.68627 67.9151 2.56376 67.9151 2.56376C67.9151 2.56376 66.7836 3.19401 65.8266 3.78546ZM58.0997 6.30546C56.2641 6.6592 54.9605 8.01563 54.5424 9.80282C54.2687 10.9736 54.2857 16.1191 54.5609 17.3847C54.821 18.5806 55.9922 19.8409 57.1623 20.4295C57.8058 20.7534 58.3813 20.831 60.1423 20.831H62.3247V19.0951V17.2972H58.9687C58.8466 17.2461 58.3844 17.1586 58.2032 16.6371V10.3936L58.3031 10.1128L58.499 9.9341C58.8244 9.80282 58.9565 9.85409 59.2497 9.80282H62.3247V8.0669V6.23981H60.91C60.1791 6.23981 59.4568 6.23981 59.2756 6.23981C58.9604 6.23981 58.4111 6.27395 58.0997 6.30546ZM12.9412 6.71821C11.9262 7.18159 11.1008 8.02358 10.6745 9.03041C10.241 10.054 10.2082 17.0316 10.632 18.0295C11.3876 19.8076 12.9598 20.819 14.9805 20.8265C17.0832 20.8343 18.7829 19.6201 19.3621 17.6971C19.7888 16.2798 19.7888 10.8821 19.3621 9.46482C19.0161 8.31606 18.0348 7.19362 16.9198 6.67182C15.939 6.21275 13.9984 6.23544 12.9412 6.71821ZM44.7987 6.39663V9.88859H46.4052C47.9455 9.88859 48.8658 10.072 48.8658 10.8286C48.8658 11.1836 48.589 11.1374 47.5425 11.1412C44.695 11.1519 43.3492 12.7868 43.3492 16.0572C43.3492 18.3474 44.0806 19.6097 45.6418 20.3168C46.321 20.6244 47.0177 20.6186 49.4446 20.6222L52.4043 20.6268L52.3435 14.9595V9.7627C52.3435 9.15367 51.7309 8.19782 51.6877 8.20913C50.6723 6.76708 49.275 6.32646 47.0135 6.34711C46.0393 6.35593 44.9412 6.34003 44.7987 6.39663ZM73.4196 6.67015C72.93 6.915 72.3014 7.44752 72.0256 7.80433C71.0005 9.12931 70.8607 9.68976 71.0212 13.6533C71.0212 17.2621 71.0294 17.3275 71.5996 18.4046C71.9605 19.0863 72.5122 19.7282 73.0668 20.1127C73.8833 20.6786 74.0963 20.7289 75.6797 20.7289C77.2638 20.7289 77.4768 20.6786 78.2933 20.1127C78.848 19.7282 79.3997 19.0863 79.7606 18.4046C80.3323 17.3252 80.3389 17.2691 80.3389 13.581C80.3389 9.89289 80.4661 9.75162 79.8944 8.67228C79.0329 7.04541 77.8939 6.15499 76.0044 6.07206C74.7974 6.0194 74.1414 6.30889 73.4196 6.67015ZM21.7412 17.7676C21.7412 23.9454 21.7985 29 21.8685 29C21.9385 29 22.7752 28.5174 23.7279 27.9278L25.4602 26.8556L25.4641 23.8664L25.4682 20.8772L26.8888 20.7979C28.5781 20.7038 29.6945 20.0868 30.5911 18.7518C31.1557 17.9111 31.1632 17.8572 31.2274 14.1199C31.3036 9.68232 31.151 9.05171 29.6955 7.78813C28.5106 6.75942 27.5527 6.53521 24.3412 6.53521H21.7412V17.7676ZM82.4097 13.581V20.6268H84.2726H86.1363V15.2148V9.80282H87.0682H88V8.16901V6.3711H85.1971H82.4097V13.581ZM15.8839 10.4155C16.24 11.1131 16.2397 16.0496 15.8835 16.7465C15.5625 17.3745 14.8014 17.5119 14.2701 17.0375C13.9117 16.7177 13.8729 16.3791 13.8729 13.5638C13.8729 10.9563 13.9282 10.3902 14.2096 10.1127C14.6887 9.64002 15.5694 9.79932 15.8839 10.4155ZM76.4962 10.2568C76.7513 10.6152 76.8186 11.3136 76.8186 13.581C76.8186 16.723 76.6271 17.195 75.6797 17.195C74.7271 17.195 74.5415 16.7285 74.5415 13.5005C74.5415 11.0414 74.5985 10.4876 74.8839 10.1763C75.3499 9.66847 76.1057 9.70625 76.4962 10.2568ZM27.5079 10.3827C27.6946 10.6345 27.7458 11.3637 27.7458 13.7571C27.7458 17.0463 27.8143 17.3592 26.4614 17.3592H25.4682V13.6561V9.95336H26.3615C26.9791 9.95336 27.305 10.1092 27.5079 10.3827ZM48.8658 15.8275V17.2497H48.197C47.2404 17.2497 47.055 16.9544 47.055 15.6666C47.055 14.2958 47.4115 14.3037 48.2965 14.2988L48.8658 14.2958V15.8275Z" fill="#0223B5"/>
</svg>
