<svg width="30" height="30" viewBox="0 0 30 30" fill="none" xmlns="http://www.w3.org/2000/svg">
<path d="M15 9.08896C16.53 9.08896 17.7703 7.84865 17.7703 6.31865C17.7703 4.78865 16.53 3.54834 15 3.54834C13.47 3.54834 12.2297 4.78865 12.2297 6.31865C12.2297 7.84865 13.47 9.08896 15 9.08896Z" stroke="#0223B5" stroke-linecap="round"/>
<path d="M11.9438 26.4515V20.5453C11.9446 20.4002 11.9145 20.2566 11.8555 20.124C11.7965 19.9915 11.7099 19.873 11.6016 19.7765L10.575 18.839C10.5217 18.7902 10.4792 18.7308 10.4501 18.6646C10.4211 18.5984 10.4061 18.5269 10.4063 18.4546V12.3609C10.4062 12.087 10.5147 11.8242 10.708 11.63C10.9013 11.4359 11.1636 11.3262 11.4375 11.325H18.0469C18.4576 11.3262 18.851 11.4902 19.141 11.781C19.4309 12.0719 19.5938 12.4658 19.5938 12.8765V18.5015C19.5925 18.6336 19.5424 18.7605 19.4531 18.8578L18.4641 19.9125C18.2826 20.1033 18.1818 20.3569 18.1828 20.6203V26.4515" stroke="#232323" stroke-linecap="round"/>
</svg>
