<svg width="40" height="40" viewBox="0 0 40 40" fill="none" xmlns="http://www.w3.org/2000/svg">
<g clip-path="url(#clip0_16_1630)">
<path d="M20 0.00708008C31.0415 0.00708008 39.993 8.95864 39.993 20C39.993 31.0415 31.0415 39.993 20 39.993C8.95864 39.993 0.00708008 31.0415 0.00708008 20C0.00708008 8.95864 8.95864 0.00708008 20 0.00708008ZM26.6969 27.4375C26.6954 27.4415 26.1172 28.8844 24.5665 28.2079C23.7235 27.8391 18.4766 23.5641 17.3032 22.6657C19.5891 20.611 21.875 18.5563 24.1594 16.4993L15.5797 21.9477C14.1758 21.475 12.7711 21.0055 11.3688 20.5297C10.118 20.1282 9.97505 18.7368 11.3735 18.2071L27.6649 11.8149C27.8211 11.7485 29.6352 11.0586 29.6352 12.6711L26.6969 27.4375ZM25.8313 27.1133L28.7094 12.6008C28.661 12.386 28.0165 12.6657 28.0149 12.6665L11.6844 19.0711C11.1743 19.2407 11.1618 19.4797 11.6704 19.661L15.4547 20.9352L25.6391 14.4696C25.9852 14.2586 26.5071 14.1094 26.8094 14.4727C27.1149 14.8407 26.8586 15.293 26.5618 15.5704C26.268 15.8446 20.5055 21.0258 18.7438 22.6094L24.9821 27.3844C25.5297 27.5961 25.7711 27.229 25.8313 27.1133ZM20 0.930518C9.46802 0.930518 0.929736 9.46802 0.929736 20C0.929736 30.5321 9.46802 39.0696 20 39.0696C30.5321 39.0696 39.0704 30.5321 39.0704 20C39.0704 9.46802 30.5321 0.930518 20 0.930518Z" fill="#232323"/>
</g>
<defs>
<clipPath id="clip0_16_1630">
<rect width="40" height="40" fill="#fff"/>
</clipPath>
</defs>
</svg>
