<svg width="309" height="65" viewBox="0 0 309 65" fill="none" xmlns="http://www.w3.org/2000/svg">
<path d="M11 54V27.32H1.2V22.8H26.4V27.32H16.6V54H11ZM38.0188 54.6C34.3654 54.6 31.5788 53.4667 29.6588 51.2C27.7388 48.9067 26.7788 45.8267 26.7788 41.96C26.7788 39.4 27.2054 37.1867 28.0588 35.32C28.9121 33.4533 30.1654 32 31.8188 30.96C33.4987 29.92 35.5388 29.4 37.9388 29.4C41.3788 29.4 44.0054 30.48 45.8188 32.64C47.6321 34.7733 48.5388 37.9067 48.5388 42.04V43.32H32.0587C32.1921 45.5067 32.7521 47.2667 33.7388 48.6C34.7521 49.9333 36.1788 50.6 38.0188 50.6C39.4054 50.6 40.5121 50.2 41.3388 49.4C42.1921 48.6 42.7788 47.5733 43.0988 46.32H48.2588C47.9654 47.8667 47.4054 49.2667 46.5788 50.52C45.7788 51.7467 44.6721 52.7333 43.2587 53.48C41.8454 54.2267 40.0988 54.6 38.0188 54.6ZM32.0987 39.72H43.2587C43.1521 37.6667 42.6321 36.08 41.6988 34.96C40.7921 33.84 39.5254 33.28 37.8988 33.28C36.2188 33.28 34.8854 33.8267 33.8988 34.92C32.9121 36.0133 32.3121 37.6133 32.0987 39.72ZM61.2956 54.52C59.1623 54.52 57.3756 54 55.9356 52.96C54.4956 51.8933 53.4023 50.4133 52.6556 48.52C51.9356 46.6267 51.5756 44.44 51.5756 41.96C51.5756 39.4533 51.9356 37.2667 52.6556 35.4C53.4023 33.5333 54.4956 32.08 55.9356 31.04C57.4023 30 59.2023 29.48 61.3356 29.48C63.069 29.48 64.469 29.8267 65.5356 30.52C66.629 31.2133 67.429 32.08 67.9356 33.12H68.8956V30H73.8156V54H68.8956V50.88H67.9356C67.429 51.8667 66.629 52.72 65.5356 53.44C64.469 54.16 63.0556 54.52 61.2956 54.52ZM62.5356 50.44C64.349 50.44 65.789 49.68 66.8556 48.16C67.9223 46.6133 68.4556 44.56 68.4556 42C68.4556 39.44 67.9223 37.4 66.8556 35.88C65.789 34.3333 64.349 33.56 62.5356 33.56C60.829 33.56 59.509 34.28 58.5756 35.72C57.6423 37.16 57.1756 39.2533 57.1756 42C57.1756 44.7467 57.6423 46.84 58.5756 48.28C59.509 49.72 60.829 50.44 62.5356 50.44ZM80.2156 54V30H85.1356V33.6H86.0956C86.5223 32.3733 87.2423 31.3733 88.2556 30.6C89.269 29.8 90.6556 29.4 92.4156 29.4C94.0956 29.4 95.4823 29.7733 96.5756 30.52C97.6956 31.2667 98.5223 32.2933 99.0556 33.6H100.016C100.496 32.3467 101.256 31.3333 102.296 30.56C103.362 29.7867 104.776 29.4 106.536 29.4C109.149 29.4 111.069 30.2533 112.296 31.96C113.522 33.64 114.136 35.88 114.136 38.68V54H108.736V39.68C108.736 37.84 108.429 36.4133 107.816 35.4C107.229 34.3867 106.269 33.88 104.936 33.88C103.309 33.88 102.056 34.5733 101.176 35.96C100.322 37.3467 99.8956 39.04 99.8956 41.04V54H94.4556V39.68C94.4556 37.84 94.1623 36.4133 93.5756 35.4C92.989 34.3867 92.029 33.88 90.6956 33.88C89.069 33.88 87.8156 34.5733 86.9356 35.96C86.0556 37.3467 85.6156 39.04 85.6156 41.04V54H80.2156ZM120.32 54V22.8H132.4C136.4 22.8 139.307 23.64 141.12 25.32C142.96 26.9733 143.88 29.2 143.88 32C143.88 34.8 142.96 37.04 141.12 38.72C139.307 40.4 136.4 41.24 132.4 41.24H125.88V54H120.32ZM125.88 36.88H131.8C133.96 36.88 135.573 36.5067 136.64 35.76C137.707 35.0133 138.24 33.7733 138.24 32.04C138.24 30.3067 137.707 29.0533 136.64 28.28C135.573 27.5067 133.96 27.12 131.8 27.12H125.88V36.88ZM158.019 54.6C154.365 54.6 151.579 53.4667 149.659 51.2C147.739 48.9067 146.779 45.8267 146.779 41.96C146.779 39.4 147.205 37.1867 148.059 35.32C148.912 33.4533 150.165 32 151.819 30.96C153.499 29.92 155.539 29.4 157.939 29.4C161.379 29.4 164.005 30.48 165.819 32.64C167.632 34.7733 168.539 37.9067 168.539 42.04V43.32H152.059C152.192 45.5067 152.752 47.2667 153.739 48.6C154.752 49.9333 156.179 50.6 158.019 50.6C159.405 50.6 160.512 50.2 161.339 49.4C162.192 48.6 162.779 47.5733 163.099 46.32H168.259C167.965 47.8667 167.405 49.2667 166.579 50.52C165.779 51.7467 164.672 52.7333 163.259 53.48C161.845 54.2267 160.099 54.6 158.019 54.6ZM152.099 39.72H163.259C163.152 37.6667 162.632 36.08 161.699 34.96C160.792 33.84 159.525 33.28 157.899 33.28C156.219 33.28 154.885 33.8267 153.899 34.92C152.912 36.0133 152.312 37.6133 152.099 39.72ZM173.216 54V30H178.096V34.24H179.056C179.216 33.52 179.509 32.8133 179.936 32.12C180.362 31.4267 181.016 30.8667 181.896 30.44C182.802 29.9867 184.029 29.76 185.576 29.76H186.616V34.72H185.136C182.816 34.72 181.149 35.32 180.136 36.52C179.122 37.72 178.616 39.5467 178.616 42V54H173.216ZM192.468 54V33.96H189.028V30H192.468V28.52C192.468 27.2133 192.695 26.0667 193.148 25.08C193.601 24.0933 194.348 23.32 195.388 22.76C196.455 22.2 197.908 21.92 199.748 21.92C200.415 21.92 201.041 21.96 201.628 22.04V25.96C201.308 25.88 200.881 25.84 200.348 25.84C199.308 25.84 198.601 26.08 198.228 26.56C197.881 27.04 197.708 27.7333 197.708 28.64V30H201.628V33.96H197.708V54H192.468ZM215.708 54.6C211.921 54.6 209.081 53.4667 207.188 51.2C205.321 48.9067 204.388 45.84 204.388 42C204.388 38.16 205.321 35.1067 207.188 32.84C209.081 30.5467 211.921 29.4 215.708 29.4C219.548 29.4 222.401 30.5467 224.268 32.84C226.135 35.1067 227.068 38.16 227.068 42C227.068 45.84 226.135 48.9067 224.268 51.2C222.401 53.4667 219.548 54.6 215.708 54.6ZM215.748 50.68C217.721 50.68 219.161 49.9333 220.068 48.44C221.001 46.92 221.468 44.7733 221.468 42C221.468 39.2267 221.001 37.0933 220.068 35.6C219.161 34.08 217.721 33.32 215.748 33.32C213.748 33.32 212.281 34.08 211.348 35.6C210.441 37.0933 209.988 39.2267 209.988 42C209.988 44.7733 210.441 46.92 211.348 48.44C212.281 49.9333 213.748 50.68 215.748 50.68ZM231.809 54V30H236.689V34.24H237.649C237.809 33.52 238.103 32.8133 238.529 32.12C238.956 31.4267 239.609 30.8667 240.489 30.44C241.396 29.9867 242.623 29.76 244.169 29.76H245.209V34.72H243.729C241.409 34.72 239.743 35.32 238.729 36.52C237.716 37.72 237.209 39.5467 237.209 42V54H231.809ZM249.622 54V30H254.542V33.6H255.502C255.929 32.3733 256.649 31.3733 257.662 30.6C258.675 29.8 260.062 29.4 261.822 29.4C263.502 29.4 264.889 29.7733 265.982 30.52C267.102 31.2667 267.929 32.2933 268.462 33.6H269.422C269.902 32.3467 270.662 31.3333 271.702 30.56C272.769 29.7867 274.182 29.4 275.942 29.4C278.555 29.4 280.475 30.2533 281.702 31.96C282.929 33.64 283.542 35.88 283.542 38.68V54H278.142V39.68C278.142 37.84 277.835 36.4133 277.222 35.4C276.635 34.3867 275.675 33.88 274.342 33.88C272.715 33.88 271.462 34.5733 270.582 35.96C269.729 37.3467 269.302 39.04 269.302 41.04V54H263.862V39.68C263.862 37.84 263.569 36.4133 262.982 35.4C262.395 34.3867 261.435 33.88 260.102 33.88C258.475 33.88 257.222 34.5733 256.342 35.96C255.462 37.3467 255.022 39.04 255.022 41.04V54H249.622Z" fill="#0223B5"/>
<path d="M301.554 19.4148L295.457 22.7527M295.911 1.00034L287.287 14.7755" stroke="#0223B5" stroke-width="1.45542"/>
<path d="M31.2741 13.0827C42.3316 1.11354 74.6923 0.760768 85.1253 12.362" stroke="#0223B5" stroke-width="1.70118"/>
</svg>
