<svg width="249" height="229" viewBox="0 0 249 229" fill="none" xmlns="http://www.w3.org/2000/svg">
<path d="M140.849 79.436C123.361 75.4717 105.873 71.5075 109.837 54.0195C110.888 49.3814 113.739 45.3509 117.762 42.8147C121.785 40.2785 126.651 39.4444 131.289 40.4958C148.777 44.46 143.492 67.7774 140.849 79.436Z" stroke="#0223B5"/>
<path d="M140.849 79.4361C158.337 83.4003 175.825 87.3646 179.789 69.8766C180.84 65.2385 180.006 60.3727 177.47 56.3496C174.934 52.3266 170.903 49.4757 166.265 48.4244C148.777 44.4601 143.492 67.7774 140.849 79.4361Z" stroke="#0223B5"/>
<path d="M74.6269 101.198L58.7699 171.15L175.356 197.578L191.214 127.626" stroke="#0223B5"/>
<path d="M210.801 95.2932L70.8968 63.579L62.9683 98.5549L202.872 130.269L210.801 95.2932Z" stroke="#0223B5"/>
<path d="M140.849 79.436L117.063 184.364" stroke="#0223B5"/>
<path d="M14.2571 184.289L24.6333 181.838M15.0936 213.821L33.4633 196.966" stroke="#0223B5"/>
<path d="M236.183 43.1033L226.267 47.0226M231.102 14L215.351 33.3242" stroke="#0223B5"/>
</svg>
