<svg width="67" height="67" viewBox="0 0 67 67" fill="none" xmlns="http://www.w3.org/2000/svg">
<path fill-rule="evenodd" clip-rule="evenodd" d="M33.5 58.625C47.3761 58.625 58.625 47.3762 58.625 33.5C58.625 19.6239 47.3761 8.37504 33.5 8.37504C19.6239 8.37504 8.37499 19.6239 8.37499 33.5C8.37499 47.3762 19.6239 58.625 33.5 58.625ZM33.5 61.4167C48.9179 61.4167 61.4167 48.918 61.4167 33.5C61.4167 18.0821 48.9179 5.58337 33.5 5.58337C18.082 5.58337 5.58333 18.0821 5.58333 33.5C5.58333 48.918 18.082 61.4167 33.5 61.4167Z" fill="#6482FE"/>
<path fill-rule="evenodd" clip-rule="evenodd" d="M48.3948 22.6942C48.9665 23.2113 49.0106 24.0941 48.4933 24.6657L29.851 45.2704L18.5778 34.5098C18.0202 33.9774 17.9997 33.0938 18.5319 32.5362C19.0643 31.9786 19.9478 31.9581 20.5055 32.4904L29.7046 41.2713L46.4233 22.7927C46.9405 22.2211 47.8232 22.1769 48.3948 22.6942Z" fill="#6482FE"/>
</svg>
