<svg width="23" height="32" viewBox="0 0 23 32" fill="none" xmlns="http://www.w3.org/2000/svg">
<path d="M0.68 32V27.36C2.94667 25.6 4.86667 24.0667 6.44 22.76C8.01333 21.4533 9.38667 20.2533 10.56 19.16C12.48 17.32 13.9067 15.68 14.84 14.24C15.7733 12.7733 16.24 11.24 16.24 9.64C16.24 8.12 15.8 6.88 14.92 5.92C14.0667 4.96 12.8133 4.48 11.16 4.48C9.32 4.48 7.94667 5.06667 7.04 6.24C6.16 7.41333 5.72 8.90667 5.72 10.72H0.68C0.68 8.66667 1.08 6.85333 1.88 5.28C2.68 3.70667 3.86667 2.48 5.44 1.6C7.04 0.693333 9 0.239999 11.32 0.239999C14.5467 0.239999 17.0667 1.08 18.88 2.76C20.72 4.41333 21.64 6.62667 21.64 9.4C21.64 11.6667 21.0267 13.7733 19.8 15.72C18.5733 17.64 16.8933 19.56 14.76 21.48C13.88 22.28 12.8667 23.1333 11.72 24.04C10.5733 24.92 9.33333 25.7733 8 26.6V27.48H22.52V32H0.68Z" fill="#6482FE"/>
</svg>
