<svg width="23" height="33" viewBox="0 0 23 33" fill="none" xmlns="http://www.w3.org/2000/svg">
<path d="M11.64 32.52C9.66667 32.52 7.94667 32.2267 6.48 31.64C5.01333 31.0533 3.8 30.2667 2.84 29.28C1.90667 28.2933 1.2 27.2133 0.72 26.04C0.266667 24.84 0.0266667 23.6267 5.96046e-08 22.4H5.32C5.50667 24 6.13333 25.3733 7.2 26.52C8.29333 27.64 9.81333 28.2 11.76 28.2C13.6533 28.2 15.0667 27.68 16 26.64C16.9333 25.6 17.4 24.3333 17.4 22.84C17.4 21 16.7067 19.5467 15.32 18.48C13.9333 17.4133 12.0267 16.88 9.6 16.88H8.36V12.88L12.2 8.72C12.68 8.21333 13.1467 7.74667 13.6 7.32C14.08 6.89333 14.5733 6.48 15.08 6.08V5.12H1.72V0.799998H21.48V5.36L14.12 12.76V13.72C16.9467 14.2 19.0933 15.2 20.56 16.72C22.0533 18.2133 22.8 20.2 22.8 22.68C22.8 24.6267 22.3333 26.3467 21.4 27.84C20.4933 29.3067 19.2 30.4533 17.52 31.28C15.8667 32.1067 13.9067 32.52 11.64 32.52Z" fill="#6482FE"/>
</svg>
