<svg width="23" height="33" viewBox="0 0 23 33" fill="none" xmlns="http://www.w3.org/2000/svg">
<path d="M11.48 32.48C9.50667 32.48 7.82667 32.2 6.44 31.64C5.08 31.08 3.96 30.36 3.08 29.48C2.22667 28.5733 1.57333 27.6267 1.12 26.64C0.693334 25.6267 0.453333 24.68 0.4 23.8H5.72C5.82667 24.4133 6.09333 25.0667 6.52 25.76C6.97333 26.4267 7.62667 27 8.48 27.48C9.33333 27.9333 10.4 28.16 11.68 28.16C13.6267 28.16 15.08 27.5333 16.04 26.28C17 25 17.48 23.4 17.48 21.48C17.48 19.5067 16.9467 17.9467 15.88 16.8C14.84 15.6267 13.4 15.04 11.56 15.04C10.5467 15.04 9.68 15.2133 8.96 15.56C8.26667 15.9067 7.69333 16.32 7.24 16.8C6.81333 17.28 6.48 17.7467 6.24 18.2H1.08L2.92 0.799998H20.92V5.2H7.16L6.2 13.64H7.16C7.72 12.8933 8.45333 12.2667 9.36 11.76C10.2933 11.2533 11.56 11 13.16 11C15.1333 11 16.84 11.44 18.28 12.32C19.7467 13.1733 20.88 14.3733 21.68 15.92C22.48 17.4667 22.88 19.28 22.88 21.36C22.88 23.5467 22.4133 25.48 21.48 27.16C20.5733 28.8133 19.2667 30.12 17.56 31.08C15.8533 32.0133 13.8267 32.48 11.48 32.48Z" fill="#6482FE"/>
</svg>
