<svg width="24" height="33" viewBox="0 0 24 33" fill="none" xmlns="http://www.w3.org/2000/svg">
<path d="M11.8 32.56C9.42667 32.56 7.38667 32.08 5.68 31.12C3.97333 30.1333 2.66667 28.8133 1.76 27.16C0.88 25.48 0.44 23.5867 0.44 21.48C0.44 19.7467 0.706667 18.12 1.24 16.6C1.77333 15.08 2.45333 13.6267 3.28 12.24C4.13333 10.8267 5.01333 9.49333 5.92 8.24C6.13333 7.97333 6.45333 7.54667 6.88 6.96C7.33333 6.37333 7.84 5.70667 8.4 4.96C8.96 4.21333 9.52 3.48 10.08 2.76C10.64 2.01333 11.1333 1.36 11.56 0.799998H17.92V1.04C16.8267 2.32 15.68 3.68 14.48 5.12C13.3067 6.56 12.1333 8.02667 10.96 9.52C10.1333 10.5867 9.45333 11.48 8.92 12.2C8.41333 12.92 8.04 13.4533 7.8 13.8H8.76C9.26667 13.2933 9.90667 12.8533 10.68 12.48C11.48 12.1067 12.4933 11.92 13.72 11.92C15.5867 11.92 17.2133 12.3333 18.6 13.16C20.0133 13.9867 21.1067 15.1467 21.88 16.64C22.6533 18.1067 23.04 19.8 23.04 21.72C23.04 23.7467 22.5867 25.5867 21.68 27.24C20.8 28.8667 19.52 30.16 17.84 31.12C16.1867 32.08 14.1733 32.56 11.8 32.56ZM11.92 28.44C13.76 28.44 15.2 27.8533 16.24 26.68C17.28 25.5067 17.8 23.9333 17.8 21.96C17.8 19.9067 17.2533 18.32 16.16 17.2C15.0933 16.08 13.6667 15.52 11.88 15.52C9.90667 15.52 8.37333 16.1333 7.28 17.36C6.21333 18.56 5.68 20.08 5.68 21.92C5.68 23.0667 5.90667 24.1333 6.36 25.12C6.84 26.1067 7.53333 26.9067 8.44 27.52C9.37333 28.1333 10.5333 28.44 11.92 28.44Z" fill="#6482FE"/>
</svg>
