<svg width="67" height="67" viewBox="0 0 67 67" fill="none" xmlns="http://www.w3.org/2000/svg">
<g clip-path="url(#clip0_62_108)">
<path d="M35.7333 44.6666C35.7333 45.2589 35.498 45.827 35.0792 46.2458C34.6604 46.6647 34.0923 46.9 33.5 46.9C32.9077 46.9 32.3396 46.6647 31.9208 46.2458C31.502 45.827 31.2667 45.2589 31.2667 44.6666C31.2667 44.0743 31.502 43.5062 31.9208 43.0874C32.3396 42.6686 32.9077 42.4333 33.5 42.4333C34.0923 42.4333 34.6604 42.6686 35.0792 43.0874C35.498 43.5062 35.7333 44.0743 35.7333 44.6666ZM5.58333 37.9666H61.4167C62.0353 37.9666 62.5333 38.4647 62.5333 39.0833C62.5333 39.7019 62.0353 40.2 61.4167 40.2H5.58333C4.9647 40.2 4.46667 39.7019 4.46667 39.0833C4.46667 38.4647 4.9647 37.9666 5.58333 37.9666ZM3.35 6.69995C1.5142 6.69995 0 8.21415 0 10.05V48.0166C0 49.8524 1.5142 51.3666 3.35 51.3666H26.8V58.0666H21.2167C20.598 58.0666 20.1 58.5647 20.1 59.1833C20.1 59.8019 20.598 60.2999 21.2167 60.2999H45.7833C46.402 60.2999 46.9 59.8019 46.9 59.1833C46.9 58.5647 46.402 58.0666 45.7833 58.0666H40.2V51.3666H63.65C65.4858 51.3666 67 49.8524 67 48.0166V10.05C67 8.21415 65.4858 6.69995 63.65 6.69995H3.35ZM3.35 8.93328H63.65C64.2887 8.93328 64.7667 9.41122 64.7667 10.05V48.0166C64.7667 48.6553 64.2887 49.1333 63.65 49.1333H3.35C2.71127 49.1333 2.23333 48.6553 2.23333 48.0166V10.05C2.23333 9.41122 2.71127 8.93328 3.35 8.93328ZM29.0333 51.3666H37.9667V58.0666H29.0333V51.3666Z" fill="#6482FE"/>
</g>
<defs>
<clipPath id="clip0_62_108">
<rect width="67" height="67" fill="white"/>
</clipPath>
</defs>
</svg>
