<svg width="444" height="71" viewBox="0 0 444 71" fill="none" xmlns="http://www.w3.org/2000/svg">
<path d="M3.55438 60V28.8H15.0344C18.821 28.8 21.5677 29.5067 23.2744 30.92C25.0077 32.3067 25.8744 34.1733 25.8744 36.52C25.8744 38.0133 25.501 39.28 24.7544 40.32C24.0077 41.3333 22.861 42.0533 21.3144 42.48V43.44C23.3144 43.84 24.8344 44.6533 25.8744 45.88C26.9144 47.08 27.4344 48.7467 27.4344 50.88C27.4344 53.6267 26.5144 55.84 24.6744 57.52C22.861 59.1733 19.941 60 15.9144 60H3.55438ZM8.95438 55.8H15.4744C17.6877 55.8 19.301 55.3467 20.3144 54.44C21.3277 53.5333 21.8344 52.2667 21.8344 50.64C21.8344 48.96 21.301 47.6933 20.2344 46.84C19.1944 45.9867 17.621 45.56 15.5144 45.56H8.95438V55.8ZM8.95438 41.44H14.8344C16.621 41.44 17.9944 41.1067 18.9544 40.44C19.9144 39.7467 20.3944 38.68 20.3944 37.24C20.3944 34.4133 18.541 33 14.8344 33H8.95438V41.44ZM41.6281 60.6C37.9748 60.6 35.1881 59.4667 33.2681 57.2C31.3481 54.9067 30.3881 51.8267 30.3881 47.96C30.3881 45.4 30.8148 43.1867 31.6681 41.32C32.5215 39.4533 33.7748 38 35.4281 36.96C37.1081 35.92 39.1481 35.4 41.5481 35.4C44.9881 35.4 47.6148 36.48 49.4281 38.64C51.2415 40.7733 52.1481 43.9067 52.1481 48.04V49.32H35.6681C35.8015 51.5067 36.3615 53.2667 37.3481 54.6C38.3615 55.9333 39.7881 56.6 41.6281 56.6C43.0148 56.6 44.1215 56.2 44.9481 55.4C45.8015 54.6 46.3881 53.5733 46.7081 52.32H51.8681C51.5748 53.8667 51.0148 55.2667 50.1881 56.52C49.3881 57.7467 48.2815 58.7333 46.8681 59.48C45.4548 60.2267 43.7081 60.6 41.6281 60.6ZM35.7081 45.72H46.8681C46.7615 43.6667 46.2415 42.08 45.3081 40.96C44.4015 39.84 43.1348 39.28 41.5081 39.28C39.8281 39.28 38.4948 39.8267 37.5081 40.92C36.5215 42.0133 35.9215 43.6133 35.7081 45.72ZM66.145 60.6C62.545 60.6 59.8117 59.4667 57.945 57.2C56.105 54.9067 55.185 51.84 55.185 48C55.185 44.0267 56.145 40.9333 58.065 38.72C60.0117 36.5067 62.7183 35.4 66.185 35.4C69.1717 35.4 71.545 36.2133 73.305 37.84C75.065 39.4667 76.1317 41.72 76.505 44.6H71.185C70.9717 42.9733 70.4383 41.7067 69.585 40.8C68.7583 39.8933 67.6517 39.44 66.265 39.44C64.425 39.44 63.0517 40.2 62.145 41.72C61.2383 43.2133 60.785 45.3067 60.785 48C60.785 50.6933 61.2383 52.8 62.145 54.32C63.0517 55.8133 64.4117 56.56 66.225 56.56C67.6383 56.56 68.7583 56.1067 69.585 55.2C70.4383 54.2933 70.9717 53.0267 71.185 51.4H76.505C76.105 54.28 75.0117 56.5333 73.225 58.16C71.465 59.7867 69.105 60.6 66.145 60.6ZM90.6925 60.6C86.9058 60.6 84.0658 59.4667 82.1725 57.2C80.3058 54.9067 79.3725 51.84 79.3725 48C79.3725 44.16 80.3058 41.1067 82.1725 38.84C84.0658 36.5467 86.9058 35.4 90.6925 35.4C94.5325 35.4 97.3858 36.5467 99.2525 38.84C101.119 41.1067 102.052 44.16 102.052 48C102.052 51.84 101.119 54.9067 99.2525 57.2C97.3858 59.4667 94.5325 60.6 90.6925 60.6ZM90.7325 56.68C92.7058 56.68 94.1458 55.9333 95.0525 54.44C95.9858 52.92 96.4525 50.7733 96.4525 48C96.4525 45.2267 95.9858 43.0933 95.0525 41.6C94.1458 40.08 92.7058 39.32 90.7325 39.32C88.7325 39.32 87.2658 40.08 86.3325 41.6C85.4258 43.0933 84.9725 45.2267 84.9725 48C84.9725 50.7733 85.4258 52.92 86.3325 54.44C87.2658 55.9333 88.7325 56.68 90.7325 56.68ZM106.794 60V36H111.714V39.6H112.674C113.1 38.3733 113.82 37.3733 114.834 36.6C115.847 35.8 117.234 35.4 118.994 35.4C120.674 35.4 122.06 35.7733 123.154 36.52C124.274 37.2667 125.1 38.2933 125.634 39.6H126.594C127.074 38.3467 127.834 37.3333 128.874 36.56C129.94 35.7867 131.354 35.4 133.114 35.4C135.727 35.4 137.647 36.2533 138.874 37.96C140.1 39.64 140.714 41.88 140.714 44.68V60H135.314V45.68C135.314 43.84 135.007 42.4133 134.394 41.4C133.807 40.3867 132.847 39.88 131.514 39.88C129.887 39.88 128.634 40.5733 127.754 41.96C126.9 43.3467 126.474 45.04 126.474 47.04V60H121.034V45.68C121.034 43.84 120.74 42.4133 120.154 41.4C119.567 40.3867 118.607 39.88 117.274 39.88C115.647 39.88 114.394 40.5733 113.514 41.96C112.634 43.3467 112.194 45.04 112.194 47.04V60H106.794ZM156.378 60.6C152.725 60.6 149.938 59.4667 148.018 57.2C146.098 54.9067 145.138 51.8267 145.138 47.96C145.138 45.4 145.565 43.1867 146.418 41.32C147.271 39.4533 148.525 38 150.178 36.96C151.858 35.92 153.898 35.4 156.298 35.4C159.738 35.4 162.365 36.48 164.178 38.64C165.991 40.7733 166.898 43.9067 166.898 48.04V49.32H150.418C150.551 51.5067 151.111 53.2667 152.098 54.6C153.111 55.9333 154.538 56.6 156.378 56.6C157.765 56.6 158.871 56.2 159.698 55.4C160.551 54.6 161.138 53.5733 161.458 52.32H166.618C166.325 53.8667 165.765 55.2667 164.938 56.52C164.138 57.7467 163.031 58.7333 161.618 59.48C160.205 60.2267 158.458 60.6 156.378 60.6ZM150.458 45.72H161.618C161.511 43.6667 160.991 42.08 160.058 40.96C159.151 39.84 157.885 39.28 156.258 39.28C154.578 39.28 153.245 39.8267 152.258 40.92C151.271 42.0133 150.671 43.6133 150.458 45.72ZM190.864 60.6C187.078 60.6 184.238 59.4667 182.344 57.2C180.478 54.9067 179.544 51.84 179.544 48C179.544 44.16 180.478 41.1067 182.344 38.84C184.238 36.5467 187.078 35.4 190.864 35.4C194.704 35.4 197.558 36.5467 199.424 38.84C201.291 41.1067 202.224 44.16 202.224 48C202.224 51.84 201.291 54.9067 199.424 57.2C197.558 59.4667 194.704 60.6 190.864 60.6ZM190.904 56.68C192.878 56.68 194.318 55.9333 195.224 54.44C196.158 52.92 196.624 50.7733 196.624 48C196.624 45.2267 196.158 43.0933 195.224 41.6C194.318 40.08 192.878 39.32 190.904 39.32C188.904 39.32 187.438 40.08 186.504 41.6C185.598 43.0933 185.144 45.2267 185.144 48C185.144 50.7733 185.598 52.92 186.504 54.44C187.438 55.9333 188.904 56.68 190.904 56.68ZM214.686 60.6C211.939 60.6 209.912 59.7467 208.606 58.04C207.299 56.3333 206.646 54.0933 206.646 51.32V36H212.046V50.32C212.046 52.16 212.379 53.5867 213.046 54.6C213.712 55.6133 214.766 56.12 216.206 56.12C217.992 56.12 219.366 55.4267 220.326 54.04C221.286 52.6533 221.766 50.96 221.766 48.96V36H227.166V60H222.326V56.4H221.366C220.939 57.6533 220.179 58.6667 219.086 59.44C217.992 60.2133 216.526 60.6 214.686 60.6ZM233.544 60V36H238.424V40.24H239.384C239.544 39.52 239.837 38.8133 240.264 38.12C240.69 37.4267 241.344 36.8667 242.224 36.44C243.13 35.9867 244.357 35.76 245.904 35.76H246.944V40.72H245.464C243.144 40.72 241.477 41.32 240.464 42.52C239.45 43.72 238.944 45.5467 238.944 48V60H233.544ZM260.966 68V36H265.886V39.12H266.846C267.352 38.1333 268.139 37.28 269.206 36.56C270.299 35.84 271.752 35.48 273.566 35.48C275.672 35.48 277.432 36.0133 278.846 37.08C280.286 38.12 281.366 39.5867 282.086 41.48C282.832 43.3467 283.206 45.5333 283.206 48.04C283.206 50.52 282.832 52.7067 282.086 54.6C281.366 56.4667 280.286 57.92 278.846 58.96C277.432 60 275.686 60.52 273.606 60.52C272.006 60.52 270.699 60.2267 269.686 59.64C268.672 59.0533 267.886 58.2533 267.326 57.24H266.366V68H260.966ZM272.246 56.44C273.952 56.44 275.272 55.72 276.206 54.28C277.139 52.84 277.606 50.7467 277.606 48C277.606 45.2533 277.139 43.16 276.206 41.72C275.272 40.28 273.952 39.56 272.246 39.56C270.432 39.56 268.992 40.3333 267.926 41.88C266.859 43.4 266.326 45.44 266.326 48C266.326 50.56 266.859 52.6133 267.926 54.16C268.992 55.68 270.432 56.44 272.246 56.44ZM296.046 60.52C293.912 60.52 292.126 60 290.686 58.96C289.246 57.8933 288.152 56.4133 287.406 54.52C286.686 52.6267 286.326 50.44 286.326 47.96C286.326 45.4533 286.686 43.2667 287.406 41.4C288.152 39.5333 289.246 38.08 290.686 37.04C292.152 36 293.952 35.48 296.086 35.48C297.819 35.48 299.219 35.8267 300.286 36.52C301.379 37.2133 302.179 38.08 302.686 39.12H303.646V36H308.566V60H303.646V56.88H302.686C302.179 57.8667 301.379 58.72 300.286 59.44C299.219 60.16 297.806 60.52 296.046 60.52ZM297.286 56.44C299.099 56.44 300.539 55.68 301.606 54.16C302.672 52.6133 303.206 50.56 303.206 48C303.206 45.44 302.672 43.4 301.606 41.88C300.539 40.3333 299.099 39.56 297.286 39.56C295.579 39.56 294.259 40.28 293.326 41.72C292.392 43.16 291.926 45.2533 291.926 48C291.926 50.7467 292.392 52.84 293.326 54.28C294.259 55.72 295.579 56.44 297.286 56.44ZM314.966 60V36H319.846V40.24H320.806C320.966 39.52 321.259 38.8133 321.686 38.12C322.112 37.4267 322.766 36.8667 323.646 36.44C324.552 35.9867 325.779 35.76 327.326 35.76H328.366V40.72H326.886C324.566 40.72 322.899 41.32 321.886 42.52C320.872 43.72 320.366 45.5467 320.366 48V60H314.966ZM336.058 60C335.445 59.28 334.951 58.4133 334.578 57.4C334.231 56.3867 334.058 54.8667 334.058 52.84V39.96H330.778V36H334.138V30H339.418V36H343.378V39.96H339.458V52.16C339.458 54.2933 339.685 55.92 340.138 57.04C340.618 58.1333 341.191 59.04 341.858 59.76V60H336.058ZM347.778 60V36H352.698V39.6H353.658C354.138 38.3467 354.898 37.3333 355.938 36.56C357.005 35.7867 358.458 35.4 360.298 35.4C363.045 35.4 365.058 36.2533 366.338 37.96C367.645 39.64 368.298 41.88 368.298 44.68V60H362.898V45.68C362.898 43.8133 362.565 42.3867 361.898 41.4C361.231 40.3867 360.178 39.88 358.738 39.88C356.978 39.88 355.605 40.5733 354.618 41.96C353.658 43.32 353.178 45.0133 353.178 47.04V60H347.778ZM383.956 60.6C380.303 60.6 377.516 59.4667 375.596 57.2C373.676 54.9067 372.716 51.8267 372.716 47.96C372.716 45.4 373.143 43.1867 373.996 41.32C374.85 39.4533 376.103 38 377.756 36.96C379.436 35.92 381.476 35.4 383.876 35.4C387.316 35.4 389.943 36.48 391.756 38.64C393.57 40.7733 394.476 43.9067 394.476 48.04V49.32H377.996C378.13 51.5067 378.69 53.2667 379.676 54.6C380.69 55.9333 382.116 56.6 383.956 56.6C385.343 56.6 386.45 56.2 387.276 55.4C388.13 54.6 388.716 53.5733 389.036 52.32H394.196C393.903 53.8667 393.343 55.2667 392.516 56.52C391.716 57.7467 390.61 58.7333 389.196 59.48C387.783 60.2267 386.036 60.6 383.956 60.6ZM378.036 45.72H389.196C389.09 43.6667 388.57 42.08 387.636 40.96C386.73 39.84 385.463 39.28 383.836 39.28C382.156 39.28 380.823 39.8267 379.836 40.92C378.85 42.0133 378.25 43.6133 378.036 45.72ZM399.153 60V36H404.033V40.24H404.993C405.153 39.52 405.446 38.8133 405.873 38.12C406.3 37.4267 406.953 36.8667 407.833 36.44C408.74 35.9867 409.966 35.76 411.513 35.76H412.553V40.72H411.073C408.753 40.72 407.086 41.32 406.073 42.52C405.06 43.72 404.553 45.5467 404.553 48V60H399.153Z" fill="#0223B5"/>
<path d="M436.554 19.4148L430.458 22.7527M430.912 1.00034L422.287 14.7755" stroke="#0223B5" stroke-width="1.45542"/>
<path d="M31.2741 19.0827C42.3316 7.11353 74.6923 6.76076 85.1253 18.362" stroke="#0223B5" stroke-width="1.70118"/>
</svg>
