<svg width="430" height="72" viewBox="0 0 430 72" fill="none" xmlns="http://www.w3.org/2000/svg">
<path d="M18.4442 57.384C14.9562 57.384 12.0282 56.648 9.66019 55.176C7.32419 53.704 5.56419 51.672 4.38019 49.08C3.19619 46.488 2.60419 43.496 2.60419 40.104C2.60419 36.712 3.19619 33.704 4.38019 31.08C5.59619 28.456 7.37219 26.408 9.70819 24.936C12.0762 23.432 15.0042 22.68 18.4922 22.68C21.0202 22.68 23.2282 23.096 25.1162 23.928C27.0042 24.728 28.5242 25.88 29.6762 27.384C30.8602 28.856 31.6442 30.616 32.0282 32.664H27.0362C26.5562 31.032 25.5802 29.736 24.1082 28.776C22.6362 27.816 20.7482 27.336 18.4442 27.336C15.8842 27.336 13.8202 27.928 12.2522 29.112C10.7162 30.296 9.59619 31.848 8.89219 33.768C8.18819 35.656 7.83619 37.704 7.83619 39.912C7.83619 42.184 8.20419 44.296 8.94019 46.248C9.67619 48.2 10.8442 49.768 12.4442 50.952C14.0442 52.136 16.0922 52.728 18.5882 52.728C20.1242 52.728 21.4842 52.52 22.6682 52.104C23.8522 51.656 24.8442 51.032 25.6442 50.232C26.4442 49.4 26.9882 48.44 27.2762 47.352H32.6042C32.1882 49.432 31.3402 51.224 30.0602 52.728C28.7802 54.232 27.1642 55.384 25.2122 56.184C23.2602 56.984 21.0042 57.384 18.4442 57.384ZM44.1557 57V36.12H35.6117V31.704H57.6437V36.12H49.0997V57H44.1557ZM69.0467 57.288C67.9267 57.288 66.8387 57.144 65.7827 56.856C64.7267 56.536 63.7827 56.072 62.9507 55.464C62.1187 54.824 61.4467 54.04 60.9347 53.112C60.4547 52.152 60.2147 51.032 60.2147 49.752C60.2147 48.216 60.5027 46.952 61.0787 45.96C61.6867 44.936 62.4867 44.152 63.4787 43.608C64.4707 43.032 65.6067 42.632 66.8867 42.408C68.1987 42.152 69.5587 42.024 70.9667 42.024H77.1587C77.1587 40.776 76.9667 39.688 76.5827 38.76C76.1987 37.8 75.5907 37.064 74.7587 36.552C73.9587 36.008 72.8867 35.736 71.5427 35.736C70.7427 35.736 69.9747 35.832 69.2387 36.024C68.5347 36.184 67.9267 36.456 67.4147 36.84C66.9027 37.224 66.5507 37.736 66.3587 38.376H61.1747C61.3667 37.16 61.7987 36.12 62.4707 35.256C63.1427 34.36 63.9747 33.624 64.9667 33.048C65.9587 32.472 67.0147 32.056 68.1347 31.8C69.2867 31.512 70.4547 31.368 71.6387 31.368C74.0707 31.368 76.0387 31.848 77.5427 32.808C79.0787 33.768 80.1987 35.144 80.9027 36.936C81.6067 38.728 81.9587 40.856 81.9587 43.32V57H77.6867L77.4947 53.88C76.7587 54.808 75.9107 55.528 74.9507 56.04C74.0227 56.52 73.0467 56.84 72.0227 57C70.9987 57.192 70.0067 57.288 69.0467 57.288ZM69.9107 53.112C71.3827 53.112 72.6627 52.872 73.7507 52.392C74.8387 51.88 75.6707 51.16 76.2467 50.232C76.8547 49.272 77.1587 48.136 77.1587 46.824V45.816H72.6467C71.7187 45.816 70.8067 45.848 69.9107 45.912C69.0147 45.944 68.1987 46.072 67.4627 46.296C66.7587 46.488 66.1987 46.824 65.7827 47.304C65.3667 47.784 65.1587 48.472 65.1587 49.368C65.1587 50.232 65.3827 50.936 65.8307 51.48C66.2787 52.024 66.8707 52.44 67.6067 52.728C68.3427 52.984 69.1107 53.112 69.9107 53.112ZM87.8912 57V31.704H92.8352V42.36H104.499V31.704H109.443V57H104.499V46.728H92.8352V57H87.8912ZM115.501 57V31.704H120.541V40.824H125.965C127.469 40.824 128.813 40.952 129.997 41.208C131.213 41.464 132.253 41.896 133.117 42.504C134.013 43.08 134.701 43.88 135.181 44.904C135.661 45.896 135.901 47.16 135.901 48.696C135.901 50.136 135.645 51.384 135.133 52.44C134.621 53.496 133.901 54.36 132.973 55.032C132.077 55.704 131.005 56.2 129.757 56.52C128.541 56.84 127.213 57 125.773 57H115.501ZM120.541 52.68H123.277C124.269 52.68 125.213 52.648 126.109 52.584C127.005 52.52 127.821 52.376 128.557 52.152C129.293 51.896 129.869 51.512 130.285 51C130.733 50.456 130.957 49.736 130.957 48.84C130.957 47.944 130.781 47.256 130.429 46.776C130.077 46.296 129.613 45.928 129.037 45.672C128.493 45.416 127.885 45.256 127.213 45.192C126.573 45.128 125.901 45.096 125.197 45.096H120.541V52.68ZM154.032 57V31.704H175.68V57H170.736V36.12H158.976V57H154.032ZM189.703 57.288C188.583 57.288 187.495 57.144 186.439 56.856C185.383 56.536 184.439 56.072 183.607 55.464C182.775 54.824 182.103 54.04 181.591 53.112C181.111 52.152 180.871 51.032 180.871 49.752C180.871 48.216 181.159 46.952 181.735 45.96C182.343 44.936 183.143 44.152 184.135 43.608C185.127 43.032 186.263 42.632 187.543 42.408C188.855 42.152 190.215 42.024 191.623 42.024H197.815C197.815 40.776 197.623 39.688 197.239 38.76C196.855 37.8 196.247 37.064 195.415 36.552C194.615 36.008 193.543 35.736 192.199 35.736C191.399 35.736 190.631 35.832 189.895 36.024C189.191 36.184 188.583 36.456 188.071 36.84C187.559 37.224 187.207 37.736 187.015 38.376H181.831C182.023 37.16 182.455 36.12 183.127 35.256C183.799 34.36 184.631 33.624 185.623 33.048C186.615 32.472 187.671 32.056 188.791 31.8C189.943 31.512 191.111 31.368 192.295 31.368C194.727 31.368 196.695 31.848 198.199 32.808C199.735 33.768 200.855 35.144 201.559 36.936C202.263 38.728 202.615 40.856 202.615 43.32V57H198.343L198.151 53.88C197.415 54.808 196.567 55.528 195.607 56.04C194.679 56.52 193.703 56.84 192.679 57C191.655 57.192 190.663 57.288 189.703 57.288ZM190.567 53.112C192.039 53.112 193.319 52.872 194.407 52.392C195.495 51.88 196.327 51.16 196.903 50.232C197.511 49.272 197.815 48.136 197.815 46.824V45.816H193.303C192.375 45.816 191.463 45.848 190.567 45.912C189.671 45.944 188.855 46.072 188.119 46.296C187.415 46.488 186.855 46.824 186.439 47.304C186.023 47.784 185.815 48.472 185.815 49.368C185.815 50.232 186.039 50.936 186.487 51.48C186.935 52.024 187.527 52.44 188.263 52.728C188.999 52.984 189.767 53.112 190.567 53.112ZM208.547 66.216V31.704H213.251L213.491 35.352C214.387 34.008 215.571 33.016 217.043 32.376C218.515 31.704 220.083 31.368 221.747 31.368C224.243 31.368 226.307 31.944 227.939 33.096C229.571 34.248 230.787 35.8 231.587 37.752C232.387 39.704 232.787 41.912 232.787 44.376C232.787 46.84 232.371 49.048 231.539 51C230.739 52.952 229.491 54.488 227.795 55.608C226.131 56.728 224.003 57.288 221.411 57.288C220.163 57.288 219.043 57.16 218.051 56.904C217.059 56.648 216.195 56.28 215.459 55.8C214.723 55.288 214.067 54.744 213.491 54.168V66.216H208.547ZM220.835 52.872C222.563 52.872 223.939 52.488 224.963 51.72C225.987 50.92 226.723 49.88 227.171 48.6C227.619 47.32 227.843 45.928 227.843 44.424C227.843 42.856 227.603 41.432 227.123 40.152C226.675 38.84 225.923 37.8 224.867 37.032C223.843 36.232 222.467 35.832 220.739 35.832C219.171 35.832 217.843 36.232 216.755 37.032C215.667 37.8 214.835 38.84 214.259 40.152C213.715 41.464 213.443 42.888 213.443 44.424C213.443 45.992 213.699 47.432 214.211 48.744C214.755 50.024 215.571 51.032 216.659 51.768C217.779 52.504 219.171 52.872 220.835 52.872ZM243.656 57V36.12H235.112V31.704H257.144V36.12H248.6V57H243.656ZM260.579 57V31.704H265.523V42.36H277.187V31.704H282.131V57H277.187V46.728H265.523V57H260.579ZM299.324 57.288C296.668 57.288 294.444 56.744 292.652 55.656C290.86 54.568 289.5 53.064 288.572 51.144C287.676 49.192 287.228 46.952 287.228 44.424C287.228 41.864 287.692 39.608 288.62 37.656C289.58 35.704 290.956 34.168 292.748 33.048C294.572 31.928 296.764 31.368 299.324 31.368C301.212 31.368 302.86 31.72 304.268 32.424C305.708 33.096 306.908 34.04 307.868 35.256C308.86 36.44 309.58 37.784 310.028 39.288C310.476 40.792 310.684 42.376 310.652 44.04C310.62 44.392 310.588 44.728 310.556 45.048C310.556 45.368 310.54 45.704 310.508 46.056H292.22C292.316 47.336 292.636 48.504 293.18 49.56C293.756 50.616 294.556 51.464 295.58 52.104C296.604 52.712 297.868 53.016 299.372 53.016C300.204 53.016 301.004 52.92 301.772 52.728C302.572 52.504 303.276 52.168 303.884 51.72C304.524 51.24 304.972 50.632 305.228 49.896H310.22C309.804 51.592 309.052 53 307.964 54.12C306.908 55.208 305.612 56.008 304.076 56.52C302.572 57.032 300.988 57.288 299.324 57.288ZM292.316 42.12H305.756C305.724 40.872 305.436 39.768 304.892 38.808C304.348 37.816 303.596 37.048 302.636 36.504C301.676 35.928 300.524 35.64 299.18 35.64C297.708 35.64 296.476 35.944 295.484 36.552C294.524 37.16 293.772 37.96 293.228 38.952C292.716 39.912 292.412 40.968 292.316 42.12ZM315.751 66.216V31.704H320.455L320.695 35.352C321.591 34.008 322.775 33.016 324.247 32.376C325.719 31.704 327.287 31.368 328.951 31.368C331.447 31.368 333.511 31.944 335.143 33.096C336.775 34.248 337.991 35.8 338.791 37.752C339.591 39.704 339.991 41.912 339.991 44.376C339.991 46.84 339.575 49.048 338.743 51C337.943 52.952 336.695 54.488 334.999 55.608C333.335 56.728 331.207 57.288 328.615 57.288C327.367 57.288 326.247 57.16 325.255 56.904C324.263 56.648 323.399 56.28 322.663 55.8C321.927 55.288 321.271 54.744 320.695 54.168V66.216H315.751ZM328.039 52.872C329.767 52.872 331.143 52.488 332.167 51.72C333.191 50.92 333.927 49.88 334.375 48.6C334.823 47.32 335.047 45.928 335.047 44.424C335.047 42.856 334.807 41.432 334.327 40.152C333.879 38.84 333.127 37.8 332.071 37.032C331.047 36.232 329.671 35.832 327.943 35.832C326.375 35.832 325.047 36.232 323.959 37.032C322.871 37.8 322.039 38.84 321.463 40.152C320.919 41.464 320.647 42.888 320.647 44.424C320.647 45.992 320.903 47.432 321.415 48.744C321.959 50.024 322.775 51.032 323.863 51.768C324.983 52.504 326.375 52.872 328.039 52.872ZM356.187 57.288C353.563 57.288 351.339 56.76 349.515 55.704C347.691 54.616 346.299 53.096 345.339 51.144C344.411 49.192 343.947 46.936 343.947 44.376C343.947 41.784 344.411 39.528 345.339 37.608C346.299 35.656 347.691 34.136 349.515 33.048C351.339 31.928 353.579 31.368 356.235 31.368C358.859 31.368 361.083 31.928 362.907 33.048C364.731 34.136 366.107 35.656 367.035 37.608C367.963 39.56 368.427 41.832 368.427 44.424C368.427 46.952 367.947 49.192 366.987 51.144C366.059 53.096 364.683 54.616 362.859 55.704C361.067 56.76 358.843 57.288 356.187 57.288ZM356.187 52.872C357.915 52.872 359.307 52.488 360.363 51.72C361.451 50.952 362.251 49.928 362.763 48.648C363.275 47.368 363.531 45.96 363.531 44.424C363.531 42.888 363.275 41.48 362.763 40.2C362.251 38.888 361.451 37.848 360.363 37.08C359.307 36.28 357.915 35.88 356.187 35.88C354.491 35.88 353.099 36.28 352.011 37.08C350.923 37.848 350.123 38.872 349.611 40.152C349.131 41.432 348.891 42.856 348.891 44.424C348.891 45.96 349.131 47.368 349.611 48.648C350.123 49.928 350.923 50.952 352.011 51.72C353.099 52.488 354.491 52.872 356.187 52.872ZM373.501 57V31.704H379.837L387.613 43.8L395.245 31.704H401.485V57H396.541V37.704L388.237 50.952H386.797L378.445 37.656V57H373.501Z" fill="#0223B5"/>
<path d="M422.554 19.4148L416.458 22.7527M416.912 1.00034L408.287 14.7755" stroke="#0223B5" stroke-width="1.45542"/>
<path d="M47.2741 19.0827C58.3316 7.11353 90.6923 6.76076 101.125 18.362" stroke="#0223B5" stroke-width="1.70118"/>
</svg>
