<svg width="70" height="70" viewBox="0 0 70 70" fill="none" xmlns="http://www.w3.org/2000/svg">
<path d="M35 61.25C49.4975 61.25 61.25 49.4975 61.25 35C61.25 20.5025 49.4975 8.75 35 8.75C20.5025 8.75 8.75 20.5025 8.75 35C8.75 49.4975 20.5025 61.25 35 61.25Z" stroke="#6482FE" stroke-width="2.5" stroke-linecap="round" stroke-linejoin="round"/>
<path d="M42.2917 26.4931L41.8725 26.1438C40.824 25.2702 39.5027 24.7917 38.138 24.7917H31.3542C28.5352 24.7917 26.25 27.077 26.25 29.8959C26.25 32.7149 28.5352 35.0001 31.3542 35.0001H38.6458C41.4648 35.0001 43.75 37.2853 43.75 40.1042C43.75 42.9232 41.4648 45.2084 38.6458 45.2084H30.3683C28.8496 45.2084 27.3908 44.616 26.302 43.5576L26.25 43.5071" stroke="#6482FE" stroke-width="2.5" stroke-linecap="round" stroke-linejoin="round"/>
<path d="M35 23.3334V20.4167" stroke="#6482FE" stroke-width="2.5" stroke-linecap="round" stroke-linejoin="round"/>
<path d="M35 49.5834V46.6667" stroke="#6482FE" stroke-width="2.5" stroke-linecap="round" stroke-linejoin="round"/>
</svg>
