<svg width="67" height="67" viewBox="0 0 67 67" fill="none" xmlns="http://www.w3.org/2000/svg">
<g clip-path="url(#clip0_60_82)">
<path d="M12.94 51.805L16.9097 33.0363C17.0629 32.3122 16.6 31.6011 15.876 31.4479C15.1519 31.2948 14.4409 31.7576 14.2877 32.4817L10.3179 51.2504C10.1648 51.9744 10.6276 52.6855 11.3517 52.8387C12.0757 52.9918 12.7868 52.529 12.94 51.805ZM50.3044 33.0406L54.3465 51.8234C54.5023 52.5469 55.215 53.0072 55.9385 52.8515C56.6619 52.6958 57.1223 51.9831 56.9666 51.2596L52.9244 32.4768C52.7687 31.7533 52.056 31.293 51.3325 31.4487C50.6091 31.6045 50.1487 32.3172 50.3044 33.0406Z" fill="#6482FE"/>
<path d="M63.3 25.3148L35.0638 13.6176C34.3696 13.3298 33.0637 13.327 32.3676 13.6118L3.78321 25.3148L32.3682 37.0173C33.0633 37.3023 34.3692 37.2995 35.0644 37.0118L63.3 25.3148ZM36.0899 39.4878C34.7415 40.0461 32.7015 40.0505 31.3522 39.4973L1.59891 27.3165C-0.53325 26.4424 -0.53325 24.1859 1.5995 23.313L31.3523 11.1317C32.7029 10.5789 34.7428 10.5832 36.0899 11.1419L65.4571 23.3076C67.5813 24.1871 67.5813 26.4425 65.4574 27.322L36.0899 39.4878ZM54.9777 50.3864C48.5656 54.1529 41.2591 56.1675 33.6549 56.1675C26.0413 56.1675 18.7264 54.1479 12.3088 50.3728C11.6709 49.9975 10.8496 50.2105 10.4744 50.8483C10.0991 51.4862 10.312 52.3075 10.9499 52.6827C17.7766 56.6986 25.5602 58.8475 33.6549 58.8475C41.7397 58.8475 49.5142 56.7038 56.3351 52.6972C56.9732 52.3224 57.1867 51.5012 56.8118 50.8631C56.437 50.225 55.6158 50.0115 54.9777 50.3864Z" fill="#6482FE"/>
<path d="M64.3775 25.0629V44.4453C64.3775 45.1854 64.9774 45.7853 65.7175 45.7853C66.4576 45.7853 67.0575 45.1854 67.0575 44.4453V25.0629C67.0575 24.3228 66.4576 23.7229 65.7175 23.7229C64.9774 23.7229 64.3775 24.3228 64.3775 25.0629Z" fill="#6482FE"/>
</g>
<defs>
<clipPath id="clip0_60_82">
<rect width="67" height="67" fill="white"/>
</clipPath>
</defs>
</svg>
