<svg width="67" height="67" viewBox="0 0 67 67" fill="none" xmlns="http://www.w3.org/2000/svg">
<g clip-path="url(#clip0_60_99)">
<path d="M65.8834 4.46662H34.6166V1.11662C34.6166 0.446623 34.17 0 33.5 0C32.83 0 32.3834 0.446623 32.3834 1.11662V4.46662H1.11662C0.446623 4.46662 0 4.91338 0 5.58338V50.25C0 50.92 0.446623 51.3666 1.11662 51.3666H30.82L17.085 65.1016C16.6384 65.5482 16.6384 66.2182 17.085 66.665C17.3084 66.8884 17.5316 67 17.8666 67C18.2016 67 18.425 66.8884 18.6482 66.665L32.3832 52.93V63.65C32.3832 64.32 32.8299 64.7666 33.4999 64.7666C34.1699 64.7666 34.6165 64.32 34.6165 63.65V52.93L48.3515 66.665C48.5749 66.8884 48.7981 67 49.1331 67C49.4681 67 49.6915 66.8884 49.9147 66.665C50.3614 66.2184 50.3614 65.5484 49.9147 65.1016L36.1797 51.3666H65.8831C66.5531 51.3666 66.9997 50.92 66.9997 50.25V5.58338C67 4.91338 66.5534 4.46662 65.8834 4.46662ZM64.7666 49.1334H2.23338V6.7H64.7668L64.7666 49.1334Z" fill="#6482FE"/>
<path d="M7.81663 21.2167C7.81663 21.8867 8.26325 22.3333 8.93325 22.3333C9.60325 22.3333 10.0499 21.8867 10.0499 21.2167V13.8467L12.2833 11.6133L14.5166 13.8467V21.2167C14.5166 21.8867 14.9633 22.3333 15.6333 22.3333C16.3033 22.3333 16.7499 21.8867 16.7499 21.2167V16.0801L18.2015 17.5317C18.4249 17.7551 18.6481 17.8667 18.9831 17.8667C19.3181 17.8667 19.5415 17.7551 19.7647 17.5317C20.2114 17.0851 20.2114 16.4151 19.7647 15.9683L16.6058 12.8094C16.5156 12.6472 16.3858 12.5173 16.2237 12.4273L13.0647 9.26832C12.6181 8.82169 11.9481 8.82169 11.5014 9.26832L8.34242 12.4273C8.18029 12.5174 8.05047 12.6472 7.96031 12.8094L4.80137 15.9683C4.35474 16.4149 4.35474 17.0849 4.80137 17.5317C5.24799 17.9783 5.91799 17.9783 6.36474 17.5317L7.81637 16.0801V21.2167H7.81663Z" fill="#6482FE"/>
<path d="M30.0119 26.7821C30.1018 26.4302 30.15 26.0621 30.15 25.6832C30.15 23.2265 28.14 21.2165 25.6834 21.2165C23.2268 21.2165 21.2168 23.2265 21.2168 25.6832C21.2168 26.2728 21.3336 26.8363 21.5436 27.3528L13.453 35.2508C12.7831 34.8487 12.0009 34.6164 11.1668 34.6164C8.71013 34.6164 6.70013 36.6264 6.70013 39.083C6.70013 41.5397 8.71 43.5499 11.1666 43.5499C13.6233 43.5499 15.6333 41.5399 15.6333 39.0833C15.6333 38.2582 15.4057 37.4839 15.0114 36.8189L22.8711 29.1464C23.6403 29.7729 24.6196 30.1501 25.6831 30.1501C26.9924 30.1501 28.1744 29.5791 28.9933 28.674L37.9838 33.1219C37.9732 33.2467 37.9665 33.3726 37.9665 33.5001C37.9665 35.9567 39.9765 37.9667 42.4331 37.9667C44.8898 37.9667 46.8997 35.9567 46.8997 33.5001C46.8997 32.668 46.6687 31.8877 46.2684 31.2189L53.4936 23.8997C54.1751 24.3218 54.9768 24.5665 55.8331 24.5665C58.2897 24.5665 60.2998 22.5565 60.2998 20.0999C60.2998 17.6433 58.2897 15.6333 55.8331 15.6333C53.3765 15.6333 51.3665 17.6433 51.3665 20.0999C51.3665 20.9026 51.5822 21.6569 51.9568 22.3096L44.7026 29.658C44.0364 29.2619 43.2603 29.0333 42.4331 29.0333C40.869 29.0333 39.487 29.8488 38.6884 31.0748L30.0119 26.7821ZM11.1666 41.3165C9.93825 41.3165 8.93325 40.3115 8.93325 39.0832C8.93325 37.8548 9.93825 36.8498 11.1666 36.8498C11.7226 36.8498 12.2317 37.0572 12.6237 37.3965C12.6561 37.4389 12.6907 37.4805 12.73 37.5198C12.7748 37.5645 12.8196 37.6035 12.8653 37.6393C13.1978 38.0295 13.4 38.5334 13.4 39.0832C13.4 40.3115 12.395 41.3165 11.1666 41.3165ZM25.6834 27.9165C24.455 27.9165 23.45 26.9115 23.45 25.6832C23.45 24.4548 24.455 23.4498 25.6834 23.4498C26.9118 23.4498 27.9168 24.4548 27.9168 25.6832C27.9168 26.9115 26.9116 27.9165 25.6834 27.9165ZM55.8334 17.8665C57.0618 17.8665 58.0668 18.8715 58.0668 20.0999C58.0668 21.3283 57.0618 22.3333 55.8334 22.3333C54.605 22.3333 53.6 21.3283 53.6 20.0999C53.6 18.8715 54.605 17.8665 55.8334 17.8665ZM42.4334 31.2665C42.9894 31.2665 43.4985 31.474 43.8905 31.8133C43.9228 31.8557 43.9575 31.8973 43.9968 31.9365C44.0415 31.9813 44.0864 32.0203 44.1321 32.056C44.4645 32.4462 44.6668 32.9502 44.6668 33.4999C44.6668 34.7283 43.6618 35.7333 42.4334 35.7333C41.205 35.7333 40.2 34.7283 40.2 33.4999C40.2 32.2715 41.205 31.2665 42.4334 31.2665Z" fill="#6482FE"/>
<path d="M55.8334 41.3166C55.8334 41.9866 56.28 42.4332 56.95 42.4332H61.4166C62.0866 42.4332 62.5332 41.9866 62.5332 41.3166C62.5332 40.6466 62.0866 40.2 61.4166 40.2H56.95C56.28 40.2 55.8334 40.6466 55.8334 41.3166Z" fill="#6482FE"/>
<path d="M61.4166 44.6665H52.4833C51.8133 44.6665 51.3666 45.1131 51.3666 45.7831C51.3666 46.4531 51.8133 46.8997 52.4833 46.8997H61.4166C62.0866 46.8997 62.5333 46.4531 62.5333 45.7831C62.5333 45.1131 62.0866 44.6665 61.4166 44.6665Z" fill="#6482FE"/>
</g>
<defs>
<clipPath id="clip0_60_99">
<rect width="67" height="67" fill="white"/>
</clipPath>
</defs>
</svg>
