<svg width="83" height="83" viewBox="0 0 83 83" fill="none" xmlns="http://www.w3.org/2000/svg">
<path opacity="0.2" d="M82.8643 3.19473C82.7421 1.48183 81.3563 0.126127 79.6337 0.0476527H79.6255C62.7223 -0.658613 47.6802 6.48251 34.2576 21.6929H8.83068C7.24659 21.6929 5.91791 22.7726 5.54023 24.2339L5.5348 24.2582L0.100534 45.9062C0.0353227 46.1524 0 46.4339 0 46.7261C0 48.5932 1.52159 50.1086 3.39641 50.1086H15.5909C15.0366 51.1937 14.4769 52.2409 13.928 53.3639C13.7106 53.7969 13.5857 54.3056 13.5857 54.8441C13.5857 55.7777 13.9661 56.6246 14.5801 57.2362L25.4487 68.0602C26.0627 68.6717 26.9132 69.0479 27.8479 69.0479C28.4076 69.0479 28.9347 68.9126 29.4021 68.6744L29.3831 68.6826C30.4645 68.136 31.5323 67.5758 32.6056 67.0211V79.6175C32.6083 81.4846 34.1272 82.9973 36.002 83C36.0047 83 36.0074 83 36.0129 83C36.3009 83 36.5807 82.9621 36.8497 82.8945L36.828 82.8999L58.565 77.4879C60.054 77.109 61.1382 75.7831 61.1382 74.2082V48.9098C75.0336 37.3444 84.2392 22.9404 82.8643 3.19473ZM7.74926 43.3409L11.4853 28.4579H28.7717C25.6035 32.7145 22.4435 37.5771 19.5851 42.6346L19.2183 43.3409H7.74926ZM54.3453 71.5645L39.4011 75.2852V63.3923C45.2783 60.156 50.161 57.0847 54.8589 53.7752L54.3453 54.1189V71.5645ZM28.5081 61.5333L21.104 54.1649C36.8443 22.8186 54.9105 7.27267 76.2074 6.77206C76.3731 31.448 57.3152 46.7342 28.5054 61.5306L28.5081 61.5333ZM60.4589 13.5749C55.5816 13.5749 51.6282 17.5122 51.6282 22.3694C51.6282 27.2267 55.5816 31.1639 60.4589 31.1639C65.3361 31.1639 69.2896 27.2267 69.2896 22.3694C69.2841 17.5149 65.3334 13.5803 60.4589 13.5749ZM60.4589 24.3989C59.334 24.3989 58.421 23.4897 58.421 22.3694C58.421 21.2491 59.334 20.3399 60.4589 20.3399C61.5838 20.3399 62.4967 21.2491 62.4967 22.3694C62.4967 23.4897 61.5838 24.3989 60.4589 24.3989ZM10.1431 62.2883L8.83339 62.2829C7.41233 62.2829 6.19506 63.1515 5.68696 64.3854L5.6788 64.4071L0.244542 77.9371C0.0896653 78.3105 0 78.7408 0 79.1954C0 81.0625 1.52159 82.5779 3.39641 82.5779C3.84746 82.5779 4.2822 82.4886 4.67618 82.3262L4.65445 82.3343L18.251 76.9331C19.4628 76.4434 20.316 75.3096 20.3839 73.9701V73.962C20.441 72.885 20.5143 71.9487 20.5741 71.145C20.7426 70.5172 20.8404 69.7974 20.8404 69.056C20.8404 67.2565 20.2725 65.5896 19.3052 64.2231L19.3242 64.2501C17.5445 62.3208 15.0719 62.3099 10.1431 62.2883ZM13.8057 70.6228C13.784 70.8825 13.7623 71.1558 13.7432 71.4427L9.49366 73.1339L11.1321 69.0587C12.1863 69.0695 13.189 69.0804 13.9144 69.1209C13.89 69.581 13.8465 70.114 13.8057 70.6228Z" fill="#0223B5"/>
</svg>
