<svg width="67" height="67" viewBox="0 0 67 67" fill="none" xmlns="http://www.w3.org/2000/svg">
<path fill-rule="evenodd" clip-rule="evenodd" d="M33.5 58.6249C47.3761 58.6249 58.625 47.376 58.625 33.4999C58.625 19.6238 47.3761 8.37492 33.5 8.37492C19.6239 8.37492 8.37499 19.6238 8.37499 33.4999C8.37499 47.376 19.6239 58.6249 33.5 58.6249ZM33.5 61.4166C48.9179 61.4166 61.4167 48.9179 61.4167 33.4999C61.4167 18.082 48.9179 5.58325 33.5 5.58325C18.082 5.58325 5.58333 18.082 5.58333 33.4999C5.58333 48.9179 18.082 61.4166 33.5 61.4166Z" fill="#6482FE"/>
<path fill-rule="evenodd" clip-rule="evenodd" d="M48.3948 22.6941C48.9665 23.2112 49.0106 24.0939 48.4933 24.6655L29.851 45.2703L18.5778 34.5097C18.0202 33.9773 17.9997 33.0937 18.5319 32.5361C19.0643 31.9785 19.9478 31.9579 20.5055 32.4903L29.7046 41.2712L46.4233 22.7926C46.9405 22.221 47.8232 22.1768 48.3948 22.6941Z" fill="#6482FE"/>
</svg>
