<svg width="282" height="282" viewBox="0 0 282 282" fill="none" xmlns="http://www.w3.org/2000/svg">
<path d="M218.662 78.1113C204.216 60.0399 183.951 47.5363 161.32 42.7311C138.689 37.9259 115.092 41.1163 94.5498 51.7588C74.0074 62.4013 57.7907 79.8373 48.6627 101.096C39.5347 122.355 38.0603 146.121 44.4906 168.345C50.921 190.569 64.8583 209.875 83.9277 222.975C102.997 236.075 126.019 242.158 149.07 240.187C172.122 238.216 193.777 228.313 210.345 212.165C226.914 196.018 237.371 174.625 239.934 151.632" stroke="#0223B5" stroke-width="5"/>
<path d="M118.292 187.465C143.766 191.291 189.667 193.522 184.244 173.205C188.545 168.568 189.744 165.562 186.917 158.5C190.203 156.384 193.156 148.169 188.254 140.593C194.493 127.305 183.089 124.046 154.387 127.305C144.583 125.078 163.299 72.4945 142.801 86.3083C139.834 115.242 132.983 128.86 118.292 135.084M118.292 187.465H95.1193C94.0796 187.911 92 178.998 92 139.783C102.766 139.3 111.393 138.007 118.292 135.084M118.292 187.465V135.084" stroke="#0223B5" stroke-width="5"/>
</svg>
