<svg width="273" height="213" viewBox="0 0 273 213" fill="none" xmlns="http://www.w3.org/2000/svg">
<path d="M3.00003 58.0812V209.581H270.5V58.0812V16.0812H3.00003" stroke="#0223B5" stroke-width="5"/>
<circle cx="70.5" cy="79.5812" r="38" stroke="#0223B5" stroke-width="5"/>
<circle cx="51.5" cy="162.581" r="19" stroke="#0223B5" stroke-width="5"/>
<circle cx="109.5" cy="162.581" r="19" stroke="#0223B5" stroke-width="5"/>
<circle cx="167.5" cy="162.581" r="19" stroke="#0223B5" stroke-width="5"/>
<path d="M37 101.005C49.5 92.0809 62.5 88.0809 62.5 88.0809C62.5 88.0809 53.946 70.1324 59 62.5824C64.2194 54.7853 78.5 56.0803 83 61.0812C89.0209 67.7724 80.5 88.0809 80.5 88.0809L104 99.5817" stroke="#0223B5" stroke-width="5"/>
<path d="M131 58.0812H228M131 78.0812H185" stroke="#0223B5" stroke-width="5"/>
<path d="M35.5 148.581L52 172.581L81.5 136.081M96 148.581L109.5 172.581L138 136.081" stroke="#0223B5" stroke-width="5"/>
<path d="M244.5 17.0804C244.5 -6.91997 262 -2.41876 255.5 47.5803" stroke="#0223B5" stroke-width="5"/>
</svg>
