<svg width="28" height="20" viewBox="0 0 28 20" fill="none" xmlns="http://www.w3.org/2000/svg">
<rect width="28" height="20" rx="2" fill="white"/>
<mask id="mask0_571_3773" style="mask-type:luminance" maskUnits="userSpaceOnUse" x="0" y="0" width="28" height="20">
<rect width="28" height="20" rx="2" fill="white"/>
</mask>
<g mask="url(#mask0_571_3773)">
<rect width="28" height="20" fill="#E92434"/>
<path fill-rule="evenodd" clip-rule="evenodd" d="M19.0204 10.7684L17.7956 12.2534L17.879 10.3303L16.0882 9.62432L17.943 9.10939L18.0611 7.18808L19.1239 8.79296L20.9877 8.31151L19.7898 9.81831L20.8236 11.4421L19.0204 10.7684Z" fill="white"/>
<path fill-rule="evenodd" clip-rule="evenodd" d="M17.4028 13.6845C16.3049 15.0937 14.5918 16 12.667 16C9.35328 16 6.66699 13.3137 6.66699 10C6.66699 6.68629 9.35328 4 12.667 4C14.5916 4 16.3046 4.90618 17.4025 6.31515C16.5554 5.69977 15.4906 5.33325 14.334 5.33325C11.5726 5.33325 9.33398 7.42259 9.33398 9.99992C9.33398 12.5772 11.5726 14.6666 14.334 14.6666C15.4907 14.6666 16.5557 14.3 17.4028 13.6845Z" fill="white"/>
</g>
</svg>
