<svg width="491" height="109" viewBox="0 0 491 109" fill="none" xmlns="http://www.w3.org/2000/svg">
<path d="M4.84583 73V31.4H12.3125V73H4.84583ZM8.6325 27.3467C7.31694 27.3467 6.30361 26.9911 5.5925 26.28C4.88139 25.5333 4.52583 24.5733 4.52583 23.4C4.52583 22.2267 4.88139 21.2844 5.5925 20.5733C6.30361 19.8267 7.31694 19.4533 8.6325 19.4533C9.98361 19.4533 10.9969 19.8267 11.6725 20.5733C12.3836 21.2844 12.7392 22.2267 12.7392 23.4C12.7392 24.5733 12.3836 25.5333 11.6725 26.28C10.9969 26.9911 9.98361 27.3467 8.6325 27.3467ZM21.3017 73V31.4H28.7683V66.9733H47.275V73H21.3017ZM53.3017 73V31.4H60.7683V47.6667H80.1817V31.4H87.6483V73H80.1817V53.8H60.7683V73H53.3017ZM92.7025 73V72.68L105.716 31.4H117.556L130.623 72.68V73H122.889L112.062 37.2133H110.783L99.8492 73H92.7025ZM102.302 61.7467L104.062 55.88H118.729L120.489 61.7467H102.302ZM135.677 73V31.4H149.01L158.397 67.08H159.997L169.49 31.4H182.823V73H175.677V37.64H174.343L165.117 73H152.903L143.677 37.64H142.343V73H135.677ZM213.609 73L200.702 31.72V31.4H208.383L219.316 66.6H220.596L231.369 31.4H238.623V31.72L225.716 73H213.609ZM243.677 73V31.4H271.197V37.4267H251.09V47.88H266.77V53.5867H251.09V66.9733H271.517V73H243.677ZM278.614 73V31.4H295.201C298.756 31.4 301.619 31.9156 303.788 32.9467C305.956 33.9422 307.539 35.2933 308.534 37C309.565 38.7067 310.081 40.6622 310.081 42.8667C310.081 45.5333 309.352 47.8089 307.894 49.6933C306.436 51.5778 304.303 52.8933 301.494 53.64L311.201 72.68V73H303.308L294.188 54.7067H285.974V73H278.614ZM285.974 49.1067H294.401C297.139 49.1067 299.165 48.6267 300.481 47.6667C301.796 46.7067 302.454 45.1956 302.454 43.1333C302.454 41.0356 301.779 39.5244 300.427 38.6C299.112 37.64 297.103 37.16 294.401 37.16H285.974V49.1067ZM316.846 73V31.4H324.312V73H316.846ZM320.633 27.3467C319.317 27.3467 318.304 26.9911 317.593 26.28C316.881 25.5333 316.526 24.5733 316.526 23.4C316.526 22.2267 316.881 21.2844 317.593 20.5733C318.304 19.8267 319.317 19.4533 320.633 19.4533C321.984 19.4533 322.997 19.8267 323.673 20.5733C324.384 21.2844 324.739 22.2267 324.739 23.4C324.739 24.5733 324.384 25.5333 323.673 26.28C322.997 26.9911 321.984 27.3467 320.633 27.3467ZM333.302 73V31.4H346.475L361.195 67.08H362.475V31.4H369.248V73H356.022L341.355 37.32H340.075V73H333.302Z" fill="#0223B5"/>
<path d="M5.9 103.12C4.79333 103.12 3.87333 102.893 3.14 102.44C2.42 101.973 1.88 101.333 1.52 100.52C1.16 99.7067 0.98 98.7867 0.98 97.76C0.98 96.7467 1.16667 95.8333 1.54 95.02C1.91333 94.1933 2.47333 93.54 3.22 93.06C3.96667 92.58 4.91333 92.34 6.06 92.34C6.74 92.34 7.35333 92.4533 7.9 92.68C8.44667 92.8933 8.90667 93.22 9.28 93.66C9.65333 94.0867 9.92 94.62 10.08 95.26H8.62C8.40667 94.66 8.06 94.2333 7.58 93.98C7.11333 93.7133 6.57333 93.58 5.96 93.58C5.12 93.58 4.44 93.78 3.92 94.18C3.4 94.5667 3.01333 95.08 2.76 95.72C2.52 96.3467 2.4 97.0267 2.4 97.76C2.4 98.5067 2.52 99.1933 2.76 99.82C3.01333 100.447 3.4 100.947 3.92 101.32C4.45333 101.693 5.13333 101.88 5.96 101.88C6.56 101.88 7.12 101.753 7.64 101.5C8.16 101.247 8.52 100.813 8.72 100.2H10.2C10.04 100.867 9.74 101.42 9.3 101.86C8.87333 102.287 8.36 102.607 7.76 102.82C7.17333 103.02 6.55333 103.12 5.9 103.12ZM5.34 108C5.19333 108.013 5.03333 108.027 4.86 108.04C4.7 108.053 4.52667 108.053 4.34 108.04V107.14C4.56667 107.14 4.80667 107.133 5.06 107.12C5.31333 107.107 5.56 107.06 5.8 106.98C6.04 106.913 6.23333 106.793 6.38 106.62C6.54 106.46 6.62 106.24 6.62 105.96C6.62 105.733 6.55333 105.56 6.42 105.44C6.28667 105.333 6.12667 105.26 5.94 105.22C5.76667 105.18 5.60667 105.16 5.46 105.16C5.31333 105.16 5.14 105.173 4.94 105.2C4.74 105.227 4.56 105.273 4.4 105.34L5.04 102.8H6.04L5.64 104.32C5.74667 104.307 5.84 104.293 5.92 104.28C6.01333 104.28 6.1 104.28 6.18 104.28C6.67333 104.28 7.05333 104.42 7.32 104.7C7.6 104.98 7.74 105.373 7.74 105.88C7.74 106.36 7.62667 106.747 7.4 107.04C7.18667 107.333 6.9 107.553 6.54 107.7C6.18 107.86 5.78 107.96 5.34 108ZM15.7752 103.12C15.3218 103.12 14.8752 103.067 14.4352 102.96C13.9952 102.84 13.5952 102.66 13.2352 102.42C12.8752 102.167 12.5818 101.847 12.3552 101.46C12.1418 101.06 12.0352 100.593 12.0352 100.06C12.0352 99.46 12.1418 98.96 12.3552 98.56C12.5818 98.16 12.8818 97.84 13.2552 97.6C13.6285 97.36 14.0552 97.1933 14.5352 97.1C15.0152 96.9933 15.5218 96.94 16.0552 96.94H19.3952C19.3952 96.2867 19.3018 95.7133 19.1152 95.22C18.9418 94.7133 18.6485 94.3133 18.2352 94.02C17.8352 93.7267 17.2952 93.58 16.6152 93.58C16.2552 93.58 15.9085 93.62 15.5752 93.7C15.2418 93.78 14.9418 93.9133 14.6752 94.1C14.4218 94.2733 14.2218 94.5133 14.0752 94.82H12.5552C12.6752 94.3533 12.8752 93.96 13.1552 93.64C13.4485 93.32 13.7885 93.0667 14.1752 92.88C14.5618 92.68 14.9685 92.54 15.3952 92.46C15.8218 92.38 16.2285 92.34 16.6152 92.34C18.1085 92.34 19.1752 92.7867 19.8152 93.68C20.4552 94.5733 20.7752 95.7733 20.7752 97.28V103H19.5552L19.4952 101.56C19.2018 101.96 18.8485 102.273 18.4352 102.5C18.0352 102.727 17.6085 102.887 17.1552 102.98C16.7018 103.073 16.2418 103.12 15.7752 103.12ZM15.8752 101.88C16.5285 101.88 17.1218 101.773 17.6552 101.56C18.1885 101.333 18.6085 101 18.9152 100.56C19.2352 100.12 19.3952 99.5733 19.3952 98.92V98.12H17.0352C16.6218 98.12 16.2018 98.1333 15.7752 98.16C15.3485 98.1733 14.9618 98.24 14.6152 98.36C14.2685 98.4667 13.9885 98.6467 13.7752 98.9C13.5618 99.14 13.4552 99.4867 13.4552 99.94C13.4552 100.393 13.5685 100.767 13.7952 101.06C14.0218 101.34 14.3218 101.547 14.6952 101.68C15.0685 101.813 15.4618 101.88 15.8752 101.88ZM23.5094 103V88.86H24.9094V103H23.5094ZM27.6886 103V92.46H29.1086V103H27.6886ZM35.6483 103.12C35.1816 103.12 34.7149 103.08 34.2483 103C33.7816 102.907 33.3416 102.753 32.9283 102.54C32.5149 102.327 32.1616 102.04 31.8683 101.68C31.5883 101.32 31.3949 100.88 31.2883 100.36H32.7483C32.9083 100.747 33.1483 101.053 33.4683 101.28C33.8016 101.493 34.1683 101.647 34.5683 101.74C34.9683 101.833 35.3483 101.88 35.7083 101.88C35.9616 101.88 36.2416 101.867 36.5483 101.84C36.8683 101.8 37.1683 101.72 37.4483 101.6C37.7283 101.48 37.9549 101.307 38.1283 101.08C38.3149 100.853 38.4083 100.553 38.4083 100.18C38.4083 99.8467 38.3283 99.58 38.1683 99.38C38.0216 99.18 37.8216 99.02 37.5683 98.9C37.3149 98.78 37.0349 98.6933 36.7283 98.64C36.2483 98.5333 35.7349 98.4333 35.1883 98.34C34.6416 98.2467 34.1483 98.08 33.7083 97.84C33.4416 97.7467 33.1816 97.6333 32.9283 97.5C32.6883 97.3533 32.4683 97.18 32.2683 96.98C32.0683 96.78 31.9083 96.54 31.7883 96.26C31.6683 95.98 31.6083 95.6533 31.6083 95.28C31.6083 94.76 31.7149 94.3133 31.9283 93.94C32.1416 93.5667 32.4283 93.26 32.7883 93.02C33.1616 92.78 33.5883 92.6067 34.0683 92.5C34.5483 92.3933 35.0549 92.34 35.5883 92.34C36.2283 92.34 36.8149 92.44 37.3483 92.64C37.8949 92.8267 38.3483 93.1133 38.7083 93.5C39.0816 93.8867 39.3149 94.3733 39.4083 94.96H38.0883C37.9416 94.52 37.6349 94.18 37.1683 93.94C36.7016 93.7 36.1616 93.58 35.5483 93.58C35.3216 93.58 35.0616 93.6 34.7683 93.64C34.4749 93.68 34.1949 93.76 33.9283 93.88C33.6616 93.9867 33.4416 94.1533 33.2683 94.38C33.0949 94.5933 33.0083 94.8867 33.0083 95.26C33.0083 95.6067 33.0949 95.8933 33.2683 96.12C33.4416 96.3467 33.6816 96.5267 33.9883 96.66C34.2949 96.78 34.6283 96.8867 34.9883 96.98C35.4283 97.0733 35.9083 97.1667 36.4283 97.26C36.9616 97.34 37.4016 97.4333 37.7483 97.54C38.1883 97.6733 38.5616 97.8533 38.8683 98.08C39.1749 98.3067 39.4083 98.5867 39.5683 98.92C39.7283 99.24 39.8083 99.6267 39.8083 100.08C39.8083 100.693 39.6883 101.2 39.4483 101.6C39.2083 101.987 38.8816 102.293 38.4683 102.52C38.0683 102.733 37.6216 102.887 37.1283 102.98C36.6349 103.073 36.1416 103.12 35.6483 103.12ZM35.3683 108C35.2216 108.013 35.0616 108.027 34.8883 108.04C34.7283 108.053 34.5549 108.053 34.3683 108.04V107.14C34.5949 107.14 34.8349 107.133 35.0883 107.12C35.3416 107.107 35.5883 107.06 35.8283 106.98C36.0683 106.913 36.2616 106.793 36.4083 106.62C36.5683 106.46 36.6483 106.24 36.6483 105.96C36.6483 105.733 36.5816 105.56 36.4483 105.44C36.3149 105.333 36.1549 105.26 35.9683 105.22C35.7949 105.18 35.6349 105.16 35.4883 105.16C35.3416 105.16 35.1683 105.173 34.9683 105.2C34.7683 105.227 34.5883 105.273 34.4283 105.34L35.0683 102.8H36.0683L35.6683 104.32C35.7749 104.307 35.8683 104.293 35.9483 104.28C36.0416 104.28 36.1283 104.28 36.2083 104.28C36.7016 104.28 37.0816 104.42 37.3483 104.7C37.6283 104.98 37.7683 105.373 37.7683 105.88C37.7683 106.36 37.6549 106.747 37.4283 107.04C37.2149 107.333 36.9283 107.553 36.5683 107.7C36.2083 107.86 35.8083 107.96 35.3683 108ZM45.365 103.12C44.9117 103.12 44.465 103.067 44.025 102.96C43.585 102.84 43.185 102.66 42.825 102.42C42.465 102.167 42.1717 101.847 41.945 101.46C41.7317 101.06 41.625 100.593 41.625 100.06C41.625 99.46 41.7317 98.96 41.945 98.56C42.1717 98.16 42.4717 97.84 42.845 97.6C43.2183 97.36 43.645 97.1933 44.125 97.1C44.605 96.9933 45.1117 96.94 45.645 96.94H48.985C48.985 96.2867 48.8917 95.7133 48.705 95.22C48.5317 94.7133 48.2383 94.3133 47.825 94.02C47.425 93.7267 46.885 93.58 46.205 93.58C45.845 93.58 45.4983 93.62 45.165 93.7C44.8317 93.78 44.5317 93.9133 44.265 94.1C44.0117 94.2733 43.8117 94.5133 43.665 94.82H42.145C42.265 94.3533 42.465 93.96 42.745 93.64C43.0383 93.32 43.3783 93.0667 43.765 92.88C44.1517 92.68 44.5583 92.54 44.985 92.46C45.4117 92.38 45.8183 92.34 46.205 92.34C47.6983 92.34 48.765 92.7867 49.405 93.68C50.045 94.5733 50.365 95.7733 50.365 97.28V103H49.145L49.085 101.56C48.7917 101.96 48.4383 102.273 48.025 102.5C47.625 102.727 47.1983 102.887 46.745 102.98C46.2917 103.073 45.8317 103.12 45.365 103.12ZM45.465 101.88C46.1183 101.88 46.7117 101.773 47.245 101.56C47.7783 101.333 48.1983 101 48.505 100.56C48.825 100.12 48.985 99.5733 48.985 98.92V98.12H46.625C46.2117 98.12 45.7917 98.1333 45.365 98.16C44.9383 98.1733 44.5517 98.24 44.205 98.36C43.8583 98.4667 43.5783 98.6467 43.365 98.9C43.1517 99.14 43.045 99.4867 43.045 99.94C43.045 100.393 43.1583 100.767 43.385 101.06C43.6117 101.34 43.9117 101.547 44.285 101.68C44.6583 101.813 45.0517 101.88 45.465 101.88ZM53.0792 103V92.46H54.4592L54.4992 94.22C54.7659 93.78 55.0926 93.4267 55.4792 93.16C55.8659 92.88 56.2926 92.6733 56.7592 92.54C57.2259 92.4067 57.6926 92.34 58.1592 92.34C59.1726 92.34 59.9726 92.5533 60.5592 92.98C61.1459 93.4067 61.5659 93.9867 61.8192 94.72C62.0726 95.44 62.1992 96.26 62.1992 97.18V103H60.7792V97.64C60.7792 97.12 60.7459 96.62 60.6792 96.14C60.6126 95.6467 60.4792 95.2067 60.2792 94.82C60.0926 94.4333 59.8126 94.1333 59.4392 93.92C59.0792 93.6933 58.5926 93.58 57.9792 93.58C57.2326 93.58 56.5926 93.78 56.0592 94.18C55.5392 94.58 55.1459 95.1133 54.8792 95.78C54.6259 96.4467 54.4992 97.1867 54.4992 98V103H53.0792ZM64.9156 103V88.86H66.3156V103H64.9156ZM72.4548 103.12C72.0015 103.12 71.5548 103.067 71.1148 102.96C70.6748 102.84 70.2748 102.66 69.9148 102.42C69.5548 102.167 69.2615 101.847 69.0348 101.46C68.8215 101.06 68.7148 100.593 68.7148 100.06C68.7148 99.46 68.8215 98.96 69.0348 98.56C69.2615 98.16 69.5615 97.84 69.9348 97.6C70.3082 97.36 70.7348 97.1933 71.2148 97.1C71.6948 96.9933 72.2015 96.94 72.7348 96.94H76.0748C76.0748 96.2867 75.9815 95.7133 75.7948 95.22C75.6215 94.7133 75.3282 94.3133 74.9148 94.02C74.5148 93.7267 73.9748 93.58 73.2948 93.58C72.9348 93.58 72.5882 93.62 72.2548 93.7C71.9215 93.78 71.6215 93.9133 71.3548 94.1C71.1015 94.2733 70.9015 94.5133 70.7548 94.82H69.2348C69.3548 94.3533 69.5548 93.96 69.8348 93.64C70.1282 93.32 70.4682 93.0667 70.8548 92.88C71.2415 92.68 71.6482 92.54 72.0748 92.46C72.5015 92.38 72.9082 92.34 73.2948 92.34C74.7882 92.34 75.8548 92.7867 76.4948 93.68C77.1348 94.5733 77.4548 95.7733 77.4548 97.28V103H76.2348L76.1748 101.56C75.8815 101.96 75.5282 102.273 75.1148 102.5C74.7148 102.727 74.2882 102.887 73.8348 102.98C73.3815 103.073 72.9215 103.12 72.4548 103.12ZM72.5548 101.88C73.2082 101.88 73.8015 101.773 74.3348 101.56C74.8682 101.333 75.2882 101 75.5948 100.56C75.9148 100.12 76.0748 99.5733 76.0748 98.92V98.12H73.7148C73.3015 98.12 72.8815 98.1333 72.4548 98.16C72.0282 98.1733 71.6415 98.24 71.2948 98.36C70.9482 98.4667 70.6682 98.6467 70.4548 98.9C70.2415 99.14 70.1348 99.4867 70.1348 99.94C70.1348 100.393 70.2482 100.767 70.4748 101.06C70.7015 101.34 71.0015 101.547 71.3748 101.68C71.7482 101.813 72.1415 101.88 72.5548 101.88ZM80.1691 103V92.46H81.5291L81.5891 94.34C81.8557 93.8333 82.1824 93.44 82.5691 93.16C82.9691 92.88 83.4024 92.68 83.8691 92.56C84.3491 92.4267 84.8357 92.36 85.3291 92.36C85.4091 92.36 85.4824 92.36 85.5491 92.36C85.6157 92.36 85.6891 92.36 85.7691 92.36V93.66H85.3091C84.4291 93.66 83.7091 93.8467 83.1491 94.22C82.6024 94.5933 82.2024 95.1 81.9491 95.74C81.7091 96.38 81.5891 97.0933 81.5891 97.88V103H80.1691ZM87.5323 103V92.46H88.9523V103H87.5323ZM91.712 103V92.46H93.092L93.132 94.22C93.3987 93.78 93.7254 93.4267 94.112 93.16C94.4987 92.88 94.9254 92.6733 95.392 92.54C95.8587 92.4067 96.3254 92.34 96.792 92.34C97.8054 92.34 98.6054 92.5533 99.192 92.98C99.7787 93.4067 100.199 93.9867 100.452 94.72C100.705 95.44 100.832 96.26 100.832 97.18V103H99.412V97.64C99.412 97.12 99.3787 96.62 99.312 96.14C99.2454 95.6467 99.112 95.2067 98.912 94.82C98.7254 94.4333 98.4454 94.1333 98.072 93.92C97.712 93.6933 97.2254 93.58 96.612 93.58C95.8654 93.58 95.2254 93.78 94.692 94.18C94.172 94.58 93.7787 95.1133 93.512 95.78C93.2587 96.4467 93.132 97.1867 93.132 98V103H91.712ZM103.528 103V92.46H104.948V103H103.528ZM107.308 103V101.76L113.968 93.7H107.348V92.46H115.728V93.68L109.008 101.78H115.728V103H107.308ZM118.079 103V92.46H119.499V103H118.079ZM122.259 103V92.46H123.639L123.679 94.22C123.946 93.78 124.272 93.4267 124.659 93.16C125.046 92.88 125.472 92.6733 125.939 92.54C126.406 92.4067 126.872 92.34 127.339 92.34C128.352 92.34 129.152 92.5533 129.739 92.98C130.326 93.4067 130.746 93.9867 130.999 94.72C131.252 95.44 131.379 96.26 131.379 97.18V103H129.959V97.64C129.959 97.12 129.926 96.62 129.859 96.14C129.792 95.6467 129.659 95.2067 129.459 94.82C129.272 94.4333 128.992 94.1333 128.619 93.92C128.259 93.6933 127.772 93.58 127.159 93.58C126.412 93.58 125.772 93.78 125.239 94.18C124.719 94.58 124.326 95.1133 124.059 95.78C123.806 96.4467 123.679 97.1867 123.679 98V103H122.259ZM139.466 103V88.86H140.886V94.24C141.153 93.8133 141.479 93.46 141.866 93.18C142.253 92.9 142.673 92.6933 143.126 92.56C143.579 92.4133 144.053 92.34 144.546 92.34C145.573 92.34 146.379 92.5533 146.966 92.98C147.553 93.4067 147.966 93.9867 148.206 94.72C148.459 95.44 148.586 96.26 148.586 97.18V103H147.166V97.7C147.166 97.1933 147.133 96.7 147.066 96.22C146.999 95.7267 146.866 95.28 146.666 94.88C146.479 94.48 146.193 94.1667 145.806 93.94C145.433 93.7 144.933 93.58 144.306 93.58C143.706 93.58 143.186 93.7067 142.746 93.96C142.306 94.2 141.946 94.5333 141.666 94.96C141.399 95.3867 141.199 95.86 141.066 96.38C140.946 96.8867 140.886 97.4067 140.886 97.94V103H139.466ZM155.822 103.12C154.716 103.12 153.796 102.893 153.062 102.44C152.329 101.973 151.782 101.333 151.422 100.52C151.062 99.7067 150.882 98.78 150.882 97.74C150.882 96.7 151.069 95.78 151.442 94.98C151.816 94.1667 152.369 93.5267 153.102 93.06C153.836 92.58 154.736 92.34 155.802 92.34C156.602 92.34 157.289 92.4867 157.862 92.78C158.449 93.0733 158.929 93.4733 159.302 93.98C159.689 94.4867 159.969 95.0467 160.142 95.66C160.329 96.2733 160.422 96.9 160.422 97.54C160.409 97.66 160.402 97.78 160.402 97.9C160.402 98.0067 160.396 98.1133 160.382 98.22H152.302C152.356 98.9267 152.516 99.56 152.782 100.12C153.049 100.667 153.436 101.1 153.942 101.42C154.462 101.727 155.109 101.88 155.882 101.88C156.242 101.88 156.609 101.84 156.982 101.76C157.356 101.667 157.696 101.513 158.002 101.3C158.309 101.073 158.536 100.78 158.682 100.42H160.162C159.976 101.047 159.662 101.56 159.222 101.96C158.782 102.36 158.262 102.653 157.662 102.84C157.062 103.027 156.449 103.12 155.822 103.12ZM152.342 97H158.982C158.969 96.3467 158.829 95.7667 158.562 95.26C158.296 94.74 157.929 94.3333 157.462 94.04C156.996 93.7333 156.422 93.58 155.742 93.58C155.036 93.58 154.436 93.74 153.942 94.06C153.449 94.38 153.069 94.8 152.802 95.32C152.549 95.84 152.396 96.4 152.342 97ZM167.006 103.12C165.926 103.12 165.046 102.88 164.366 102.4C163.686 101.92 163.186 101.28 162.866 100.48C162.546 99.6667 162.386 98.76 162.386 97.76C162.386 96.72 162.56 95.7933 162.906 94.98C163.266 94.1533 163.793 93.5067 164.486 93.04C165.193 92.5733 166.073 92.34 167.126 92.34C167.566 92.34 168.006 92.4 168.446 92.52C168.886 92.6267 169.306 92.8 169.706 93.04C170.106 93.28 170.446 93.6067 170.726 94.02V88.86H172.146V103H170.786L170.726 101.2C170.46 101.667 170.126 102.04 169.726 102.32C169.326 102.6 168.893 102.807 168.426 102.94C167.96 103.06 167.486 103.12 167.006 103.12ZM167.186 101.88C167.96 101.88 168.606 101.693 169.126 101.32C169.66 100.933 170.06 100.42 170.326 99.78C170.606 99.14 170.746 98.44 170.746 97.68C170.746 96.9067 170.613 96.2133 170.346 95.6C170.093 94.9867 169.706 94.5 169.186 94.14C168.666 93.7667 168.006 93.58 167.206 93.58C166.393 93.58 165.733 93.7733 165.226 94.16C164.733 94.5333 164.373 95.04 164.146 95.68C163.92 96.3067 163.806 97 163.806 97.76C163.806 98.3067 163.86 98.8267 163.966 99.32C164.086 99.8133 164.273 100.253 164.526 100.64C164.793 101.027 165.14 101.333 165.566 101.56C166.006 101.773 166.546 101.88 167.186 101.88ZM179.455 103.12C178.348 103.12 177.428 102.893 176.695 102.44C175.962 101.973 175.415 101.333 175.055 100.52C174.695 99.7067 174.515 98.78 174.515 97.74C174.515 96.7 174.702 95.78 175.075 94.98C175.448 94.1667 176.002 93.5267 176.735 93.06C177.468 92.58 178.368 92.34 179.435 92.34C180.235 92.34 180.922 92.4867 181.495 92.78C182.082 93.0733 182.562 93.4733 182.935 93.98C183.322 94.4867 183.602 95.0467 183.775 95.66C183.962 96.2733 184.055 96.9 184.055 97.54C184.042 97.66 184.035 97.78 184.035 97.9C184.035 98.0067 184.028 98.1133 184.015 98.22H175.935C175.988 98.9267 176.148 99.56 176.415 100.12C176.682 100.667 177.068 101.1 177.575 101.42C178.095 101.727 178.742 101.88 179.515 101.88C179.875 101.88 180.242 101.84 180.615 101.76C180.988 101.667 181.328 101.513 181.635 101.3C181.942 101.073 182.168 100.78 182.315 100.42H183.795C183.608 101.047 183.295 101.56 182.855 101.96C182.415 102.36 181.895 102.653 181.295 102.84C180.695 103.027 180.082 103.12 179.455 103.12ZM175.975 97H182.615C182.602 96.3467 182.462 95.7667 182.195 95.26C181.928 94.74 181.562 94.3333 181.095 94.04C180.628 93.7333 180.055 93.58 179.375 93.58C178.668 93.58 178.068 93.74 177.575 94.06C177.082 94.38 176.702 94.8 176.435 95.32C176.182 95.84 176.028 96.4 175.975 97ZM187.284 103V93.7H185.524V92.46H187.284V91.26C187.284 90.4867 187.384 89.8467 187.584 89.34C187.784 88.82 188.124 88.4333 188.604 88.18C189.084 87.9267 189.737 87.8 190.564 87.8H191.644V89.04H190.704C190.144 89.04 189.717 89.1333 189.424 89.32C189.144 89.4933 188.95 89.76 188.844 90.12C188.75 90.48 188.704 90.92 188.704 91.44V92.46H191.644V93.7H188.704V103H187.284ZM193.529 103V88.86H194.929V103H193.529ZM202.248 103.12C201.141 103.12 200.221 102.893 199.488 102.44C198.755 101.973 198.208 101.333 197.848 100.52C197.488 99.7067 197.308 98.78 197.308 97.74C197.308 96.7 197.495 95.78 197.868 94.98C198.241 94.1667 198.795 93.5267 199.528 93.06C200.261 92.58 201.161 92.34 202.228 92.34C203.028 92.34 203.715 92.4867 204.288 92.78C204.875 93.0733 205.355 93.4733 205.728 93.98C206.115 94.4867 206.395 95.0467 206.568 95.66C206.755 96.2733 206.848 96.9 206.848 97.54C206.835 97.66 206.828 97.78 206.828 97.9C206.828 98.0067 206.821 98.1133 206.808 98.22H198.728C198.781 98.9267 198.941 99.56 199.208 100.12C199.475 100.667 199.861 101.1 200.368 101.42C200.888 101.727 201.535 101.88 202.308 101.88C202.668 101.88 203.035 101.84 203.408 101.76C203.781 101.667 204.121 101.513 204.428 101.3C204.735 101.073 204.961 100.78 205.108 100.42H206.588C206.401 101.047 206.088 101.56 205.648 101.96C205.208 102.36 204.688 102.653 204.088 102.84C203.488 103.027 202.875 103.12 202.248 103.12ZM198.768 97H205.408C205.395 96.3467 205.255 95.7667 204.988 95.26C204.721 94.74 204.355 94.3333 203.888 94.04C203.421 93.7333 202.848 93.58 202.168 93.58C201.461 93.58 200.861 93.74 200.368 94.06C199.875 94.38 199.495 94.8 199.228 95.32C198.975 95.84 198.821 96.4 198.768 97ZM209.212 103V92.46H210.572L210.632 94.34C210.899 93.8333 211.225 93.44 211.612 93.16C212.012 92.88 212.445 92.68 212.912 92.56C213.392 92.4267 213.879 92.36 214.372 92.36C214.452 92.36 214.525 92.36 214.592 92.36C214.659 92.36 214.732 92.36 214.812 92.36V93.66H214.352C213.472 93.66 212.752 93.8467 212.192 94.22C211.645 94.5933 211.245 95.1 210.992 95.74C210.752 96.38 210.632 97.0933 210.632 97.88V103H209.212ZM216.575 103V92.46H217.995V103H216.575ZM217.275 90.76C216.969 90.76 216.722 90.6667 216.535 90.48C216.349 90.2933 216.255 90.0467 216.255 89.74C216.255 89.4333 216.349 89.1933 216.535 89.02C216.735 88.8333 216.982 88.74 217.275 88.74C217.555 88.74 217.795 88.8333 217.995 89.02C218.209 89.2067 218.315 89.4467 218.315 89.74C218.315 90.0467 218.215 90.2933 218.015 90.48C217.815 90.6667 217.569 90.76 217.275 90.76ZM220.755 103V92.46H222.135L222.175 94.22C222.442 93.78 222.768 93.4267 223.155 93.16C223.542 92.88 223.968 92.6733 224.435 92.54C224.902 92.4067 225.368 92.34 225.835 92.34C226.848 92.34 227.648 92.5533 228.235 92.98C228.822 93.4067 229.242 93.9867 229.495 94.72C229.748 95.44 229.875 96.26 229.875 97.18V103H228.455V97.64C228.455 97.12 228.422 96.62 228.355 96.14C228.288 95.6467 228.155 95.2067 227.955 94.82C227.768 94.4333 227.488 94.1333 227.115 93.92C226.755 93.6933 226.268 93.58 225.655 93.58C224.908 93.58 224.268 93.78 223.735 94.18C223.215 94.58 222.822 95.1133 222.555 95.78C222.302 96.4467 222.175 97.1867 222.175 98V103H220.755ZM237.111 103.12C236.005 103.12 235.085 102.893 234.351 102.44C233.618 101.973 233.071 101.333 232.711 100.52C232.351 99.7067 232.171 98.78 232.171 97.74C232.171 96.7 232.358 95.78 232.731 94.98C233.105 94.1667 233.658 93.5267 234.391 93.06C235.125 92.58 236.025 92.34 237.091 92.34C237.891 92.34 238.578 92.4867 239.151 92.78C239.738 93.0733 240.218 93.4733 240.591 93.98C240.978 94.4867 241.258 95.0467 241.431 95.66C241.618 96.2733 241.711 96.9 241.711 97.54C241.698 97.66 241.691 97.78 241.691 97.9C241.691 98.0067 241.685 98.1133 241.671 98.22H233.591C233.645 98.9267 233.805 99.56 234.071 100.12C234.338 100.667 234.725 101.1 235.231 101.42C235.751 101.727 236.398 101.88 237.171 101.88C237.531 101.88 237.898 101.84 238.271 101.76C238.645 101.667 238.985 101.513 239.291 101.3C239.598 101.073 239.825 100.78 239.971 100.42H241.451C241.265 101.047 240.951 101.56 240.511 101.96C240.071 102.36 239.551 102.653 238.951 102.84C238.351 103.027 237.738 103.12 237.111 103.12ZM233.631 97H240.271C240.258 96.3467 240.118 95.7667 239.851 95.26C239.585 94.74 239.218 94.3333 238.751 94.04C238.285 93.7333 237.711 93.58 237.031 93.58C236.325 93.58 235.725 93.74 235.231 94.06C234.738 94.38 234.358 94.8 234.091 95.32C233.838 95.84 233.685 96.4 233.631 97ZM253.806 103.12C252.339 103.12 251.239 102.727 250.506 101.94C249.786 101.153 249.426 99.98 249.426 98.42V92.46H250.846V98.38C250.846 99.0867 250.946 99.7067 251.146 100.24C251.359 100.76 251.679 101.167 252.106 101.46C252.546 101.74 253.113 101.88 253.806 101.88C254.513 101.88 255.086 101.74 255.526 101.46C255.979 101.18 256.306 100.78 256.506 100.26C256.706 99.7267 256.806 99.1 256.806 98.38V92.46H258.226V98.42C258.226 99.98 257.859 101.153 257.126 101.94C256.393 102.727 255.286 103.12 253.806 103.12ZM260.97 103V88.86H262.37V103H260.97ZM268.51 103.12C268.056 103.12 267.61 103.067 267.17 102.96C266.73 102.84 266.33 102.66 265.97 102.42C265.61 102.167 265.316 101.847 265.09 101.46C264.876 101.06 264.77 100.593 264.77 100.06C264.77 99.46 264.876 98.96 265.09 98.56C265.316 98.16 265.616 97.84 265.99 97.6C266.363 97.36 266.79 97.1933 267.27 97.1C267.75 96.9933 268.256 96.94 268.79 96.94H272.13C272.13 96.2867 272.036 95.7133 271.85 95.22C271.676 94.7133 271.383 94.3133 270.97 94.02C270.57 93.7267 270.03 93.58 269.35 93.58C268.99 93.58 268.643 93.62 268.31 93.7C267.976 93.78 267.676 93.9133 267.41 94.1C267.156 94.2733 266.956 94.5133 266.81 94.82H265.29C265.41 94.3533 265.61 93.96 265.89 93.64C266.183 93.32 266.523 93.0667 266.91 92.88C267.296 92.68 267.703 92.54 268.13 92.46C268.556 92.38 268.963 92.34 269.35 92.34C270.843 92.34 271.91 92.7867 272.55 93.68C273.19 94.5733 273.51 95.7733 273.51 97.28V103H272.29L272.23 101.56C271.936 101.96 271.583 102.273 271.17 102.5C270.77 102.727 270.343 102.887 269.89 102.98C269.436 103.073 268.976 103.12 268.51 103.12ZM268.61 101.88C269.263 101.88 269.856 101.773 270.39 101.56C270.923 101.333 271.343 101 271.65 100.56C271.97 100.12 272.13 99.5733 272.13 98.92V98.12H269.77C269.356 98.12 268.936 98.1333 268.51 98.16C268.083 98.1733 267.696 98.24 267.35 98.36C267.003 98.4667 266.723 98.6467 266.51 98.9C266.296 99.14 266.19 99.4867 266.19 99.94C266.19 100.393 266.303 100.767 266.53 101.06C266.756 101.34 267.056 101.547 267.43 101.68C267.803 101.813 268.196 101.88 268.61 101.88ZM280.004 103.12C279.537 103.12 279.07 103.08 278.604 103C278.137 102.907 277.697 102.753 277.284 102.54C276.87 102.327 276.517 102.04 276.224 101.68C275.944 101.32 275.75 100.88 275.644 100.36H277.104C277.264 100.747 277.504 101.053 277.824 101.28C278.157 101.493 278.524 101.647 278.924 101.74C279.324 101.833 279.704 101.88 280.064 101.88C280.317 101.88 280.597 101.867 280.904 101.84C281.224 101.8 281.524 101.72 281.804 101.6C282.084 101.48 282.31 101.307 282.484 101.08C282.67 100.853 282.764 100.553 282.764 100.18C282.764 99.8467 282.684 99.58 282.524 99.38C282.377 99.18 282.177 99.02 281.924 98.9C281.67 98.78 281.39 98.6933 281.084 98.64C280.604 98.5333 280.09 98.4333 279.544 98.34C278.997 98.2467 278.504 98.08 278.064 97.84C277.797 97.7467 277.537 97.6333 277.284 97.5C277.044 97.3533 276.824 97.18 276.624 96.98C276.424 96.78 276.264 96.54 276.144 96.26C276.024 95.98 275.964 95.6533 275.964 95.28C275.964 94.76 276.07 94.3133 276.284 93.94C276.497 93.5667 276.784 93.26 277.144 93.02C277.517 92.78 277.944 92.6067 278.424 92.5C278.904 92.3933 279.41 92.34 279.944 92.34C280.584 92.34 281.17 92.44 281.704 92.64C282.25 92.8267 282.704 93.1133 283.064 93.5C283.437 93.8867 283.67 94.3733 283.764 94.96H282.444C282.297 94.52 281.99 94.18 281.524 93.94C281.057 93.7 280.517 93.58 279.904 93.58C279.677 93.58 279.417 93.6 279.124 93.64C278.83 93.68 278.55 93.76 278.284 93.88C278.017 93.9867 277.797 94.1533 277.624 94.38C277.45 94.5933 277.364 94.8867 277.364 95.26C277.364 95.6067 277.45 95.8933 277.624 96.12C277.797 96.3467 278.037 96.5267 278.344 96.66C278.65 96.78 278.984 96.8867 279.344 96.98C279.784 97.0733 280.264 97.1667 280.784 97.26C281.317 97.34 281.757 97.4333 282.104 97.54C282.544 97.6733 282.917 97.8533 283.224 98.08C283.53 98.3067 283.764 98.5867 283.924 98.92C284.084 99.24 284.164 99.6267 284.164 100.08C284.164 100.693 284.044 101.2 283.804 101.6C283.564 101.987 283.237 102.293 282.824 102.52C282.424 102.733 281.977 102.887 281.484 102.98C280.99 103.073 280.497 103.12 280.004 103.12ZM279.724 108C279.577 108.013 279.417 108.027 279.244 108.04C279.084 108.053 278.91 108.053 278.724 108.04V107.14C278.95 107.14 279.19 107.133 279.444 107.12C279.697 107.107 279.944 107.06 280.184 106.98C280.424 106.913 280.617 106.793 280.764 106.62C280.924 106.46 281.004 106.24 281.004 105.96C281.004 105.733 280.937 105.56 280.804 105.44C280.67 105.333 280.51 105.26 280.324 105.22C280.15 105.18 279.99 105.16 279.844 105.16C279.697 105.16 279.524 105.173 279.324 105.2C279.124 105.227 278.944 105.273 278.784 105.34L279.424 102.8H280.424L280.024 104.32C280.13 104.307 280.224 104.293 280.304 104.28C280.397 104.28 280.484 104.28 280.564 104.28C281.057 104.28 281.437 104.42 281.704 104.7C281.984 104.98 282.124 105.373 282.124 105.88C282.124 106.36 282.01 106.747 281.784 107.04C281.57 107.333 281.284 107.553 280.924 107.7C280.564 107.86 280.164 107.96 279.724 108ZM286.36 103V92.46H287.72L287.76 93.96C288 93.5467 288.28 93.2267 288.6 93C288.934 92.76 289.287 92.5933 289.66 92.5C290.034 92.3933 290.407 92.34 290.78 92.34C291.527 92.34 292.14 92.52 292.62 92.88C293.114 93.24 293.467 93.7333 293.68 94.36C293.867 93.9867 294.107 93.6467 294.4 93.34C294.694 93.0333 295.054 92.7933 295.48 92.62C295.907 92.4333 296.394 92.34 296.94 92.34C297.714 92.34 298.34 92.5067 298.82 92.84C299.3 93.16 299.647 93.6 299.86 94.16C300.087 94.72 300.2 95.3533 300.2 96.06V103H298.78V96.82C298.78 96.4333 298.76 96.0533 298.72 95.68C298.68 95.2933 298.587 94.9467 298.44 94.64C298.294 94.32 298.074 94.0667 297.78 93.88C297.5 93.68 297.114 93.58 296.62 93.58C296.14 93.58 295.734 93.6933 295.4 93.92C295.08 94.1333 294.814 94.4267 294.6 94.8C294.4 95.16 294.254 95.56 294.16 96C294.08 96.4267 294.04 96.8467 294.04 97.26V103H292.62V96.96C292.62 96.6 292.594 96.2267 292.54 95.84C292.5 95.44 292.414 95.0667 292.28 94.72C292.147 94.3733 291.934 94.1 291.64 93.9C291.347 93.6867 290.96 93.58 290.48 93.58C289.787 93.58 289.24 93.7733 288.84 94.16C288.454 94.5333 288.18 95.0133 288.02 95.6C287.86 96.1733 287.78 96.76 287.78 97.36V103H286.36ZM306.244 103.12C305.791 103.12 305.344 103.067 304.904 102.96C304.464 102.84 304.064 102.66 303.704 102.42C303.344 102.167 303.051 101.847 302.824 101.46C302.611 101.06 302.504 100.593 302.504 100.06C302.504 99.46 302.611 98.96 302.824 98.56C303.051 98.16 303.351 97.84 303.724 97.6C304.097 97.36 304.524 97.1933 305.004 97.1C305.484 96.9933 305.991 96.94 306.524 96.94H309.864C309.864 96.2867 309.771 95.7133 309.584 95.22C309.411 94.7133 309.117 94.3133 308.704 94.02C308.304 93.7267 307.764 93.58 307.084 93.58C306.724 93.58 306.377 93.62 306.044 93.7C305.711 93.78 305.411 93.9133 305.144 94.1C304.891 94.2733 304.691 94.5133 304.544 94.82H303.024C303.144 94.3533 303.344 93.96 303.624 93.64C303.917 93.32 304.257 93.0667 304.644 92.88C305.031 92.68 305.437 92.54 305.864 92.46C306.291 92.38 306.697 92.34 307.084 92.34C308.577 92.34 309.644 92.7867 310.284 93.68C310.924 94.5733 311.244 95.7733 311.244 97.28V103H310.024L309.964 101.56C309.671 101.96 309.317 102.273 308.904 102.5C308.504 102.727 308.077 102.887 307.624 102.98C307.171 103.073 306.711 103.12 306.244 103.12ZM306.344 101.88C306.997 101.88 307.591 101.773 308.124 101.56C308.657 101.333 309.077 101 309.384 100.56C309.704 100.12 309.864 99.5733 309.864 98.92V98.12H307.504C307.091 98.12 306.671 98.1333 306.244 98.16C305.817 98.1733 305.431 98.24 305.084 98.36C304.737 98.4667 304.457 98.6467 304.244 98.9C304.031 99.14 303.924 99.4867 303.924 99.94C303.924 100.393 304.037 100.767 304.264 101.06C304.491 101.34 304.791 101.547 305.164 101.68C305.537 101.813 305.931 101.88 306.344 101.88ZM313.978 103V88.86H315.378V103H313.978ZM321.517 103.12C321.064 103.12 320.617 103.067 320.177 102.96C319.737 102.84 319.337 102.66 318.977 102.42C318.617 102.167 318.324 101.847 318.097 101.46C317.884 101.06 317.777 100.593 317.777 100.06C317.777 99.46 317.884 98.96 318.097 98.56C318.324 98.16 318.624 97.84 318.997 97.6C319.371 97.36 319.797 97.1933 320.277 97.1C320.757 96.9933 321.264 96.94 321.797 96.94H325.137C325.137 96.2867 325.044 95.7133 324.857 95.22C324.684 94.7133 324.391 94.3133 323.977 94.02C323.577 93.7267 323.037 93.58 322.357 93.58C321.997 93.58 321.651 93.62 321.317 93.7C320.984 93.78 320.684 93.9133 320.417 94.1C320.164 94.2733 319.964 94.5133 319.817 94.82H318.297C318.417 94.3533 318.617 93.96 318.897 93.64C319.191 93.32 319.531 93.0667 319.917 92.88C320.304 92.68 320.711 92.54 321.137 92.46C321.564 92.38 321.971 92.34 322.357 92.34C323.851 92.34 324.917 92.7867 325.557 93.68C326.197 94.5733 326.517 95.7733 326.517 97.28V103H325.297L325.237 101.56C324.944 101.96 324.591 102.273 324.177 102.5C323.777 102.727 323.351 102.887 322.897 102.98C322.444 103.073 321.984 103.12 321.517 103.12ZM321.617 101.88C322.271 101.88 322.864 101.773 323.397 101.56C323.931 101.333 324.351 101 324.657 100.56C324.977 100.12 325.137 99.5733 325.137 98.92V98.12H322.777C322.364 98.12 321.944 98.1333 321.517 98.16C321.091 98.1733 320.704 98.24 320.357 98.36C320.011 98.4667 319.731 98.6467 319.517 98.9C319.304 99.14 319.197 99.4867 319.197 99.94C319.197 100.393 319.311 100.767 319.537 101.06C319.764 101.34 320.064 101.547 320.437 101.68C320.811 101.813 321.204 101.88 321.617 101.88ZM329.232 103V92.46H330.592L330.652 94.34C330.918 93.8333 331.245 93.44 331.632 93.16C332.032 92.88 332.465 92.68 332.932 92.56C333.412 92.4267 333.898 92.36 334.392 92.36C334.472 92.36 334.545 92.36 334.612 92.36C334.678 92.36 334.752 92.36 334.832 92.36V93.66H334.372C333.492 93.66 332.772 93.8467 332.212 94.22C331.665 94.5933 331.265 95.1 331.012 95.74C330.772 96.38 330.652 97.0933 330.652 97.88V103H329.232ZM336.595 103V92.46H338.015V103H336.595ZM340.775 103V92.46H342.155L342.195 94.22C342.461 93.78 342.788 93.4267 343.175 93.16C343.561 92.88 343.988 92.6733 344.455 92.54C344.921 92.4067 345.388 92.34 345.855 92.34C346.868 92.34 347.668 92.5533 348.255 92.98C348.841 93.4067 349.261 93.9867 349.515 94.72C349.768 95.44 349.895 96.26 349.895 97.18V103H348.475V97.64C348.475 97.12 348.441 96.62 348.375 96.14C348.308 95.6467 348.175 95.2067 347.975 94.82C347.788 94.4333 347.508 94.1333 347.135 93.92C346.775 93.6933 346.288 93.58 345.675 93.58C344.928 93.58 344.288 93.78 343.755 94.18C343.235 94.58 342.841 95.1133 342.575 95.78C342.321 96.4467 342.195 97.1867 342.195 98V103H340.775ZM355.951 103.12C355.498 103.12 355.051 103.067 354.611 102.96C354.171 102.84 353.771 102.66 353.411 102.42C353.051 102.167 352.758 101.847 352.531 101.46C352.318 101.06 352.211 100.593 352.211 100.06C352.211 99.46 352.318 98.96 352.531 98.56C352.758 98.16 353.058 97.84 353.431 97.6C353.804 97.36 354.231 97.1933 354.711 97.1C355.191 96.9933 355.698 96.94 356.231 96.94H359.571C359.571 96.2867 359.478 95.7133 359.291 95.22C359.118 94.7133 358.824 94.3133 358.411 94.02C358.011 93.7267 357.471 93.58 356.791 93.58C356.431 93.58 356.084 93.62 355.751 93.7C355.418 93.78 355.118 93.9133 354.851 94.1C354.598 94.2733 354.398 94.5133 354.251 94.82H352.731C352.851 94.3533 353.051 93.96 353.331 93.64C353.624 93.32 353.964 93.0667 354.351 92.88C354.738 92.68 355.144 92.54 355.571 92.46C355.998 92.38 356.404 92.34 356.791 92.34C358.284 92.34 359.351 92.7867 359.991 93.68C360.631 94.5733 360.951 95.7733 360.951 97.28V103H359.731L359.671 101.56C359.378 101.96 359.024 102.273 358.611 102.5C358.211 102.727 357.784 102.887 357.331 102.98C356.878 103.073 356.418 103.12 355.951 103.12ZM356.051 101.88C356.704 101.88 357.298 101.773 357.831 101.56C358.364 101.333 358.784 101 359.091 100.56C359.411 100.12 359.571 99.5733 359.571 98.92V98.12H357.211C356.798 98.12 356.378 98.1333 355.951 98.16C355.524 98.1733 355.138 98.24 354.791 98.36C354.444 98.4667 354.164 98.6467 353.951 98.9C353.738 99.14 353.631 99.4867 353.631 99.94C353.631 100.393 353.744 100.767 353.971 101.06C354.198 101.34 354.498 101.547 354.871 101.68C355.244 101.813 355.638 101.88 356.051 101.88ZM373.616 107.86C372.842 107.86 372.082 107.753 371.336 107.54C370.602 107.327 369.942 106.96 369.356 106.44L369.976 105.3C370.509 105.713 371.076 106.033 371.676 106.26C372.276 106.487 372.902 106.6 373.556 106.6C374.742 106.6 375.589 106.26 376.096 105.58C376.602 104.913 376.856 104.04 376.856 102.96V101.34C376.576 101.793 376.236 102.153 375.836 102.42C375.436 102.687 375.002 102.88 374.536 103C374.082 103.107 373.616 103.16 373.136 103.16C372.096 103.16 371.276 102.947 370.676 102.52C370.076 102.093 369.649 101.513 369.396 100.78C369.156 100.033 369.036 99.1867 369.036 98.24V92.46H370.456V97.76C370.456 98.28 370.489 98.7867 370.556 99.28C370.622 99.7733 370.756 100.22 370.956 100.62C371.156 101.007 371.449 101.32 371.836 101.56C372.222 101.8 372.742 101.92 373.396 101.92C374.236 101.92 374.902 101.72 375.396 101.32C375.902 100.907 376.262 100.367 376.476 99.7C376.702 99.0333 376.816 98.3067 376.816 97.52V92.46H378.236V103.04C378.236 103.813 378.136 104.5 377.936 105.1C377.749 105.7 377.462 106.2 377.076 106.6C376.689 107.013 376.209 107.327 375.636 107.54C375.062 107.753 374.389 107.86 373.616 107.86ZM384.349 103.12C383.896 103.12 383.449 103.067 383.009 102.96C382.569 102.84 382.169 102.66 381.809 102.42C381.449 102.167 381.156 101.847 380.929 101.46C380.716 101.06 380.609 100.593 380.609 100.06C380.609 99.46 380.716 98.96 380.929 98.56C381.156 98.16 381.456 97.84 381.829 97.6C382.203 97.36 382.629 97.1933 383.109 97.1C383.589 96.9933 384.096 96.94 384.629 96.94H387.969C387.969 96.2867 387.876 95.7133 387.689 95.22C387.516 94.7133 387.223 94.3133 386.809 94.02C386.409 93.7267 385.869 93.58 385.189 93.58C384.829 93.58 384.483 93.62 384.149 93.7C383.816 93.78 383.516 93.9133 383.249 94.1C382.996 94.2733 382.796 94.5133 382.649 94.82H381.129C381.249 94.3533 381.449 93.96 381.729 93.64C382.023 93.32 382.363 93.0667 382.749 92.88C383.136 92.68 383.543 92.54 383.969 92.46C384.396 92.38 384.803 92.34 385.189 92.34C386.683 92.34 387.749 92.7867 388.389 93.68C389.029 94.5733 389.349 95.7733 389.349 97.28V103H388.129L388.069 101.56C387.776 101.96 387.423 102.273 387.009 102.5C386.609 102.727 386.183 102.887 385.729 102.98C385.276 103.073 384.816 103.12 384.349 103.12ZM384.449 101.88C385.103 101.88 385.696 101.773 386.229 101.56C386.763 101.333 387.183 101 387.489 100.56C387.809 100.12 387.969 99.5733 387.969 98.92V98.12H385.609C385.196 98.12 384.776 98.1333 384.349 98.16C383.923 98.1733 383.536 98.24 383.189 98.36C382.843 98.4667 382.563 98.6467 382.349 98.9C382.136 99.14 382.029 99.4867 382.029 99.94C382.029 100.393 382.143 100.767 382.369 101.06C382.596 101.34 382.896 101.547 383.269 101.68C383.643 101.813 384.036 101.88 384.449 101.88ZM392.064 103V92.46H393.424L393.484 94.34C393.75 93.8333 394.077 93.44 394.464 93.16C394.864 92.88 395.297 92.68 395.764 92.56C396.244 92.4267 396.73 92.36 397.224 92.36C397.304 92.36 397.377 92.36 397.444 92.36C397.51 92.36 397.584 92.36 397.664 92.36V93.66H397.204C396.324 93.66 395.604 93.8467 395.044 94.22C394.497 94.5933 394.097 95.1 393.844 95.74C393.604 96.38 393.484 97.0933 393.484 97.88V103H392.064ZM403.452 103.12C402.372 103.12 401.492 102.88 400.812 102.4C400.132 101.92 399.632 101.28 399.312 100.48C398.992 99.6667 398.832 98.76 398.832 97.76C398.832 96.72 399.005 95.7933 399.352 94.98C399.712 94.1533 400.238 93.5067 400.932 93.04C401.638 92.5733 402.518 92.34 403.572 92.34C404.012 92.34 404.452 92.4 404.892 92.52C405.332 92.6267 405.752 92.8 406.152 93.04C406.552 93.28 406.892 93.6067 407.172 94.02V88.86H408.592V103H407.232L407.172 101.2C406.905 101.667 406.572 102.04 406.172 102.32C405.772 102.6 405.338 102.807 404.872 102.94C404.405 103.06 403.932 103.12 403.452 103.12ZM403.632 101.88C404.405 101.88 405.052 101.693 405.572 101.32C406.105 100.933 406.505 100.42 406.772 99.78C407.052 99.14 407.192 98.44 407.192 97.68C407.192 96.9067 407.058 96.2133 406.792 95.6C406.538 94.9867 406.152 94.5 405.632 94.14C405.112 93.7667 404.452 93.58 403.652 93.58C402.838 93.58 402.178 93.7733 401.672 94.16C401.178 94.5333 400.818 95.04 400.592 95.68C400.365 96.3067 400.252 97 400.252 97.76C400.252 98.3067 400.305 98.8267 400.412 99.32C400.532 99.8133 400.718 100.253 400.972 100.64C401.238 101.027 401.585 101.333 402.012 101.56C402.452 101.773 402.992 101.88 403.632 101.88ZM411.36 103V92.46H412.78V103H411.36ZM415.54 103V92.46H416.9L416.94 93.96C417.18 93.5467 417.46 93.2267 417.78 93C418.113 92.76 418.467 92.5933 418.84 92.5C419.213 92.3933 419.587 92.34 419.96 92.34C420.707 92.34 421.32 92.52 421.8 92.88C422.293 93.24 422.647 93.7333 422.86 94.36C423.047 93.9867 423.287 93.6467 423.58 93.34C423.873 93.0333 424.233 92.7933 424.66 92.62C425.087 92.4333 425.573 92.34 426.12 92.34C426.893 92.34 427.52 92.5067 428 92.84C428.48 93.16 428.827 93.6 429.04 94.16C429.267 94.72 429.38 95.3533 429.38 96.06V103H427.96V96.82C427.96 96.4333 427.94 96.0533 427.9 95.68C427.86 95.2933 427.767 94.9467 427.62 94.64C427.473 94.32 427.253 94.0667 426.96 93.88C426.68 93.68 426.293 93.58 425.8 93.58C425.32 93.58 424.913 93.6933 424.58 93.92C424.26 94.1333 423.993 94.4267 423.78 94.8C423.58 95.16 423.433 95.56 423.34 96C423.26 96.4267 423.22 96.8467 423.22 97.26V103H421.8V96.96C421.8 96.6 421.773 96.2267 421.72 95.84C421.68 95.44 421.593 95.0667 421.46 94.72C421.327 94.3733 421.113 94.1 420.82 93.9C420.527 93.6867 420.14 93.58 419.66 93.58C418.967 93.58 418.42 93.7733 418.02 94.16C417.633 94.5333 417.36 95.0133 417.2 95.6C417.04 96.1733 416.96 96.76 416.96 97.36V103H415.54ZM436.584 103.12C435.477 103.12 434.557 102.893 433.824 102.44C433.104 101.973 432.564 101.333 432.204 100.52C431.844 99.7067 431.664 98.7867 431.664 97.76C431.664 96.7467 431.85 95.8333 432.224 95.02C432.597 94.1933 433.157 93.54 433.904 93.06C434.65 92.58 435.597 92.34 436.744 92.34C437.424 92.34 438.037 92.4533 438.584 92.68C439.13 92.8933 439.59 93.22 439.964 93.66C440.337 94.0867 440.604 94.62 440.764 95.26H439.304C439.09 94.66 438.744 94.2333 438.264 93.98C437.797 93.7133 437.257 93.58 436.644 93.58C435.804 93.58 435.124 93.78 434.604 94.18C434.084 94.5667 433.697 95.08 433.444 95.72C433.204 96.3467 433.084 97.0267 433.084 97.76C433.084 98.5067 433.204 99.1933 433.444 99.82C433.697 100.447 434.084 100.947 434.604 101.32C435.137 101.693 435.817 101.88 436.644 101.88C437.244 101.88 437.804 101.753 438.324 101.5C438.844 101.247 439.204 100.813 439.404 100.2H440.884C440.724 100.867 440.424 101.42 439.984 101.86C439.557 102.287 439.044 102.607 438.444 102.82C437.857 103.02 437.237 103.12 436.584 103.12ZM443.099 103V92.46H444.519V103H443.099ZM457.269 103.12C456.162 103.12 455.236 102.893 454.489 102.44C453.742 101.973 453.182 101.333 452.809 100.52C452.449 99.7067 452.269 98.78 452.269 97.74C452.269 96.6867 452.456 95.76 452.829 94.96C453.202 94.1467 453.762 93.5067 454.509 93.04C455.256 92.5733 456.182 92.34 457.289 92.34C458.396 92.34 459.316 92.5733 460.049 93.04C460.796 93.5067 461.349 94.1467 461.709 94.96C462.082 95.76 462.269 96.6867 462.269 97.74C462.269 98.78 462.082 99.7067 461.709 100.52C461.336 101.333 460.776 101.973 460.029 102.44C459.296 102.893 458.376 103.12 457.269 103.12ZM457.269 101.88C458.096 101.88 458.776 101.7 459.309 101.34C459.842 100.967 460.236 100.467 460.489 99.84C460.742 99.2133 460.869 98.5133 460.869 97.74C460.869 96.9667 460.742 96.2667 460.489 95.64C460.236 95.0133 459.842 94.5133 459.309 94.14C458.776 93.7667 458.096 93.58 457.269 93.58C456.442 93.58 455.762 93.7667 455.229 94.14C454.696 94.5133 454.302 95.0133 454.049 95.64C453.809 96.2667 453.689 96.9667 453.689 97.74C453.689 98.5133 453.809 99.2133 454.049 99.84C454.302 100.467 454.696 100.967 455.229 101.34C455.762 101.7 456.442 101.88 457.269 101.88ZM464.642 103V88.86H466.042V103H464.642ZM473.161 103.12C471.695 103.12 470.595 102.727 469.861 101.94C469.141 101.153 468.781 99.98 468.781 98.42V92.46H470.201V98.38C470.201 99.0867 470.301 99.7067 470.501 100.24C470.715 100.76 471.035 101.167 471.461 101.46C471.901 101.74 472.468 101.88 473.161 101.88C473.868 101.88 474.441 101.74 474.881 101.46C475.335 101.18 475.661 100.78 475.861 100.26C476.061 99.7267 476.161 99.1 476.161 98.38V92.46H477.581V98.42C477.581 99.98 477.215 101.153 476.481 101.94C475.748 102.727 474.641 103.12 473.161 103.12ZM480.306 103V92.46H481.686L481.726 94.22C481.992 93.78 482.319 93.4267 482.706 93.16C483.092 92.88 483.519 92.6733 483.986 92.54C484.452 92.4067 484.919 92.34 485.386 92.34C486.399 92.34 487.199 92.5533 487.786 92.98C488.372 93.4067 488.792 93.9867 489.046 94.72C489.299 95.44 489.426 96.26 489.426 97.18V103H488.006V97.64C488.006 97.12 487.972 96.62 487.906 96.14C487.839 95.6467 487.706 95.2067 487.506 94.82C487.319 94.4333 487.039 94.1333 486.666 93.92C486.306 93.6933 485.819 93.58 485.206 93.58C484.459 93.58 483.819 93.78 483.286 94.18C482.766 94.58 482.372 95.1133 482.106 95.78C481.852 96.4467 481.726 97.1867 481.726 98V103H480.306Z" fill="#232323"/>
<path d="M383.554 19.4138L377.458 22.7517M377.912 0.999367L369.287 14.7745" stroke="#0223B5" stroke-width="1.45542"/>
<path d="M21.2741 14.0837C32.3316 2.11452 64.6923 1.76174 75.1253 13.363" stroke="#0223B5" stroke-width="1.70118"/>
</svg>
