<svg width="228" height="90" viewBox="0 0 228 90" fill="none" xmlns="http://www.w3.org/2000/svg">
<path d="M3.03828 43V19.6H7.23828V43H3.03828ZM5.16828 17.32C4.42828 17.32 3.85828 17.12 3.45828 16.72C3.05828 16.3 2.85828 15.76 2.85828 15.1C2.85828 14.44 3.05828 13.91 3.45828 13.51C3.85828 13.09 4.42828 12.88 5.16828 12.88C5.92828 12.88 6.49828 13.09 6.87828 13.51C7.27828 13.91 7.47828 14.44 7.47828 15.1C7.47828 15.76 7.27828 16.3 6.87828 16.72C6.49828 17.12 5.92828 17.32 5.16828 17.32ZM12.2947 43V19.6H16.4947V39.61H26.9047V43H12.2947ZM30.2947 43V19.6H34.4947V28.75H45.4147V19.6H49.6147V43H45.4147V32.2H34.4947V43H30.2947ZM52.4577 43V42.82L59.7777 19.6H66.4377L73.7877 42.82V43H69.4377L63.3477 22.87H62.6277L56.4777 43H52.4577ZM57.8577 36.67L58.8477 33.37H67.0977L68.0877 36.67H57.8577ZM76.6306 43V19.6H84.1306L89.4106 39.67H90.3106L95.6506 19.6H103.151V43H99.1306V23.11H98.3806L93.1906 43H86.3206L81.1306 23.11H80.3806V43H76.6306ZM120.468 43L113.208 19.78V19.6H117.528L123.678 39.4H124.398L130.458 19.6H134.538V19.78L127.278 43H120.468ZM137.381 43V19.6H152.861V22.99H141.551V28.87H150.371V32.08H141.551V39.61H153.041V43H137.381ZM157.033 43V19.6H166.363C168.363 19.6 169.973 19.89 171.193 20.47C172.413 21.03 173.303 21.79 173.863 22.75C174.443 23.71 174.733 24.81 174.733 26.05C174.733 27.55 174.323 28.83 173.503 29.89C172.683 30.95 171.483 31.69 169.903 32.11L175.363 42.82V43H170.923L165.793 32.71H161.173V43H157.033ZM161.173 29.56H165.913C167.453 29.56 168.593 29.29 169.333 28.75C170.073 28.21 170.443 27.36 170.443 26.2C170.443 25.02 170.063 24.17 169.303 23.65C168.563 23.11 167.433 22.84 165.913 22.84H161.173V29.56ZM178.538 43V19.6H182.738V43H178.538ZM180.668 17.32C179.928 17.32 179.358 17.12 178.958 16.72C178.558 16.3 178.358 15.76 178.358 15.1C178.358 14.44 178.558 13.91 178.958 13.51C179.358 13.09 179.928 12.88 180.668 12.88C181.428 12.88 181.998 13.09 182.378 13.51C182.778 13.91 182.978 14.44 182.978 15.1C182.978 15.76 182.778 16.3 182.378 16.72C181.998 17.12 181.428 17.32 180.668 17.32ZM187.795 43V19.6H195.205L203.485 39.67H204.205V19.6H208.015V43H200.575L192.325 22.93H191.605V43H187.795Z" fill="#0223B5"/>
<path d="M28.13 68.084C27.3553 68.084 26.7113 67.9253 26.198 67.608C25.694 67.2813 25.316 66.8333 25.064 66.264C24.812 65.6947 24.686 65.0507 24.686 64.332C24.686 63.6227 24.8167 62.9833 25.078 62.414C25.3393 61.8353 25.7313 61.378 26.254 61.042C26.7767 60.706 27.4393 60.538 28.242 60.538C28.718 60.538 29.1473 60.6173 29.53 60.776C29.9127 60.9253 30.2347 61.154 30.496 61.462C30.7573 61.7607 30.944 62.134 31.056 62.582H30.034C29.8847 62.162 29.642 61.8633 29.306 61.686C28.9793 61.4993 28.6013 61.406 28.172 61.406C27.584 61.406 27.108 61.546 26.744 61.826C26.38 62.0967 26.1093 62.456 25.932 62.904C25.764 63.3427 25.68 63.8187 25.68 64.332C25.68 64.8547 25.764 65.3353 25.932 65.774C26.1093 66.2127 26.38 66.5627 26.744 66.824C27.1173 67.0853 27.5933 67.216 28.172 67.216C28.592 67.216 28.984 67.1273 29.348 66.95C29.712 66.7727 29.964 66.4693 30.104 66.04H31.14C31.028 66.5067 30.818 66.894 30.51 67.202C30.2113 67.5007 29.852 67.7247 29.432 67.874C29.0213 68.014 28.5873 68.084 28.13 68.084ZM27.738 71.5C27.6353 71.5093 27.5233 71.5187 27.402 71.528C27.29 71.5373 27.1687 71.5373 27.038 71.528V70.898C27.1967 70.898 27.3647 70.8933 27.542 70.884C27.7193 70.8747 27.892 70.842 28.06 70.786C28.228 70.7393 28.3633 70.6553 28.466 70.534C28.578 70.422 28.634 70.268 28.634 70.072C28.634 69.9133 28.5873 69.792 28.494 69.708C28.4007 69.6333 28.2887 69.582 28.158 69.554C28.0367 69.526 27.9247 69.512 27.822 69.512C27.7193 69.512 27.598 69.5213 27.458 69.54C27.318 69.5587 27.192 69.5913 27.08 69.638L27.528 67.86H28.228L27.948 68.924C28.0227 68.9147 28.088 68.9053 28.144 68.896C28.2093 68.896 28.27 68.896 28.326 68.896C28.6713 68.896 28.9373 68.994 29.124 69.19C29.32 69.386 29.418 69.6613 29.418 70.016C29.418 70.352 29.3387 70.6227 29.18 70.828C29.0307 71.0333 28.83 71.1873 28.578 71.29C28.326 71.402 28.046 71.472 27.738 71.5ZM35.0426 68.084C34.7253 68.084 34.4126 68.0467 34.1046 67.972C33.7966 67.888 33.5166 67.762 33.2646 67.594C33.0126 67.4167 32.8073 67.1927 32.6486 66.922C32.4993 66.642 32.4246 66.3153 32.4246 65.942C32.4246 65.522 32.4993 65.172 32.6486 64.892C32.8073 64.612 33.0173 64.388 33.2786 64.22C33.5399 64.052 33.8386 63.9353 34.1746 63.87C34.5106 63.7953 34.8653 63.758 35.2386 63.758H37.5766C37.5766 63.3007 37.5113 62.8993 37.3806 62.554C37.2593 62.1993 37.0539 61.9193 36.7646 61.714C36.4846 61.5087 36.1066 61.406 35.6306 61.406C35.3786 61.406 35.1359 61.434 34.9026 61.49C34.6693 61.546 34.4593 61.6393 34.2726 61.77C34.0953 61.8913 33.9553 62.0593 33.8526 62.274H32.7886C32.8726 61.9473 33.0126 61.672 33.2086 61.448C33.4139 61.224 33.6519 61.0467 33.9226 60.916C34.1933 60.776 34.4779 60.678 34.7766 60.622C35.0753 60.566 35.3599 60.538 35.6306 60.538C36.6759 60.538 37.4226 60.8507 37.8706 61.476C38.3186 62.1013 38.5426 62.9413 38.5426 63.996V68H37.6886L37.6466 66.992C37.4413 67.272 37.1939 67.4913 36.9046 67.65C36.6246 67.8087 36.3259 67.9207 36.0086 67.986C35.6913 68.0513 35.3693 68.084 35.0426 68.084ZM35.1126 67.216C35.5699 67.216 35.9853 67.1413 36.3586 66.992C36.7319 66.8333 37.0259 66.6 37.2406 66.292C37.4646 65.984 37.5766 65.6013 37.5766 65.144V64.584H35.9246C35.6353 64.584 35.3413 64.5933 35.0426 64.612C34.7439 64.6213 34.4733 64.668 34.2306 64.752C33.9879 64.8267 33.7919 64.9527 33.6426 65.13C33.4933 65.298 33.4186 65.5407 33.4186 65.858C33.4186 66.1753 33.4979 66.4367 33.6566 66.642C33.8153 66.838 34.0253 66.9827 34.2866 67.076C34.5479 67.1693 34.8233 67.216 35.1126 67.216ZM40.4566 68V58.102H41.4366V68H40.4566ZM43.382 68V60.622H44.376V68H43.382ZM48.9538 68.084C48.6271 68.084 48.3005 68.056 47.9738 68C47.6471 67.9347 47.3391 67.8273 47.0498 67.678C46.7605 67.5287 46.5131 67.328 46.3078 67.076C46.1118 66.824 45.9765 66.516 45.9018 66.152H46.9238C47.0358 66.4227 47.2038 66.6373 47.4278 66.796C47.6611 66.9453 47.9178 67.0527 48.1978 67.118C48.4778 67.1833 48.7438 67.216 48.9958 67.216C49.1731 67.216 49.3691 67.2067 49.5838 67.188C49.8078 67.16 50.0178 67.104 50.2138 67.02C50.4098 66.936 50.5685 66.8147 50.6898 66.656C50.8205 66.4973 50.8858 66.2873 50.8858 66.026C50.8858 65.7927 50.8298 65.606 50.7178 65.466C50.6151 65.326 50.4751 65.214 50.2978 65.13C50.1205 65.046 49.9245 64.9853 49.7098 64.948C49.3738 64.8733 49.0145 64.8033 48.6318 64.738C48.2491 64.6727 47.9038 64.556 47.5958 64.388C47.4091 64.3227 47.2271 64.2433 47.0498 64.15C46.8818 64.0473 46.7278 63.926 46.5878 63.786C46.4478 63.646 46.3358 63.478 46.2518 63.282C46.1678 63.086 46.1258 62.8573 46.1258 62.596C46.1258 62.232 46.2005 61.9193 46.3498 61.658C46.4991 61.3967 46.6998 61.182 46.9518 61.014C47.2131 60.846 47.5118 60.7247 47.8478 60.65C48.1838 60.5753 48.5385 60.538 48.9118 60.538C49.3598 60.538 49.7705 60.608 50.1438 60.748C50.5265 60.8787 50.8438 61.0793 51.0958 61.35C51.3571 61.6207 51.5205 61.9613 51.5858 62.372H50.6618C50.5591 62.064 50.3445 61.826 50.0178 61.658C49.6911 61.49 49.3131 61.406 48.8838 61.406C48.7251 61.406 48.5431 61.42 48.3378 61.448C48.1325 61.476 47.9365 61.532 47.7498 61.616C47.5631 61.6907 47.4091 61.8073 47.2878 61.966C47.1665 62.1153 47.1058 62.3207 47.1058 62.582C47.1058 62.8247 47.1665 63.0253 47.2878 63.184C47.4091 63.3427 47.5771 63.4687 47.7918 63.562C48.0065 63.646 48.2398 63.7207 48.4918 63.786C48.7998 63.8513 49.1358 63.9167 49.4998 63.982C49.8731 64.038 50.1811 64.1033 50.4238 64.178C50.7318 64.2713 50.9931 64.3973 51.2078 64.556C51.4225 64.7147 51.5858 64.9107 51.6978 65.144C51.8098 65.368 51.8658 65.6387 51.8658 65.956C51.8658 66.3853 51.7818 66.74 51.6138 67.02C51.4458 67.2907 51.2171 67.5053 50.9278 67.664C50.6478 67.8133 50.3351 67.9207 49.9898 67.986C49.6445 68.0513 49.2991 68.084 48.9538 68.084ZM48.7578 71.5C48.6551 71.5093 48.5431 71.5187 48.4218 71.528C48.3098 71.5373 48.1885 71.5373 48.0578 71.528V70.898C48.2165 70.898 48.3845 70.8933 48.5618 70.884C48.7391 70.8747 48.9118 70.842 49.0798 70.786C49.2478 70.7393 49.3831 70.6553 49.4858 70.534C49.5978 70.422 49.6538 70.268 49.6538 70.072C49.6538 69.9133 49.6071 69.792 49.5138 69.708C49.4205 69.6333 49.3085 69.582 49.1778 69.554C49.0565 69.526 48.9445 69.512 48.8418 69.512C48.7391 69.512 48.6178 69.5213 48.4778 69.54C48.3378 69.5587 48.2118 69.5913 48.0998 69.638L48.5478 67.86H49.2478L48.9678 68.924C49.0425 68.9147 49.1078 68.9053 49.1638 68.896C49.2291 68.896 49.2898 68.896 49.3458 68.896C49.6911 68.896 49.9571 68.994 50.1438 69.19C50.3398 69.386 50.4378 69.6613 50.4378 70.016C50.4378 70.352 50.3585 70.6227 50.1998 70.828C50.0505 71.0333 49.8498 71.1873 49.5978 71.29C49.3458 71.402 49.0658 71.472 48.7578 71.5ZM55.7555 68.084C55.4382 68.084 55.1255 68.0467 54.8175 67.972C54.5095 67.888 54.2295 67.762 53.9775 67.594C53.7255 67.4167 53.5202 67.1927 53.3615 66.922C53.2122 66.642 53.1375 66.3153 53.1375 65.942C53.1375 65.522 53.2122 65.172 53.3615 64.892C53.5202 64.612 53.7302 64.388 53.9915 64.22C54.2528 64.052 54.5515 63.9353 54.8875 63.87C55.2235 63.7953 55.5782 63.758 55.9515 63.758H58.2895C58.2895 63.3007 58.2242 62.8993 58.0935 62.554C57.9722 62.1993 57.7668 61.9193 57.4775 61.714C57.1975 61.5087 56.8195 61.406 56.3435 61.406C56.0915 61.406 55.8488 61.434 55.6155 61.49C55.3822 61.546 55.1722 61.6393 54.9855 61.77C54.8082 61.8913 54.6682 62.0593 54.5655 62.274H53.5015C53.5855 61.9473 53.7255 61.672 53.9215 61.448C54.1268 61.224 54.3648 61.0467 54.6355 60.916C54.9062 60.776 55.1908 60.678 55.4895 60.622C55.7882 60.566 56.0728 60.538 56.3435 60.538C57.3888 60.538 58.1355 60.8507 58.5835 61.476C59.0315 62.1013 59.2555 62.9413 59.2555 63.996V68H58.4015L58.3595 66.992C58.1542 67.272 57.9068 67.4913 57.6175 67.65C57.3375 67.8087 57.0388 67.9207 56.7215 67.986C56.4042 68.0513 56.0822 68.084 55.7555 68.084ZM55.8255 67.216C56.2828 67.216 56.6982 67.1413 57.0715 66.992C57.4448 66.8333 57.7388 66.6 57.9535 66.292C58.1775 65.984 58.2895 65.6013 58.2895 65.144V64.584H56.6375C56.3482 64.584 56.0542 64.5933 55.7555 64.612C55.4568 64.6213 55.1862 64.668 54.9435 64.752C54.7008 64.8267 54.5048 64.9527 54.3555 65.13C54.2062 65.298 54.1315 65.5407 54.1315 65.858C54.1315 66.1753 54.2108 66.4367 54.3695 66.642C54.5282 66.838 54.7382 66.9827 54.9995 67.076C55.2608 67.1693 55.5362 67.216 55.8255 67.216ZM61.1555 68V60.622H62.1215L62.1495 61.854C62.3361 61.546 62.5648 61.2987 62.8355 61.112C63.1061 60.916 63.4048 60.7713 63.7315 60.678C64.0581 60.5847 64.3848 60.538 64.7115 60.538C65.4208 60.538 65.9808 60.6873 66.3915 60.986C66.8021 61.2847 67.0961 61.6907 67.2735 62.204C67.4508 62.708 67.5395 63.282 67.5395 63.926V68H66.5455V64.248C66.5455 63.884 66.5221 63.534 66.4755 63.198C66.4288 62.8527 66.3355 62.5447 66.1955 62.274C66.0648 62.0033 65.8688 61.7933 65.6075 61.644C65.3555 61.4853 65.0148 61.406 64.5855 61.406C64.0628 61.406 63.6148 61.546 63.2415 61.826C62.8775 62.106 62.6021 62.4793 62.4155 62.946C62.2381 63.4127 62.1495 63.9307 62.1495 64.5V68H61.1555ZM69.4409 68V58.102H70.4209V68H69.4409ZM74.7184 68.084C74.4011 68.084 74.0884 68.0467 73.7804 67.972C73.4724 67.888 73.1924 67.762 72.9404 67.594C72.6884 67.4167 72.4831 67.1927 72.3244 66.922C72.1751 66.642 72.1004 66.3153 72.1004 65.942C72.1004 65.522 72.1751 65.172 72.3244 64.892C72.4831 64.612 72.6931 64.388 72.9544 64.22C73.2157 64.052 73.5144 63.9353 73.8504 63.87C74.1864 63.7953 74.5411 63.758 74.9144 63.758H77.2524C77.2524 63.3007 77.1871 62.8993 77.0564 62.554C76.9351 62.1993 76.7297 61.9193 76.4404 61.714C76.1604 61.5087 75.7824 61.406 75.3064 61.406C75.0544 61.406 74.8117 61.434 74.5784 61.49C74.3451 61.546 74.1351 61.6393 73.9484 61.77C73.7711 61.8913 73.6311 62.0593 73.5284 62.274H72.4644C72.5484 61.9473 72.6884 61.672 72.8844 61.448C73.0897 61.224 73.3277 61.0467 73.5984 60.916C73.8691 60.776 74.1537 60.678 74.4524 60.622C74.7511 60.566 75.0357 60.538 75.3064 60.538C76.3517 60.538 77.0984 60.8507 77.5464 61.476C77.9944 62.1013 78.2184 62.9413 78.2184 63.996V68H77.3644L77.3224 66.992C77.1171 67.272 76.8697 67.4913 76.5804 67.65C76.3004 67.8087 76.0017 67.9207 75.6844 67.986C75.3671 68.0513 75.0451 68.084 74.7184 68.084ZM74.7884 67.216C75.2457 67.216 75.6611 67.1413 76.0344 66.992C76.4077 66.8333 76.7017 66.6 76.9164 66.292C77.1404 65.984 77.2524 65.6013 77.2524 65.144V64.584H75.6004C75.3111 64.584 75.0171 64.5933 74.7184 64.612C74.4197 64.6213 74.1491 64.668 73.9064 64.752C73.6637 64.8267 73.4677 64.9527 73.3184 65.13C73.1691 65.298 73.0944 65.5407 73.0944 65.858C73.0944 66.1753 73.1737 66.4367 73.3324 66.642C73.4911 66.838 73.7011 66.9827 73.9624 67.076C74.2237 67.1693 74.4991 67.216 74.7884 67.216ZM80.1183 68V60.622H81.0703L81.1123 61.938C81.299 61.5833 81.5277 61.308 81.7983 61.112C82.0783 60.916 82.3817 60.776 82.7083 60.692C83.0443 60.5987 83.385 60.552 83.7303 60.552C83.7863 60.552 83.8377 60.552 83.8843 60.552C83.931 60.552 83.9823 60.552 84.0383 60.552V61.462H83.7163C83.1003 61.462 82.5963 61.5927 82.2043 61.854C81.8217 62.1153 81.5417 62.47 81.3643 62.918C81.1963 63.366 81.1123 63.8653 81.1123 64.416V68H80.1183ZM85.2726 68V60.622H86.2666V68H85.2726ZM88.1984 68V60.622H89.1644L89.1924 61.854C89.3791 61.546 89.6078 61.2987 89.8784 61.112C90.1491 60.916 90.4478 60.7713 90.7744 60.678C91.1011 60.5847 91.4278 60.538 91.7544 60.538C92.4638 60.538 93.0238 60.6873 93.4344 60.986C93.8451 61.2847 94.1391 61.6907 94.3164 62.204C94.4938 62.708 94.5824 63.282 94.5824 63.926V68H93.5884V64.248C93.5884 63.884 93.5651 63.534 93.5184 63.198C93.4718 62.8527 93.3784 62.5447 93.2384 62.274C93.1078 62.0033 92.9118 61.7933 92.6504 61.644C92.3984 61.4853 92.0578 61.406 91.6284 61.406C91.1058 61.406 90.6578 61.546 90.2844 61.826C89.9204 62.106 89.6451 62.4793 89.4584 62.946C89.2811 63.4127 89.1924 63.9307 89.1924 64.5V68H88.1984ZM96.4699 68V60.622H97.4639V68H96.4699ZM99.1157 68V67.132L103.778 61.49H99.1437V60.622H105.01V61.476L100.306 67.146H105.01V68H99.1157ZM106.655 68V60.622H107.649V68H106.655ZM109.581 68V60.622H110.547L110.575 61.854C110.762 61.546 110.991 61.2987 111.261 61.112C111.532 60.916 111.831 60.7713 112.157 60.678C112.484 60.5847 112.811 60.538 113.137 60.538C113.847 60.538 114.407 60.6873 114.817 60.986C115.228 61.2847 115.522 61.6907 115.699 62.204C115.877 62.708 115.965 63.282 115.965 63.926V68H114.971V64.248C114.971 63.884 114.948 63.534 114.901 63.198C114.855 62.8527 114.761 62.5447 114.621 62.274C114.491 62.0033 114.295 61.7933 114.033 61.644C113.781 61.4853 113.441 61.406 113.011 61.406C112.489 61.406 112.041 61.546 111.667 61.826C111.303 62.106 111.028 62.4793 110.841 62.946C110.664 63.4127 110.575 63.9307 110.575 64.5V68H109.581ZM121.626 68V58.102H122.62V61.868C122.807 61.5693 123.035 61.322 123.306 61.126C123.577 60.93 123.871 60.7853 124.188 60.692C124.505 60.5893 124.837 60.538 125.182 60.538C125.901 60.538 126.465 60.6873 126.876 60.986C127.287 61.2847 127.576 61.6907 127.744 62.204C127.921 62.708 128.01 63.282 128.01 63.926V68H127.016V64.29C127.016 63.9353 126.993 63.59 126.946 63.254C126.899 62.9087 126.806 62.596 126.666 62.316C126.535 62.036 126.335 61.8167 126.064 61.658C125.803 61.49 125.453 61.406 125.014 61.406C124.594 61.406 124.23 61.4947 123.922 61.672C123.614 61.84 123.362 62.0733 123.166 62.372C122.979 62.6707 122.839 63.002 122.746 63.366C122.662 63.7207 122.62 64.0847 122.62 64.458V68H121.626ZM133.076 68.084C132.301 68.084 131.657 67.9253 131.144 67.608C130.63 67.2813 130.248 66.8333 129.996 66.264C129.744 65.6947 129.618 65.046 129.618 64.318C129.618 63.59 129.748 62.946 130.01 62.386C130.271 61.8167 130.658 61.3687 131.172 61.042C131.685 60.706 132.315 60.538 133.062 60.538C133.622 60.538 134.102 60.6407 134.504 60.846C134.914 61.0513 135.25 61.3313 135.512 61.686C135.782 62.0407 135.978 62.4327 136.1 62.862C136.23 63.2913 136.296 63.73 136.296 64.178C136.286 64.262 136.282 64.346 136.282 64.43C136.282 64.5047 136.277 64.5793 136.268 64.654H130.612C130.649 65.1487 130.761 65.592 130.948 65.984C131.134 66.3667 131.405 66.67 131.76 66.894C132.124 67.1087 132.576 67.216 133.118 67.216C133.37 67.216 133.626 67.188 133.888 67.132C134.149 67.0667 134.387 66.9593 134.602 66.81C134.816 66.6513 134.975 66.446 135.078 66.194H136.114C135.983 66.6327 135.764 66.992 135.456 67.272C135.148 67.552 134.784 67.7573 134.364 67.888C133.944 68.0187 133.514 68.084 133.076 68.084ZM130.64 63.8H135.288C135.278 63.3427 135.18 62.9367 134.994 62.582C134.807 62.218 134.55 61.9333 134.224 61.728C133.897 61.5133 133.496 61.406 133.02 61.406C132.525 61.406 132.105 61.518 131.76 61.742C131.414 61.966 131.148 62.26 130.962 62.624C130.784 62.988 130.677 63.38 130.64 63.8ZM140.904 68.084C140.148 68.084 139.532 67.916 139.056 67.58C138.58 67.244 138.23 66.796 138.006 66.236C137.782 65.6667 137.67 65.032 137.67 64.332C137.67 63.604 137.792 62.9553 138.034 62.386C138.286 61.8073 138.655 61.3547 139.14 61.028C139.635 60.7013 140.251 60.538 140.988 60.538C141.296 60.538 141.604 60.58 141.912 60.664C142.22 60.7387 142.514 60.86 142.794 61.028C143.074 61.196 143.312 61.4247 143.508 61.714V58.102H144.502V68H143.55L143.508 66.74C143.322 67.0667 143.088 67.328 142.808 67.524C142.528 67.72 142.225 67.8647 141.898 67.958C141.572 68.042 141.24 68.084 140.904 68.084ZM141.03 67.216C141.572 67.216 142.024 67.0853 142.388 66.824C142.762 66.5533 143.042 66.194 143.228 65.746C143.424 65.298 143.522 64.808 143.522 64.276C143.522 63.7347 143.429 63.2493 143.242 62.82C143.065 62.3907 142.794 62.05 142.43 61.798C142.066 61.5367 141.604 61.406 141.044 61.406C140.475 61.406 140.013 61.5413 139.658 61.812C139.313 62.0733 139.061 62.428 138.902 62.876C138.744 63.3147 138.664 63.8 138.664 64.332C138.664 64.7147 138.702 65.0787 138.776 65.424C138.86 65.7693 138.991 66.0773 139.168 66.348C139.355 66.6187 139.598 66.8333 139.896 66.992C140.204 67.1413 140.582 67.216 141.03 67.216ZM149.619 68.084C148.844 68.084 148.2 67.9253 147.687 67.608C147.173 67.2813 146.791 66.8333 146.539 66.264C146.287 65.6947 146.161 65.046 146.161 64.318C146.161 63.59 146.291 62.946 146.553 62.386C146.814 61.8167 147.201 61.3687 147.715 61.042C148.228 60.706 148.858 60.538 149.605 60.538C150.165 60.538 150.645 60.6407 151.047 60.846C151.457 61.0513 151.793 61.3313 152.055 61.686C152.325 62.0407 152.521 62.4327 152.643 62.862C152.773 63.2913 152.839 63.73 152.839 64.178C152.829 64.262 152.825 64.346 152.825 64.43C152.825 64.5047 152.82 64.5793 152.811 64.654H147.155C147.192 65.1487 147.304 65.592 147.491 65.984C147.677 66.3667 147.948 66.67 148.303 66.894C148.667 67.1087 149.119 67.216 149.661 67.216C149.913 67.216 150.169 67.188 150.431 67.132C150.692 67.0667 150.93 66.9593 151.145 66.81C151.359 66.6513 151.518 66.446 151.621 66.194H152.657C152.526 66.6327 152.307 66.992 151.999 67.272C151.691 67.552 151.327 67.7573 150.907 67.888C150.487 68.0187 150.057 68.084 149.619 68.084ZM147.183 63.8H151.831C151.821 63.3427 151.723 62.9367 151.537 62.582C151.35 62.218 151.093 61.9333 150.767 61.728C150.44 61.5133 150.039 61.406 149.563 61.406C149.068 61.406 148.648 61.518 148.303 61.742C147.957 61.966 147.691 62.26 147.505 62.624C147.327 62.988 147.22 63.38 147.183 63.8ZM155.099 68V61.49H153.867V60.622H155.099V59.782C155.099 59.2407 155.169 58.7927 155.309 58.438C155.449 58.074 155.687 57.8033 156.023 57.626C156.359 57.4487 156.816 57.36 157.395 57.36H158.151V58.228H157.493C157.101 58.228 156.802 58.2933 156.597 58.424C156.401 58.5453 156.265 58.732 156.191 58.984C156.125 59.236 156.093 59.544 156.093 59.908V60.622H158.151V61.49H156.093V68H155.099ZM159.47 68V58.102H160.45V68H159.47ZM165.574 68.084C164.799 68.084 164.155 67.9253 163.642 67.608C163.128 67.2813 162.746 66.8333 162.494 66.264C162.242 65.6947 162.116 65.046 162.116 64.318C162.116 63.59 162.246 62.946 162.508 62.386C162.769 61.8167 163.156 61.3687 163.67 61.042C164.183 60.706 164.813 60.538 165.56 60.538C166.12 60.538 166.6 60.6407 167.002 60.846C167.412 61.0513 167.748 61.3313 168.01 61.686C168.28 62.0407 168.476 62.4327 168.598 62.862C168.728 63.2913 168.794 63.73 168.794 64.178C168.784 64.262 168.78 64.346 168.78 64.43C168.78 64.5047 168.775 64.5793 168.766 64.654H163.11C163.147 65.1487 163.259 65.592 163.446 65.984C163.632 66.3667 163.903 66.67 164.258 66.894C164.622 67.1087 165.074 67.216 165.616 67.216C165.868 67.216 166.124 67.188 166.386 67.132C166.647 67.0667 166.885 66.9593 167.1 66.81C167.314 66.6513 167.473 66.446 167.576 66.194H168.612C168.481 66.6327 168.262 66.992 167.954 67.272C167.646 67.552 167.282 67.7573 166.862 67.888C166.442 68.0187 166.012 68.084 165.574 68.084ZM163.138 63.8H167.786C167.776 63.3427 167.678 62.9367 167.492 62.582C167.305 62.218 167.048 61.9333 166.722 61.728C166.395 61.5133 165.994 61.406 165.518 61.406C165.023 61.406 164.603 61.518 164.258 61.742C163.912 61.966 163.646 62.26 163.46 62.624C163.282 62.988 163.175 63.38 163.138 63.8ZM170.448 68V60.622H171.4L171.442 61.938C171.629 61.5833 171.858 61.308 172.128 61.112C172.408 60.916 172.712 60.776 173.038 60.692C173.374 60.5987 173.715 60.552 174.06 60.552C174.116 60.552 174.168 60.552 174.214 60.552C174.261 60.552 174.312 60.552 174.368 60.552V61.462H174.046C173.43 61.462 172.926 61.5927 172.534 61.854C172.152 62.1153 171.872 62.47 171.694 62.918C171.526 63.366 171.442 63.8653 171.442 64.416V68H170.448ZM175.603 68V60.622H176.597V68H175.603ZM176.093 59.432C175.878 59.432 175.705 59.3667 175.575 59.236C175.444 59.1053 175.379 58.9327 175.379 58.718C175.379 58.5033 175.444 58.3353 175.575 58.214C175.715 58.0833 175.887 58.018 176.093 58.018C176.289 58.018 176.457 58.0833 176.597 58.214C176.746 58.3447 176.821 58.5127 176.821 58.718C176.821 58.9327 176.751 59.1053 176.611 59.236C176.471 59.3667 176.298 59.432 176.093 59.432ZM178.529 68V60.622H179.495L179.523 61.854C179.709 61.546 179.938 61.2987 180.209 61.112C180.479 60.916 180.778 60.7713 181.105 60.678C181.431 60.5847 181.758 60.538 182.085 60.538C182.794 60.538 183.354 60.6873 183.765 60.986C184.175 61.2847 184.469 61.6907 184.647 62.204C184.824 62.708 184.913 63.282 184.913 63.926V68H183.919V64.248C183.919 63.884 183.895 63.534 183.849 63.198C183.802 62.8527 183.709 62.5447 183.569 62.274C183.438 62.0033 183.242 61.7933 182.981 61.644C182.729 61.4853 182.388 61.406 181.959 61.406C181.436 61.406 180.988 61.546 180.615 61.826C180.251 62.106 179.975 62.4793 179.789 62.946C179.611 63.4127 179.523 63.9307 179.523 64.5V68H178.529ZM189.978 68.084C189.203 68.084 188.559 67.9253 188.046 67.608C187.533 67.2813 187.15 66.8333 186.898 66.264C186.646 65.6947 186.52 65.046 186.52 64.318C186.52 63.59 186.651 62.946 186.912 62.386C187.173 61.8167 187.561 61.3687 188.074 61.042C188.587 60.706 189.217 60.538 189.964 60.538C190.524 60.538 191.005 60.6407 191.406 60.846C191.817 61.0513 192.153 61.3313 192.414 61.686C192.685 62.0407 192.881 62.4327 193.002 62.862C193.133 63.2913 193.198 63.73 193.198 64.178C193.189 64.262 193.184 64.346 193.184 64.43C193.184 64.5047 193.179 64.5793 193.17 64.654H187.514C187.551 65.1487 187.663 65.592 187.85 65.984C188.037 66.3667 188.307 66.67 188.662 66.894C189.026 67.1087 189.479 67.216 190.02 67.216C190.272 67.216 190.529 67.188 190.79 67.132C191.051 67.0667 191.289 66.9593 191.504 66.81C191.719 66.6513 191.877 66.446 191.98 66.194H193.016C192.885 66.6327 192.666 66.992 192.358 67.272C192.05 67.552 191.686 67.7573 191.266 67.888C190.846 68.0187 190.417 68.084 189.978 68.084ZM187.542 63.8H192.19C192.181 63.3427 192.083 62.9367 191.896 62.582C191.709 62.218 191.453 61.9333 191.126 61.728C190.799 61.5133 190.398 61.406 189.922 61.406C189.427 61.406 189.007 61.518 188.662 61.742C188.317 61.966 188.051 62.26 187.864 62.624C187.687 62.988 187.579 63.38 187.542 63.8ZM28.004 86.084C26.9773 86.084 26.2073 85.8087 25.694 85.258C25.19 84.7073 24.938 83.886 24.938 82.794V78.622H25.932V82.766C25.932 83.2607 26.002 83.6947 26.142 84.068C26.2913 84.432 26.5153 84.7167 26.814 84.922C27.122 85.118 27.5187 85.216 28.004 85.216C28.4987 85.216 28.9 85.118 29.208 84.922C29.5253 84.726 29.754 84.446 29.894 84.082C30.034 83.7087 30.104 83.27 30.104 82.766V78.622H31.098V82.794C31.098 83.886 30.8413 84.7073 30.328 85.258C29.8147 85.8087 29.04 86.084 28.004 86.084ZM33.0191 86V76.102H33.9991V86H33.0191ZM38.2965 86.084C37.9792 86.084 37.6665 86.0467 37.3585 85.972C37.0505 85.888 36.7705 85.762 36.5185 85.594C36.2665 85.4167 36.0612 85.1927 35.9025 84.922C35.7532 84.642 35.6785 84.3153 35.6785 83.942C35.6785 83.522 35.7532 83.172 35.9025 82.892C36.0612 82.612 36.2712 82.388 36.5325 82.22C36.7938 82.052 37.0925 81.9353 37.4285 81.87C37.7645 81.7953 38.1192 81.758 38.4925 81.758H40.8305C40.8305 81.3007 40.7652 80.8993 40.6345 80.554C40.5132 80.1993 40.3078 79.9193 40.0185 79.714C39.7385 79.5087 39.3605 79.406 38.8845 79.406C38.6325 79.406 38.3898 79.434 38.1565 79.49C37.9232 79.546 37.7132 79.6393 37.5265 79.77C37.3492 79.8913 37.2092 80.0593 37.1065 80.274H36.0425C36.1265 79.9473 36.2665 79.672 36.4625 79.448C36.6678 79.224 36.9058 79.0467 37.1765 78.916C37.4472 78.776 37.7318 78.678 38.0305 78.622C38.3292 78.566 38.6138 78.538 38.8845 78.538C39.9298 78.538 40.6765 78.8507 41.1245 79.476C41.5725 80.1013 41.7965 80.9413 41.7965 81.996V86H40.9425L40.9005 84.992C40.6952 85.272 40.4478 85.4913 40.1585 85.65C39.8785 85.8087 39.5798 85.9207 39.2625 85.986C38.9452 86.0513 38.6232 86.084 38.2965 86.084ZM38.3665 85.216C38.8238 85.216 39.2392 85.1413 39.6125 84.992C39.9858 84.8333 40.2798 84.6 40.4945 84.292C40.7185 83.984 40.8305 83.6013 40.8305 83.144V82.584H39.1785C38.8892 82.584 38.5952 82.5933 38.2965 82.612C37.9978 82.6213 37.7272 82.668 37.4845 82.752C37.2418 82.8267 37.0458 82.9527 36.8965 83.13C36.7472 83.298 36.6725 83.5407 36.6725 83.858C36.6725 84.1753 36.7518 84.4367 36.9105 84.642C37.0692 84.838 37.2792 84.9827 37.5405 85.076C37.8018 85.1693 38.0772 85.216 38.3665 85.216ZM46.3425 86.084C46.0158 86.084 45.6891 86.056 45.3625 86C45.0358 85.9347 44.7278 85.8273 44.4385 85.678C44.1491 85.5287 43.9018 85.328 43.6965 85.076C43.5005 84.824 43.3651 84.516 43.2905 84.152H44.3125C44.4245 84.4227 44.5925 84.6373 44.8165 84.796C45.0498 84.9453 45.3065 85.0527 45.5865 85.118C45.8665 85.1833 46.1325 85.216 46.3845 85.216C46.5618 85.216 46.7578 85.2067 46.9725 85.188C47.1965 85.16 47.4065 85.104 47.6025 85.02C47.7985 84.936 47.9571 84.8147 48.0785 84.656C48.2091 84.4973 48.2745 84.2873 48.2745 84.026C48.2745 83.7927 48.2185 83.606 48.1065 83.466C48.0038 83.326 47.8638 83.214 47.6865 83.13C47.5091 83.046 47.3131 82.9853 47.0985 82.948C46.7625 82.8733 46.4031 82.8033 46.0205 82.738C45.6378 82.6727 45.2925 82.556 44.9845 82.388C44.7978 82.3227 44.6158 82.2433 44.4385 82.15C44.2705 82.0473 44.1165 81.926 43.9765 81.786C43.8365 81.646 43.7245 81.478 43.6405 81.282C43.5565 81.086 43.5145 80.8573 43.5145 80.596C43.5145 80.232 43.5891 79.9193 43.7385 79.658C43.8878 79.3967 44.0885 79.182 44.3405 79.014C44.6018 78.846 44.9005 78.7247 45.2365 78.65C45.5725 78.5753 45.9271 78.538 46.3005 78.538C46.7485 78.538 47.1591 78.608 47.5325 78.748C47.9151 78.8787 48.2325 79.0793 48.4845 79.35C48.7458 79.6207 48.9091 79.9613 48.9745 80.372H48.0505C47.9478 80.064 47.7331 79.826 47.4065 79.658C47.0798 79.49 46.7018 79.406 46.2725 79.406C46.1138 79.406 45.9318 79.42 45.7265 79.448C45.5211 79.476 45.3251 79.532 45.1385 79.616C44.9518 79.6907 44.7978 79.8073 44.6765 79.966C44.5551 80.1153 44.4945 80.3207 44.4945 80.582C44.4945 80.8247 44.5551 81.0253 44.6765 81.184C44.7978 81.3427 44.9658 81.4687 45.1805 81.562C45.3951 81.646 45.6285 81.7207 45.8805 81.786C46.1885 81.8513 46.5245 81.9167 46.8885 81.982C47.2618 82.038 47.5698 82.1033 47.8125 82.178C48.1205 82.2713 48.3818 82.3973 48.5965 82.556C48.8111 82.7147 48.9745 82.9107 49.0865 83.144C49.1985 83.368 49.2545 83.6387 49.2545 83.956C49.2545 84.3853 49.1705 84.74 49.0025 85.02C48.8345 85.2907 48.6058 85.5053 48.3165 85.664C48.0365 85.8133 47.7238 85.9207 47.3785 85.986C47.0331 86.0513 46.6878 86.084 46.3425 86.084ZM46.1465 89.5C46.0438 89.5093 45.9318 89.5187 45.8105 89.528C45.6985 89.5373 45.5771 89.5373 45.4465 89.528V88.898C45.6051 88.898 45.7731 88.8933 45.9505 88.884C46.1278 88.8747 46.3005 88.842 46.4685 88.786C46.6365 88.7393 46.7718 88.6553 46.8745 88.534C46.9865 88.422 47.0425 88.268 47.0425 88.072C47.0425 87.9133 46.9958 87.792 46.9025 87.708C46.8091 87.6333 46.6971 87.582 46.5665 87.554C46.4451 87.526 46.3331 87.512 46.2305 87.512C46.1278 87.512 46.0065 87.5213 45.8665 87.54C45.7265 87.5587 45.6005 87.5913 45.4885 87.638L45.9365 85.86H46.6365L46.3565 86.924C46.4311 86.9147 46.4965 86.9053 46.5525 86.896C46.6178 86.896 46.6785 86.896 46.7345 86.896C47.0798 86.896 47.3458 86.994 47.5325 87.19C47.7285 87.386 47.8265 87.6613 47.8265 88.016C47.8265 88.352 47.7471 88.6227 47.5885 88.828C47.4391 89.0333 47.2385 89.1873 46.9865 89.29C46.7345 89.402 46.4545 89.472 46.1465 89.5ZM50.7922 86V78.622H51.7442L51.7722 79.672C51.9402 79.3827 52.1362 79.1587 52.3602 79C52.5935 78.832 52.8408 78.7153 53.1022 78.65C53.3635 78.5753 53.6248 78.538 53.8862 78.538C54.4088 78.538 54.8382 78.664 55.1742 78.916C55.5195 79.168 55.7668 79.5133 55.9162 79.952C56.0468 79.6907 56.2148 79.4527 56.4202 79.238C56.6255 79.0233 56.8775 78.8553 57.1762 78.734C57.4748 78.6033 57.8155 78.538 58.1982 78.538C58.7395 78.538 59.1782 78.6547 59.5142 78.888C59.8502 79.112 60.0928 79.42 60.2422 79.812C60.4008 80.204 60.4802 80.6473 60.4802 81.142V86H59.4862V81.674C59.4862 81.4033 59.4722 81.1373 59.4442 80.876C59.4162 80.6053 59.3508 80.3627 59.2482 80.148C59.1455 79.924 58.9915 79.7467 58.7862 79.616C58.5902 79.476 58.3195 79.406 57.9742 79.406C57.6382 79.406 57.3535 79.4853 57.1202 79.644C56.8962 79.7933 56.7095 79.9987 56.5602 80.26C56.4202 80.512 56.3175 80.792 56.2522 81.1C56.1962 81.3987 56.1682 81.6927 56.1682 81.982V86H55.1742V81.772C55.1742 81.52 55.1555 81.2587 55.1182 80.988C55.0902 80.708 55.0295 80.4467 54.9362 80.204C54.8428 79.9613 54.6935 79.77 54.4882 79.63C54.2828 79.4807 54.0122 79.406 53.6762 79.406C53.1908 79.406 52.8082 79.5413 52.5282 79.812C52.2575 80.0733 52.0662 80.4093 51.9542 80.82C51.8422 81.2213 51.7862 81.632 51.7862 82.052V86H50.7922ZM64.7106 86.084C64.3932 86.084 64.0806 86.0467 63.7726 85.972C63.4646 85.888 63.1846 85.762 62.9326 85.594C62.6806 85.4167 62.4752 85.1927 62.3166 84.922C62.1672 84.642 62.0926 84.3153 62.0926 83.942C62.0926 83.522 62.1672 83.172 62.3166 82.892C62.4752 82.612 62.6852 82.388 62.9466 82.22C63.2079 82.052 63.5066 81.9353 63.8426 81.87C64.1786 81.7953 64.5332 81.758 64.9066 81.758H67.2446C67.2446 81.3007 67.1792 80.8993 67.0486 80.554C66.9272 80.1993 66.7219 79.9193 66.4326 79.714C66.1526 79.5087 65.7746 79.406 65.2986 79.406C65.0466 79.406 64.8039 79.434 64.5706 79.49C64.3372 79.546 64.1272 79.6393 63.9406 79.77C63.7632 79.8913 63.6232 80.0593 63.5206 80.274H62.4566C62.5406 79.9473 62.6806 79.672 62.8766 79.448C63.0819 79.224 63.3199 79.0467 63.5906 78.916C63.8612 78.776 64.1459 78.678 64.4446 78.622C64.7432 78.566 65.0279 78.538 65.2986 78.538C66.3439 78.538 67.0906 78.8507 67.5386 79.476C67.9866 80.1013 68.2106 80.9413 68.2106 81.996V86H67.3566L67.3146 84.992C67.1092 85.272 66.8619 85.4913 66.5726 85.65C66.2926 85.8087 65.9939 85.9207 65.6766 85.986C65.3592 86.0513 65.0372 86.084 64.7106 86.084ZM64.7806 85.216C65.2379 85.216 65.6532 85.1413 66.0266 84.992C66.3999 84.8333 66.6939 84.6 66.9086 84.292C67.1326 83.984 67.2446 83.6013 67.2446 83.144V82.584H65.5926C65.3032 82.584 65.0092 82.5933 64.7106 82.612C64.4119 82.6213 64.1412 82.668 63.8986 82.752C63.6559 82.8267 63.4599 82.9527 63.3106 83.13C63.1612 83.298 63.0866 83.5407 63.0866 83.858C63.0866 84.1753 63.1659 84.4367 63.3246 84.642C63.4832 84.838 63.6932 84.9827 63.9546 85.076C64.2159 85.1693 64.4912 85.216 64.7806 85.216ZM70.1245 86V76.102H71.1045V86H70.1245ZM75.402 86.084C75.0847 86.084 74.772 86.0467 74.464 85.972C74.156 85.888 73.876 85.762 73.624 85.594C73.372 85.4167 73.1667 85.1927 73.008 84.922C72.8587 84.642 72.784 84.3153 72.784 83.942C72.784 83.522 72.8587 83.172 73.008 82.892C73.1667 82.612 73.3767 82.388 73.638 82.22C73.8993 82.052 74.198 81.9353 74.534 81.87C74.87 81.7953 75.2247 81.758 75.598 81.758H77.936C77.936 81.3007 77.8707 80.8993 77.74 80.554C77.6187 80.1993 77.4133 79.9193 77.124 79.714C76.844 79.5087 76.466 79.406 75.99 79.406C75.738 79.406 75.4953 79.434 75.262 79.49C75.0287 79.546 74.8187 79.6393 74.632 79.77C74.4547 79.8913 74.3147 80.0593 74.212 80.274H73.148C73.232 79.9473 73.372 79.672 73.568 79.448C73.7733 79.224 74.0113 79.0467 74.282 78.916C74.5527 78.776 74.8373 78.678 75.136 78.622C75.4347 78.566 75.7193 78.538 75.99 78.538C77.0353 78.538 77.782 78.8507 78.23 79.476C78.678 80.1013 78.902 80.9413 78.902 81.996V86H78.048L78.006 84.992C77.8007 85.272 77.5533 85.4913 77.264 85.65C76.984 85.8087 76.6853 85.9207 76.368 85.986C76.0507 86.0513 75.7287 86.084 75.402 86.084ZM75.472 85.216C75.9293 85.216 76.3447 85.1413 76.718 84.992C77.0913 84.8333 77.3853 84.6 77.6 84.292C77.824 83.984 77.936 83.6013 77.936 83.144V82.584H76.284C75.9947 82.584 75.7007 82.5933 75.402 82.612C75.1033 82.6213 74.8327 82.668 74.59 82.752C74.3473 82.8267 74.1513 82.9527 74.002 83.13C73.8527 83.298 73.778 83.5407 73.778 83.858C73.778 84.1753 73.8573 84.4367 74.016 84.642C74.1747 84.838 74.3847 84.9827 74.646 85.076C74.9073 85.1693 75.1827 85.216 75.472 85.216ZM80.8019 86V78.622H81.7539L81.7959 79.938C81.9826 79.5833 82.2113 79.308 82.4819 79.112C82.7619 78.916 83.0653 78.776 83.3919 78.692C83.7279 78.5987 84.0686 78.552 84.4139 78.552C84.4699 78.552 84.5213 78.552 84.5679 78.552C84.6146 78.552 84.6659 78.552 84.7219 78.552V79.462H84.3999C83.7839 79.462 83.2799 79.5927 82.8879 79.854C82.5053 80.1153 82.2253 80.47 82.0479 80.918C81.8799 81.366 81.7959 81.8653 81.7959 82.416V86H80.8019ZM85.9562 86V78.622H86.9502V86H85.9562ZM88.882 86V78.622H89.848L89.876 79.854C90.0627 79.546 90.2913 79.2987 90.562 79.112C90.8327 78.916 91.1313 78.7713 91.458 78.678C91.7847 78.5847 92.1113 78.538 92.438 78.538C93.1473 78.538 93.7073 78.6873 94.118 78.986C94.5287 79.2847 94.8227 79.6907 95 80.204C95.1773 80.708 95.266 81.282 95.266 81.926V86H94.272V82.248C94.272 81.884 94.2487 81.534 94.202 81.198C94.1553 80.8527 94.062 80.5447 93.922 80.274C93.7913 80.0033 93.5953 79.7933 93.334 79.644C93.082 79.4853 92.7413 79.406 92.312 79.406C91.7893 79.406 91.3413 79.546 90.968 79.826C90.604 80.106 90.3287 80.4793 90.142 80.946C89.9647 81.4127 89.876 81.9307 89.876 82.5V86H88.882ZM99.5055 86.084C99.1882 86.084 98.8755 86.0467 98.5675 85.972C98.2595 85.888 97.9795 85.762 97.7275 85.594C97.4755 85.4167 97.2702 85.1927 97.1115 84.922C96.9622 84.642 96.8875 84.3153 96.8875 83.942C96.8875 83.522 96.9622 83.172 97.1115 82.892C97.2702 82.612 97.4802 82.388 97.7415 82.22C98.0028 82.052 98.3015 81.9353 98.6375 81.87C98.9735 81.7953 99.3282 81.758 99.7015 81.758H102.04C102.04 81.3007 101.974 80.8993 101.844 80.554C101.722 80.1993 101.517 79.9193 101.228 79.714C100.948 79.5087 100.57 79.406 100.094 79.406C99.8415 79.406 99.5988 79.434 99.3655 79.49C99.1322 79.546 98.9222 79.6393 98.7355 79.77C98.5582 79.8913 98.4182 80.0593 98.3155 80.274H97.2515C97.3355 79.9473 97.4755 79.672 97.6715 79.448C97.8768 79.224 98.1148 79.0467 98.3855 78.916C98.6562 78.776 98.9408 78.678 99.2395 78.622C99.5382 78.566 99.8228 78.538 100.094 78.538C101.139 78.538 101.886 78.8507 102.334 79.476C102.782 80.1013 103.006 80.9413 103.006 81.996V86H102.152L102.11 84.992C101.904 85.272 101.657 85.4913 101.368 85.65C101.088 85.8087 100.789 85.9207 100.472 85.986C100.154 86.0513 99.8322 86.084 99.5055 86.084ZM99.5755 85.216C100.033 85.216 100.448 85.1413 100.822 84.992C101.195 84.8333 101.489 84.6 101.704 84.292C101.928 83.984 102.04 83.6013 102.04 83.144V82.584H100.388C100.098 82.584 99.8042 82.5933 99.5055 82.612C99.2068 82.6213 98.9362 82.668 98.6935 82.752C98.4508 82.8267 98.2548 82.9527 98.1055 83.13C97.9562 83.298 97.8815 83.5407 97.8815 83.858C97.8815 84.1753 97.9608 84.4367 98.1195 84.642C98.2782 84.838 98.4882 84.9827 98.7495 85.076C99.0108 85.1693 99.2862 85.216 99.5755 85.216ZM111.871 89.402C111.33 89.402 110.798 89.3273 110.275 89.178C109.762 89.0287 109.3 88.772 108.889 88.408L109.323 87.61C109.696 87.8993 110.093 88.1233 110.513 88.282C110.933 88.4407 111.372 88.52 111.829 88.52C112.66 88.52 113.252 88.282 113.607 87.806C113.962 87.3393 114.139 86.728 114.139 85.972V84.838C113.943 85.1553 113.705 85.4073 113.425 85.594C113.145 85.7807 112.842 85.916 112.515 86C112.198 86.0747 111.871 86.112 111.535 86.112C110.807 86.112 110.233 85.9627 109.813 85.664C109.393 85.3653 109.094 84.9593 108.917 84.446C108.749 83.9233 108.665 83.3307 108.665 82.668V78.622H109.659V82.332C109.659 82.696 109.682 83.0507 109.729 83.396C109.776 83.7413 109.869 84.054 110.009 84.334C110.149 84.6047 110.354 84.824 110.625 84.992C110.896 85.16 111.26 85.244 111.717 85.244C112.305 85.244 112.772 85.104 113.117 84.824C113.472 84.5347 113.724 84.1567 113.873 83.69C114.032 83.2233 114.111 82.7147 114.111 82.164V78.622H115.105V86.028C115.105 86.5693 115.035 87.05 114.895 87.47C114.764 87.89 114.564 88.24 114.293 88.52C114.022 88.8093 113.686 89.0287 113.285 89.178C112.884 89.3273 112.412 89.402 111.871 89.402ZM119.384 86.084C119.067 86.084 118.754 86.0467 118.446 85.972C118.138 85.888 117.858 85.762 117.606 85.594C117.354 85.4167 117.149 85.1927 116.99 84.922C116.841 84.642 116.766 84.3153 116.766 83.942C116.766 83.522 116.841 83.172 116.99 82.892C117.149 82.612 117.359 82.388 117.62 82.22C117.882 82.052 118.18 81.9353 118.516 81.87C118.852 81.7953 119.207 81.758 119.58 81.758H121.918C121.918 81.3007 121.853 80.8993 121.722 80.554C121.601 80.1993 121.396 79.9193 121.106 79.714C120.826 79.5087 120.448 79.406 119.972 79.406C119.72 79.406 119.478 79.434 119.244 79.49C119.011 79.546 118.801 79.6393 118.614 79.77C118.437 79.8913 118.297 80.0593 118.194 80.274H117.13C117.214 79.9473 117.354 79.672 117.55 79.448C117.756 79.224 117.994 79.0467 118.264 78.916C118.535 78.776 118.82 78.678 119.118 78.622C119.417 78.566 119.702 78.538 119.972 78.538C121.018 78.538 121.764 78.8507 122.212 79.476C122.66 80.1013 122.884 80.9413 122.884 81.996V86H122.03L121.988 84.992C121.783 85.272 121.536 85.4913 121.246 85.65C120.966 85.8087 120.668 85.9207 120.35 85.986C120.033 86.0513 119.711 86.084 119.384 86.084ZM119.454 85.216C119.912 85.216 120.327 85.1413 120.7 84.992C121.074 84.8333 121.368 84.6 121.582 84.292C121.806 83.984 121.918 83.6013 121.918 83.144V82.584H120.266C119.977 82.584 119.683 82.5933 119.384 82.612C119.086 82.6213 118.815 82.668 118.572 82.752C118.33 82.8267 118.134 82.9527 117.984 83.13C117.835 83.298 117.76 83.5407 117.76 83.858C117.76 84.1753 117.84 84.4367 117.998 84.642C118.157 84.838 118.367 84.9827 118.628 85.076C118.89 85.1693 119.165 85.216 119.454 85.216ZM124.784 86V78.622H125.736L125.778 79.938C125.965 79.5833 126.194 79.308 126.464 79.112C126.744 78.916 127.048 78.776 127.374 78.692C127.71 78.5987 128.051 78.552 128.396 78.552C128.452 78.552 128.504 78.552 128.55 78.552C128.597 78.552 128.648 78.552 128.704 78.552V79.462H128.382C127.766 79.462 127.262 79.5927 126.87 79.854C126.488 80.1153 126.208 80.47 126.03 80.918C125.862 81.366 125.778 81.8653 125.778 82.416V86H124.784ZM132.756 86.084C132 86.084 131.384 85.916 130.908 85.58C130.432 85.244 130.082 84.796 129.858 84.236C129.634 83.6667 129.522 83.032 129.522 82.332C129.522 81.604 129.643 80.9553 129.886 80.386C130.138 79.8073 130.507 79.3547 130.992 79.028C131.487 78.7013 132.103 78.538 132.84 78.538C133.148 78.538 133.456 78.58 133.764 78.664C134.072 78.7387 134.366 78.86 134.646 79.028C134.926 79.196 135.164 79.4247 135.36 79.714V76.102H136.354V86H135.402L135.36 84.74C135.173 85.0667 134.94 85.328 134.66 85.524C134.38 85.72 134.077 85.8647 133.75 85.958C133.423 86.042 133.092 86.084 132.756 86.084ZM132.882 85.216C133.423 85.216 133.876 85.0853 134.24 84.824C134.613 84.5533 134.893 84.194 135.08 83.746C135.276 83.298 135.374 82.808 135.374 82.276C135.374 81.7347 135.281 81.2493 135.094 80.82C134.917 80.3907 134.646 80.05 134.282 79.798C133.918 79.5367 133.456 79.406 132.896 79.406C132.327 79.406 131.865 79.5413 131.51 79.812C131.165 80.0733 130.913 80.428 130.754 80.876C130.595 81.3147 130.516 81.8 130.516 82.332C130.516 82.7147 130.553 83.0787 130.628 83.424C130.712 83.7693 130.843 84.0773 131.02 84.348C131.207 84.6187 131.449 84.8333 131.748 84.992C132.056 85.1413 132.434 85.216 132.882 85.216ZM138.292 86V78.622H139.286V86H138.292ZM141.218 86V78.622H142.17L142.198 79.672C142.366 79.3827 142.562 79.1587 142.786 79C143.019 78.832 143.267 78.7153 143.528 78.65C143.789 78.5753 144.051 78.538 144.312 78.538C144.835 78.538 145.264 78.664 145.6 78.916C145.945 79.168 146.193 79.5133 146.342 79.952C146.473 79.6907 146.641 79.4527 146.846 79.238C147.051 79.0233 147.303 78.8553 147.602 78.734C147.901 78.6033 148.241 78.538 148.624 78.538C149.165 78.538 149.604 78.6547 149.94 78.888C150.276 79.112 150.519 79.42 150.668 79.812C150.827 80.204 150.906 80.6473 150.906 81.142V86H149.912V81.674C149.912 81.4033 149.898 81.1373 149.87 80.876C149.842 80.6053 149.777 80.3627 149.674 80.148C149.571 79.924 149.417 79.7467 149.212 79.616C149.016 79.476 148.745 79.406 148.4 79.406C148.064 79.406 147.779 79.4853 147.546 79.644C147.322 79.7933 147.135 79.9987 146.986 80.26C146.846 80.512 146.743 80.792 146.678 81.1C146.622 81.3987 146.594 81.6927 146.594 81.982V86H145.6V81.772C145.6 81.52 145.581 81.2587 145.544 80.988C145.516 80.708 145.455 80.4467 145.362 80.204C145.269 79.9613 145.119 79.77 144.914 79.63C144.709 79.4807 144.438 79.406 144.102 79.406C143.617 79.406 143.234 79.5413 142.954 79.812C142.683 80.0733 142.492 80.4093 142.38 80.82C142.268 81.2213 142.212 81.632 142.212 82.052V86H141.218ZM155.948 86.084C155.174 86.084 154.53 85.9253 154.016 85.608C153.512 85.2813 153.134 84.8333 152.882 84.264C152.63 83.6947 152.504 83.0507 152.504 82.332C152.504 81.6227 152.635 80.9833 152.896 80.414C153.158 79.8353 153.55 79.378 154.072 79.042C154.595 78.706 155.258 78.538 156.06 78.538C156.536 78.538 156.966 78.6173 157.348 78.776C157.731 78.9253 158.053 79.154 158.314 79.462C158.576 79.7607 158.762 80.134 158.874 80.582H157.852C157.703 80.162 157.46 79.8633 157.124 79.686C156.798 79.4993 156.42 79.406 155.99 79.406C155.402 79.406 154.926 79.546 154.562 79.826C154.198 80.0967 153.928 80.456 153.75 80.904C153.582 81.3427 153.498 81.8187 153.498 82.332C153.498 82.8547 153.582 83.3353 153.75 83.774C153.928 84.2127 154.198 84.5627 154.562 84.824C154.936 85.0853 155.412 85.216 155.99 85.216C156.41 85.216 156.802 85.1273 157.166 84.95C157.53 84.7727 157.782 84.4693 157.922 84.04H158.958C158.846 84.5067 158.636 84.894 158.328 85.202C158.03 85.5007 157.67 85.7247 157.25 85.874C156.84 86.014 156.406 86.084 155.948 86.084ZM160.509 86V78.622H161.503V86H160.509ZM170.428 86.084C169.654 86.084 169.005 85.9253 168.482 85.608C167.96 85.2813 167.568 84.8333 167.306 84.264C167.054 83.6947 166.928 83.046 166.928 82.318C166.928 81.5807 167.059 80.932 167.32 80.372C167.582 79.8027 167.974 79.3547 168.496 79.028C169.019 78.7013 169.668 78.538 170.442 78.538C171.217 78.538 171.861 78.7013 172.374 79.028C172.897 79.3547 173.284 79.8027 173.536 80.372C173.798 80.932 173.928 81.5807 173.928 82.318C173.928 83.046 173.798 83.6947 173.536 84.264C173.275 84.8333 172.883 85.2813 172.36 85.608C171.847 85.9253 171.203 86.084 170.428 86.084ZM170.428 85.216C171.007 85.216 171.483 85.09 171.856 84.838C172.23 84.5767 172.505 84.2267 172.682 83.788C172.86 83.3493 172.948 82.8593 172.948 82.318C172.948 81.7767 172.86 81.2867 172.682 80.848C172.505 80.4093 172.23 80.0593 171.856 79.798C171.483 79.5367 171.007 79.406 170.428 79.406C169.85 79.406 169.374 79.5367 169 79.798C168.627 80.0593 168.352 80.4093 168.174 80.848C168.006 81.2867 167.922 81.7767 167.922 82.318C167.922 82.8593 168.006 83.3493 168.174 83.788C168.352 84.2267 168.627 84.5767 169 84.838C169.374 85.09 169.85 85.216 170.428 85.216ZM175.589 86V76.102H176.569V86H175.589ZM181.553 86.084C180.526 86.084 179.756 85.8087 179.243 85.258C178.739 84.7073 178.487 83.886 178.487 82.794V78.622H179.481V82.766C179.481 83.2607 179.551 83.6947 179.691 84.068C179.84 84.432 180.064 84.7167 180.363 84.922C180.671 85.118 181.067 85.216 181.553 85.216C182.047 85.216 182.449 85.118 182.757 84.922C183.074 84.726 183.303 84.446 183.443 84.082C183.583 83.7087 183.653 83.27 183.653 82.766V78.622H184.647V82.794C184.647 83.886 184.39 84.7073 183.877 85.258C183.363 85.8087 182.589 86.084 181.553 86.084ZM186.554 86V78.622H187.52L187.548 79.854C187.735 79.546 187.963 79.2987 188.234 79.112C188.505 78.916 188.803 78.7713 189.13 78.678C189.457 78.5847 189.783 78.538 190.11 78.538C190.819 78.538 191.379 78.6873 191.79 78.986C192.201 79.2847 192.495 79.6907 192.672 80.204C192.849 80.708 192.938 81.282 192.938 81.926V86H191.944V82.248C191.944 81.884 191.921 81.534 191.874 81.198C191.827 80.8527 191.734 80.5447 191.594 80.274C191.463 80.0033 191.267 79.7933 191.006 79.644C190.754 79.4853 190.413 79.406 189.984 79.406C189.461 79.406 189.013 79.546 188.64 79.826C188.276 80.106 188.001 80.4793 187.814 80.946C187.637 81.4127 187.548 81.9307 187.548 82.5V86H186.554Z" fill="#232323"/>
<path d="M13.2033 10.4758C21.4027 1.6003 45.3992 1.33871 53.1356 9.9414" stroke="#0223B5" stroke-width="1.70118"/>
<path d="M222.83 13.823L218.585 16.1471M218.901 1.00129L212.896 10.5927" stroke="#0223B5" stroke-width="1.45542"/>
</svg>
