<svg width="678" height="158" viewBox="0 0 678 158" fill="none" xmlns="http://www.w3.org/2000/svg">
<path d="M650.414 103.351C650.414 103.351 656.618 122.445 632.137 129.209M632.137 129.209C605.482 136.574 627.14 102.308 632.137 129.209ZM632.137 129.209C623.649 156.934 592.493 143.963 592.493 143.963" stroke="white"/>
<path d="M121.28 109.951L117.18 99.4112H118.78L122.28 108.611L125.74 99.4112H127.36L123.22 109.951H121.28ZM133.467 110.071C132.36 110.071 131.44 109.845 130.707 109.391C129.974 108.925 129.427 108.285 129.067 107.471C128.707 106.658 128.527 105.731 128.527 104.691C128.527 103.651 128.714 102.731 129.087 101.931C129.46 101.118 130.014 100.478 130.747 100.011C131.48 99.5312 132.38 99.2912 133.447 99.2912C134.247 99.2912 134.934 99.4378 135.507 99.7312C136.094 100.025 136.574 100.425 136.947 100.931C137.334 101.438 137.614 101.998 137.787 102.611C137.974 103.225 138.067 103.851 138.067 104.491C138.054 104.611 138.047 104.731 138.047 104.851C138.047 104.958 138.04 105.065 138.027 105.171H129.947C130 105.878 130.16 106.511 130.427 107.071C130.694 107.618 131.08 108.051 131.587 108.371C132.107 108.678 132.754 108.831 133.527 108.831C133.887 108.831 134.254 108.791 134.627 108.711C135 108.618 135.34 108.465 135.647 108.251C135.954 108.025 136.18 107.731 136.327 107.371H137.807C137.62 107.998 137.307 108.511 136.867 108.911C136.427 109.311 135.907 109.605 135.307 109.791C134.707 109.978 134.094 110.071 133.467 110.071ZM129.987 103.951H136.627C136.614 103.298 136.474 102.718 136.207 102.211C135.94 101.691 135.574 101.285 135.107 100.991C134.64 100.685 134.067 100.531 133.387 100.531C132.68 100.531 132.08 100.691 131.587 101.011C131.094 101.331 130.714 101.751 130.447 102.271C130.194 102.791 130.04 103.351 129.987 103.951ZM149.601 110.071C149.135 110.071 148.668 110.031 148.201 109.951C147.735 109.858 147.295 109.705 146.881 109.491C146.468 109.278 146.115 108.991 145.821 108.631C145.541 108.271 145.348 107.831 145.241 107.311H146.701C146.861 107.698 147.101 108.005 147.421 108.231C147.755 108.445 148.121 108.598 148.521 108.691C148.921 108.785 149.301 108.831 149.661 108.831C149.915 108.831 150.195 108.818 150.501 108.791C150.821 108.751 151.121 108.671 151.401 108.551C151.681 108.431 151.908 108.258 152.081 108.031C152.268 107.805 152.361 107.505 152.361 107.131C152.361 106.798 152.281 106.531 152.121 106.331C151.975 106.131 151.775 105.971 151.521 105.851C151.268 105.731 150.988 105.645 150.681 105.591C150.201 105.485 149.688 105.385 149.141 105.291C148.595 105.198 148.101 105.031 147.661 104.791C147.395 104.698 147.135 104.585 146.881 104.451C146.641 104.305 146.421 104.131 146.221 103.931C146.021 103.731 145.861 103.491 145.741 103.211C145.621 102.931 145.561 102.605 145.561 102.231C145.561 101.711 145.668 101.265 145.881 100.891C146.095 100.518 146.381 100.211 146.741 99.9712C147.115 99.7312 147.541 99.5578 148.021 99.4512C148.501 99.3445 149.008 99.2912 149.541 99.2912C150.181 99.2912 150.768 99.3912 151.301 99.5912C151.848 99.7778 152.301 100.065 152.661 100.451C153.035 100.838 153.268 101.325 153.361 101.911H152.041C151.895 101.471 151.588 101.131 151.121 100.891C150.655 100.651 150.115 100.531 149.501 100.531C149.275 100.531 149.015 100.551 148.721 100.591C148.428 100.631 148.148 100.711 147.881 100.831C147.615 100.938 147.395 101.105 147.221 101.331C147.048 101.545 146.961 101.838 146.961 102.211C146.961 102.558 147.048 102.845 147.221 103.071C147.395 103.298 147.635 103.478 147.941 103.611C148.248 103.731 148.581 103.838 148.941 103.931C149.381 104.025 149.861 104.118 150.381 104.211C150.915 104.291 151.355 104.385 151.701 104.491C152.141 104.625 152.515 104.805 152.821 105.031C153.128 105.258 153.361 105.538 153.521 105.871C153.681 106.191 153.761 106.578 153.761 107.031C153.761 107.645 153.641 108.151 153.401 108.551C153.161 108.938 152.835 109.245 152.421 109.471C152.021 109.685 151.575 109.838 151.081 109.931C150.588 110.025 150.095 110.071 149.601 110.071ZM155.958 109.951V99.4112H157.378V109.951H155.958ZM156.658 97.7112C156.351 97.7112 156.105 97.6178 155.918 97.4312C155.731 97.2445 155.638 96.9978 155.638 96.6912C155.638 96.3845 155.731 96.1445 155.918 95.9712C156.118 95.7845 156.365 95.6912 156.658 95.6912C156.938 95.6912 157.178 95.7845 157.378 95.9712C157.591 96.1578 157.698 96.3978 157.698 96.6912C157.698 96.9978 157.598 97.2445 157.398 97.4312C157.198 97.6178 156.951 97.7112 156.658 97.7112ZM159.738 109.951V108.711L166.398 100.651H159.778V99.4112H168.158V100.631L161.438 108.731H168.158V109.951H159.738ZM175.049 110.071C173.942 110.071 173.022 109.845 172.289 109.391C171.556 108.925 171.009 108.285 170.649 107.471C170.289 106.658 170.109 105.731 170.109 104.691C170.109 103.651 170.296 102.731 170.669 101.931C171.042 101.118 171.596 100.478 172.329 100.011C173.062 99.5312 173.962 99.2912 175.029 99.2912C175.829 99.2912 176.516 99.4378 177.089 99.7312C177.676 100.025 178.156 100.425 178.529 100.931C178.916 101.438 179.196 101.998 179.369 102.611C179.556 103.225 179.649 103.851 179.649 104.491C179.636 104.611 179.629 104.731 179.629 104.851C179.629 104.958 179.622 105.065 179.609 105.171H171.529C171.582 105.878 171.742 106.511 172.009 107.071C172.276 107.618 172.662 108.051 173.169 108.371C173.689 108.678 174.336 108.831 175.109 108.831C175.469 108.831 175.836 108.791 176.209 108.711C176.582 108.618 176.922 108.465 177.229 108.251C177.536 108.025 177.762 107.731 177.909 107.371H179.389C179.202 107.998 178.889 108.511 178.449 108.911C178.009 109.311 177.489 109.605 176.889 109.791C176.289 109.978 175.676 110.071 175.049 110.071ZM171.569 103.951H178.209C178.196 103.298 178.056 102.718 177.789 102.211C177.522 101.691 177.156 101.285 176.689 100.991C176.222 100.685 175.649 100.531 174.969 100.531C174.262 100.531 173.662 100.691 173.169 101.011C172.676 101.331 172.296 101.751 172.029 102.271C171.776 102.791 171.622 103.351 171.569 103.951ZM187.403 109.951V99.4112H188.823V109.951H187.403ZM188.103 97.7112C187.797 97.7112 187.55 97.6178 187.363 97.4312C187.177 97.2445 187.083 96.9978 187.083 96.6912C187.083 96.3845 187.177 96.1445 187.363 95.9712C187.563 95.7845 187.81 95.6912 188.103 95.6912C188.383 95.6912 188.623 95.7845 188.823 95.9712C189.037 96.1578 189.143 96.3978 189.143 96.6912C189.143 96.9978 189.043 97.2445 188.843 97.4312C188.643 97.6178 188.397 97.7112 188.103 97.7112ZM191.583 109.951V95.8112H193.003V101.191C193.27 100.765 193.596 100.411 193.983 100.131C194.37 99.8512 194.79 99.6445 195.243 99.5112C195.696 99.3645 196.17 99.2912 196.663 99.2912C197.69 99.2912 198.496 99.5045 199.083 99.9312C199.67 100.358 200.083 100.938 200.323 101.671C200.576 102.391 200.703 103.211 200.703 104.131V109.951H199.283V104.651C199.283 104.145 199.25 103.651 199.183 103.171C199.116 102.678 198.983 102.231 198.783 101.831C198.596 101.431 198.31 101.118 197.923 100.891C197.55 100.651 197.05 100.531 196.423 100.531C195.823 100.531 195.303 100.658 194.863 100.911C194.423 101.151 194.063 101.485 193.783 101.911C193.516 102.338 193.316 102.811 193.183 103.331C193.063 103.838 193.003 104.358 193.003 104.891V109.951H191.583ZM207.66 109.951C206.886 109.951 206.26 109.831 205.78 109.591C205.3 109.351 204.946 108.985 204.72 108.491C204.493 107.985 204.38 107.345 204.38 106.571V100.651H202.62V99.4112H204.38V96.2712H205.8V99.4112H208.72V100.651H205.8V106.431C205.8 107.205 205.946 107.785 206.24 108.171C206.533 108.545 207.106 108.731 207.96 108.731H208.66V109.951H207.66ZM210.724 109.951V99.4112H212.144V109.951H210.724ZM211.424 97.7112C211.117 97.7112 210.87 97.6178 210.684 97.4312C210.497 97.2445 210.404 96.9978 210.404 96.6912C210.404 96.3845 210.497 96.1445 210.684 95.9712C210.884 95.7845 211.13 95.6912 211.424 95.6912C211.704 95.6912 211.944 95.7845 212.144 95.9712C212.357 96.1578 212.464 96.3978 212.464 96.6912C212.464 96.9978 212.364 97.2445 212.164 97.4312C211.964 97.6178 211.717 97.7112 211.424 97.7112ZM219.463 114.811C218.69 114.811 217.93 114.705 217.183 114.491C216.45 114.278 215.79 113.911 215.203 113.391L215.823 112.251C216.357 112.665 216.923 112.985 217.523 113.211C218.123 113.438 218.75 113.551 219.403 113.551C220.59 113.551 221.437 113.211 221.943 112.531C222.45 111.865 222.703 110.991 222.703 109.911V108.291C222.423 108.745 222.083 109.105 221.683 109.371C221.283 109.638 220.85 109.831 220.383 109.951C219.93 110.058 219.463 110.111 218.983 110.111C217.943 110.111 217.123 109.898 216.523 109.471C215.923 109.045 215.497 108.465 215.243 107.731C215.003 106.985 214.883 106.138 214.883 105.191V99.4112H216.303V104.711C216.303 105.231 216.337 105.738 216.403 106.231C216.47 106.725 216.603 107.171 216.803 107.571C217.003 107.958 217.297 108.271 217.683 108.511C218.07 108.751 218.59 108.871 219.243 108.871C220.083 108.871 220.75 108.671 221.243 108.271C221.75 107.858 222.11 107.318 222.323 106.651C222.55 105.985 222.663 105.258 222.663 104.471V99.4112H224.083V109.991C224.083 110.765 223.983 111.451 223.783 112.051C223.597 112.651 223.31 113.151 222.923 113.551C222.537 113.965 222.057 114.278 221.483 114.491C220.91 114.705 220.237 114.811 219.463 114.811ZM230.197 110.071C229.744 110.071 229.297 110.018 228.857 109.911C228.417 109.791 228.017 109.611 227.657 109.371C227.297 109.118 227.004 108.798 226.777 108.411C226.564 108.011 226.457 107.545 226.457 107.011C226.457 106.411 226.564 105.911 226.777 105.511C227.004 105.111 227.304 104.791 227.677 104.551C228.05 104.311 228.477 104.145 228.957 104.051C229.437 103.945 229.944 103.891 230.477 103.891H233.817C233.817 103.238 233.724 102.665 233.537 102.171C233.364 101.665 233.07 101.265 232.657 100.971C232.257 100.678 231.717 100.531 231.037 100.531C230.677 100.531 230.33 100.571 229.997 100.651C229.664 100.731 229.364 100.865 229.097 101.051C228.844 101.225 228.644 101.465 228.497 101.771H226.977C227.097 101.305 227.297 100.911 227.577 100.591C227.87 100.271 228.21 100.018 228.597 99.8312C228.984 99.6312 229.39 99.4912 229.817 99.4112C230.244 99.3312 230.65 99.2912 231.037 99.2912C232.53 99.2912 233.597 99.7378 234.237 100.631C234.877 101.525 235.197 102.725 235.197 104.231V109.951H233.977L233.917 108.511C233.624 108.911 233.27 109.225 232.857 109.451C232.457 109.678 232.03 109.838 231.577 109.931C231.124 110.025 230.664 110.071 230.197 110.071ZM230.297 108.831C230.95 108.831 231.544 108.725 232.077 108.511C232.61 108.285 233.03 107.951 233.337 107.511C233.657 107.071 233.817 106.525 233.817 105.871V105.071H231.457C231.044 105.071 230.624 105.085 230.197 105.111C229.77 105.125 229.384 105.191 229.037 105.311C228.69 105.418 228.41 105.598 228.197 105.851C227.984 106.091 227.877 106.438 227.877 106.891C227.877 107.345 227.99 107.718 228.217 108.011C228.444 108.291 228.744 108.498 229.117 108.631C229.49 108.765 229.884 108.831 230.297 108.831ZM242.431 110.071C241.325 110.071 240.405 109.845 239.671 109.391C238.951 108.925 238.411 108.285 238.051 107.471C237.691 106.658 237.511 105.738 237.511 104.711C237.511 103.698 237.698 102.785 238.071 101.971C238.445 101.145 239.005 100.491 239.751 100.011C240.498 99.5312 241.445 99.2912 242.591 99.2912C243.271 99.2912 243.885 99.4045 244.431 99.6312C244.978 99.8445 245.438 100.171 245.811 100.611C246.185 101.038 246.451 101.571 246.611 102.211H245.151C244.938 101.611 244.591 101.185 244.111 100.931C243.645 100.665 243.105 100.531 242.491 100.531C241.651 100.531 240.971 100.731 240.451 101.131C239.931 101.518 239.545 102.031 239.291 102.671C239.051 103.298 238.931 103.978 238.931 104.711C238.931 105.458 239.051 106.145 239.291 106.771C239.545 107.398 239.931 107.898 240.451 108.271C240.985 108.645 241.665 108.831 242.491 108.831C243.091 108.831 243.651 108.705 244.171 108.451C244.691 108.198 245.051 107.765 245.251 107.151H246.731C246.571 107.818 246.271 108.371 245.831 108.811C245.405 109.238 244.891 109.558 244.291 109.771C243.705 109.971 243.085 110.071 242.431 110.071ZM241.871 114.951C241.725 114.965 241.565 114.978 241.391 114.991C241.231 115.005 241.058 115.005 240.871 114.991V114.091C241.098 114.091 241.338 114.085 241.591 114.071C241.845 114.058 242.091 114.011 242.331 113.931C242.571 113.865 242.765 113.745 242.911 113.571C243.071 113.411 243.151 113.191 243.151 112.911C243.151 112.685 243.085 112.511 242.951 112.391C242.818 112.285 242.658 112.211 242.471 112.171C242.298 112.131 242.138 112.111 241.991 112.111C241.845 112.111 241.671 112.125 241.471 112.151C241.271 112.178 241.091 112.225 240.931 112.291L241.571 109.751H242.571L242.171 111.271C242.278 111.258 242.371 111.245 242.451 111.231C242.545 111.231 242.631 111.231 242.711 111.231C243.205 111.231 243.585 111.371 243.851 111.651C244.131 111.931 244.271 112.325 244.271 112.831C244.271 113.311 244.158 113.698 243.931 113.991C243.718 114.285 243.431 114.505 243.071 114.651C242.711 114.811 242.311 114.911 241.871 114.951ZM248.966 109.951V95.8112H250.366V109.951H248.966ZM256.506 110.071C256.052 110.071 255.606 110.018 255.166 109.911C254.726 109.791 254.326 109.611 253.966 109.371C253.606 109.118 253.312 108.798 253.086 108.411C252.872 108.011 252.766 107.545 252.766 107.011C252.766 106.411 252.872 105.911 253.086 105.511C253.312 105.111 253.612 104.791 253.986 104.551C254.359 104.311 254.786 104.145 255.266 104.051C255.746 103.945 256.252 103.891 256.786 103.891H260.126C260.126 103.238 260.032 102.665 259.846 102.171C259.672 101.665 259.379 101.265 258.966 100.971C258.566 100.678 258.026 100.531 257.346 100.531C256.986 100.531 256.639 100.571 256.306 100.651C255.972 100.731 255.672 100.865 255.406 101.051C255.152 101.225 254.952 101.465 254.806 101.771H253.286C253.406 101.305 253.606 100.911 253.886 100.591C254.179 100.271 254.519 100.018 254.906 99.8312C255.292 99.6312 255.699 99.4912 256.126 99.4112C256.552 99.3312 256.959 99.2912 257.346 99.2912C258.839 99.2912 259.906 99.7378 260.546 100.631C261.186 101.525 261.506 102.725 261.506 104.231V109.951H260.286L260.226 108.511C259.932 108.911 259.579 109.225 259.166 109.451C258.766 109.678 258.339 109.838 257.886 109.931C257.432 110.025 256.972 110.071 256.506 110.071ZM256.606 108.831C257.259 108.831 257.852 108.725 258.386 108.511C258.919 108.285 259.339 107.951 259.646 107.511C259.966 107.071 260.126 106.525 260.126 105.871V105.071H257.766C257.352 105.071 256.932 105.085 256.506 105.111C256.079 105.125 255.692 105.191 255.346 105.311C254.999 105.418 254.719 105.598 254.506 105.851C254.292 106.091 254.186 106.438 254.186 106.891C254.186 107.345 254.299 107.718 254.526 108.011C254.752 108.291 255.052 108.498 255.426 108.631C255.799 108.765 256.192 108.831 256.606 108.831ZM264.22 109.951V99.4112H265.58L265.64 101.291C265.907 100.785 266.233 100.391 266.62 100.111C267.02 99.8312 267.453 99.6312 267.92 99.5112C268.4 99.3778 268.887 99.3112 269.38 99.3112C269.46 99.3112 269.533 99.3112 269.6 99.3112C269.667 99.3112 269.74 99.3112 269.82 99.3112V100.611H269.36C268.48 100.611 267.76 100.798 267.2 101.171C266.653 101.545 266.253 102.051 266 102.691C265.76 103.331 265.64 104.045 265.64 104.831V109.951H264.22ZM271.583 109.951V99.4112H273.003V109.951H271.583ZM275.763 109.951V99.4112H277.143L277.183 101.171C277.449 100.731 277.776 100.378 278.163 100.111C278.549 99.8312 278.976 99.6245 279.443 99.4912C279.909 99.3578 280.376 99.2912 280.843 99.2912C281.856 99.2912 282.656 99.5045 283.243 99.9312C283.829 100.358 284.249 100.938 284.503 101.671C284.756 102.391 284.883 103.211 284.883 104.131V109.951H283.463V104.591C283.463 104.071 283.429 103.571 283.363 103.091C283.296 102.598 283.163 102.158 282.963 101.771C282.776 101.385 282.496 101.085 282.123 100.871C281.763 100.645 281.276 100.531 280.663 100.531C279.916 100.531 279.276 100.731 278.743 101.131C278.223 101.531 277.829 102.065 277.563 102.731C277.309 103.398 277.183 104.138 277.183 104.951V109.951H275.763ZM287.579 109.951V99.4112H288.999V109.951H287.579ZM291.359 109.951V108.711L298.019 100.651H291.399V99.4112H299.779V100.631L293.059 108.731H299.779V109.951H291.359ZM307.521 109.951V99.4112H308.941V109.951H307.521ZM308.221 97.7112C307.914 97.7112 307.667 97.6178 307.481 97.4312C307.294 97.2445 307.201 96.9978 307.201 96.6912C307.201 96.3845 307.294 96.1445 307.481 95.9712C307.681 95.7845 307.927 95.6912 308.221 95.6912C308.501 95.6912 308.741 95.7845 308.941 95.9712C309.154 96.1578 309.261 96.3978 309.261 96.6912C309.261 96.9978 309.161 97.2445 308.961 97.4312C308.761 97.6178 308.514 97.7112 308.221 97.7112ZM316.22 110.071C315.114 110.071 314.194 109.845 313.46 109.391C312.74 108.925 312.2 108.285 311.84 107.471C311.48 106.658 311.3 105.738 311.3 104.711C311.3 103.698 311.487 102.785 311.86 101.971C312.234 101.145 312.794 100.491 313.54 100.011C314.287 99.5312 315.234 99.2912 316.38 99.2912C317.06 99.2912 317.674 99.4045 318.22 99.6312C318.767 99.8445 319.227 100.171 319.6 100.611C319.974 101.038 320.24 101.571 320.4 102.211H318.94C318.727 101.611 318.38 101.185 317.9 100.931C317.434 100.665 316.894 100.531 316.28 100.531C315.44 100.531 314.76 100.731 314.24 101.131C313.72 101.518 313.334 102.031 313.08 102.671C312.84 103.298 312.72 103.978 312.72 104.711C312.72 105.458 312.84 106.145 313.08 106.771C313.334 107.398 313.72 107.898 314.24 108.271C314.774 108.645 315.454 108.831 316.28 108.831C316.88 108.831 317.44 108.705 317.96 108.451C318.48 108.198 318.84 107.765 319.04 107.151H320.52C320.36 107.818 320.06 108.371 319.62 108.811C319.194 109.238 318.68 109.558 318.08 109.771C317.494 109.971 316.874 110.071 316.22 110.071ZM315.66 114.951C315.514 114.965 315.354 114.978 315.18 114.991C315.02 115.005 314.847 115.005 314.66 114.991V114.091C314.887 114.091 315.127 114.085 315.38 114.071C315.634 114.058 315.88 114.011 316.12 113.931C316.36 113.865 316.554 113.745 316.7 113.571C316.86 113.411 316.94 113.191 316.94 112.911C316.94 112.685 316.874 112.511 316.74 112.391C316.607 112.285 316.447 112.211 316.26 112.171C316.087 112.131 315.927 112.111 315.78 112.111C315.634 112.111 315.46 112.125 315.26 112.151C315.06 112.178 314.88 112.225 314.72 112.291L315.36 109.751H316.36L315.96 111.271C316.067 111.258 316.16 111.245 316.24 111.231C316.334 111.231 316.42 111.231 316.5 111.231C316.994 111.231 317.374 111.371 317.64 111.651C317.92 111.931 318.06 112.325 318.06 112.831C318.06 113.311 317.947 113.698 317.72 113.991C317.507 114.285 317.22 114.505 316.86 114.651C316.5 114.811 316.1 114.911 315.66 114.951ZM322.735 109.951V99.4112H324.155V109.951H322.735ZM323.435 97.7112C323.129 97.7112 322.882 97.6178 322.695 97.4312C322.509 97.2445 322.415 96.9978 322.415 96.6912C322.415 96.3845 322.509 96.1445 322.695 95.9712C322.895 95.7845 323.142 95.6912 323.435 95.6912C323.715 95.6912 323.955 95.7845 324.155 95.9712C324.369 96.1578 324.475 96.3978 324.475 96.6912C324.475 96.9978 324.375 97.2445 324.175 97.4312C323.975 97.6178 323.729 97.7112 323.435 97.7112ZM326.915 109.951V99.4112H328.295L328.335 101.171C328.602 100.731 328.928 100.378 329.315 100.111C329.702 99.8312 330.128 99.6245 330.595 99.4912C331.062 99.3578 331.528 99.2912 331.995 99.2912C333.008 99.2912 333.808 99.5045 334.395 99.9312C334.982 100.358 335.402 100.938 335.655 101.671C335.908 102.391 336.035 103.211 336.035 104.131V109.951H334.615V104.591C334.615 104.071 334.582 103.571 334.515 103.091C334.448 102.598 334.315 102.158 334.115 101.771C333.928 101.385 333.648 101.085 333.275 100.871C332.915 100.645 332.428 100.531 331.815 100.531C331.068 100.531 330.428 100.731 329.895 101.131C329.375 101.531 328.982 102.065 328.715 102.731C328.462 103.398 328.335 104.138 328.335 104.951V109.951H326.915ZM344.122 109.951V95.8112H345.542V101.191C345.809 100.765 346.136 100.411 346.522 100.131C346.909 99.8512 347.329 99.6445 347.782 99.5112C348.236 99.3645 348.709 99.2912 349.202 99.2912C350.229 99.2912 351.036 99.5045 351.622 99.9312C352.209 100.358 352.622 100.938 352.862 101.671C353.116 102.391 353.242 103.211 353.242 104.131V109.951H351.822V104.651C351.822 104.145 351.789 103.651 351.722 103.171C351.656 102.678 351.522 102.231 351.322 101.831C351.136 101.431 350.849 101.118 350.462 100.891C350.089 100.651 349.589 100.531 348.962 100.531C348.362 100.531 347.842 100.658 347.402 100.911C346.962 101.151 346.602 101.485 346.322 101.911C346.056 102.338 345.856 102.811 345.722 103.331C345.602 103.838 345.542 104.358 345.542 104.891V109.951H344.122ZM359.299 110.071C358.845 110.071 358.399 110.018 357.959 109.911C357.519 109.791 357.119 109.611 356.759 109.371C356.399 109.118 356.105 108.798 355.879 108.411C355.665 108.011 355.559 107.545 355.559 107.011C355.559 106.411 355.665 105.911 355.879 105.511C356.105 105.111 356.405 104.791 356.779 104.551C357.152 104.311 357.579 104.145 358.059 104.051C358.539 103.945 359.045 103.891 359.579 103.891H362.919C362.919 103.238 362.825 102.665 362.639 102.171C362.465 101.665 362.172 101.265 361.759 100.971C361.359 100.678 360.819 100.531 360.139 100.531C359.779 100.531 359.432 100.571 359.099 100.651C358.765 100.731 358.465 100.865 358.199 101.051C357.945 101.225 357.745 101.465 357.599 101.771H356.079C356.199 101.305 356.399 100.911 356.679 100.591C356.972 100.271 357.312 100.018 357.699 99.8312C358.085 99.6312 358.492 99.4912 358.919 99.4112C359.345 99.3312 359.752 99.2912 360.139 99.2912C361.632 99.2912 362.699 99.7378 363.339 100.631C363.979 101.525 364.299 102.725 364.299 104.231V109.951H363.079L363.019 108.511C362.725 108.911 362.372 109.225 361.959 109.451C361.559 109.678 361.132 109.838 360.679 109.931C360.225 110.025 359.765 110.071 359.299 110.071ZM359.399 108.831C360.052 108.831 360.645 108.725 361.179 108.511C361.712 108.285 362.132 107.951 362.439 107.511C362.759 107.071 362.919 106.525 362.919 105.871V105.071H360.559C360.145 105.071 359.725 105.085 359.299 105.111C358.872 105.125 358.485 105.191 358.139 105.311C357.792 105.418 357.512 105.598 357.299 105.851C357.085 106.091 356.979 106.438 356.979 106.891C356.979 107.345 357.092 107.718 357.319 108.011C357.545 108.291 357.845 108.498 358.219 108.631C358.592 108.765 358.985 108.831 359.399 108.831ZM366.613 109.951V108.711L373.273 100.651H366.653V99.4112H375.033V100.631L368.313 108.731H375.033V109.951H366.613ZM377.384 109.951V99.4112H378.804V109.951H377.384ZM381.564 109.951V99.4112H382.924L382.984 101.291C383.25 100.785 383.577 100.391 383.964 100.111C384.364 99.8312 384.797 99.6312 385.264 99.5112C385.744 99.3778 386.23 99.3112 386.724 99.3112C386.804 99.3112 386.877 99.3112 386.944 99.3112C387.01 99.3112 387.084 99.3112 387.164 99.3112V100.611H386.704C385.824 100.611 385.104 100.798 384.544 101.171C383.997 101.545 383.597 102.051 383.344 102.691C383.104 103.331 382.984 104.045 382.984 104.831V109.951H381.564ZM399.258 110.071C398.791 110.071 398.338 110.018 397.898 109.911C397.458 109.805 397.051 109.625 396.678 109.371C396.304 109.118 395.984 108.791 395.718 108.391L395.658 109.951H394.318V95.8112H395.738V101.151C396.138 100.498 396.671 100.025 397.338 99.7312C398.018 99.4378 398.724 99.2912 399.458 99.2912C400.524 99.2912 401.398 99.5312 402.078 100.011C402.758 100.491 403.258 101.138 403.578 101.951C403.911 102.765 404.078 103.671 404.078 104.671C404.078 105.685 403.898 106.605 403.538 107.431C403.178 108.245 402.644 108.891 401.938 109.371C401.231 109.838 400.338 110.071 399.258 110.071ZM399.238 108.831C400.064 108.831 400.724 108.645 401.218 108.271C401.711 107.885 402.071 107.378 402.298 106.751C402.538 106.125 402.658 105.438 402.658 104.691C402.658 103.931 402.544 103.238 402.318 102.611C402.091 101.985 401.724 101.485 401.218 101.111C400.711 100.725 400.044 100.531 399.218 100.531C398.458 100.531 397.811 100.738 397.278 101.151C396.758 101.565 396.364 102.091 396.098 102.731C395.831 103.371 395.698 104.031 395.698 104.711C395.698 105.445 395.818 106.125 396.058 106.751C396.311 107.378 396.698 107.885 397.218 108.271C397.738 108.645 398.411 108.831 399.238 108.831ZM406.446 109.951V99.4112H407.866V109.951H406.446ZM407.146 97.7112C406.84 97.7112 406.593 97.6178 406.406 97.4312C406.22 97.2445 406.126 96.9978 406.126 96.6912C406.126 96.3845 406.22 96.1445 406.406 95.9712C406.606 95.7845 406.853 95.6912 407.146 95.6912C407.426 95.6912 407.666 95.7845 407.866 95.9712C408.08 96.1578 408.186 96.3978 408.186 96.6912C408.186 96.9978 408.086 97.2445 407.886 97.4312C407.686 97.6178 407.44 97.7112 407.146 97.7112ZM410.626 109.951V99.4112H411.986L412.046 101.291C412.313 100.785 412.639 100.391 413.026 100.111C413.426 99.8312 413.859 99.6312 414.326 99.5112C414.806 99.3778 415.293 99.3112 415.786 99.3112C415.866 99.3112 415.939 99.3112 416.006 99.3112C416.073 99.3112 416.146 99.3112 416.226 99.3112V100.611H415.766C414.886 100.611 414.166 100.798 413.606 101.171C413.059 101.545 412.659 102.051 412.406 102.691C412.166 103.331 412.046 104.045 412.046 104.831V109.951H410.626ZM427.9 110.071C426.793 110.071 425.873 109.845 425.14 109.391C424.42 108.925 423.88 108.285 423.52 107.471C423.16 106.658 422.98 105.738 422.98 104.711C422.98 103.698 423.167 102.785 423.54 101.971C423.913 101.145 424.473 100.491 425.22 100.011C425.967 99.5312 426.913 99.2912 428.06 99.2912C428.74 99.2912 429.353 99.4045 429.9 99.6312C430.447 99.8445 430.907 100.171 431.28 100.611C431.653 101.038 431.92 101.571 432.08 102.211H430.62C430.407 101.611 430.06 101.185 429.58 100.931C429.113 100.665 428.573 100.531 427.96 100.531C427.12 100.531 426.44 100.731 425.92 101.131C425.4 101.518 425.013 102.031 424.76 102.671C424.52 103.298 424.4 103.978 424.4 104.711C424.4 105.458 424.52 106.145 424.76 106.771C425.013 107.398 425.4 107.898 425.92 108.271C426.453 108.645 427.133 108.831 427.96 108.831C428.56 108.831 429.12 108.705 429.64 108.451C430.16 108.198 430.52 107.765 430.72 107.151H432.2C432.04 107.818 431.74 108.371 431.3 108.811C430.873 109.238 430.36 109.558 429.76 109.771C429.173 109.971 428.553 110.071 427.9 110.071ZM427.34 114.951C427.193 114.965 427.033 114.978 426.86 114.991C426.7 115.005 426.527 115.005 426.34 114.991V114.091C426.567 114.091 426.807 114.085 427.06 114.071C427.313 114.058 427.56 114.011 427.8 113.931C428.04 113.865 428.233 113.745 428.38 113.571C428.54 113.411 428.62 113.191 428.62 112.911C428.62 112.685 428.553 112.511 428.42 112.391C428.287 112.285 428.127 112.211 427.94 112.171C427.767 112.131 427.607 112.111 427.46 112.111C427.313 112.111 427.14 112.125 426.94 112.151C426.74 112.178 426.56 112.225 426.4 112.291L427.04 109.751H428.04L427.64 111.271C427.747 111.258 427.84 111.245 427.92 111.231C428.013 111.231 428.1 111.231 428.18 111.231C428.673 111.231 429.053 111.371 429.32 111.651C429.6 111.931 429.74 112.325 429.74 112.831C429.74 113.311 429.627 113.698 429.4 113.991C429.187 114.285 428.9 114.505 428.54 114.651C428.18 114.811 427.78 114.911 427.34 114.951ZM439.015 110.071C437.908 110.071 436.982 109.845 436.235 109.391C435.488 108.925 434.928 108.285 434.555 107.471C434.195 106.658 434.015 105.731 434.015 104.691C434.015 103.638 434.202 102.711 434.575 101.911C434.948 101.098 435.508 100.458 436.255 99.9912C437.002 99.5245 437.928 99.2912 439.035 99.2912C440.142 99.2912 441.062 99.5245 441.795 99.9912C442.542 100.458 443.095 101.098 443.455 101.911C443.828 102.711 444.015 103.638 444.015 104.691C444.015 105.731 443.828 106.658 443.455 107.471C443.082 108.285 442.522 108.925 441.775 109.391C441.042 109.845 440.122 110.071 439.015 110.071ZM439.015 108.831C439.842 108.831 440.522 108.651 441.055 108.291C441.588 107.918 441.982 107.418 442.235 106.791C442.488 106.165 442.615 105.465 442.615 104.691C442.615 103.918 442.488 103.218 442.235 102.591C441.982 101.965 441.588 101.465 441.055 101.091C440.522 100.718 439.842 100.531 439.015 100.531C438.188 100.531 437.508 100.718 436.975 101.091C436.442 101.465 436.048 101.965 435.795 102.591C435.555 103.218 435.435 103.918 435.435 104.691C435.435 105.465 435.555 106.165 435.795 106.791C436.048 107.418 436.442 107.918 436.975 108.291C437.508 108.651 438.188 108.831 439.015 108.831ZM441.215 97.6712C440.922 97.6712 440.675 97.5778 440.475 97.3912C440.288 97.2045 440.195 96.9645 440.195 96.6712C440.195 96.3778 440.288 96.1378 440.475 95.9512C440.675 95.7512 440.922 95.6512 441.215 95.6512C441.522 95.6512 441.768 95.7445 441.955 95.9312C442.155 96.1178 442.255 96.3645 442.255 96.6712C442.255 96.9645 442.155 97.2045 441.955 97.3912C441.768 97.5778 441.522 97.6712 441.215 97.6712ZM436.795 97.6712C436.502 97.6712 436.255 97.5778 436.055 97.3912C435.868 97.2045 435.775 96.9645 435.775 96.6712C435.775 96.3778 435.868 96.1378 436.055 95.9512C436.255 95.7512 436.502 95.6512 436.795 95.6512C437.102 95.6512 437.355 95.7445 437.555 95.9312C437.755 96.1178 437.855 96.3645 437.855 96.6712C437.855 96.9645 437.755 97.2045 437.555 97.3912C437.355 97.5778 437.102 97.6712 436.795 97.6712ZM445.968 109.951V108.711L452.628 100.651H446.008V99.4112H454.388V100.631L447.668 108.731H454.388V109.951H445.968ZM461.079 110.071C459.613 110.071 458.513 109.678 457.779 108.891C457.059 108.105 456.699 106.931 456.699 105.371V99.4112H458.119V105.331C458.119 106.038 458.219 106.658 458.419 107.191C458.633 107.711 458.953 108.118 459.379 108.411C459.819 108.691 460.386 108.831 461.079 108.831C461.786 108.831 462.359 108.691 462.799 108.411C463.253 108.131 463.579 107.731 463.779 107.211C463.979 106.678 464.079 106.051 464.079 105.331V99.4112H465.499V105.371C465.499 106.931 465.133 108.105 464.399 108.891C463.666 109.678 462.559 110.071 461.079 110.071ZM463.299 97.6712C463.006 97.6712 462.759 97.5778 462.559 97.3912C462.373 97.2045 462.279 96.9645 462.279 96.6712C462.279 96.3778 462.373 96.1378 462.559 95.9512C462.759 95.7512 463.006 95.6512 463.299 95.6512C463.606 95.6512 463.853 95.7445 464.039 95.9312C464.239 96.1178 464.339 96.3645 464.339 96.6712C464.339 96.9645 464.239 97.2045 464.039 97.3912C463.853 97.5778 463.606 97.6712 463.299 97.6712ZM458.879 97.6712C458.586 97.6712 458.339 97.5778 458.139 97.3912C457.953 97.2045 457.859 96.9645 457.859 96.6712C457.859 96.3778 457.953 96.1378 458.139 95.9512C458.339 95.7512 458.586 95.6512 458.879 95.6512C459.186 95.6512 459.439 95.7445 459.639 95.9312C459.839 96.1178 459.939 96.3645 459.939 96.6712C459.939 96.9645 459.839 97.2045 459.639 97.3912C459.439 97.5778 459.186 97.6712 458.879 97.6712ZM468.224 109.951V99.4112H469.584L469.624 100.911C469.864 100.498 470.144 100.178 470.464 99.9512C470.797 99.7112 471.15 99.5445 471.524 99.4512C471.897 99.3445 472.27 99.2912 472.644 99.2912C473.39 99.2912 474.004 99.4712 474.484 99.8312C474.977 100.191 475.33 100.685 475.544 101.311C475.73 100.938 475.97 100.598 476.264 100.291C476.557 99.9845 476.917 99.7445 477.344 99.5712C477.77 99.3845 478.257 99.2912 478.804 99.2912C479.577 99.2912 480.204 99.4578 480.684 99.7912C481.164 100.111 481.51 100.551 481.724 101.111C481.95 101.671 482.064 102.305 482.064 103.011V109.951H480.644V103.771C480.644 103.385 480.624 103.005 480.584 102.631C480.544 102.245 480.45 101.898 480.304 101.591C480.157 101.271 479.937 101.018 479.644 100.831C479.364 100.631 478.977 100.531 478.484 100.531C478.004 100.531 477.597 100.645 477.264 100.871C476.944 101.085 476.677 101.378 476.464 101.751C476.264 102.111 476.117 102.511 476.024 102.951C475.944 103.378 475.904 103.798 475.904 104.211V109.951H474.484V103.911C474.484 103.551 474.457 103.178 474.404 102.791C474.364 102.391 474.277 102.018 474.144 101.671C474.01 101.325 473.797 101.051 473.504 100.851C473.21 100.638 472.824 100.531 472.344 100.531C471.65 100.531 471.104 100.725 470.704 101.111C470.317 101.485 470.044 101.965 469.884 102.551C469.724 103.125 469.644 103.711 469.644 104.311V109.951H468.224ZM494.718 114.811C494.024 114.811 493.378 114.711 492.778 114.511C492.191 114.311 491.684 113.991 491.258 113.551C490.831 113.125 490.538 112.571 490.378 111.891H491.858C491.991 112.305 492.211 112.631 492.518 112.871C492.838 113.125 493.204 113.298 493.618 113.391C494.031 113.498 494.431 113.551 494.818 113.551C495.631 113.551 496.278 113.391 496.758 113.071C497.238 112.751 497.578 112.311 497.778 111.751C497.978 111.191 498.078 110.551 498.078 109.831V108.171C497.838 108.625 497.518 108.998 497.118 109.291C496.718 109.571 496.284 109.771 495.818 109.891C495.351 110.011 494.871 110.071 494.378 110.071C493.284 110.071 492.398 109.831 491.718 109.351C491.038 108.871 490.538 108.225 490.218 107.411C489.898 106.598 489.738 105.691 489.738 104.691C489.738 103.665 489.911 102.745 490.258 101.931C490.604 101.105 491.131 100.458 491.838 99.9912C492.544 99.5245 493.424 99.2912 494.478 99.2912C495.131 99.2912 495.791 99.4245 496.458 99.6912C497.124 99.9445 497.671 100.385 498.098 101.011L498.158 99.4112H499.498V109.851C499.498 110.891 499.324 111.778 498.978 112.511C498.644 113.258 498.124 113.825 497.418 114.211C496.724 114.611 495.824 114.811 494.718 114.811ZM494.578 108.831C495.351 108.831 495.998 108.638 496.518 108.251C497.038 107.865 497.431 107.351 497.698 106.711C497.964 106.071 498.098 105.378 498.098 104.631C498.098 103.858 497.964 103.165 497.698 102.551C497.444 101.938 497.058 101.451 496.538 101.091C496.018 100.718 495.358 100.531 494.558 100.531C493.744 100.531 493.084 100.725 492.578 101.111C492.084 101.485 491.724 101.985 491.498 102.611C491.271 103.238 491.158 103.925 491.158 104.671C491.158 105.458 491.271 106.171 491.498 106.811C491.724 107.438 492.091 107.931 492.598 108.291C493.104 108.651 493.764 108.831 494.578 108.831ZM506.867 110.071C505.76 110.071 504.833 109.845 504.087 109.391C503.34 108.925 502.78 108.285 502.407 107.471C502.047 106.658 501.867 105.731 501.867 104.691C501.867 103.638 502.053 102.711 502.427 101.911C502.8 101.098 503.36 100.458 504.107 99.9912C504.853 99.5245 505.78 99.2912 506.887 99.2912C507.993 99.2912 508.913 99.5245 509.647 99.9912C510.393 100.458 510.947 101.098 511.307 101.911C511.68 102.711 511.867 103.638 511.867 104.691C511.867 105.731 511.68 106.658 511.307 107.471C510.933 108.285 510.373 108.925 509.627 109.391C508.893 109.845 507.973 110.071 506.867 110.071ZM506.867 108.831C507.693 108.831 508.373 108.651 508.907 108.291C509.44 107.918 509.833 107.418 510.087 106.791C510.34 106.165 510.467 105.465 510.467 104.691C510.467 103.918 510.34 103.218 510.087 102.591C509.833 101.965 509.44 101.465 508.907 101.091C508.373 100.718 507.693 100.531 506.867 100.531C506.04 100.531 505.36 100.718 504.827 101.091C504.293 101.465 503.9 101.965 503.647 102.591C503.407 103.218 503.287 103.918 503.287 104.691C503.287 105.465 503.407 106.165 503.647 106.791C503.9 107.418 504.293 107.918 504.827 108.291C505.36 108.651 506.04 108.831 506.867 108.831ZM509.067 97.6712C508.773 97.6712 508.527 97.5778 508.327 97.3912C508.14 97.2045 508.047 96.9645 508.047 96.6712C508.047 96.3778 508.14 96.1378 508.327 95.9512C508.527 95.7512 508.773 95.6512 509.067 95.6512C509.373 95.6512 509.62 95.7445 509.807 95.9312C510.007 96.1178 510.107 96.3645 510.107 96.6712C510.107 96.9645 510.007 97.2045 509.807 97.3912C509.62 97.5778 509.373 97.6712 509.067 97.6712ZM504.647 97.6712C504.353 97.6712 504.107 97.5778 503.907 97.3912C503.72 97.2045 503.627 96.9645 503.627 96.6712C503.627 96.3778 503.72 96.1378 503.907 95.9512C504.107 95.7512 504.353 95.6512 504.647 95.6512C504.953 95.6512 505.207 95.7445 505.407 95.9312C505.607 96.1178 505.707 96.3645 505.707 96.6712C505.707 96.9645 505.607 97.2045 505.407 97.3912C505.207 97.5778 504.953 97.6712 504.647 97.6712ZM518 110.071C517.533 110.071 517.067 110.031 516.6 109.951C516.133 109.858 515.693 109.705 515.28 109.491C514.867 109.278 514.513 108.991 514.22 108.631C513.94 108.271 513.747 107.831 513.64 107.311H515.1C515.26 107.698 515.5 108.005 515.82 108.231C516.153 108.445 516.52 108.598 516.92 108.691C517.32 108.785 517.7 108.831 518.06 108.831C518.313 108.831 518.593 108.818 518.9 108.791C519.22 108.751 519.52 108.671 519.8 108.551C520.08 108.431 520.307 108.258 520.48 108.031C520.667 107.805 520.76 107.505 520.76 107.131C520.76 106.798 520.68 106.531 520.52 106.331C520.373 106.131 520.173 105.971 519.92 105.851C519.667 105.731 519.387 105.645 519.08 105.591C518.6 105.485 518.087 105.385 517.54 105.291C516.993 105.198 516.5 105.031 516.06 104.791C515.793 104.698 515.533 104.585 515.28 104.451C515.04 104.305 514.82 104.131 514.62 103.931C514.42 103.731 514.26 103.491 514.14 103.211C514.02 102.931 513.96 102.605 513.96 102.231C513.96 101.711 514.067 101.265 514.28 100.891C514.493 100.518 514.78 100.211 515.14 99.9712C515.513 99.7312 515.94 99.5578 516.42 99.4512C516.9 99.3445 517.407 99.2912 517.94 99.2912C518.58 99.2912 519.167 99.3912 519.7 99.5912C520.247 99.7778 520.7 100.065 521.06 100.451C521.433 100.838 521.667 101.325 521.76 101.911H520.44C520.293 101.471 519.987 101.131 519.52 100.891C519.053 100.651 518.513 100.531 517.9 100.531C517.673 100.531 517.413 100.551 517.12 100.591C516.827 100.631 516.547 100.711 516.28 100.831C516.013 100.938 515.793 101.105 515.62 101.331C515.447 101.545 515.36 101.838 515.36 102.211C515.36 102.558 515.447 102.845 515.62 103.071C515.793 103.298 516.033 103.478 516.34 103.611C516.647 103.731 516.98 103.838 517.34 103.931C517.78 104.025 518.26 104.118 518.78 104.211C519.313 104.291 519.753 104.385 520.1 104.491C520.54 104.625 520.913 104.805 521.22 105.031C521.527 105.258 521.76 105.538 521.92 105.871C522.08 106.191 522.16 106.578 522.16 107.031C522.16 107.645 522.04 108.151 521.8 108.551C521.56 108.938 521.233 109.245 520.82 109.471C520.42 109.685 519.973 109.838 519.48 109.931C518.987 110.025 518.493 110.071 518 110.071ZM528.277 110.071C527.183 110.071 526.417 109.778 525.977 109.191C525.55 108.591 525.337 107.751 525.337 106.671V100.651H523.577V99.4112H525.337V96.2512H526.757V99.4112H530.117V100.651H526.757V106.451C526.757 106.865 526.79 107.251 526.857 107.611C526.937 107.971 527.097 108.265 527.337 108.491C527.577 108.718 527.943 108.831 528.437 108.831C528.717 108.831 528.977 108.785 529.217 108.691C529.47 108.598 529.683 108.485 529.857 108.351L530.437 109.391C530.237 109.551 530.017 109.685 529.777 109.791C529.55 109.898 529.31 109.971 529.057 110.011C528.817 110.051 528.557 110.071 528.277 110.071ZM536.69 110.071C535.583 110.071 534.663 109.845 533.93 109.391C533.196 108.925 532.65 108.285 532.29 107.471C531.93 106.658 531.75 105.731 531.75 104.691C531.75 103.651 531.936 102.731 532.31 101.931C532.683 101.118 533.236 100.478 533.97 100.011C534.703 99.5312 535.603 99.2912 536.67 99.2912C537.47 99.2912 538.156 99.4378 538.73 99.7312C539.316 100.025 539.796 100.425 540.17 100.931C540.556 101.438 540.836 101.998 541.01 102.611C541.196 103.225 541.29 103.851 541.29 104.491C541.276 104.611 541.27 104.731 541.27 104.851C541.27 104.958 541.263 105.065 541.25 105.171H533.17C533.223 105.878 533.383 106.511 533.65 107.071C533.916 107.618 534.303 108.051 534.81 108.371C535.33 108.678 535.976 108.831 536.75 108.831C537.11 108.831 537.476 108.791 537.85 108.711C538.223 108.618 538.563 108.465 538.87 108.251C539.176 108.025 539.403 107.731 539.55 107.371H541.03C540.843 107.998 540.53 108.511 540.09 108.911C539.65 109.311 539.13 109.605 538.53 109.791C537.93 109.978 537.316 110.071 536.69 110.071ZM533.21 103.951H539.85C539.836 103.298 539.696 102.718 539.43 102.211C539.163 101.691 538.796 101.285 538.33 100.991C537.863 100.685 537.29 100.531 536.61 100.531C535.903 100.531 535.303 100.691 534.81 101.011C534.316 101.331 533.936 101.751 533.67 102.271C533.416 102.791 533.263 103.351 533.21 103.951ZM543.653 109.951V99.4112H545.013L545.073 101.291C545.34 100.785 545.667 100.391 546.053 100.111C546.453 99.8312 546.887 99.6312 547.353 99.5112C547.833 99.3778 548.32 99.3112 548.813 99.3112C548.893 99.3112 548.967 99.3112 549.033 99.3112C549.1 99.3112 549.173 99.3112 549.253 99.3112V100.611H548.793C547.913 100.611 547.193 100.798 546.633 101.171C546.087 101.545 545.687 102.051 545.433 102.691C545.193 103.331 545.073 104.045 545.073 104.831V109.951H543.653ZM555.361 110.071C554.255 110.071 553.335 109.845 552.601 109.391C551.868 108.925 551.321 108.285 550.961 107.471C550.601 106.658 550.421 105.731 550.421 104.691C550.421 103.651 550.608 102.731 550.981 101.931C551.355 101.118 551.908 100.478 552.641 100.011C553.375 99.5312 554.275 99.2912 555.341 99.2912C556.141 99.2912 556.828 99.4378 557.401 99.7312C557.988 100.025 558.468 100.425 558.841 100.931C559.228 101.438 559.508 101.998 559.681 102.611C559.868 103.225 559.961 103.851 559.961 104.491C559.948 104.611 559.941 104.731 559.941 104.851C559.941 104.958 559.935 105.065 559.921 105.171H551.841C551.895 105.878 552.055 106.511 552.321 107.071C552.588 107.618 552.975 108.051 553.481 108.371C554.001 108.678 554.648 108.831 555.421 108.831C555.781 108.831 556.148 108.791 556.521 108.711C556.895 108.618 557.235 108.465 557.541 108.251C557.848 108.025 558.075 107.731 558.221 107.371H559.701C559.515 107.998 559.201 108.511 558.761 108.911C558.321 109.311 557.801 109.605 557.201 109.791C556.601 109.978 555.988 110.071 555.361 110.071ZM551.881 103.951H558.521C558.508 103.298 558.368 102.718 558.101 102.211C557.835 101.691 557.468 101.285 557.001 100.991C556.535 100.685 555.961 100.531 555.281 100.531C554.575 100.531 553.975 100.691 553.481 101.011C552.988 101.331 552.608 101.751 552.341 102.271C552.088 102.791 551.935 103.351 551.881 103.951ZM562.345 109.951V95.8112H563.745V109.951H562.345ZM566.525 109.951V99.4112H567.945V109.951H566.525ZM567.225 97.7112C566.918 97.7112 566.671 97.6178 566.485 97.4312C566.298 97.2445 566.205 96.9978 566.205 96.6912C566.205 96.3845 566.298 96.1445 566.485 95.9712C566.685 95.7845 566.931 95.6912 567.225 95.6912C567.505 95.6912 567.745 95.7845 567.945 95.9712C568.158 96.1578 568.265 96.3978 568.265 96.6912C568.265 96.9978 568.165 97.2445 567.965 97.4312C567.765 97.6178 567.518 97.7112 567.225 97.7112ZM570.704 109.951V99.4112H572.064L572.104 100.911C572.344 100.498 572.624 100.178 572.944 99.9512C573.278 99.7112 573.631 99.5445 574.004 99.4512C574.378 99.3445 574.751 99.2912 575.124 99.2912C575.871 99.2912 576.484 99.4712 576.964 99.8312C577.458 100.191 577.811 100.685 578.024 101.311C578.211 100.938 578.451 100.598 578.744 100.291C579.038 99.9845 579.398 99.7445 579.824 99.5712C580.251 99.3845 580.738 99.2912 581.284 99.2912C582.058 99.2912 582.684 99.4578 583.164 99.7912C583.644 100.111 583.991 100.551 584.204 101.111C584.431 101.671 584.544 102.305 584.544 103.011V109.951H583.124V103.771C583.124 103.385 583.104 103.005 583.064 102.631C583.024 102.245 582.931 101.898 582.784 101.591C582.638 101.271 582.418 101.018 582.124 100.831C581.844 100.631 581.458 100.531 580.964 100.531C580.484 100.531 580.078 100.645 579.744 100.871C579.424 101.085 579.158 101.378 578.944 101.751C578.744 102.111 578.598 102.511 578.504 102.951C578.424 103.378 578.384 103.798 578.384 104.211V109.951H576.964V103.911C576.964 103.551 576.938 103.178 576.884 102.791C576.844 102.391 576.758 102.018 576.624 101.671C576.491 101.325 576.278 101.051 575.984 100.851C575.691 100.638 575.304 100.531 574.824 100.531C574.131 100.531 573.584 100.725 573.184 101.111C572.798 101.485 572.524 101.965 572.364 102.551C572.204 103.125 572.124 103.711 572.124 104.311V109.951H570.704ZM587.868 105.831L587.688 95.8112H589.248L589.088 105.831H587.868ZM588.488 110.111C588.274 110.111 588.088 110.065 587.928 109.971C587.768 109.891 587.641 109.771 587.548 109.611C587.468 109.438 587.428 109.251 587.428 109.051C587.428 108.825 587.468 108.638 587.548 108.491C587.641 108.331 587.768 108.205 587.928 108.111C588.088 108.018 588.274 107.971 588.488 107.971C588.781 107.971 589.028 108.071 589.228 108.271C589.441 108.471 589.548 108.731 589.548 109.051C589.548 109.251 589.501 109.438 589.408 109.611C589.314 109.771 589.188 109.891 589.028 109.971C588.868 110.065 588.688 110.111 588.488 110.111Z" fill="white"/>
<rect x="253" y="33.21" width="171" height="51" rx="15" transform="rotate(-5.12112 253 33.21)" fill="white"/>
<path d="M279.887 71.9647L277.102 40.8892L287.739 39.9359C293.184 39.4479 297.251 40.4623 299.939 42.979C302.626 45.4692 304.189 49.1711 304.629 54.0847C305.07 58.9984 304.191 62.9325 301.992 65.8872C299.792 68.8154 295.969 70.5234 290.524 71.0114L279.887 71.9647ZM285.104 66.9991L289.726 66.5849C292.063 66.3755 293.942 65.8323 295.363 64.9553C296.81 64.0759 297.82 62.794 298.392 61.1096C298.963 59.4251 299.13 57.2549 298.892 54.5989C298.654 51.9428 298.104 49.8369 297.242 48.281C296.38 46.7251 295.158 45.6431 293.577 45.0351C292.023 44.4247 290.078 44.2243 287.74 44.4337L283.119 44.8479L285.104 66.9991ZM310.747 69.199L307.962 38.1235L328.52 36.2812L328.923 40.7831L313.904 42.1292L314.603 49.9379L326.316 48.8882L326.699 53.1511L314.985 54.2008L315.882 64.2007L331.14 62.8332L331.544 67.3352L310.747 69.199ZM336.846 66.86L334.061 35.7846L344.021 34.892L353.421 60.9167L354.617 60.8096L359.32 33.5209L369.28 32.6283L372.065 63.7038L366.726 64.1822L364.359 37.7681L363.363 37.8573L358.838 64.8891L349.714 65.7068L340.455 39.9103L339.459 39.9996L341.826 66.4137L336.846 66.86ZM391.238 62.5477C388.024 62.8357 385.283 62.4254 383.015 61.3168C380.771 60.1792 379.01 58.4495 377.731 56.1277C376.479 53.8036 375.706 51.008 375.413 47.7411C375.118 44.4477 375.381 41.5593 376.203 39.0761C377.049 36.5639 378.476 34.5618 380.484 33.07C382.516 31.5491 385.139 30.6447 388.353 30.3567C391.62 30.0639 394.375 30.4863 396.619 31.6239C398.861 32.735 400.608 34.4525 401.86 36.7767C403.137 39.0719 403.923 41.8662 404.218 45.1597C404.511 48.4266 404.234 51.3162 403.388 53.8283C402.569 56.3382 401.156 58.3523 399.151 59.8707C397.142 61.3626 394.505 62.2549 391.238 62.5477ZM390.852 58.2449C393.827 57.9783 395.927 56.7594 397.151 54.5881C398.373 52.3903 398.816 49.4188 398.481 45.6738C398.145 41.9289 397.182 39.0969 395.591 37.1779C393.997 35.2323 391.713 34.3929 388.739 34.6595C385.791 34.9237 383.705 36.1547 382.483 38.3526C381.259 40.5239 380.815 43.482 381.15 47.227C381.486 50.972 382.45 53.8173 384.044 55.7628C385.635 57.6818 387.904 58.5092 390.852 58.2449Z" fill="#0223B5"/>
<path d="M46.8 68.5473C42.4 68.5473 39.1467 67.3873 37.04 65.0673C34.96 62.7206 33.92 59.3739 33.92 55.0273V36.7473H39.6V55.0273C39.6 57.9873 40.16 60.2139 41.28 61.7073C42.4 63.2006 44.2667 63.9473 46.88 63.9473C49.4933 63.9473 51.3467 63.2006 52.44 61.7073C53.56 60.2139 54.12 57.9873 54.12 55.0273V36.7473H59.64V55.0273C59.64 59.3739 58.6 62.7206 56.52 65.0673C54.4667 67.3873 51.2267 68.5473 46.8 68.5473ZM42.76 34.7473C41.8533 34.7473 41.16 34.4939 40.68 33.9873C40.2 33.4539 39.96 32.7739 39.96 31.9473C39.96 31.0939 40.2 30.4139 40.68 29.9073C41.16 29.4006 41.8533 29.1473 42.76 29.1473C43.6933 29.1473 44.4 29.4006 44.88 29.9073C45.36 30.4139 45.6 31.0939 45.6 31.9473C45.6 32.7739 45.36 33.4539 44.88 33.9873C44.4 34.4939 43.6933 34.7473 42.76 34.7473ZM50.92 34.7473C50.0133 34.7473 49.3067 34.4939 48.8 33.9873C48.32 33.4539 48.08 32.7739 48.08 31.9473C48.08 31.0939 48.32 30.4139 48.8 29.9073C49.3067 29.4006 50.0133 29.1473 50.92 29.1473C51.8267 29.1473 52.52 29.4006 53 29.9073C53.48 30.4139 53.72 31.0939 53.72 31.9473C53.72 32.7739 53.48 33.4539 53 33.9873C52.52 34.4939 51.8267 34.7473 50.92 34.7473ZM76.815 68.5473C72.3883 68.5473 68.9483 67.1206 66.495 64.2673C64.0417 61.4139 62.815 57.4406 62.815 52.3473C62.815 47.2539 64.0283 43.2806 66.455 40.4273C68.9083 37.5739 72.3483 36.1473 76.775 36.1473C79.3883 36.1473 81.6417 36.6406 83.535 37.6273C85.4283 38.6139 86.9083 39.9873 87.975 41.7473C89.0683 43.5073 89.7217 45.5473 89.935 47.8673H84.295C84.055 45.6006 83.2683 43.8006 81.935 42.4673C80.6283 41.1339 78.9083 40.4673 76.775 40.4673C74.1083 40.4673 72.0683 41.5073 70.655 43.5873C69.2683 45.6673 68.575 48.6006 68.575 52.3873C68.575 56.2273 69.2817 59.1606 70.695 61.1873C72.135 63.2139 74.1483 64.2273 76.735 64.2273C78.975 64.2273 80.7483 63.5339 82.055 62.1473C83.3617 60.7606 84.1083 58.9873 84.295 56.8273H89.935C89.7217 59.1206 89.0683 61.1606 87.975 62.9473C86.9083 64.7073 85.4283 66.0806 83.535 67.0673C81.6683 68.0539 79.4283 68.5473 76.815 68.5473ZM93.7106 67.9473V36.7473H106.151C108.817 36.7473 110.964 37.1339 112.591 37.9073C114.217 38.6539 115.404 39.6673 116.151 40.9473C116.924 42.2273 117.311 43.6939 117.311 45.3473C117.311 47.3473 116.764 49.0539 115.671 50.4673C114.577 51.8806 112.977 52.8673 110.871 53.4273L118.151 67.7073V67.9473H112.231L105.391 54.2273H99.2306V67.9473H93.7106ZM99.2306 50.0273H105.551C107.604 50.0273 109.124 49.6673 110.111 48.9473C111.097 48.2273 111.591 47.0939 111.591 45.5473C111.591 43.9739 111.084 42.8406 110.071 42.1473C109.084 41.4273 107.577 41.0673 105.551 41.0673H99.2306V50.0273ZM122.304 67.9473V36.7473H142.944V41.2673H127.864V49.1073H139.624V53.3873H127.864V63.4273H143.184V67.9473H122.304ZM156.188 67.9473V41.2673H146.388V36.7473H171.588V41.2673H161.787V67.9473H156.188ZM185.978 68.5473C183.738 68.5473 181.818 68.2406 180.218 67.6273C178.618 67.0139 177.298 66.2006 176.258 65.1873C175.218 64.1473 174.431 62.9739 173.898 61.6673C173.365 60.3606 173.058 59.0273 172.978 57.6673H178.258C178.338 58.7339 178.671 59.7739 179.258 60.7873C179.845 61.8006 180.711 62.6273 181.858 63.2673C183.005 63.9073 184.445 64.2273 186.178 64.2273C188.045 64.2273 189.471 63.8273 190.458 63.0273C191.471 62.2273 191.978 61.1473 191.978 59.7873C191.978 58.4806 191.511 57.4539 190.578 56.7073C189.671 55.9339 188.498 55.3073 187.058 54.8273L183.298 53.5873C181.805 53.0806 180.378 52.4806 179.018 51.7873C177.685 51.0939 176.578 50.1873 175.698 49.0673C174.845 47.9206 174.418 46.4406 174.418 44.6273C174.418 42.8139 174.858 41.2806 175.738 40.0273C176.645 38.7739 177.898 37.8139 179.498 37.1473C181.098 36.4806 182.938 36.1473 185.018 36.1473C187.631 36.1473 189.725 36.6006 191.298 37.5073C192.898 38.4139 194.071 39.5739 194.818 40.9873C195.591 42.4006 196.045 43.9206 196.178 45.5473H190.898C190.818 44.6939 190.565 43.8806 190.138 43.1073C189.738 42.3073 189.111 41.6673 188.258 41.1873C187.405 40.6806 186.258 40.4273 184.818 40.4273C183.218 40.4273 181.978 40.7739 181.098 41.4673C180.245 42.1606 179.818 43.0673 179.818 44.1873C179.818 45.4406 180.298 46.4273 181.258 47.1473C182.218 47.8406 183.418 48.4273 184.858 48.9073L188.658 50.1473C190.151 50.6273 191.551 51.2273 192.858 51.9473C194.191 52.6406 195.271 53.5739 196.098 54.7473C196.951 55.8939 197.378 57.4273 197.378 59.3473C197.378 62.2273 196.365 64.4806 194.338 66.1073C192.311 67.7339 189.525 68.5473 185.978 68.5473ZM202.587 67.9473V36.7473H208.188V67.9473H202.587ZM205.428 33.7073C204.441 33.7073 203.681 33.4406 203.148 32.9073C202.614 32.3473 202.348 31.6273 202.348 30.7473C202.348 29.8673 202.614 29.1606 203.148 28.6273C203.681 28.0673 204.441 27.7873 205.428 27.7873C206.441 27.7873 207.201 28.0673 207.708 28.6273C208.241 29.1606 208.508 29.8673 208.508 30.7473C208.508 31.6273 208.241 32.3473 207.708 32.9073C207.201 33.4406 206.441 33.7073 205.428 33.7073ZM213.249 67.9473V62.9873L227.169 46.5873C227.783 45.8673 228.409 45.1473 229.049 44.4273C229.689 43.6806 230.396 42.9473 231.169 42.2273V41.2673H214.769V36.7473H237.969V41.7073L223.969 58.1473C223.383 58.8673 222.756 59.5873 222.089 60.3073C221.449 61.0273 220.756 61.7473 220.009 62.4673V63.4273H238.249V67.9473H213.249Z" fill="white"/>
<path d="M443.969 67.9473V41.2673H434.169V36.7473H459.369V41.2673H449.569V67.9473H443.969ZM457.074 67.9473V67.7073L466.834 36.7473H475.714L485.514 67.7073V67.9473H479.714L471.594 41.1073H470.634L462.434 67.9473H457.074ZM464.274 59.5073L465.594 55.1073H476.594L477.914 59.5073H464.274ZM489.304 67.9473V36.7473H494.904V63.4273H508.784V67.9473H489.304ZM513.304 67.9473V36.7473H533.944V41.2673H518.864V49.1073H530.624V53.3873H518.864V63.4273H534.184V67.9473H513.304ZM539.508 67.9473V36.7473H551.588C555.588 36.7473 558.494 37.5873 560.307 39.2673C562.148 40.9206 563.068 43.1473 563.068 45.9473C563.068 48.7473 562.148 50.9873 560.307 52.6673C558.494 54.3473 555.588 55.1873 551.588 55.1873H545.068V67.9473H539.508ZM545.068 50.8273H550.988C553.148 50.8273 554.761 50.4539 555.827 49.7073C556.894 48.9606 557.428 47.7206 557.428 45.9873C557.428 44.2539 556.894 43.0006 555.827 42.2273C554.761 41.4539 553.148 41.0673 550.988 41.0673H545.068V50.8273ZM577.336 67.9473V36.7473H597.976V41.2673H582.896V49.1073H594.656V53.3873H582.896V63.4273H598.216V67.9473H577.336ZM603.539 67.9473V36.7473H614.219C619.685 36.7473 623.645 38.1206 626.099 40.8673C628.552 43.5873 629.779 47.4139 629.779 52.3473C629.779 57.2806 628.552 61.1206 626.099 63.8673C623.645 66.5873 619.685 67.9473 614.219 67.9473H603.539ZM609.179 63.4673H613.819C616.165 63.4673 618.085 63.0939 619.579 62.3473C621.099 61.6006 622.219 60.4139 622.939 58.7873C623.659 57.1606 624.019 55.0139 624.019 52.3473C624.019 49.6806 623.659 47.5339 622.939 45.9073C622.219 44.2806 621.099 43.0939 619.579 42.3473C618.085 41.6006 616.165 41.2273 613.819 41.2273H609.179V63.4673ZM634.603 67.9473V36.7473H640.203V67.9473H634.603ZM637.443 33.7073C636.456 33.7073 635.696 33.4406 635.163 32.9073C634.63 32.3473 634.363 31.6273 634.363 30.7473C634.363 29.8673 634.63 29.1606 635.163 28.6273C635.696 28.0673 636.456 27.7873 637.443 27.7873C638.456 27.7873 639.216 28.0673 639.723 28.6273C640.256 29.1606 640.523 29.8673 640.523 30.7473C640.523 31.6273 640.256 32.3473 639.723 32.9073C639.216 33.4406 638.456 33.7073 637.443 33.7073ZM646.945 67.9473V36.7473H656.825L667.865 63.5073H668.825V36.7473H673.905V67.9473H663.985L652.985 41.1873H652.025V67.9473H646.945Z" fill="white"/>
<path d="M9.33583 26.6838L17.8389 31.3393M17.2057 1.0001L29.2345 20.2131" stroke="white"/>
</svg>
