<svg width="281" height="216" viewBox="0 0 281 216" fill="none" xmlns="http://www.w3.org/2000/svg">
<path d="M240.605 182.451C240.605 182.451 244.428 194.215 229.344 198.383M229.344 198.383C212.922 202.92 226.266 181.808 229.344 198.383ZM229.344 198.383C224.115 215.464 204.919 207.473 204.919 207.473" stroke="white"/>
<path d="M65.873 160.828L63.003 153.45H64.123L66.573 159.89L68.995 153.45H70.129L67.231 160.828H65.873ZM74.4038 160.912C73.6291 160.912 72.9851 160.754 72.4718 160.436C71.9584 160.11 71.5758 159.662 71.3238 159.092C71.0718 158.523 70.9458 157.874 70.9458 157.146C70.9458 156.418 71.0764 155.774 71.3378 155.214C71.5991 154.645 71.9864 154.197 72.4998 153.87C73.0131 153.534 73.6431 153.366 74.3898 153.366C74.9498 153.366 75.4304 153.469 75.8318 153.674C76.2424 153.88 76.5784 154.16 76.8398 154.514C77.1104 154.869 77.3064 155.261 77.4278 155.69C77.5584 156.12 77.6238 156.558 77.6238 157.006C77.6144 157.09 77.6098 157.174 77.6098 157.258C77.6098 157.333 77.6051 157.408 77.5958 157.482H71.9398C71.9771 157.977 72.0891 158.42 72.2758 158.812C72.4624 159.195 72.7331 159.498 73.0878 159.722C73.4518 159.937 73.9044 160.044 74.4458 160.044C74.6978 160.044 74.9544 160.016 75.2158 159.96C75.4771 159.895 75.7151 159.788 75.9298 159.638C76.1444 159.48 76.3031 159.274 76.4058 159.022H77.4418C77.3111 159.461 77.0918 159.82 76.7838 160.1C76.4758 160.38 76.1118 160.586 75.6918 160.716C75.2718 160.847 74.8424 160.912 74.4038 160.912ZM71.9678 156.628H76.6158C76.6064 156.171 76.5084 155.765 76.3218 155.41C76.1351 155.046 75.8784 154.762 75.5518 154.556C75.2251 154.342 74.8238 154.234 74.3478 154.234C73.8531 154.234 73.4331 154.346 73.0878 154.57C72.7424 154.794 72.4764 155.088 72.2898 155.452C72.1124 155.816 72.0051 156.208 71.9678 156.628ZM85.6979 160.912C85.3713 160.912 85.0446 160.884 84.7179 160.828C84.3913 160.763 84.0833 160.656 83.7939 160.506C83.5046 160.357 83.2573 160.156 83.0519 159.904C82.8559 159.652 82.7206 159.344 82.6459 158.98H83.6679C83.7799 159.251 83.9479 159.466 84.1719 159.624C84.4053 159.774 84.6619 159.881 84.9419 159.946C85.2219 160.012 85.4879 160.044 85.7399 160.044C85.9173 160.044 86.1133 160.035 86.3279 160.016C86.5519 159.988 86.7619 159.932 86.9579 159.848C87.1539 159.764 87.3126 159.643 87.4339 159.484C87.5646 159.326 87.6299 159.116 87.6299 158.854C87.6299 158.621 87.5739 158.434 87.4619 158.294C87.3593 158.154 87.2193 158.042 87.0419 157.958C86.8646 157.874 86.6686 157.814 86.4539 157.776C86.1179 157.702 85.7586 157.632 85.3759 157.566C84.9933 157.501 84.6479 157.384 84.3399 157.216C84.1533 157.151 83.9713 157.072 83.7939 156.978C83.6259 156.876 83.4719 156.754 83.3319 156.614C83.1919 156.474 83.0799 156.306 82.9959 156.11C82.9119 155.914 82.8699 155.686 82.8699 155.424C82.8699 155.06 82.9446 154.748 83.0939 154.486C83.2433 154.225 83.4439 154.01 83.6959 153.842C83.9573 153.674 84.2559 153.553 84.5919 153.478C84.9279 153.404 85.2826 153.366 85.6559 153.366C86.1039 153.366 86.5146 153.436 86.8879 153.576C87.2706 153.707 87.5879 153.908 87.8399 154.178C88.1013 154.449 88.2646 154.79 88.3299 155.2H87.4059C87.3033 154.892 87.0886 154.654 86.7619 154.486C86.4353 154.318 86.0573 154.234 85.6279 154.234C85.4693 154.234 85.2873 154.248 85.0819 154.276C84.8766 154.304 84.6806 154.36 84.4939 154.444C84.3073 154.519 84.1533 154.636 84.0319 154.794C83.9106 154.944 83.8499 155.149 83.8499 155.41C83.8499 155.653 83.9106 155.854 84.0319 156.012C84.1533 156.171 84.3213 156.297 84.5359 156.39C84.7506 156.474 84.9839 156.549 85.2359 156.614C85.5439 156.68 85.8799 156.745 86.2439 156.81C86.6173 156.866 86.9253 156.932 87.1679 157.006C87.4759 157.1 87.7373 157.226 87.9519 157.384C88.1666 157.543 88.3299 157.739 88.4419 157.972C88.5539 158.196 88.6099 158.467 88.6099 158.784C88.6099 159.214 88.5259 159.568 88.3579 159.848C88.1899 160.119 87.9613 160.334 87.6719 160.492C87.3919 160.642 87.0793 160.749 86.7339 160.814C86.3886 160.88 86.0433 160.912 85.6979 160.912ZM90.1476 160.828V153.45H91.1416V160.828H90.1476ZM90.6376 152.26C90.423 152.26 90.2503 152.195 90.1196 152.064C89.989 151.934 89.9236 151.761 89.9236 151.546C89.9236 151.332 89.989 151.164 90.1196 151.042C90.2596 150.912 90.4323 150.846 90.6376 150.846C90.8336 150.846 91.0016 150.912 91.1416 151.042C91.291 151.173 91.3656 151.341 91.3656 151.546C91.3656 151.761 91.2956 151.934 91.1556 152.064C91.0156 152.195 90.843 152.26 90.6376 152.26ZM92.7934 160.828V159.96L97.4554 154.318H92.8214V153.45H98.6874V154.304L93.9834 159.974H98.6874V160.828H92.7934ZM103.511 160.912C102.737 160.912 102.093 160.754 101.579 160.436C101.066 160.11 100.683 159.662 100.431 159.092C100.179 158.523 100.053 157.874 100.053 157.146C100.053 156.418 100.184 155.774 100.445 155.214C100.707 154.645 101.094 154.197 101.607 153.87C102.121 153.534 102.751 153.366 103.497 153.366C104.057 153.366 104.538 153.469 104.939 153.674C105.35 153.88 105.686 154.16 105.947 154.514C106.218 154.869 106.414 155.261 106.535 155.69C106.666 156.12 106.731 156.558 106.731 157.006C106.722 157.09 106.717 157.174 106.717 157.258C106.717 157.333 106.713 157.408 106.703 157.482H101.047C101.085 157.977 101.197 158.42 101.383 158.812C101.57 159.195 101.841 159.498 102.195 159.722C102.559 159.937 103.012 160.044 103.553 160.044C103.805 160.044 104.062 160.016 104.323 159.96C104.585 159.895 104.823 159.788 105.037 159.638C105.252 159.48 105.411 159.274 105.513 159.022H106.549C106.419 159.461 106.199 159.82 105.891 160.1C105.583 160.38 105.219 160.586 104.799 160.716C104.379 160.847 103.95 160.912 103.511 160.912ZM101.075 156.628H105.723C105.714 156.171 105.616 155.765 105.429 155.41C105.243 155.046 104.986 154.762 104.659 154.556C104.333 154.342 103.931 154.234 103.455 154.234C102.961 154.234 102.541 154.346 102.195 154.57C101.85 154.794 101.584 155.088 101.397 155.452C101.22 155.816 101.113 156.208 101.075 156.628ZM112.159 160.828V153.45H113.153V160.828H112.159ZM112.649 152.26C112.435 152.26 112.262 152.195 112.131 152.064C112.001 151.934 111.935 151.761 111.935 151.546C111.935 151.332 112.001 151.164 112.131 151.042C112.271 150.912 112.444 150.846 112.649 150.846C112.845 150.846 113.013 150.912 113.153 151.042C113.303 151.173 113.377 151.341 113.377 151.546C113.377 151.761 113.307 151.934 113.167 152.064C113.027 152.195 112.855 152.26 112.649 152.26ZM115.085 160.828V150.93H116.079V154.696C116.266 154.398 116.494 154.15 116.765 153.954C117.036 153.758 117.33 153.614 117.647 153.52C117.964 153.418 118.296 153.366 118.641 153.366C119.36 153.366 119.924 153.516 120.335 153.814C120.746 154.113 121.035 154.519 121.203 155.032C121.38 155.536 121.469 156.11 121.469 156.754V160.828H120.475V157.118C120.475 156.764 120.452 156.418 120.405 156.082C120.358 155.737 120.265 155.424 120.125 155.144C119.994 154.864 119.794 154.645 119.523 154.486C119.262 154.318 118.912 154.234 118.473 154.234C118.053 154.234 117.689 154.323 117.381 154.5C117.073 154.668 116.821 154.902 116.625 155.2C116.438 155.499 116.298 155.83 116.205 156.194C116.121 156.549 116.079 156.913 116.079 157.286V160.828H115.085ZM126.339 160.828C125.797 160.828 125.359 160.744 125.023 160.576C124.687 160.408 124.439 160.152 124.281 159.806C124.122 159.452 124.043 159.004 124.043 158.462V154.318H122.811V153.45H124.043V151.252H125.037V153.45H127.081V154.318H125.037V158.364C125.037 158.906 125.139 159.312 125.345 159.582C125.55 159.844 125.951 159.974 126.549 159.974H127.039V160.828H126.339ZM128.484 160.828V153.45H129.478V160.828H128.484ZM128.974 152.26C128.759 152.26 128.586 152.195 128.456 152.064C128.325 151.934 128.26 151.761 128.26 151.546C128.26 151.332 128.325 151.164 128.456 151.042C128.596 150.912 128.768 150.846 128.974 150.846C129.17 150.846 129.338 150.912 129.478 151.042C129.627 151.173 129.702 151.341 129.702 151.546C129.702 151.761 129.632 151.934 129.492 152.064C129.352 152.195 129.179 152.26 128.974 152.26ZM134.601 164.23C134.06 164.23 133.528 164.156 133.005 164.006C132.492 163.857 132.03 163.6 131.619 163.236L132.053 162.438C132.427 162.728 132.823 162.952 133.243 163.11C133.663 163.269 134.102 163.348 134.559 163.348C135.39 163.348 135.983 163.11 136.337 162.634C136.692 162.168 136.869 161.556 136.869 160.8V159.666C136.673 159.984 136.435 160.236 136.155 160.422C135.875 160.609 135.572 160.744 135.245 160.828C134.928 160.903 134.601 160.94 134.265 160.94C133.537 160.94 132.963 160.791 132.543 160.492C132.123 160.194 131.825 159.788 131.647 159.274C131.479 158.752 131.395 158.159 131.395 157.496V153.45H132.389V157.16C132.389 157.524 132.413 157.879 132.459 158.224C132.506 158.57 132.599 158.882 132.739 159.162C132.879 159.433 133.085 159.652 133.355 159.82C133.626 159.988 133.99 160.072 134.447 160.072C135.035 160.072 135.502 159.932 135.847 159.652C136.202 159.363 136.454 158.985 136.603 158.518C136.762 158.052 136.841 157.543 136.841 156.992V153.45H137.835V160.856C137.835 161.398 137.765 161.878 137.625 162.298C137.495 162.718 137.294 163.068 137.023 163.348C136.753 163.638 136.417 163.857 136.015 164.006C135.614 164.156 135.143 164.23 134.601 164.23ZM142.115 160.912C141.798 160.912 141.485 160.875 141.177 160.8C140.869 160.716 140.589 160.59 140.337 160.422C140.085 160.245 139.88 160.021 139.721 159.75C139.572 159.47 139.497 159.144 139.497 158.77C139.497 158.35 139.572 158 139.721 157.72C139.88 157.44 140.09 157.216 140.351 157.048C140.612 156.88 140.911 156.764 141.247 156.698C141.583 156.624 141.938 156.586 142.311 156.586H144.649C144.649 156.129 144.584 155.728 144.453 155.382C144.332 155.028 144.126 154.748 143.837 154.542C143.557 154.337 143.179 154.234 142.703 154.234C142.451 154.234 142.208 154.262 141.975 154.318C141.742 154.374 141.532 154.468 141.345 154.598C141.168 154.72 141.028 154.888 140.925 155.102H139.861C139.945 154.776 140.085 154.5 140.281 154.276C140.486 154.052 140.724 153.875 140.995 153.744C141.266 153.604 141.55 153.506 141.849 153.45C142.148 153.394 142.432 153.366 142.703 153.366C143.748 153.366 144.495 153.679 144.943 154.304C145.391 154.93 145.615 155.77 145.615 156.824V160.828H144.761L144.719 159.82C144.514 160.1 144.266 160.32 143.977 160.478C143.697 160.637 143.398 160.749 143.081 160.814C142.764 160.88 142.442 160.912 142.115 160.912ZM142.185 160.044C142.642 160.044 143.058 159.97 143.431 159.82C143.804 159.662 144.098 159.428 144.313 159.12C144.537 158.812 144.649 158.43 144.649 157.972V157.412H142.997C142.708 157.412 142.414 157.422 142.115 157.44C141.816 157.45 141.546 157.496 141.303 157.58C141.06 157.655 140.864 157.781 140.715 157.958C140.566 158.126 140.491 158.369 140.491 158.686C140.491 159.004 140.57 159.265 140.729 159.47C140.888 159.666 141.098 159.811 141.359 159.904C141.62 159.998 141.896 160.044 142.185 160.044ZM150.679 160.912C149.904 160.912 149.26 160.754 148.747 160.436C148.243 160.11 147.865 159.662 147.613 159.092C147.361 158.523 147.235 157.879 147.235 157.16C147.235 156.451 147.365 155.812 147.627 155.242C147.888 154.664 148.28 154.206 148.803 153.87C149.325 153.534 149.988 153.366 150.791 153.366C151.267 153.366 151.696 153.446 152.079 153.604C152.461 153.754 152.783 153.982 153.045 154.29C153.306 154.589 153.493 154.962 153.605 155.41H152.583C152.433 154.99 152.191 154.692 151.855 154.514C151.528 154.328 151.15 154.234 150.721 154.234C150.133 154.234 149.657 154.374 149.293 154.654C148.929 154.925 148.658 155.284 148.481 155.732C148.313 156.171 148.229 156.647 148.229 157.16C148.229 157.683 148.313 158.164 148.481 158.602C148.658 159.041 148.929 159.391 149.293 159.652C149.666 159.914 150.142 160.044 150.721 160.044C151.141 160.044 151.533 159.956 151.897 159.778C152.261 159.601 152.513 159.298 152.653 158.868H153.689C153.577 159.335 153.367 159.722 153.059 160.03C152.76 160.329 152.401 160.553 151.981 160.702C151.57 160.842 151.136 160.912 150.679 160.912ZM150.287 164.328C150.184 164.338 150.072 164.347 149.951 164.356C149.839 164.366 149.717 164.366 149.587 164.356V163.726C149.745 163.726 149.913 163.722 150.091 163.712C150.268 163.703 150.441 163.67 150.609 163.614C150.777 163.568 150.912 163.484 151.015 163.362C151.127 163.25 151.183 163.096 151.183 162.9C151.183 162.742 151.136 162.62 151.043 162.536C150.949 162.462 150.837 162.41 150.707 162.382C150.585 162.354 150.473 162.34 150.371 162.34C150.268 162.34 150.147 162.35 150.007 162.368C149.867 162.387 149.741 162.42 149.629 162.466L150.077 160.688H150.777L150.497 161.752C150.571 161.743 150.637 161.734 150.693 161.724C150.758 161.724 150.819 161.724 150.875 161.724C151.22 161.724 151.486 161.822 151.673 162.018C151.869 162.214 151.967 162.49 151.967 162.844C151.967 163.18 151.887 163.451 151.729 163.656C151.579 163.862 151.379 164.016 151.127 164.118C150.875 164.23 150.595 164.3 150.287 164.328ZM155.253 160.828V150.93H156.233V160.828H155.253ZM160.531 160.912C160.214 160.912 159.901 160.875 159.593 160.8C159.285 160.716 159.005 160.59 158.753 160.422C158.501 160.245 158.296 160.021 158.137 159.75C157.988 159.47 157.913 159.144 157.913 158.77C157.913 158.35 157.988 158 158.137 157.72C158.296 157.44 158.506 157.216 158.767 157.048C159.028 156.88 159.327 156.764 159.663 156.698C159.999 156.624 160.354 156.586 160.727 156.586H163.065C163.065 156.129 163 155.728 162.869 155.382C162.748 155.028 162.542 154.748 162.253 154.542C161.973 154.337 161.595 154.234 161.119 154.234C160.867 154.234 160.624 154.262 160.391 154.318C160.158 154.374 159.948 154.468 159.761 154.598C159.584 154.72 159.444 154.888 159.341 155.102H158.277C158.361 154.776 158.501 154.5 158.697 154.276C158.902 154.052 159.14 153.875 159.411 153.744C159.682 153.604 159.966 153.506 160.265 153.45C160.564 153.394 160.848 153.366 161.119 153.366C162.164 153.366 162.911 153.679 163.359 154.304C163.807 154.93 164.031 155.77 164.031 156.824V160.828H163.177L163.135 159.82C162.93 160.1 162.682 160.32 162.393 160.478C162.113 160.637 161.814 160.749 161.497 160.814C161.18 160.88 160.858 160.912 160.531 160.912ZM160.601 160.044C161.058 160.044 161.474 159.97 161.847 159.82C162.22 159.662 162.514 159.428 162.729 159.12C162.953 158.812 163.065 158.43 163.065 157.972V157.412H161.413C161.124 157.412 160.83 157.422 160.531 157.44C160.232 157.45 159.962 157.496 159.719 157.58C159.476 157.655 159.28 157.781 159.131 157.958C158.982 158.126 158.907 158.369 158.907 158.686C158.907 159.004 158.986 159.265 159.145 159.47C159.304 159.666 159.514 159.811 159.775 159.904C160.036 159.998 160.312 160.044 160.601 160.044ZM165.931 160.828V153.45H166.883L166.925 154.766C167.112 154.412 167.34 154.136 167.611 153.94C167.891 153.744 168.194 153.604 168.521 153.52C168.857 153.427 169.198 153.38 169.543 153.38C169.599 153.38 169.65 153.38 169.697 153.38C169.744 153.38 169.795 153.38 169.851 153.38V154.29H169.529C168.913 154.29 168.409 154.421 168.017 154.682C167.634 154.944 167.354 155.298 167.177 155.746C167.009 156.194 166.925 156.694 166.925 157.244V160.828H165.931ZM171.085 160.828V153.45H172.079V160.828H171.085ZM174.011 160.828V153.45H174.977L175.005 154.682C175.192 154.374 175.42 154.127 175.691 153.94C175.962 153.744 176.26 153.6 176.587 153.506C176.914 153.413 177.24 153.366 177.567 153.366C178.276 153.366 178.836 153.516 179.247 153.814C179.658 154.113 179.952 154.519 180.129 155.032C180.306 155.536 180.395 156.11 180.395 156.754V160.828H179.401V157.076C179.401 156.712 179.378 156.362 179.331 156.026C179.284 155.681 179.191 155.373 179.051 155.102C178.92 154.832 178.724 154.622 178.463 154.472C178.211 154.314 177.87 154.234 177.441 154.234C176.918 154.234 176.47 154.374 176.097 154.654C175.733 154.934 175.458 155.308 175.271 155.774C175.094 156.241 175.005 156.759 175.005 157.328V160.828H174.011ZM182.282 160.828V153.45H183.276V160.828H182.282ZM184.928 160.828V159.96L189.59 154.318H184.956V153.45H190.822V154.304L186.118 159.974H190.822V160.828H184.928ZM196.241 160.828V153.45H197.235V160.828H196.241ZM196.731 152.26C196.517 152.26 196.344 152.195 196.213 152.064C196.083 151.934 196.017 151.761 196.017 151.546C196.017 151.332 196.083 151.164 196.213 151.042C196.353 150.912 196.526 150.846 196.731 150.846C196.927 150.846 197.095 150.912 197.235 151.042C197.385 151.173 197.459 151.341 197.459 151.546C197.459 151.761 197.389 151.934 197.249 152.064C197.109 152.195 196.937 152.26 196.731 152.26ZM202.331 160.912C201.557 160.912 200.913 160.754 200.399 160.436C199.895 160.11 199.517 159.662 199.265 159.092C199.013 158.523 198.887 157.879 198.887 157.16C198.887 156.451 199.018 155.812 199.279 155.242C199.541 154.664 199.933 154.206 200.455 153.87C200.978 153.534 201.641 153.366 202.443 153.366C202.919 153.366 203.349 153.446 203.731 153.604C204.114 153.754 204.436 153.982 204.697 154.29C204.959 154.589 205.145 154.962 205.257 155.41H204.235C204.086 154.99 203.843 154.692 203.507 154.514C203.181 154.328 202.803 154.234 202.373 154.234C201.785 154.234 201.309 154.374 200.945 154.654C200.581 154.925 200.311 155.284 200.133 155.732C199.965 156.171 199.881 156.647 199.881 157.16C199.881 157.683 199.965 158.164 200.133 158.602C200.311 159.041 200.581 159.391 200.945 159.652C201.319 159.914 201.795 160.044 202.373 160.044C202.793 160.044 203.185 159.956 203.549 159.778C203.913 159.601 204.165 159.298 204.305 158.868H205.341C205.229 159.335 205.019 159.722 204.711 160.03C204.413 160.329 204.053 160.553 203.633 160.702C203.223 160.842 202.789 160.912 202.331 160.912ZM201.939 164.328C201.837 164.338 201.725 164.347 201.603 164.356C201.491 164.366 201.37 164.366 201.239 164.356V163.726C201.398 163.726 201.566 163.722 201.743 163.712C201.921 163.703 202.093 163.67 202.261 163.614C202.429 163.568 202.565 163.484 202.667 163.362C202.779 163.25 202.835 163.096 202.835 162.9C202.835 162.742 202.789 162.62 202.695 162.536C202.602 162.462 202.49 162.41 202.359 162.382C202.238 162.354 202.126 162.34 202.023 162.34C201.921 162.34 201.799 162.35 201.659 162.368C201.519 162.387 201.393 162.42 201.281 162.466L201.729 160.688H202.429L202.149 161.752C202.224 161.743 202.289 161.734 202.345 161.724C202.411 161.724 202.471 161.724 202.527 161.724C202.873 161.724 203.139 161.822 203.325 162.018C203.521 162.214 203.619 162.49 203.619 162.844C203.619 163.18 203.54 163.451 203.381 163.656C203.232 163.862 203.031 164.016 202.779 164.118C202.527 164.23 202.247 164.3 201.939 164.328ZM206.892 160.828V153.45H207.886V160.828H206.892ZM207.382 152.26C207.167 152.26 206.994 152.195 206.864 152.064C206.733 151.934 206.668 151.761 206.668 151.546C206.668 151.332 206.733 151.164 206.864 151.042C207.004 150.912 207.176 150.846 207.382 150.846C207.578 150.846 207.746 150.912 207.886 151.042C208.035 151.173 208.11 151.341 208.11 151.546C208.11 151.761 208.04 151.934 207.9 152.064C207.76 152.195 207.587 152.26 207.382 152.26ZM209.818 160.828V153.45H210.784L210.812 154.682C210.998 154.374 211.227 154.127 211.498 153.94C211.768 153.744 212.067 153.6 212.394 153.506C212.72 153.413 213.047 153.366 213.374 153.366C214.083 153.366 214.643 153.516 215.054 153.814C215.464 154.113 215.758 154.519 215.936 155.032C216.113 155.536 216.202 156.11 216.202 156.754V160.828H215.208V157.076C215.208 156.712 215.184 156.362 215.138 156.026C215.091 155.681 214.998 155.373 214.858 155.102C214.727 154.832 214.531 154.622 214.27 154.472C214.018 154.314 213.677 154.234 213.248 154.234C212.725 154.234 212.277 154.374 211.904 154.654C211.54 154.934 211.264 155.308 211.078 155.774C210.9 156.241 210.812 156.759 210.812 157.328V160.828H209.818ZM54.0402 180.828V170.93H55.0342V174.696C55.2209 174.398 55.4496 174.15 55.7202 173.954C55.9909 173.758 56.2849 173.614 56.6022 173.52C56.9196 173.418 57.2509 173.366 57.5962 173.366C58.3149 173.366 58.8796 173.516 59.2902 173.814C59.7009 174.113 59.9902 174.519 60.1582 175.032C60.3356 175.536 60.4242 176.11 60.4242 176.754V180.828H59.4302V177.118C59.4302 176.764 59.4069 176.418 59.3602 176.082C59.3136 175.737 59.2202 175.424 59.0802 175.144C58.9496 174.864 58.7489 174.645 58.4782 174.486C58.2169 174.318 57.8669 174.234 57.4282 174.234C57.0082 174.234 56.6442 174.323 56.3362 174.5C56.0282 174.668 55.7762 174.902 55.5802 175.2C55.3936 175.499 55.2536 175.83 55.1602 176.194C55.0762 176.549 55.0342 176.913 55.0342 177.286V180.828H54.0402ZM64.6637 180.912C64.3464 180.912 64.0337 180.875 63.7257 180.8C63.4177 180.716 63.1377 180.59 62.8857 180.422C62.6337 180.245 62.4284 180.021 62.2697 179.75C62.1204 179.47 62.0457 179.144 62.0457 178.77C62.0457 178.35 62.1204 178 62.2697 177.72C62.4284 177.44 62.6384 177.216 62.8997 177.048C63.161 176.88 63.4597 176.764 63.7957 176.698C64.1317 176.624 64.4864 176.586 64.8597 176.586H67.1977C67.1977 176.129 67.1324 175.728 67.0017 175.382C66.8804 175.028 66.675 174.748 66.3857 174.542C66.1057 174.337 65.7277 174.234 65.2517 174.234C64.9997 174.234 64.757 174.262 64.5237 174.318C64.2904 174.374 64.0804 174.468 63.8937 174.598C63.7164 174.72 63.5764 174.888 63.4737 175.102H62.4097C62.4937 174.776 62.6337 174.5 62.8297 174.276C63.035 174.052 63.273 173.875 63.5437 173.744C63.8144 173.604 64.099 173.506 64.3977 173.45C64.6964 173.394 64.981 173.366 65.2517 173.366C66.297 173.366 67.0437 173.679 67.4917 174.304C67.9397 174.93 68.1637 175.77 68.1637 176.824V180.828H67.3097L67.2677 179.82C67.0624 180.1 66.815 180.32 66.5257 180.478C66.2457 180.637 65.947 180.749 65.6297 180.814C65.3124 180.88 64.9904 180.912 64.6637 180.912ZM64.7337 180.044C65.191 180.044 65.6064 179.97 65.9797 179.82C66.353 179.662 66.647 179.428 66.8617 179.12C67.0857 178.812 67.1977 178.43 67.1977 177.972V177.412H65.5457C65.2564 177.412 64.9624 177.422 64.6637 177.44C64.365 177.45 64.0944 177.496 63.8517 177.58C63.609 177.655 63.413 177.781 63.2637 177.958C63.1144 178.126 63.0397 178.369 63.0397 178.686C63.0397 179.004 63.119 179.265 63.2777 179.47C63.4364 179.666 63.6464 179.811 63.9077 179.904C64.169 179.998 64.4444 180.044 64.7337 180.044ZM69.7837 180.828V179.96L74.4457 174.318H69.8117V173.45H75.6777V174.304L70.9737 179.974H75.6777V180.828H69.7837ZM77.3234 180.828V173.45H78.3174V180.828H77.3234ZM80.2492 180.828V173.45H81.2012L81.2432 174.766C81.4299 174.412 81.6585 174.136 81.9292 173.94C82.2092 173.744 82.5125 173.604 82.8392 173.52C83.1752 173.427 83.5159 173.38 83.8612 173.38C83.9172 173.38 83.9685 173.38 84.0152 173.38C84.0619 173.38 84.1132 173.38 84.1692 173.38V174.29H83.8472C83.2312 174.29 82.7272 174.421 82.3352 174.682C81.9525 174.944 81.6725 175.298 81.4952 175.746C81.3272 176.194 81.2432 176.694 81.2432 177.244V180.828H80.2492ZM92.6349 180.912C92.3083 180.912 91.9909 180.875 91.6829 180.8C91.3749 180.726 91.0903 180.6 90.8289 180.422C90.5676 180.245 90.3436 180.016 90.1569 179.736L90.1149 180.828H89.1769V170.93H90.1709V174.668C90.4509 174.211 90.8243 173.88 91.2909 173.674C91.7669 173.469 92.2616 173.366 92.7749 173.366C93.5216 173.366 94.1329 173.534 94.6089 173.87C95.0849 174.206 95.4349 174.659 95.6589 175.228C95.8923 175.798 96.0089 176.432 96.0089 177.132C96.0089 177.842 95.8829 178.486 95.6309 179.064C95.3789 179.634 95.0056 180.086 94.5109 180.422C94.0163 180.749 93.3909 180.912 92.6349 180.912ZM92.6209 180.044C93.1996 180.044 93.6616 179.914 94.0069 179.652C94.3523 179.382 94.6043 179.027 94.7629 178.588C94.9309 178.15 95.0149 177.669 95.0149 177.146C95.0149 176.614 94.9356 176.129 94.7769 175.69C94.6183 175.252 94.3616 174.902 94.0069 174.64C93.6523 174.37 93.1856 174.234 92.6069 174.234C92.0749 174.234 91.6223 174.379 91.2489 174.668C90.8849 174.958 90.6096 175.326 90.4229 175.774C90.2363 176.222 90.1429 176.684 90.1429 177.16C90.1429 177.674 90.2269 178.15 90.3949 178.588C90.5723 179.027 90.8429 179.382 91.2069 179.652C91.5709 179.914 92.0423 180.044 92.6209 180.044ZM97.6672 180.828V173.45H98.6612V180.828H97.6672ZM98.1572 172.26C97.9425 172.26 97.7698 172.195 97.6392 172.064C97.5085 171.934 97.4432 171.761 97.4432 171.546C97.4432 171.332 97.5085 171.164 97.6392 171.042C97.7792 170.912 97.9518 170.846 98.1572 170.846C98.3532 170.846 98.5212 170.912 98.6612 171.042C98.8105 171.173 98.8852 171.341 98.8852 171.546C98.8852 171.761 98.8152 171.934 98.6752 172.064C98.5352 172.195 98.3625 172.26 98.1572 172.26ZM100.593 180.828V173.45H101.545L101.587 174.766C101.774 174.412 102.002 174.136 102.273 173.94C102.553 173.744 102.856 173.604 103.183 173.52C103.519 173.427 103.86 173.38 104.205 173.38C104.261 173.38 104.312 173.38 104.359 173.38C104.406 173.38 104.457 173.38 104.513 173.38V174.29H104.191C103.575 174.29 103.071 174.421 102.679 174.682C102.296 174.944 102.016 175.298 101.839 175.746C101.671 176.194 101.587 176.694 101.587 177.244V180.828H100.593ZM112.685 180.912C111.91 180.912 111.266 180.754 110.753 180.436C110.249 180.11 109.871 179.662 109.619 179.092C109.367 178.523 109.241 177.879 109.241 177.16C109.241 176.451 109.371 175.812 109.633 175.242C109.894 174.664 110.286 174.206 110.809 173.87C111.331 173.534 111.994 173.366 112.797 173.366C113.273 173.366 113.702 173.446 114.085 173.604C114.467 173.754 114.789 173.982 115.051 174.29C115.312 174.589 115.499 174.962 115.611 175.41H114.589C114.439 174.99 114.197 174.692 113.861 174.514C113.534 174.328 113.156 174.234 112.727 174.234C112.139 174.234 111.663 174.374 111.299 174.654C110.935 174.925 110.664 175.284 110.487 175.732C110.319 176.171 110.235 176.647 110.235 177.16C110.235 177.683 110.319 178.164 110.487 178.602C110.664 179.041 110.935 179.391 111.299 179.652C111.672 179.914 112.148 180.044 112.727 180.044C113.147 180.044 113.539 179.956 113.903 179.778C114.267 179.601 114.519 179.298 114.659 178.868H115.695C115.583 179.335 115.373 179.722 115.065 180.03C114.766 180.329 114.407 180.553 113.987 180.702C113.576 180.842 113.142 180.912 112.685 180.912ZM112.293 184.328C112.19 184.338 112.078 184.347 111.957 184.356C111.845 184.366 111.723 184.366 111.593 184.356V183.726C111.751 183.726 111.919 183.722 112.097 183.712C112.274 183.703 112.447 183.67 112.615 183.614C112.783 183.568 112.918 183.484 113.021 183.362C113.133 183.25 113.189 183.096 113.189 182.9C113.189 182.742 113.142 182.62 113.049 182.536C112.955 182.462 112.843 182.41 112.713 182.382C112.591 182.354 112.479 182.34 112.377 182.34C112.274 182.34 112.153 182.35 112.013 182.368C111.873 182.387 111.747 182.42 111.635 182.466L112.083 180.688H112.783L112.503 181.752C112.577 181.743 112.643 181.734 112.699 181.724C112.764 181.724 112.825 181.724 112.881 181.724C113.226 181.724 113.492 181.822 113.679 182.018C113.875 182.214 113.973 182.49 113.973 182.844C113.973 183.18 113.893 183.451 113.735 183.656C113.585 183.862 113.385 184.016 113.133 184.118C112.881 184.23 112.601 184.3 112.293 184.328ZM120.465 180.912C119.691 180.912 119.042 180.754 118.519 180.436C117.997 180.11 117.605 179.662 117.343 179.092C117.091 178.523 116.965 177.874 116.965 177.146C116.965 176.409 117.096 175.76 117.357 175.2C117.619 174.631 118.011 174.183 118.533 173.856C119.056 173.53 119.705 173.366 120.479 173.366C121.254 173.366 121.898 173.53 122.411 173.856C122.934 174.183 123.321 174.631 123.573 175.2C123.835 175.76 123.965 176.409 123.965 177.146C123.965 177.874 123.835 178.523 123.573 179.092C123.312 179.662 122.92 180.11 122.397 180.436C121.884 180.754 121.24 180.912 120.465 180.912ZM120.465 180.044C121.044 180.044 121.52 179.918 121.893 179.666C122.267 179.405 122.542 179.055 122.719 178.616C122.897 178.178 122.985 177.688 122.985 177.146C122.985 176.605 122.897 176.115 122.719 175.676C122.542 175.238 122.267 174.888 121.893 174.626C121.52 174.365 121.044 174.234 120.465 174.234C119.887 174.234 119.411 174.365 119.037 174.626C118.664 174.888 118.389 175.238 118.211 175.676C118.043 176.115 117.959 176.605 117.959 177.146C117.959 177.688 118.043 178.178 118.211 178.616C118.389 179.055 118.664 179.405 119.037 179.666C119.411 179.918 119.887 180.044 120.465 180.044ZM122.005 172.232C121.8 172.232 121.627 172.167 121.487 172.036C121.357 171.906 121.291 171.738 121.291 171.532C121.291 171.327 121.357 171.159 121.487 171.028C121.627 170.888 121.8 170.818 122.005 170.818C122.22 170.818 122.393 170.884 122.523 171.014C122.663 171.145 122.733 171.318 122.733 171.532C122.733 171.738 122.663 171.906 122.523 172.036C122.393 172.167 122.22 172.232 122.005 172.232ZM118.911 172.232C118.706 172.232 118.533 172.167 118.393 172.036C118.263 171.906 118.197 171.738 118.197 171.532C118.197 171.327 118.263 171.159 118.393 171.028C118.533 170.888 118.706 170.818 118.911 170.818C119.126 170.818 119.303 170.884 119.443 171.014C119.583 171.145 119.653 171.318 119.653 171.532C119.653 171.738 119.583 171.906 119.443 172.036C119.303 172.167 119.126 172.232 118.911 172.232ZM125.332 180.828V179.96L129.994 174.318H125.36V173.45H131.226V174.304L126.522 179.974H131.226V180.828H125.332ZM135.91 180.912C134.884 180.912 134.114 180.637 133.6 180.086C133.096 179.536 132.844 178.714 132.844 177.622V173.45H133.838V177.594C133.838 178.089 133.908 178.523 134.048 178.896C134.198 179.26 134.422 179.545 134.72 179.75C135.028 179.946 135.425 180.044 135.91 180.044C136.405 180.044 136.806 179.946 137.114 179.75C137.432 179.554 137.66 179.274 137.8 178.91C137.94 178.537 138.01 178.098 138.01 177.594V173.45H139.004V177.622C139.004 178.714 138.748 179.536 138.234 180.086C137.721 180.637 136.946 180.912 135.91 180.912ZM137.464 172.232C137.259 172.232 137.086 172.167 136.946 172.036C136.816 171.906 136.75 171.738 136.75 171.532C136.75 171.327 136.816 171.159 136.946 171.028C137.086 170.888 137.259 170.818 137.464 170.818C137.679 170.818 137.852 170.884 137.982 171.014C138.122 171.145 138.192 171.318 138.192 171.532C138.192 171.738 138.122 171.906 137.982 172.036C137.852 172.167 137.679 172.232 137.464 172.232ZM134.37 172.232C134.165 172.232 133.992 172.167 133.852 172.036C133.722 171.906 133.656 171.738 133.656 171.532C133.656 171.327 133.722 171.159 133.852 171.028C133.992 170.888 134.165 170.818 134.37 170.818C134.585 170.818 134.762 170.884 134.902 171.014C135.042 171.145 135.112 171.318 135.112 171.532C135.112 171.738 135.042 171.906 134.902 172.036C134.762 172.167 134.585 172.232 134.37 172.232ZM140.911 180.828V173.45H141.863L141.891 174.5C142.059 174.211 142.255 173.987 142.479 173.828C142.713 173.66 142.96 173.544 143.221 173.478C143.483 173.404 143.744 173.366 144.005 173.366C144.528 173.366 144.957 173.492 145.293 173.744C145.639 173.996 145.886 174.342 146.035 174.78C146.166 174.519 146.334 174.281 146.539 174.066C146.745 173.852 146.997 173.684 147.295 173.562C147.594 173.432 147.935 173.366 148.317 173.366C148.859 173.366 149.297 173.483 149.633 173.716C149.969 173.94 150.212 174.248 150.361 174.64C150.52 175.032 150.599 175.476 150.599 175.97V180.828H149.605V176.502C149.605 176.232 149.591 175.966 149.563 175.704C149.535 175.434 149.47 175.191 149.367 174.976C149.265 174.752 149.111 174.575 148.905 174.444C148.709 174.304 148.439 174.234 148.093 174.234C147.757 174.234 147.473 174.314 147.239 174.472C147.015 174.622 146.829 174.827 146.679 175.088C146.539 175.34 146.437 175.62 146.371 175.928C146.315 176.227 146.287 176.521 146.287 176.81V180.828H145.293V176.6C145.293 176.348 145.275 176.087 145.237 175.816C145.209 175.536 145.149 175.275 145.055 175.032C144.962 174.79 144.813 174.598 144.607 174.458C144.402 174.309 144.131 174.234 143.795 174.234C143.31 174.234 142.927 174.37 142.647 174.64C142.377 174.902 142.185 175.238 142.073 175.648C141.961 176.05 141.905 176.46 141.905 176.88V180.828H140.911ZM159.457 184.23C158.972 184.23 158.519 184.16 158.099 184.02C157.688 183.88 157.334 183.656 157.035 183.348C156.736 183.05 156.531 182.662 156.419 182.186H157.455C157.548 182.476 157.702 182.704 157.917 182.872C158.141 183.05 158.398 183.171 158.687 183.236C158.976 183.311 159.256 183.348 159.527 183.348C160.096 183.348 160.549 183.236 160.885 183.012C161.221 182.788 161.459 182.48 161.599 182.088C161.739 181.696 161.809 181.248 161.809 180.744V179.582C161.641 179.9 161.417 180.161 161.137 180.366C160.857 180.562 160.554 180.702 160.227 180.786C159.9 180.87 159.564 180.912 159.219 180.912C158.454 180.912 157.833 180.744 157.357 180.408C156.881 180.072 156.531 179.62 156.307 179.05C156.083 178.481 155.971 177.846 155.971 177.146C155.971 176.428 156.092 175.784 156.335 175.214C156.578 174.636 156.946 174.183 157.441 173.856C157.936 173.53 158.552 173.366 159.289 173.366C159.746 173.366 160.208 173.46 160.675 173.646C161.142 173.824 161.524 174.132 161.823 174.57L161.865 173.45H162.803V180.758C162.803 181.486 162.682 182.107 162.439 182.62C162.206 183.143 161.842 183.54 161.347 183.81C160.862 184.09 160.232 184.23 159.457 184.23ZM159.359 180.044C159.9 180.044 160.353 179.909 160.717 179.638C161.081 179.368 161.356 179.008 161.543 178.56C161.73 178.112 161.823 177.627 161.823 177.104C161.823 176.563 161.73 176.078 161.543 175.648C161.366 175.219 161.095 174.878 160.731 174.626C160.367 174.365 159.905 174.234 159.345 174.234C158.776 174.234 158.314 174.37 157.959 174.64C157.614 174.902 157.362 175.252 157.203 175.69C157.044 176.129 156.965 176.61 156.965 177.132C156.965 177.683 157.044 178.182 157.203 178.63C157.362 179.069 157.618 179.414 157.973 179.666C158.328 179.918 158.79 180.044 159.359 180.044ZM167.961 180.912C167.187 180.912 166.538 180.754 166.015 180.436C165.493 180.11 165.101 179.662 164.839 179.092C164.587 178.523 164.461 177.874 164.461 177.146C164.461 176.409 164.592 175.76 164.853 175.2C165.115 174.631 165.507 174.183 166.029 173.856C166.552 173.53 167.201 173.366 167.975 173.366C168.75 173.366 169.394 173.53 169.907 173.856C170.43 174.183 170.817 174.631 171.069 175.2C171.331 175.76 171.461 176.409 171.461 177.146C171.461 177.874 171.331 178.523 171.069 179.092C170.808 179.662 170.416 180.11 169.893 180.436C169.38 180.754 168.736 180.912 167.961 180.912ZM167.961 180.044C168.54 180.044 169.016 179.918 169.389 179.666C169.763 179.405 170.038 179.055 170.215 178.616C170.393 178.178 170.481 177.688 170.481 177.146C170.481 176.605 170.393 176.115 170.215 175.676C170.038 175.238 169.763 174.888 169.389 174.626C169.016 174.365 168.54 174.234 167.961 174.234C167.383 174.234 166.907 174.365 166.533 174.626C166.16 174.888 165.885 175.238 165.707 175.676C165.539 176.115 165.455 176.605 165.455 177.146C165.455 177.688 165.539 178.178 165.707 178.616C165.885 179.055 166.16 179.405 166.533 179.666C166.907 179.918 167.383 180.044 167.961 180.044ZM169.501 172.232C169.296 172.232 169.123 172.167 168.983 172.036C168.853 171.906 168.787 171.738 168.787 171.532C168.787 171.327 168.853 171.159 168.983 171.028C169.123 170.888 169.296 170.818 169.501 170.818C169.716 170.818 169.889 170.884 170.019 171.014C170.159 171.145 170.229 171.318 170.229 171.532C170.229 171.738 170.159 171.906 170.019 172.036C169.889 172.167 169.716 172.232 169.501 172.232ZM166.407 172.232C166.202 172.232 166.029 172.167 165.889 172.036C165.759 171.906 165.693 171.738 165.693 171.532C165.693 171.327 165.759 171.159 165.889 171.028C166.029 170.888 166.202 170.818 166.407 170.818C166.622 170.818 166.799 170.884 166.939 171.014C167.079 171.145 167.149 171.318 167.149 171.532C167.149 171.738 167.079 171.906 166.939 172.036C166.799 172.167 166.622 172.232 166.407 172.232ZM175.755 180.912C175.428 180.912 175.101 180.884 174.775 180.828C174.448 180.763 174.14 180.656 173.851 180.506C173.561 180.357 173.314 180.156 173.109 179.904C172.913 179.652 172.777 179.344 172.703 178.98H173.725C173.837 179.251 174.005 179.466 174.229 179.624C174.462 179.774 174.719 179.881 174.999 179.946C175.279 180.012 175.545 180.044 175.797 180.044C175.974 180.044 176.17 180.035 176.385 180.016C176.609 179.988 176.819 179.932 177.015 179.848C177.211 179.764 177.369 179.643 177.491 179.484C177.621 179.326 177.687 179.116 177.687 178.854C177.687 178.621 177.631 178.434 177.519 178.294C177.416 178.154 177.276 178.042 177.099 177.958C176.921 177.874 176.725 177.814 176.511 177.776C176.175 177.702 175.815 177.632 175.433 177.566C175.05 177.501 174.705 177.384 174.397 177.216C174.21 177.151 174.028 177.072 173.851 176.978C173.683 176.876 173.529 176.754 173.389 176.614C173.249 176.474 173.137 176.306 173.053 176.11C172.969 175.914 172.927 175.686 172.927 175.424C172.927 175.06 173.001 174.748 173.151 174.486C173.3 174.225 173.501 174.01 173.753 173.842C174.014 173.674 174.313 173.553 174.649 173.478C174.985 173.404 175.339 173.366 175.713 173.366C176.161 173.366 176.571 173.436 176.945 173.576C177.327 173.707 177.645 173.908 177.897 174.178C178.158 174.449 178.321 174.79 178.387 175.2H177.463C177.36 174.892 177.145 174.654 176.819 174.486C176.492 174.318 176.114 174.234 175.685 174.234C175.526 174.234 175.344 174.248 175.139 174.276C174.933 174.304 174.737 174.36 174.551 174.444C174.364 174.519 174.21 174.636 174.089 174.794C173.967 174.944 173.907 175.149 173.907 175.41C173.907 175.653 173.967 175.854 174.089 176.012C174.21 176.171 174.378 176.297 174.593 176.39C174.807 176.474 175.041 176.549 175.293 176.614C175.601 176.68 175.937 176.745 176.301 176.81C176.674 176.866 176.982 176.932 177.225 177.006C177.533 177.1 177.794 177.226 178.009 177.384C178.223 177.543 178.387 177.739 178.499 177.972C178.611 178.196 178.667 178.467 178.667 178.784C178.667 179.214 178.583 179.568 178.415 179.848C178.247 180.119 178.018 180.334 177.729 180.492C177.449 180.642 177.136 180.749 176.791 180.814C176.445 180.88 176.1 180.912 175.755 180.912ZM182.948 180.912C182.183 180.912 181.646 180.707 181.338 180.296C181.04 179.876 180.89 179.288 180.89 178.532V174.318H179.658V173.45H180.89V171.238H181.884V173.45H184.236V174.318H181.884V178.378C181.884 178.668 181.908 178.938 181.954 179.19C182.01 179.442 182.122 179.648 182.29 179.806C182.458 179.965 182.715 180.044 183.06 180.044C183.256 180.044 183.438 180.012 183.606 179.946C183.784 179.881 183.933 179.802 184.054 179.708L184.46 180.436C184.32 180.548 184.166 180.642 183.998 180.716C183.84 180.791 183.672 180.842 183.494 180.87C183.326 180.898 183.144 180.912 182.948 180.912ZM188.837 180.912C188.063 180.912 187.419 180.754 186.905 180.436C186.392 180.11 186.009 179.662 185.757 179.092C185.505 178.523 185.379 177.874 185.379 177.146C185.379 176.418 185.51 175.774 185.771 175.214C186.033 174.645 186.42 174.197 186.933 173.87C187.447 173.534 188.077 173.366 188.823 173.366C189.383 173.366 189.864 173.469 190.265 173.674C190.676 173.88 191.012 174.16 191.273 174.514C191.544 174.869 191.74 175.261 191.861 175.69C191.992 176.12 192.057 176.558 192.057 177.006C192.048 177.09 192.043 177.174 192.043 177.258C192.043 177.333 192.039 177.408 192.029 177.482H186.373C186.411 177.977 186.523 178.42 186.709 178.812C186.896 179.195 187.167 179.498 187.521 179.722C187.885 179.937 188.338 180.044 188.879 180.044C189.131 180.044 189.388 180.016 189.649 179.96C189.911 179.895 190.149 179.788 190.363 179.638C190.578 179.48 190.737 179.274 190.839 179.022H191.875C191.745 179.461 191.525 179.82 191.217 180.1C190.909 180.38 190.545 180.586 190.125 180.716C189.705 180.847 189.276 180.912 188.837 180.912ZM186.401 176.628H191.049C191.04 176.171 190.942 175.765 190.755 175.41C190.569 175.046 190.312 174.762 189.985 174.556C189.659 174.342 189.257 174.234 188.781 174.234C188.287 174.234 187.867 174.346 187.521 174.57C187.176 174.794 186.91 175.088 186.723 175.452C186.546 175.816 186.439 176.208 186.401 176.628ZM193.712 180.828V173.45H194.664L194.706 174.766C194.893 174.412 195.121 174.136 195.392 173.94C195.672 173.744 195.975 173.604 196.302 173.52C196.638 173.427 196.979 173.38 197.324 173.38C197.38 173.38 197.431 173.38 197.478 173.38C197.525 173.38 197.576 173.38 197.632 173.38V174.29H197.31C196.694 174.29 196.19 174.421 195.798 174.682C195.415 174.944 195.135 175.298 194.958 175.746C194.79 176.194 194.706 176.694 194.706 177.244V180.828H193.712ZM201.908 180.912C201.133 180.912 200.489 180.754 199.976 180.436C199.462 180.11 199.08 179.662 198.828 179.092C198.576 178.523 198.45 177.874 198.45 177.146C198.45 176.418 198.58 175.774 198.842 175.214C199.103 174.645 199.49 174.197 200.004 173.87C200.517 173.534 201.147 173.366 201.894 173.366C202.454 173.366 202.934 173.469 203.336 173.674C203.746 173.88 204.082 174.16 204.344 174.514C204.614 174.869 204.81 175.261 204.932 175.69C205.062 176.12 205.128 176.558 205.128 177.006C205.118 177.09 205.114 177.174 205.114 177.258C205.114 177.333 205.109 177.408 205.1 177.482H199.444C199.481 177.977 199.593 178.42 199.78 178.812C199.966 179.195 200.237 179.498 200.592 179.722C200.956 179.937 201.408 180.044 201.95 180.044C202.202 180.044 202.458 180.016 202.72 179.96C202.981 179.895 203.219 179.788 203.434 179.638C203.648 179.48 203.807 179.274 203.91 179.022H204.946C204.815 179.461 204.596 179.82 204.288 180.1C203.98 180.38 203.616 180.586 203.196 180.716C202.776 180.847 202.346 180.912 201.908 180.912ZM199.472 176.628H204.12C204.11 176.171 204.012 175.765 203.826 175.41C203.639 175.046 203.382 174.762 203.056 174.556C202.729 174.342 202.328 174.234 201.852 174.234C201.357 174.234 200.937 174.346 200.592 174.57C200.246 174.794 199.98 175.088 199.794 175.452C199.616 175.816 199.509 176.208 199.472 176.628ZM206.796 180.828V170.93H207.776V180.828H206.796ZM209.722 180.828V173.45H210.716V180.828H209.722ZM210.212 172.26C209.997 172.26 209.825 172.195 209.694 172.064C209.563 171.934 209.498 171.761 209.498 171.546C209.498 171.332 209.563 171.164 209.694 171.042C209.834 170.912 210.007 170.846 210.212 170.846C210.408 170.846 210.576 170.912 210.716 171.042C210.865 171.173 210.94 171.341 210.94 171.546C210.94 171.761 210.87 171.934 210.73 172.064C210.59 172.195 210.417 172.26 210.212 172.26ZM212.648 180.828V173.45H213.6L213.628 174.5C213.796 174.211 213.992 173.987 214.216 173.828C214.449 173.66 214.696 173.544 214.958 173.478C215.219 173.404 215.48 173.366 215.742 173.366C216.264 173.366 216.694 173.492 217.03 173.744C217.375 173.996 217.622 174.342 217.772 174.78C217.902 174.519 218.07 174.281 218.276 174.066C218.481 173.852 218.733 173.684 219.032 173.562C219.33 173.432 219.671 173.366 220.054 173.366C220.595 173.366 221.034 173.483 221.37 173.716C221.706 173.94 221.948 174.248 222.098 174.64C222.256 175.032 222.336 175.476 222.336 175.97V180.828H221.342V176.502C221.342 176.232 221.328 175.966 221.3 175.704C221.272 175.434 221.206 175.191 221.104 174.976C221.001 174.752 220.847 174.575 220.642 174.444C220.446 174.304 220.175 174.234 219.83 174.234C219.494 174.234 219.209 174.314 218.976 174.472C218.752 174.622 218.565 174.827 218.416 175.088C218.276 175.34 218.173 175.62 218.108 175.928C218.052 176.227 218.024 176.521 218.024 176.81V180.828H217.03V176.6C217.03 176.348 217.011 176.087 216.974 175.816C216.946 175.536 216.885 175.275 216.792 175.032C216.698 174.79 216.549 174.598 216.344 174.458C216.138 174.309 215.868 174.234 215.532 174.234C215.046 174.234 214.664 174.37 214.384 174.64C214.113 174.902 213.922 175.238 213.81 175.648C213.698 176.05 213.642 176.46 213.642 176.88V180.828H212.648ZM224.662 177.944L224.536 170.93H225.628L225.516 177.944H224.662ZM225.096 180.94C224.947 180.94 224.816 180.908 224.704 180.842C224.592 180.786 224.503 180.702 224.438 180.59C224.382 180.469 224.354 180.338 224.354 180.198C224.354 180.04 224.382 179.909 224.438 179.806C224.503 179.694 224.592 179.606 224.704 179.54C224.816 179.475 224.947 179.442 225.096 179.442C225.301 179.442 225.474 179.512 225.614 179.652C225.763 179.792 225.838 179.974 225.838 180.198C225.838 180.338 225.805 180.469 225.74 180.59C225.675 180.702 225.586 180.786 225.474 180.842C225.362 180.908 225.236 180.94 225.096 180.94Z" fill="white"/>
<rect y="86.5098" width="128" height="41" rx="15" transform="rotate(-5.12112 0 86.5098)" fill="white"/>
<path d="M24.8917 115.403L23.0351 94.6862L30.1267 94.0507C33.7566 93.7254 36.4678 94.4016 38.2602 96.0794C40.0511 97.7395 41.0933 100.207 41.3869 103.483C41.6805 106.759 41.0945 109.382 39.6289 111.352C38.1617 113.304 35.6132 114.442 31.9833 114.768L24.8917 115.403ZM28.3701 112.093L31.4511 111.817C33.0093 111.677 34.262 111.315 35.2091 110.73C36.174 110.144 36.8471 109.289 37.2283 108.166C37.6096 107.043 37.7209 105.597 37.5622 103.826C37.4036 102.055 37.0368 100.651 36.4619 99.614C35.887 98.5768 35.0727 97.8555 34.019 97.4501C32.983 97.0432 31.6859 96.9096 30.1277 97.0492L27.0467 97.3253L28.3701 112.093ZM45.4655 113.559L43.6089 92.8424L57.314 91.6142L57.5829 94.6155L47.5697 95.5128L48.0363 100.719L55.845 100.019L56.0997 102.861L48.291 103.561L48.8884 110.227L59.061 109.316L59.33 112.317L45.4655 113.559ZM62.8645 112L61.0079 91.2831L67.648 90.688L73.915 108.038L74.7118 107.966L77.8471 89.774L84.4871 89.1789L86.3438 109.896L82.7847 110.215L81.2066 92.6054L80.5426 92.6649L77.5258 110.686L71.4435 111.231L65.2704 94.0336L64.6064 94.0931L66.1846 111.703L62.8645 112ZM99.126 109.125C96.9835 109.317 95.1562 109.044 93.6442 108.305C92.1483 107.546 90.974 106.393 90.1214 104.845C89.2864 103.296 88.7713 101.432 88.5761 99.2542C88.3794 97.0585 88.5548 95.1329 89.1026 93.4774C89.6665 91.8026 90.6178 90.468 91.9566 89.4734C93.3115 88.4595 95.0602 87.8565 97.2027 87.6645C99.3807 87.4694 101.218 87.751 102.713 88.5093C104.208 89.25 105.372 90.3951 106.207 91.9445C107.058 93.4747 107.582 95.3376 107.779 97.5332C107.974 99.7111 107.79 101.638 107.226 103.312C106.68 104.986 105.738 106.328 104.401 107.341C103.062 108.335 101.304 108.93 99.126 109.125ZM98.8689 106.257C100.852 106.079 102.252 105.266 103.068 103.819C103.883 102.354 104.178 100.373 103.954 97.876C103.731 95.3793 103.089 93.4913 102.028 92.212C100.966 90.915 99.443 90.3553 97.4598 90.533C95.4943 90.7092 94.1043 91.5299 93.2896 92.9951C92.4733 94.4426 92.177 96.4147 92.4008 98.9114C92.6245 101.408 93.2675 103.305 94.3298 104.602C95.3904 105.881 96.9035 106.433 98.8689 106.257Z" fill="#0223B5"/>
<path d="M72.85 52.4424C69.55 52.4424 67.11 51.5724 65.53 49.8324C63.97 48.0724 63.19 45.5624 63.19 42.3024V28.5924H67.45V42.3024C67.45 44.5224 67.87 46.1924 68.71 47.3124C69.55 48.4324 70.95 48.9924 72.91 48.9924C74.87 48.9924 76.26 48.4324 77.08 47.3124C77.92 46.1924 78.34 44.5224 78.34 42.3024V28.5924H82.48V42.3024C82.48 45.5624 81.7 48.0724 80.14 49.8324C78.6 51.5724 76.17 52.4424 72.85 52.4424ZM69.82 27.0924C69.14 27.0924 68.62 26.9024 68.26 26.5224C67.9 26.1224 67.72 25.6124 67.72 24.9924C67.72 24.3524 67.9 23.8424 68.26 23.4624C68.62 23.0824 69.14 22.8924 69.82 22.8924C70.52 22.8924 71.05 23.0824 71.41 23.4624C71.77 23.8424 71.95 24.3524 71.95 24.9924C71.95 25.6124 71.77 26.1224 71.41 26.5224C71.05 26.9024 70.52 27.0924 69.82 27.0924ZM75.94 27.0924C75.26 27.0924 74.73 26.9024 74.35 26.5224C73.99 26.1224 73.81 25.6124 73.81 24.9924C73.81 24.3524 73.99 23.8424 74.35 23.4624C74.73 23.0824 75.26 22.8924 75.94 22.8924C76.62 22.8924 77.14 23.0824 77.5 23.4624C77.86 23.8424 78.04 24.3524 78.04 24.9924C78.04 25.6124 77.86 26.1224 77.5 26.5224C77.14 26.9024 76.62 27.0924 75.94 27.0924ZM95.3613 52.4424C92.0413 52.4424 89.4613 51.3724 87.6213 49.2324C85.7813 47.0924 84.8613 44.1124 84.8613 40.2924C84.8613 36.4724 85.7713 33.4924 87.5913 31.3524C89.4313 29.2124 92.0113 28.1424 95.3313 28.1424C97.2913 28.1424 98.9813 28.5124 100.401 29.2524C101.821 29.9924 102.931 31.0224 103.731 32.3424C104.551 33.6624 105.041 35.1924 105.201 36.9324H100.971C100.791 35.2324 100.201 33.8824 99.2013 32.8824C98.2213 31.8824 96.9313 31.3824 95.3313 31.3824C93.3313 31.3824 91.8013 32.1624 90.7413 33.7224C89.7013 35.2824 89.1813 37.4824 89.1813 40.3224C89.1813 43.2024 89.7113 45.4024 90.7713 46.9224C91.8513 48.4424 93.3613 49.2024 95.3012 49.2024C96.9813 49.2024 98.3113 48.6824 99.2913 47.6424C100.271 46.6024 100.831 45.2724 100.971 43.6524H105.201C105.041 45.3724 104.551 46.9024 103.731 48.2424C102.931 49.5624 101.821 50.5924 100.401 51.3324C99.0013 52.0724 97.3213 52.4424 95.3613 52.4424ZM108.033 51.9924V28.5924H117.363C119.363 28.5924 120.973 28.8824 122.193 29.4624C123.413 30.0224 124.303 30.7824 124.863 31.7424C125.443 32.7024 125.733 33.8024 125.733 35.0424C125.733 36.5424 125.323 37.8224 124.503 38.8824C123.683 39.9424 122.483 40.6824 120.903 41.1024L126.363 51.8124V51.9924H121.923L116.793 41.7024H112.173V51.9924H108.033ZM112.173 38.5524H116.913C118.453 38.5524 119.593 38.2824 120.333 37.7424C121.073 37.2024 121.443 36.3524 121.443 35.1924C121.443 34.0124 121.063 33.1624 120.303 32.6424C119.563 32.1024 118.433 31.8324 116.913 31.8324H112.173V38.5524ZM129.478 51.9924V28.5924H144.958V31.9824H133.648V37.8624H142.468V41.0724H133.648V48.6024H145.138V51.9924H129.478ZM154.891 51.9924V31.9824H147.541V28.5924H166.441V31.9824H159.091V51.9924H154.891ZM177.234 52.4424C175.554 52.4424 174.114 52.2124 172.914 51.7524C171.714 51.2924 170.724 50.6824 169.944 49.9224C169.164 49.1424 168.574 48.2624 168.174 47.2824C167.774 46.3024 167.544 45.3024 167.484 44.2824H171.444C171.504 45.0824 171.754 45.8624 172.194 46.6224C172.634 47.3824 173.284 48.0024 174.144 48.4824C175.004 48.9624 176.084 49.2024 177.384 49.2024C178.784 49.2024 179.854 48.9024 180.594 48.3024C181.354 47.7024 181.734 46.8924 181.734 45.8724C181.734 44.8924 181.384 44.1224 180.684 43.5624C180.004 42.9824 179.124 42.5124 178.044 42.1524L175.224 41.2224C174.104 40.8424 173.034 40.3924 172.014 39.8724C171.014 39.3524 170.184 38.6724 169.524 37.8324C168.884 36.9724 168.564 35.8624 168.564 34.5024C168.564 33.1424 168.894 31.9924 169.554 31.0524C170.234 30.1124 171.174 29.3924 172.374 28.8924C173.574 28.3924 174.954 28.1424 176.514 28.1424C178.474 28.1424 180.044 28.4824 181.224 29.1624C182.424 29.8424 183.304 30.7124 183.864 31.7724C184.444 32.8324 184.784 33.9724 184.884 35.1924H180.924C180.864 34.5524 180.674 33.9424 180.354 33.3624C180.054 32.7624 179.584 32.2824 178.944 31.9224C178.304 31.5424 177.444 31.3524 176.364 31.3524C175.164 31.3524 174.234 31.6124 173.574 32.1324C172.934 32.6524 172.614 33.3324 172.614 34.1724C172.614 35.1124 172.974 35.8524 173.694 36.3924C174.414 36.9124 175.314 37.3524 176.394 37.7124L179.244 38.6424C180.364 39.0024 181.414 39.4524 182.394 39.9924C183.394 40.5124 184.204 41.2124 184.824 42.0924C185.464 42.9524 185.784 44.1024 185.784 45.5424C185.784 47.7024 185.024 49.3924 183.504 50.6124C181.984 51.8324 179.894 52.4424 177.234 52.4424ZM189.691 51.9924V28.5924H193.891V51.9924H189.691ZM191.821 26.3124C191.081 26.3124 190.511 26.1124 190.111 25.7124C189.711 25.2924 189.511 24.7524 189.511 24.0924C189.511 23.4324 189.711 22.9024 190.111 22.5024C190.511 22.0824 191.081 21.8724 191.821 21.8724C192.581 21.8724 193.151 22.0824 193.531 22.5024C193.931 22.9024 194.131 23.4324 194.131 24.0924C194.131 24.7524 193.931 25.2924 193.531 25.7124C193.151 26.1124 192.581 26.3124 191.821 26.3124ZM197.687 51.9924V48.2724L208.127 35.9724C208.587 35.4324 209.057 34.8924 209.537 34.3524C210.017 33.7924 210.547 33.2424 211.127 32.7024V31.9824H198.827V28.5924H216.227V32.3124L205.727 44.6424C205.287 45.1824 204.817 45.7224 204.317 46.2624C203.837 46.8024 203.317 47.3424 202.757 47.8824V48.6024H216.437V51.9924H197.687Z" fill="white"/>
<path d="M144.417 109.992V94.4291H138.7V91.7924H153.4V94.4291H147.683V109.992H144.417ZM152.061 109.992V109.852L157.755 91.7924H162.935L168.651 109.852V109.992H165.268L160.531 94.3358H159.971L155.188 109.992H152.061ZM156.261 105.069L157.031 102.502H163.448L164.218 105.069H156.261ZM170.862 109.992V91.7924H174.129V107.356H182.226V109.992H170.862ZM184.862 109.992V91.7924H196.902V94.4291H188.106V99.0024H194.966V101.499H188.106V107.356H197.042V109.992H184.862ZM200.148 109.992V91.7924H207.194C209.528 91.7924 211.223 92.2824 212.281 93.2624C213.354 94.2269 213.891 95.5258 213.891 97.1591C213.891 98.7924 213.354 100.099 212.281 101.079C211.223 102.059 209.528 102.549 207.194 102.549H203.391V109.992H200.148ZM203.391 100.006H206.844C208.104 100.006 209.045 99.788 209.668 99.3524C210.29 98.9169 210.601 98.1935 210.601 97.1824C210.601 96.1713 210.29 95.4402 209.668 94.9891C209.045 94.538 208.104 94.3124 206.844 94.3124H203.391V100.006ZM222.214 109.992V91.7924H234.254V94.4291H225.457V99.0024H232.317V101.499H225.457V107.356H234.394V109.992H222.214ZM237.499 109.992V91.7924H243.729C246.918 91.7924 249.228 92.5935 250.659 94.1958C252.09 95.7824 252.806 98.0147 252.806 100.892C252.806 103.77 252.09 106.01 250.659 107.612C249.228 109.199 246.918 109.992 243.729 109.992H237.499ZM240.789 107.379H243.496C244.865 107.379 245.985 107.161 246.856 106.726C247.743 106.29 248.396 105.598 248.816 104.649C249.236 103.7 249.446 102.448 249.446 100.892C249.446 99.3369 249.236 98.0847 248.816 97.1358C248.396 96.1869 247.743 95.4947 246.856 95.0591C245.985 94.6235 244.865 94.4058 243.496 94.4058H240.789V107.379ZM255.62 109.992V91.7924H258.887V109.992H255.62ZM257.277 90.0191C256.701 90.0191 256.258 89.8635 255.947 89.5524C255.636 89.2258 255.48 88.8058 255.48 88.2924C255.48 87.7791 255.636 87.3669 255.947 87.0558C256.258 86.7291 256.701 86.5658 257.277 86.5658C257.868 86.5658 258.311 86.7291 258.607 87.0558C258.918 87.3669 259.073 87.7791 259.073 88.2924C259.073 88.8058 258.918 89.2258 258.607 89.5524C258.311 89.8635 257.868 90.0191 257.277 90.0191ZM262.819 109.992V91.7924H268.583L275.023 107.402H275.583V91.7924H278.546V109.992H272.759L266.343 94.3824H265.783V109.992H262.819Z" fill="white"/>
<path d="M45.3364 21.2573L52.0184 24.9158M51.5208 1.07424L60.9734 16.1724" stroke="white"/>
</svg>
