<svg width="365" height="64" viewBox="0 0 365 64" fill="none" xmlns="http://www.w3.org/2000/svg">
<path d="M3.47812 53V21.8H9.07812V53H3.47812ZM6.31813 18.76C5.33146 18.76 4.57146 18.4933 4.03813 17.96C3.50479 17.4 3.23813 16.68 3.23813 15.8C3.23813 14.92 3.50479 14.2133 4.03813 13.68C4.57146 13.12 5.33146 12.84 6.31813 12.84C7.33146 12.84 8.09146 13.12 8.59813 13.68C9.13146 14.2133 9.39813 14.92 9.39813 15.8C9.39813 16.68 9.13146 17.4 8.59813 17.96C8.09146 18.4933 7.33146 18.76 6.31813 18.76ZM24.1 53.6C21.6467 53.6 19.66 53.2 18.14 52.4C16.6467 51.5733 15.5267 50.52 14.78 49.24C14.06 47.96 13.66 46.6533 13.58 45.32H18.78C18.8867 46.0667 19.1533 46.7733 19.58 47.44C20.0333 48.1067 20.6467 48.64 21.42 49.04C22.1933 49.44 23.1667 49.64 24.34 49.64C25.6733 49.64 26.6733 49.3867 27.34 48.88C28.0067 48.3467 28.34 47.6533 28.34 46.8C28.34 46.08 28.06 45.4667 27.5 44.96C26.94 44.4267 26.06 43.9467 24.86 43.52L21.98 42.56C20.6467 42.08 19.42 41.56 18.3 41C17.2067 40.4133 16.3267 39.68 15.66 38.8C15.02 37.8933 14.7 36.7467 14.7 35.36C14.7 33.28 15.4733 31.6 17.02 30.32C18.5667 29.04 20.7267 28.4 23.5 28.4C25.5 28.4 27.14 28.7333 28.42 29.4C29.7267 30.04 30.7133 30.92 31.38 32.04C32.0467 33.1333 32.4333 34.36 32.54 35.72H27.54C27.4067 34.7333 26.9933 33.9067 26.3 33.24C25.6333 32.5733 24.6333 32.24 23.3 32.24C22.1533 32.24 21.2733 32.48 20.66 32.96C20.0733 33.44 19.78 34.08 19.78 34.88C19.78 35.68 20.0733 36.3467 20.66 36.88C21.2733 37.3867 22.1933 37.8533 23.42 38.28L26.26 39.2C27.5933 39.6533 28.8067 40.1733 29.9 40.76C30.9933 41.32 31.8467 42.0533 32.46 42.96C33.1 43.84 33.42 44.9733 33.42 46.36C33.42 48.52 32.62 50.2667 31.02 51.6C29.4467 52.9333 27.14 53.6 24.1 53.6ZM18.26 60.2V59.96L22.14 53H26.1L23.38 60.2H18.26ZM57.2081 53.6C53.4215 53.6 50.5815 52.4667 48.6881 50.2C46.8215 47.9067 45.8881 44.84 45.8881 41C45.8881 37.16 46.8215 34.1067 48.6881 31.84C50.5815 29.5467 53.4215 28.4 57.2081 28.4C61.0481 28.4 63.9015 29.5467 65.7681 31.84C67.6348 34.1067 68.5681 37.16 68.5681 41C68.5681 44.84 67.6348 47.9067 65.7681 50.2C63.9015 52.4667 61.0481 53.6 57.2081 53.6ZM57.2481 49.68C59.2215 49.68 60.6615 48.9333 61.5681 47.44C62.5015 45.92 62.9681 43.7733 62.9681 41C62.9681 38.2267 62.5015 36.0933 61.5681 34.6C60.6615 33.08 59.2215 32.32 57.2481 32.32C55.2481 32.32 53.7815 33.08 52.8481 34.6C51.9415 36.0933 51.4881 38.2267 51.4881 41C51.4881 43.7733 51.9415 45.92 52.8481 47.44C53.7815 48.9333 55.2481 49.68 57.2481 49.68ZM73.3094 53V29H78.1894V33.24H79.1494C79.3094 32.52 79.6027 31.8133 80.0294 31.12C80.456 30.4267 81.1094 29.8667 81.9894 29.44C82.896 28.9867 84.1227 28.76 85.6694 28.76H86.7094V33.72H85.2294C82.9094 33.72 81.2427 34.32 80.2294 35.52C79.216 36.72 78.7094 38.5467 78.7094 41V53H73.3094ZM94.4019 53C93.7885 52.28 93.2952 51.4133 92.9219 50.4C92.5752 49.3867 92.4019 47.8667 92.4019 45.84V32.96H89.1219V29H92.4819V23H97.7619V29H101.722V32.96H97.8019V45.16C97.8019 47.2933 98.0285 48.92 98.4819 50.04C98.9619 51.1333 99.5352 52.04 100.202 52.76V53H94.4019ZM114.202 53.52C112.069 53.52 110.282 53 108.842 51.96C107.402 50.8933 106.309 49.4133 105.562 47.52C104.842 45.6267 104.482 43.44 104.482 40.96C104.482 38.4533 104.842 36.2667 105.562 34.4C106.309 32.5333 107.402 31.08 108.842 30.04C110.309 29 112.109 28.48 114.242 28.48C115.975 28.48 117.375 28.8267 118.442 29.52C119.535 30.2133 120.335 31.08 120.842 32.12H121.802V29H126.722V53H121.802V49.88H120.842C120.335 50.8667 119.535 51.72 118.442 52.44C117.375 53.16 115.962 53.52 114.202 53.52ZM115.442 49.44C117.255 49.44 118.695 48.68 119.762 47.16C120.829 45.6133 121.362 43.56 121.362 41C121.362 38.44 120.829 36.4 119.762 34.88C118.695 33.3333 117.255 32.56 115.442 32.56C113.735 32.56 112.415 33.28 111.482 34.72C110.549 36.16 110.082 38.2533 110.082 41C110.082 43.7467 110.549 45.84 111.482 47.28C112.415 48.72 113.735 49.44 115.442 49.44ZM142.722 61.6C140.749 61.6 139.122 61.3467 137.842 60.84C136.562 60.36 135.549 59.7333 134.802 58.96C134.082 58.2133 133.549 57.4267 133.202 56.6C132.882 55.7733 132.682 55.0133 132.602 54.32H137.922C138.082 55.1467 138.522 55.8933 139.242 56.56C139.989 57.2533 141.175 57.6 142.802 57.6C144.562 57.6 145.909 57.0933 146.842 56.08C147.802 55.0667 148.282 53.52 148.282 51.44V48.68H147.322C146.922 49.7733 146.202 50.6667 145.162 51.36C144.149 52.0267 142.789 52.36 141.082 52.36C138.042 52.36 135.682 51.28 134.002 49.12C132.322 46.96 131.482 44.0267 131.482 40.32C131.482 37.9467 131.855 35.8667 132.602 34.08C133.349 32.2933 134.429 30.9067 135.842 29.92C137.282 28.9067 139.042 28.4 141.122 28.4C142.855 28.4 144.215 28.7467 145.202 29.44C146.215 30.1067 146.962 30.96 147.442 32H148.402V29H153.322V51.44C153.322 54.6933 152.429 57.2 150.642 58.96C148.882 60.72 146.242 61.6 142.722 61.6ZM142.242 48.28C144.055 48.28 145.455 47.56 146.442 46.12C147.455 44.6533 147.962 42.7333 147.962 40.36C147.962 37.9867 147.455 36.08 146.442 34.64C145.455 33.2 144.069 32.48 142.282 32.48C140.602 32.48 139.295 33.16 138.362 34.52C137.429 35.8533 136.962 37.8 136.962 40.36C136.962 42.9733 137.429 44.9467 138.362 46.28C139.295 47.6133 140.589 48.28 142.242 48.28ZM143.162 26.44C140.869 26.44 139.109 25.8133 137.882 24.56C136.682 23.28 135.962 21.7333 135.722 19.92H139.762C139.922 20.7733 140.269 21.4933 140.802 22.08C141.335 22.6667 142.122 22.96 143.162 22.96C144.229 22.96 145.029 22.6667 145.562 22.08C146.095 21.4933 146.429 20.7733 146.562 19.92H150.602C150.362 21.7333 149.629 23.28 148.402 24.56C147.202 25.8133 145.455 26.44 143.162 26.44ZM159.7 53V29H165.1V53H159.7ZM171.513 53V29H176.433V32.6H177.392C177.819 31.3733 178.539 30.3733 179.553 29.6C180.566 28.8 181.953 28.4 183.713 28.4C185.393 28.4 186.779 28.7733 187.872 29.52C188.993 30.2667 189.819 31.2933 190.353 32.6H191.313C191.793 31.3467 192.553 30.3333 193.593 29.56C194.659 28.7867 196.073 28.4 197.833 28.4C200.446 28.4 202.366 29.2533 203.593 30.96C204.819 32.64 205.433 34.88 205.433 37.68V53H200.033V38.68C200.033 36.84 199.726 35.4133 199.113 34.4C198.526 33.3867 197.566 32.88 196.233 32.88C194.606 32.88 193.353 33.5733 192.472 34.96C191.619 36.3467 191.193 38.04 191.193 40.04V53H185.753V38.68C185.753 36.84 185.459 35.4133 184.872 34.4C184.286 33.3867 183.326 32.88 181.992 32.88C180.366 32.88 179.113 33.5733 178.233 34.96C177.353 36.3467 176.913 38.04 176.913 40.04V53H171.513ZM211.497 53V29H216.897V53H211.497ZM221.789 53V48.36L231.189 36.88C231.643 36.3467 232.096 35.8133 232.549 35.28C233.029 34.7467 233.469 34.2933 233.869 33.92V32.96H222.309V29H240.309V33.64L230.949 45.12C230.523 45.6533 230.083 46.1733 229.629 46.68C229.203 47.16 228.749 47.6267 228.269 48.08V49.04H240.829V53H221.789ZM265.005 53.6C261.218 53.6 258.378 52.4667 256.485 50.2C254.618 47.9067 253.685 44.84 253.685 41C253.685 37.16 254.618 34.1067 256.485 31.84C258.378 29.5467 261.218 28.4 265.005 28.4C268.845 28.4 271.698 29.5467 273.565 31.84C275.432 34.1067 276.365 37.16 276.365 41C276.365 44.84 275.432 47.9067 273.565 50.2C271.698 52.4667 268.845 53.6 265.005 53.6ZM265.045 49.68C267.018 49.68 268.458 48.9333 269.365 47.44C270.298 45.92 270.765 43.7733 270.765 41C270.765 38.2267 270.298 36.0933 269.365 34.6C268.458 33.08 267.018 32.32 265.045 32.32C263.045 32.32 261.578 33.08 260.645 34.6C259.738 36.0933 259.285 38.2267 259.285 41C259.285 43.7733 259.738 45.92 260.645 47.44C261.578 48.9333 263.045 49.68 265.045 49.68ZM282.946 53C282.28 52.2 281.773 51.28 281.426 50.24C281.106 49.2 280.946 47.7333 280.946 45.84V21H286.386V45.2C286.386 47.28 286.613 48.88 287.066 50C287.52 51.0933 288.106 52.0133 288.826 52.76V53H282.946ZM300.686 53.6C297.939 53.6 295.912 52.7467 294.606 51.04C293.299 49.3333 292.646 47.0933 292.646 44.32V29H298.046V43.32C298.046 45.16 298.379 46.5867 299.046 47.6C299.712 48.6133 300.766 49.12 302.206 49.12C303.992 49.12 305.366 48.4267 306.326 47.04C307.286 45.6533 307.766 43.96 307.766 41.96V29H313.166V53H308.326V49.4H307.366C306.939 50.6533 306.179 51.6667 305.086 52.44C303.992 53.2133 302.526 53.6 300.686 53.6ZM319.544 53V29H324.464V32.6H325.424C325.904 31.3467 326.664 30.3333 327.704 29.56C328.77 28.7867 330.224 28.4 332.064 28.4C334.81 28.4 336.824 29.2533 338.104 30.96C339.41 32.64 340.064 34.88 340.064 37.68V53H334.664V38.68C334.664 36.8133 334.33 35.3867 333.664 34.4C332.997 33.3867 331.944 32.88 330.504 32.88C328.744 32.88 327.37 33.5733 326.384 34.96C325.424 36.32 324.944 38.0133 324.944 40.04V53H319.544Z" fill="#0223B5"/>
<path d="M357.554 19.4148L351.458 22.7527M351.912 1.00034L343.287 14.7755" stroke="#0223B5" stroke-width="1.45542"/>
<path d="M60.2741 12.0827C71.3316 0.113533 103.692 -0.23924 114.125 11.362" stroke="#0223B5" stroke-width="1.70118"/>
</svg>
