<svg width="12" height="11" viewBox="0 0 12 11" fill="none" xmlns="http://www.w3.org/2000/svg">
<g clip-path="url(#clip0_34_129)">
<path d="M2.26673 4.89579C2.22098 4.85256 2.16717 4.81876 2.10836 4.79633C2.04955 4.7739 1.9869 4.76327 1.92398 4.76505C1.86107 4.76682 1.79912 4.78098 1.74168 4.8067C1.68423 4.83242 1.63241 4.86921 1.58918 4.91495C1.54595 4.9607 1.51216 5.01451 1.48973 5.07332C1.46729 5.13213 1.45666 5.19478 1.45844 5.25769C1.46022 5.32061 1.47438 5.38256 1.5001 5.44C1.52582 5.49745 1.5626 5.54926 1.60835 5.59249L5.92085 9.66541C6.00982 9.74952 6.12761 9.79639 6.25004 9.79639C6.37247 9.79639 6.49026 9.74952 6.57923 9.66541L10.8922 5.59249C10.939 5.54955 10.9767 5.49774 11.0033 5.44009C11.0298 5.38243 11.0447 5.32007 11.0469 5.25663C11.0492 5.19319 11.0388 5.12994 11.0164 5.07054C10.994 5.01115 10.96 4.95679 10.9164 4.91064C10.8728 4.86449 10.8205 4.82745 10.7625 4.80169C10.7045 4.77593 10.6419 4.76195 10.5785 4.76057C10.515 4.75918 10.4519 4.77043 10.3928 4.79364C10.3337 4.81685 10.2799 4.85157 10.2343 4.89578L6.25004 8.6582L2.26673 4.89579Z" fill="#0223B5"/>
</g>
<g clip-path="url(#clip1_34_129)">
<path d="M2.26673 1.44559C2.22098 1.40236 2.16717 1.36856 2.10836 1.34613C2.04955 1.3237 1.9869 1.31307 1.92398 1.31485C1.86107 1.31663 1.79912 1.33078 1.74168 1.3565C1.68423 1.38223 1.63241 1.41901 1.58918 1.46476C1.54595 1.5105 1.51216 1.56432 1.48973 1.62312C1.46729 1.68193 1.45666 1.74458 1.45844 1.8075C1.46022 1.87041 1.47438 1.93236 1.5001 1.98981C1.52582 2.04725 1.5626 2.09907 1.60835 2.1423L5.92085 6.21521C6.00982 6.29933 6.12761 6.34619 6.25004 6.34619C6.37247 6.34619 6.49026 6.29933 6.57923 6.21521L10.8922 2.1423C10.939 2.09935 10.9767 2.04755 11.0033 1.98989C11.0298 1.93224 11.0447 1.86988 11.0469 1.80644C11.0492 1.743 11.0388 1.67974 11.0164 1.62035C10.994 1.56095 10.96 1.5066 10.9164 1.46044C10.8728 1.41429 10.8205 1.37726 10.7625 1.35149C10.7045 1.32573 10.6419 1.31175 10.5785 1.31037C10.515 1.30899 10.4519 1.32023 10.3928 1.34344C10.3337 1.36666 10.2799 1.40138 10.2343 1.44559L6.25004 5.20801L2.26673 1.44559Z" fill="#0223B5"/>
</g>
<defs>
<clipPath id="clip0_34_129">
<rect width="8.45204" height="11.5" fill="white" transform="translate(0.5 10.9941) rotate(-90)"/>
</clipPath>
<clipPath id="clip1_34_129">
<rect width="8.45204" height="11.5" fill="white" transform="translate(0.5 8.45801) rotate(-90)"/>
</clipPath>
</defs>
</svg>
