<svg width="71" height="51" viewBox="0 0 71 51" fill="none" xmlns="http://www.w3.org/2000/svg">
<g clip-path="url(#clip0_0_329)">
<path d="M18.0655 7.78579L14.3867 2.41016" stroke="white"/>
<path d="M13.4654 9.22297L7.26953 5.89648" stroke="white"/>
<path d="M48.8247 25.3873C49.9376 25.6394 51.0442 24.9416 51.2964 23.8287C51.5486 22.7158 50.8508 21.6091 49.7378 21.357C48.6249 21.1048 47.5182 21.8026 47.2661 22.9155C47.0139 24.0285 47.7117 25.1351 48.8247 25.3873Z" stroke="white"/>
<path d="M16.0344 16.3086L11.0015 38.5219L50.2233 47.4084L55.2562 25.1951L56.6514 19.0369L17.4297 10.1504" stroke="white"/>
<path d="M54.7969 28.2072L65.878 25.7875C62.5166 40.6235 62.6681 45.2295 63.1641 45.6782M61.6762 44.3325L52.7201 37.3731" stroke="white"/>
<path d="M31.332 23.5645L39.4597 30.2242L29.2794 32.6238L31.332 23.5645Z" stroke="white"/>
</g>
<defs>
<clipPath id="clip0_0_329">
<rect width="64.1065" height="37.5694" fill="white" transform="translate(8.30078) rotate(12.766)"/>
</clipPath>
</defs>
</svg>
