<svg width="13" height="11" viewBox="0 0 13 11" fill="none" xmlns="http://www.w3.org/2000/svg">
<path d="M12.9284 2.49715C12.9284 2.71836 12.851 2.9064 12.6962 3.06125L6.69064 9.06672L5.56253 10.1948C5.4077 10.3497 5.21968 10.4271 4.99848 10.4271C4.77728 10.4271 4.58926 10.3497 4.43442 10.1948L3.30631 9.06672L0.303543 6.06393C0.148707 5.90915 0.0712891 5.72115 0.0712891 5.49993C0.0712891 5.27872 0.148707 5.09068 0.303543 4.93583L1.43166 3.80772C1.5865 3.65293 1.77451 3.57554 1.99571 3.57554C2.21691 3.57554 2.40493 3.65293 2.55977 3.80772L4.99848 6.25475L10.44 0.80504C10.5948 0.650182 10.7828 0.572754 11.004 0.572754C11.2252 0.572754 11.4132 0.650182 11.5681 0.80504L12.6962 1.93315C12.851 2.08793 12.9284 2.27593 12.9284 2.49715Z" fill="#0223B5"/>
</svg>
