<svg width="483" height="109" viewBox="0 0 483 109" fill="none" xmlns="http://www.w3.org/2000/svg">
<path d="M3.67938 59V27.8H24.3194V32.32H9.23938V40.16H20.9994V44.44H9.23938V54.48H24.5594V59H3.67938ZM29.8825 59V27.8H39.7625L50.8025 54.56H51.7625V27.8H56.8425V59H46.9225L35.9225 32.24H34.9625V59H29.8825ZM75.0919 59.56C72.1852 59.56 69.7319 58.88 67.7319 57.52C65.7319 56.16 64.2119 54.2533 63.1719 51.8C62.1319 49.3467 61.6119 46.52 61.6119 43.32C61.6119 40.0667 62.1319 37.24 63.1719 34.84C64.2385 32.4133 65.8252 30.5467 67.9319 29.24C70.0652 27.9067 72.7052 27.24 75.8519 27.24C78.4652 27.24 80.6785 27.6933 82.4919 28.6C84.3052 29.5067 85.7319 30.7867 86.7719 32.44C87.8119 34.0667 88.4785 35.9867 88.7719 38.2H83.3319C83.0119 36.0667 82.2119 34.4267 80.9319 33.28C79.6519 32.1333 77.9185 31.56 75.7319 31.56C72.8519 31.56 70.7185 32.6 69.3319 34.68C67.9452 36.76 67.2519 39.64 67.2519 43.32C67.2519 47.1333 67.9852 50.0933 69.4519 52.2C70.9185 54.28 73.0652 55.32 75.8919 55.32C78.2652 55.32 80.1052 54.6267 81.4119 53.24C82.7452 51.8267 83.4785 49.8933 83.6119 47.44H74.1319V43.2H88.8119V59H84.5719V55.28H83.6119C83.0519 56.4267 82.1052 57.4267 80.7719 58.28C79.4652 59.1333 77.5719 59.56 75.0919 59.56ZM92.0581 59V58.76L101.818 27.8H110.698L120.498 58.76V59H114.698L106.578 32.16H105.618L97.4181 59H92.0581ZM99.2581 50.56L100.578 46.16H111.578L112.898 50.56H99.2581ZM135.092 59.56C132.185 59.56 129.732 58.88 127.732 57.52C125.732 56.16 124.212 54.2533 123.172 51.8C122.132 49.3467 121.612 46.52 121.612 43.32C121.612 40.0667 122.132 37.24 123.172 34.84C124.239 32.4133 125.825 30.5467 127.932 29.24C130.065 27.9067 132.705 27.24 135.852 27.24C138.465 27.24 140.679 27.6933 142.492 28.6C144.305 29.5067 145.732 30.7867 146.772 32.44C147.812 34.0667 148.479 35.9867 148.772 38.2H143.332C143.012 36.0667 142.212 34.4267 140.932 33.28C139.652 32.1333 137.919 31.56 135.732 31.56C132.852 31.56 130.719 32.6 129.332 34.68C127.945 36.76 127.252 39.64 127.252 43.32C127.252 47.1333 127.985 50.0933 129.452 52.2C130.919 54.28 133.065 55.32 135.892 55.32C138.265 55.32 140.105 54.6267 141.412 53.24C142.745 51.8267 143.479 49.8933 143.612 47.44H134.132V43.2H148.812V59H144.572V55.28H143.612C143.052 56.4267 142.105 57.4267 140.772 58.28C139.465 59.1333 137.572 59.56 135.092 59.56ZM154.476 59V27.8H175.116V32.32H160.036V40.16H171.796V44.44H160.036V54.48H175.356V59H154.476ZM293.962 59V27.8H299.562V59H293.962ZM306.304 59V27.8H316.184L327.224 54.56H328.184V27.8H333.264V59H323.344L312.344 32.24H311.384V59H306.304ZM350.994 59.6C348.754 59.6 346.834 59.2933 345.234 58.68C343.634 58.0667 342.314 57.2533 341.274 56.24C340.234 55.2 339.447 54.0267 338.914 52.72C338.38 51.4133 338.074 50.08 337.994 48.72H343.274C343.354 49.7867 343.687 50.8267 344.274 51.84C344.86 52.8533 345.727 53.68 346.874 54.32C348.02 54.96 349.46 55.28 351.194 55.28C353.06 55.28 354.487 54.88 355.474 54.08C356.487 53.28 356.994 52.2 356.994 50.84C356.994 49.5333 356.527 48.5067 355.594 47.76C354.687 46.9867 353.514 46.36 352.074 45.88L348.314 44.64C346.82 44.1333 345.394 43.5333 344.034 42.84C342.7 42.1467 341.594 41.24 340.714 40.12C339.86 38.9733 339.434 37.4933 339.434 35.68C339.434 33.8667 339.874 32.3333 340.754 31.08C341.66 29.8267 342.914 28.8667 344.514 28.2C346.114 27.5333 347.954 27.2 350.034 27.2C352.647 27.2 354.74 27.6533 356.314 28.56C357.914 29.4667 359.087 30.6267 359.834 32.04C360.607 33.4533 361.06 34.9733 361.194 36.6H355.914C355.834 35.7467 355.58 34.9333 355.154 34.16C354.754 33.36 354.127 32.72 353.274 32.24C352.42 31.7333 351.274 31.48 349.834 31.48C348.234 31.48 346.994 31.8267 346.114 32.52C345.26 33.2133 344.834 34.12 344.834 35.24C344.834 36.4933 345.314 37.48 346.274 38.2C347.234 38.8933 348.434 39.48 349.874 39.96L353.674 41.2C355.167 41.68 356.567 42.28 357.874 43C359.207 43.6933 360.287 44.6267 361.114 45.8C361.967 46.9467 362.394 48.48 362.394 50.4C362.394 53.28 361.38 55.5333 359.354 57.16C357.327 58.7867 354.54 59.6 350.994 59.6ZM367.523 59V27.8H379.603C383.603 27.8 386.51 28.64 388.323 30.32C390.163 31.9733 391.083 34.2 391.083 37C391.083 39.8 390.163 42.04 388.323 43.72C386.51 45.4 383.603 46.24 379.603 46.24H373.083V59H367.523ZM373.083 41.88H379.003C381.163 41.88 382.776 41.5067 383.843 40.76C384.91 40.0133 385.443 38.7733 385.443 37.04C385.443 35.3067 384.91 34.0533 383.843 33.28C382.776 32.5067 381.163 32.12 379.003 32.12H373.083V41.88ZM395.822 59V27.8H401.422V59H395.822ZM408.164 59V27.8H420.604C423.27 27.8 425.417 28.1867 427.044 28.96C428.67 29.7067 429.857 30.72 430.604 32C431.377 33.28 431.764 34.7467 431.764 36.4C431.764 38.4 431.217 40.1067 430.124 41.52C429.03 42.9333 427.43 43.92 425.324 44.48L432.604 58.76V59H426.684L419.844 45.28H413.684V59H408.164ZM413.684 41.08H420.004C422.057 41.08 423.577 40.72 424.564 40C425.55 39.28 426.044 38.1467 426.044 36.6C426.044 35.0267 425.537 33.8933 424.524 33.2C423.537 32.48 422.03 32.12 420.004 32.12H413.684V41.08ZM436.758 59V27.8H457.398V32.32H442.318V40.16H454.078V44.44H442.318V54.48H457.637V59H436.758Z" fill="#0223B5"/>
<path d="M187.449 59V58.76L197.209 27.8H206.089L215.889 58.76V59H210.089L201.969 32.16H201.009L192.809 59H187.449ZM194.649 50.56L195.969 46.16H206.969L208.289 50.56H194.649ZM219.679 59V27.8H229.559L240.599 54.56H241.559V27.8H246.639V59H236.719L225.719 32.24H224.759V59H219.679ZM253.289 59V27.8H263.969C269.435 27.8 273.395 29.1733 275.849 31.92C278.302 34.64 279.529 38.4667 279.529 43.4C279.529 48.3333 278.302 52.1733 275.849 54.92C273.395 57.64 269.435 59 263.969 59H253.289ZM258.929 54.52H263.569C265.915 54.52 267.835 54.1467 269.329 53.4C270.849 52.6533 271.969 51.4667 272.689 49.84C273.409 48.2133 273.769 46.0667 273.769 43.4C273.769 40.7333 273.409 38.5867 272.689 36.96C271.969 35.3333 270.849 34.1467 269.329 33.4C267.835 32.6533 265.915 32.28 263.569 32.28H258.929V54.52Z" fill="#232323"/>
<path d="M2.76 106.94H1.44V92.46H2.76V94.26C3.08 93.7667 3.48 93.3667 3.96 93.06C4.38667 92.7933 4.80667 92.6067 5.22 92.5C5.64667 92.3933 6.11333 92.34 6.62 92.34C7.44667 92.34 8.15333 92.4933 8.74 92.8C9.32667 93.1067 9.80667 93.52 10.18 94.04C10.5533 94.56 10.82 95.1667 10.98 95.86C11.14 96.54 11.2133 97.2533 11.2 98C11.1733 98.9067 11.0133 99.7267 10.72 100.46C10.44 101.193 10 101.787 9.4 102.24C9.04 102.52 8.60667 102.74 8.1 102.9C7.60667 103.047 7.06 103.12 6.46 103.12C6.11333 103.12 5.76667 103.093 5.42 103.04C5.07333 103 4.74 102.92 4.42 102.8C4.1 102.68 3.79333 102.513 3.5 102.3C3.22 102.087 2.97333 101.813 2.76 101.48V106.94ZM6.38 102C7.00667 102 7.54 101.887 7.98 101.66C8.42 101.433 8.78 101.127 9.06 100.74C9.34 100.34 9.54667 99.8867 9.68 99.38C9.81333 98.86 9.88 98.32 9.88 97.76C9.88 97.1867 9.81333 96.64 9.68 96.12C9.56 95.5867 9.36 95.1267 9.08 94.74C8.8 94.3533 8.43333 94.0467 7.98 93.82C7.54 93.58 6.99333 93.46 6.34 93.46C5.75333 93.46 5.22 93.5933 4.74 93.86C4.27333 94.1133 3.88667 94.4467 3.58 94.86C3.27333 95.2467 3.05333 95.6933 2.92 96.2C2.78667 96.6933 2.72 97.2133 2.72 97.76C2.72 98.4133 2.82 99.0667 3.02 99.72C3.23333 100.373 3.61333 100.907 4.16 101.32C4.77333 101.773 5.51333 102 6.38 102ZM14.6056 98.16C14.6323 98.72 14.7256 99.2333 14.8856 99.7C15.059 100.167 15.299 100.573 15.6056 100.92C15.9123 101.253 16.2856 101.52 16.7256 101.72C17.179 101.907 17.7056 102 18.3056 102C18.5856 102 18.8656 101.973 19.1456 101.92C19.439 101.867 19.7123 101.787 19.9656 101.68C20.2323 101.56 20.4723 101.407 20.6856 101.22C20.899 101.033 21.0656 100.8 21.1856 100.52H22.5656C22.419 100.987 22.1923 101.387 21.8856 101.72C21.5923 102.053 21.2523 102.327 20.8656 102.54C20.479 102.74 20.059 102.887 19.6056 102.98C19.1523 103.073 18.699 103.12 18.2456 103.12C17.419 103.12 16.6923 102.987 16.0656 102.72C15.4523 102.453 14.939 102.087 14.5256 101.62C14.1123 101.14 13.8056 100.573 13.6056 99.92C13.4056 99.2533 13.3056 98.5267 13.3056 97.74C13.3056 96.94 13.4123 96.2067 13.6256 95.54C13.839 94.8733 14.1523 94.3067 14.5656 93.84C14.9923 93.36 15.5123 92.9933 16.1256 92.74C16.7523 92.4733 17.4656 92.34 18.2656 92.34C19.1056 92.34 19.8123 92.5067 20.3856 92.84C20.9723 93.1733 21.4456 93.6133 21.8056 94.16C22.1656 94.6933 22.419 95.3133 22.5656 96.02C22.7256 96.7133 22.7923 97.4267 22.7656 98.16H14.6056ZM21.4256 97.06C21.4123 96.58 21.3323 96.12 21.1856 95.68C21.0523 95.24 20.8456 94.86 20.5656 94.54C20.299 94.2067 19.959 93.9467 19.5456 93.76C19.1323 93.56 18.6523 93.46 18.1056 93.46C17.559 93.46 17.0723 93.56 16.6456 93.76C16.2323 93.96 15.879 94.2267 15.5856 94.56C15.2923 94.8933 15.0656 95.28 14.9056 95.72C14.7456 96.1467 14.6523 96.5933 14.6256 97.06H21.4256ZM29.8286 92.34C30.6553 92.34 31.3753 92.4733 31.9886 92.74C32.6153 93.0067 33.1353 93.38 33.5486 93.86C33.9753 94.34 34.2953 94.9133 34.5086 95.58C34.7219 96.2333 34.8286 96.9533 34.8286 97.74C34.8286 98.5267 34.7219 99.2533 34.5086 99.92C34.2953 100.573 33.9753 101.14 33.5486 101.62C33.1353 102.087 32.6153 102.453 31.9886 102.72C31.3753 102.987 30.6553 103.12 29.8286 103.12C29.0019 103.12 28.2753 102.987 27.6486 102.72C27.0353 102.453 26.5153 102.087 26.0886 101.62C25.6753 101.14 25.3619 100.573 25.1486 99.92C24.9486 99.2533 24.8486 98.5267 24.8486 97.74C24.8486 96.9533 24.9486 96.2333 25.1486 95.58C25.3619 94.9133 25.6753 94.34 26.0886 93.86C26.5153 93.38 27.0353 93.0067 27.6486 92.74C28.2753 92.4733 29.0019 92.34 29.8286 92.34ZM29.8286 102C30.4686 102 31.0219 101.893 31.4886 101.68C31.9553 101.453 32.3353 101.147 32.6286 100.76C32.9353 100.373 33.1553 99.92 33.2886 99.4C33.4353 98.88 33.5086 98.3267 33.5086 97.74C33.5086 97.1533 33.4353 96.6 33.2886 96.08C33.1553 95.56 32.9353 95.1067 32.6286 94.72C32.3353 94.3333 31.9553 94.0267 31.4886 93.8C31.0219 93.5733 30.4686 93.46 29.8286 93.46C29.1886 93.46 28.6353 93.5733 28.1686 93.8C27.7019 94.0267 27.3153 94.3333 27.0086 94.72C26.7153 95.1067 26.4953 95.56 26.3486 96.08C26.2153 96.6 26.1486 97.1533 26.1486 97.74C26.1486 98.3267 26.2153 98.88 26.3486 99.4C26.4953 99.92 26.7153 100.373 27.0086 100.76C27.3153 101.147 27.7019 101.453 28.1686 101.68C28.6353 101.893 29.1886 102 29.8286 102ZM38.6194 106.94H37.2994V92.46H38.6194V94.26C38.9394 93.7667 39.3394 93.3667 39.8194 93.06C40.246 92.7933 40.666 92.6067 41.0794 92.5C41.506 92.3933 41.9727 92.34 42.4794 92.34C43.306 92.34 44.0127 92.4933 44.5994 92.8C45.186 93.1067 45.666 93.52 46.0394 94.04C46.4127 94.56 46.6794 95.1667 46.8394 95.86C46.9994 96.54 47.0727 97.2533 47.0594 98C47.0327 98.9067 46.8727 99.7267 46.5794 100.46C46.2994 101.193 45.8594 101.787 45.2594 102.24C44.8994 102.52 44.466 102.74 43.9594 102.9C43.466 103.047 42.9194 103.12 42.3194 103.12C41.9727 103.12 41.626 103.093 41.2794 103.04C40.9327 103 40.5994 102.92 40.2794 102.8C39.9594 102.68 39.6527 102.513 39.3594 102.3C39.0794 102.087 38.8327 101.813 38.6194 101.48V106.94ZM42.2394 102C42.866 102 43.3994 101.887 43.8394 101.66C44.2794 101.433 44.6394 101.127 44.9194 100.74C45.1994 100.34 45.406 99.8867 45.5394 99.38C45.6727 98.86 45.7394 98.32 45.7394 97.76C45.7394 97.1867 45.6727 96.64 45.5394 96.12C45.4194 95.5867 45.2194 95.1267 44.9394 94.74C44.6594 94.3533 44.2927 94.0467 43.8394 93.82C43.3994 93.58 42.8527 93.46 42.1994 93.46C41.6127 93.46 41.0794 93.5933 40.5994 93.86C40.1327 94.1133 39.746 94.4467 39.4394 94.86C39.1327 95.2467 38.9127 95.6933 38.7794 96.2C38.646 96.6933 38.5794 97.2133 38.5794 97.76C38.5794 98.4133 38.6794 99.0667 38.8794 99.72C39.0927 100.373 39.4727 100.907 40.0194 101.32C40.6327 101.773 41.3727 102 42.2394 102ZM49.565 103V88.86H50.885V103H49.565ZM54.6642 98.16C54.6909 98.72 54.7842 99.2333 54.9442 99.7C55.1176 100.167 55.3576 100.573 55.6642 100.92C55.9709 101.253 56.3442 101.52 56.7842 101.72C57.2376 101.907 57.7642 102 58.3642 102C58.6442 102 58.9242 101.973 59.2042 101.92C59.4976 101.867 59.7709 101.787 60.0242 101.68C60.2909 101.56 60.5309 101.407 60.7442 101.22C60.9576 101.033 61.1242 100.8 61.2442 100.52H62.6242C62.4776 100.987 62.2509 101.387 61.9442 101.72C61.6509 102.053 61.3109 102.327 60.9242 102.54C60.5376 102.74 60.1176 102.887 59.6642 102.98C59.2109 103.073 58.7576 103.12 58.3042 103.12C57.4776 103.12 56.7509 102.987 56.1242 102.72C55.5109 102.453 54.9976 102.087 54.5842 101.62C54.1709 101.14 53.8642 100.573 53.6642 99.92C53.4642 99.2533 53.3642 98.5267 53.3642 97.74C53.3642 96.94 53.4709 96.2067 53.6842 95.54C53.8976 94.8733 54.2109 94.3067 54.6242 93.84C55.0509 93.36 55.5709 92.9933 56.1842 92.74C56.8109 92.4733 57.5242 92.34 58.3242 92.34C59.1642 92.34 59.8709 92.5067 60.4442 92.84C61.0309 93.1733 61.5042 93.6133 61.8642 94.16C62.2242 94.6933 62.4776 95.3133 62.6242 96.02C62.7842 96.7133 62.8509 97.4267 62.8242 98.16H54.6642ZM61.4842 97.06C61.4709 96.58 61.3909 96.12 61.2442 95.68C61.1109 95.24 60.9042 94.86 60.6242 94.54C60.3576 94.2067 60.0176 93.9467 59.6042 93.76C59.1909 93.56 58.7109 93.46 58.1642 93.46C57.6176 93.46 57.1309 93.56 56.7042 93.76C56.2909 93.96 55.9376 94.2267 55.6442 94.56C55.3509 94.8933 55.1242 95.28 54.9642 95.72C54.8042 96.1467 54.7109 96.5933 54.6842 97.06H61.4842ZM73.0378 92.46H76.4178V93.58H73.0378V99.52C73.0378 99.8267 73.0511 100.127 73.0778 100.42C73.1178 100.713 73.1978 100.98 73.3178 101.22C73.4378 101.447 73.6111 101.633 73.8378 101.78C74.0778 101.927 74.3978 102 74.7978 102C75.0511 102 75.3045 101.967 75.5578 101.9C75.8245 101.82 76.0378 101.707 76.1978 101.56L76.7178 102.5C76.4111 102.74 76.0845 102.907 75.7378 103C75.4045 103.08 75.0311 103.12 74.6178 103.12C74.0711 103.12 73.6111 103.04 73.2378 102.88C72.8645 102.72 72.5645 102.5 72.3378 102.22C72.1111 101.927 71.9511 101.573 71.8578 101.16C71.7645 100.733 71.7178 100.26 71.7178 99.74V93.58H69.9378V92.46H71.7178V89.44H73.0378V92.46ZM83.1294 92.34C83.956 92.34 84.676 92.4733 85.2894 92.74C85.916 93.0067 86.436 93.38 86.8494 93.86C87.276 94.34 87.596 94.9133 87.8094 95.58C88.0227 96.2333 88.1294 96.9533 88.1294 97.74C88.1294 98.5267 88.0227 99.2533 87.8094 99.92C87.596 100.573 87.276 101.14 86.8494 101.62C86.436 102.087 85.916 102.453 85.2894 102.72C84.676 102.987 83.956 103.12 83.1294 103.12C82.3027 103.12 81.576 102.987 80.9494 102.72C80.336 102.453 79.816 102.087 79.3894 101.62C78.976 101.14 78.6627 100.573 78.4494 99.92C78.2494 99.2533 78.1494 98.5267 78.1494 97.74C78.1494 96.9533 78.2494 96.2333 78.4494 95.58C78.6627 94.9133 78.976 94.34 79.3894 93.86C79.816 93.38 80.336 93.0067 80.9494 92.74C81.576 92.4733 82.3027 92.34 83.1294 92.34ZM83.1294 102C83.7694 102 84.3227 101.893 84.7894 101.68C85.256 101.453 85.636 101.147 85.9294 100.76C86.236 100.373 86.456 99.92 86.5894 99.4C86.736 98.88 86.8094 98.3267 86.8094 97.74C86.8094 97.1533 86.736 96.6 86.5894 96.08C86.456 95.56 86.236 95.1067 85.9294 94.72C85.636 94.3333 85.256 94.0267 84.7894 93.8C84.3227 93.5733 83.7694 93.46 83.1294 93.46C82.4894 93.46 81.936 93.5733 81.4694 93.8C81.0027 94.0267 80.616 94.3333 80.3094 94.72C80.016 95.1067 79.796 95.56 79.6494 96.08C79.516 96.6 79.4494 97.1533 79.4494 97.74C79.4494 98.3267 79.516 98.88 79.6494 99.4C79.796 99.92 80.016 100.373 80.3094 100.76C80.616 101.147 81.0027 101.453 81.4694 101.68C81.936 101.893 82.4894 102 83.1294 102ZM96.8908 98.16C96.9174 98.72 97.0108 99.2333 97.1708 99.7C97.3441 100.167 97.5841 100.573 97.8908 100.92C98.1974 101.253 98.5708 101.52 99.0108 101.72C99.4641 101.907 99.9908 102 100.591 102C100.871 102 101.151 101.973 101.431 101.92C101.724 101.867 101.997 101.787 102.251 101.68C102.517 101.56 102.757 101.407 102.971 101.22C103.184 101.033 103.351 100.8 103.471 100.52H104.851C104.704 100.987 104.477 101.387 104.171 101.72C103.877 102.053 103.537 102.327 103.151 102.54C102.764 102.74 102.344 102.887 101.891 102.98C101.437 103.073 100.984 103.12 100.531 103.12C99.7041 103.12 98.9774 102.987 98.3508 102.72C97.7374 102.453 97.2241 102.087 96.8108 101.62C96.3974 101.14 96.0908 100.573 95.8908 99.92C95.6908 99.2533 95.5908 98.5267 95.5908 97.74C95.5908 96.94 95.6974 96.2067 95.9108 95.54C96.1241 94.8733 96.4374 94.3067 96.8508 93.84C97.2774 93.36 97.7974 92.9933 98.4108 92.74C99.0374 92.4733 99.7508 92.34 100.551 92.34C101.391 92.34 102.097 92.5067 102.671 92.84C103.257 93.1733 103.731 93.6133 104.091 94.16C104.451 94.6933 104.704 95.3133 104.851 96.02C105.011 96.7133 105.077 97.4267 105.051 98.16H96.8908ZM103.711 97.06C103.697 96.58 103.617 96.12 103.471 95.68C103.337 95.24 103.131 94.86 102.851 94.54C102.584 94.2067 102.244 93.9467 101.831 93.76C101.417 93.56 100.937 93.46 100.391 93.46C99.8441 93.46 99.3574 93.56 98.9308 93.76C98.5174 93.96 98.1641 94.2267 97.8708 94.56C97.5774 94.8933 97.3508 95.28 97.1908 95.72C97.0308 96.1467 96.9374 96.5933 96.9108 97.06H103.711ZM108.418 93.56H106.638V92.46H108.418V91.4C108.418 90.9067 108.438 90.4733 108.478 90.1C108.518 89.7133 108.625 89.3667 108.798 89.06C109.038 88.6333 109.372 88.3133 109.798 88.1C110.238 87.8733 110.858 87.76 111.658 87.76H112.678V88.86H111.798C111.492 88.86 111.185 88.8867 110.878 88.94C110.585 88.98 110.338 89.1267 110.138 89.38C109.938 89.6467 109.818 89.9533 109.778 90.3C109.752 90.6333 109.738 91.0333 109.738 91.5V92.46H112.678V93.56H109.738V103H108.418V93.56ZM115.743 93.56H113.963V92.46H115.743V91.4C115.743 90.9067 115.763 90.4733 115.803 90.1C115.843 89.7133 115.949 89.3667 116.123 89.06C116.363 88.6333 116.696 88.3133 117.123 88.1C117.563 87.8733 118.183 87.76 118.983 87.76H120.003V88.86H119.123C118.816 88.86 118.509 88.8867 118.203 88.94C117.909 88.98 117.663 89.1267 117.463 89.38C117.263 89.6467 117.143 89.9533 117.103 90.3C117.076 90.6333 117.063 91.0333 117.063 91.5V92.46H120.003V93.56H117.063V103H115.743V93.56ZM126.372 92.34C127.198 92.34 127.918 92.4733 128.532 92.74C129.158 93.0067 129.678 93.38 130.092 93.86C130.518 94.34 130.838 94.9133 131.052 95.58C131.265 96.2333 131.372 96.9533 131.372 97.74C131.372 98.5267 131.265 99.2533 131.052 99.92C130.838 100.573 130.518 101.14 130.092 101.62C129.678 102.087 129.158 102.453 128.532 102.72C127.918 102.987 127.198 103.12 126.372 103.12C125.545 103.12 124.818 102.987 124.192 102.72C123.578 102.453 123.058 102.087 122.632 101.62C122.218 101.14 121.905 100.573 121.692 99.92C121.492 99.2533 121.392 98.5267 121.392 97.74C121.392 96.9533 121.492 96.2333 121.692 95.58C121.905 94.9133 122.218 94.34 122.632 93.86C123.058 93.38 123.578 93.0067 124.192 92.74C124.818 92.4733 125.545 92.34 126.372 92.34ZM126.372 102C127.012 102 127.565 101.893 128.032 101.68C128.498 101.453 128.878 101.147 129.172 100.76C129.478 100.373 129.698 99.92 129.832 99.4C129.978 98.88 130.052 98.3267 130.052 97.74C130.052 97.1533 129.978 96.6 129.832 96.08C129.698 95.56 129.478 95.1067 129.172 94.72C128.878 94.3333 128.498 94.0267 128.032 93.8C127.565 93.5733 127.012 93.46 126.372 93.46C125.732 93.46 125.178 93.5733 124.712 93.8C124.245 94.0267 123.858 94.3333 123.552 94.72C123.258 95.1067 123.038 95.56 122.892 96.08C122.758 96.6 122.692 97.1533 122.692 97.74C122.692 98.3267 122.758 98.88 122.892 99.4C123.038 99.92 123.258 100.373 123.552 100.76C123.858 101.147 124.245 101.453 124.712 101.68C125.178 101.893 125.732 102 126.372 102ZM133.842 103V92.46H135.122L135.162 94.28C135.402 93.88 135.669 93.5533 135.962 93.3C136.269 93.0467 136.602 92.8467 136.962 92.7C137.322 92.5533 137.702 92.46 138.102 92.42C138.502 92.3667 138.922 92.3467 139.362 92.36V93.56H139.002C138.362 93.56 137.809 93.66 137.342 93.86C136.876 94.0467 136.489 94.3067 136.182 94.64C135.756 95.08 135.476 95.5733 135.342 96.12C135.222 96.6667 135.162 97.24 135.162 97.84V103H133.842ZM143.585 92.46H146.965V93.58H143.585V99.52C143.585 99.8267 143.598 100.127 143.625 100.42C143.665 100.713 143.745 100.98 143.865 101.22C143.985 101.447 144.158 101.633 144.385 101.78C144.625 101.927 144.945 102 145.345 102C145.598 102 145.851 101.967 146.105 101.9C146.371 101.82 146.585 101.707 146.745 101.56L147.265 102.5C146.958 102.74 146.631 102.907 146.285 103C145.951 103.08 145.578 103.12 145.165 103.12C144.618 103.12 144.158 103.04 143.785 102.88C143.411 102.72 143.111 102.5 142.885 102.22C142.658 101.927 142.498 101.573 142.405 101.16C142.311 100.733 142.265 100.26 142.265 99.74V93.58H140.485V92.46H142.265V89.44H143.585V92.46ZM159.027 103.12C158.2 103.12 157.48 102.987 156.867 102.72C156.254 102.453 155.74 102.08 155.327 101.6C154.914 101.12 154.6 100.553 154.387 99.9C154.187 99.2467 154.087 98.5333 154.087 97.76C154.087 96.96 154.194 96.2333 154.407 95.58C154.62 94.9133 154.94 94.34 155.367 93.86C155.794 93.38 156.32 93.0067 156.947 92.74C157.574 92.4733 158.3 92.34 159.127 92.34C160.087 92.34 160.927 92.5733 161.647 93.04C162.38 93.5067 162.874 94.22 163.127 95.18H161.787C161.6 94.5933 161.247 94.16 160.727 93.88C160.22 93.6 159.66 93.46 159.047 93.46C158.42 93.46 157.874 93.5733 157.407 93.8C156.954 94.0267 156.574 94.34 156.267 94.74C155.974 95.1267 155.754 95.58 155.607 96.1C155.46 96.62 155.387 97.1733 155.387 97.76C155.387 98.3333 155.46 98.88 155.607 99.4C155.754 99.9067 155.974 100.353 156.267 100.74C156.574 101.127 156.96 101.433 157.427 101.66C157.907 101.887 158.467 102 159.107 102C159.747 102 160.32 101.88 160.827 101.64C161.334 101.4 161.7 100.953 161.927 100.3H163.287C163.14 100.793 162.927 101.22 162.647 101.58C162.367 101.927 162.034 102.22 161.647 102.46C161.274 102.687 160.86 102.853 160.407 102.96C159.954 103.067 159.494 103.12 159.027 103.12ZM165.639 103V88.86H166.959V94.22C167.146 93.9 167.366 93.6267 167.619 93.4C167.886 93.1733 168.186 92.9733 168.519 92.8C168.853 92.64 169.213 92.5267 169.599 92.46C169.999 92.38 170.399 92.34 170.799 92.34C171.359 92.34 171.859 92.42 172.299 92.58C172.739 92.74 173.113 92.9533 173.419 93.22C173.926 93.6467 174.279 94.2 174.479 94.88C174.679 95.56 174.779 96.32 174.779 97.16V103H173.459V97.64C173.459 97.0133 173.406 96.4133 173.299 95.84C173.206 95.2533 172.993 94.7533 172.659 94.34C172.433 94.0733 172.153 93.86 171.819 93.7C171.486 93.54 171.066 93.46 170.559 93.46C170.013 93.46 169.506 93.5733 169.039 93.8C168.586 94.0133 168.206 94.3067 167.899 94.68C167.566 95.08 167.326 95.54 167.179 96.06C167.033 96.58 166.959 97.1267 166.959 97.7V103H165.639ZM184.752 101.48C184.246 102.093 183.666 102.52 183.012 102.76C182.372 103 181.666 103.12 180.892 103.12C180.426 103.12 179.972 103.067 179.532 102.96C179.106 102.84 178.719 102.653 178.372 102.4C178.026 102.147 177.746 101.827 177.532 101.44C177.332 101.04 177.232 100.593 177.232 100.1C177.232 99.5 177.346 99 177.572 98.6C177.799 98.2 178.092 97.88 178.452 97.64C178.826 97.4 179.252 97.2333 179.732 97.14C180.212 97.0333 180.712 96.98 181.232 96.98H184.692C184.692 96.5 184.639 96.0467 184.532 95.62C184.439 95.1933 184.279 94.82 184.052 94.5C183.826 94.18 183.526 93.9267 183.152 93.74C182.792 93.5533 182.346 93.46 181.812 93.46C181.559 93.46 181.299 93.48 181.032 93.52C180.779 93.56 180.532 93.6267 180.292 93.72C180.066 93.8133 179.852 93.9467 179.652 94.12C179.466 94.28 179.312 94.48 179.192 94.72H177.752C177.872 94.28 178.072 93.9133 178.352 93.62C178.632 93.3133 178.959 93.0667 179.332 92.88C179.719 92.68 180.126 92.54 180.552 92.46C180.992 92.38 181.426 92.34 181.852 92.34C182.626 92.34 183.279 92.4667 183.812 92.72C184.346 92.9733 184.772 93.3267 185.092 93.78C185.426 94.22 185.659 94.74 185.792 95.34C185.939 95.94 186.012 96.5867 186.012 97.28V103H184.932L184.752 101.48ZM181.912 98.04C181.566 98.04 181.192 98.0533 180.792 98.08C180.406 98.1067 180.046 98.1867 179.712 98.32C179.379 98.44 179.099 98.6333 178.872 98.9C178.659 99.1533 178.552 99.5067 178.552 99.96C178.552 100.32 178.619 100.627 178.752 100.88C178.899 101.133 179.086 101.347 179.312 101.52C179.552 101.693 179.819 101.82 180.112 101.9C180.419 101.98 180.732 102.02 181.052 102.02C181.572 102.02 182.052 101.953 182.492 101.82C182.946 101.687 183.332 101.487 183.652 101.22C183.986 100.94 184.239 100.6 184.412 100.2C184.599 99.7867 184.692 99.3067 184.692 98.76V98.04H181.912ZM188.862 103V88.86H190.182V103H188.862ZM193.061 103V88.86H194.381V103H193.061ZM198.16 98.16C198.187 98.72 198.28 99.2333 198.44 99.7C198.614 100.167 198.854 100.573 199.16 100.92C199.467 101.253 199.84 101.52 200.28 101.72C200.734 101.907 201.26 102 201.86 102C202.14 102 202.42 101.973 202.7 101.92C202.994 101.867 203.267 101.787 203.52 101.68C203.787 101.56 204.027 101.407 204.24 101.22C204.454 101.033 204.62 100.8 204.74 100.52H206.12C205.974 100.987 205.747 101.387 205.44 101.72C205.147 102.053 204.807 102.327 204.42 102.54C204.034 102.74 203.614 102.887 203.16 102.98C202.707 103.073 202.254 103.12 201.8 103.12C200.974 103.12 200.247 102.987 199.62 102.72C199.007 102.453 198.494 102.087 198.08 101.62C197.667 101.14 197.36 100.573 197.16 99.92C196.96 99.2533 196.86 98.5267 196.86 97.74C196.86 96.94 196.967 96.2067 197.18 95.54C197.394 94.8733 197.707 94.3067 198.12 93.84C198.547 93.36 199.067 92.9933 199.68 92.74C200.307 92.4733 201.02 92.34 201.82 92.34C202.66 92.34 203.367 92.5067 203.94 92.84C204.527 93.1733 205 93.6133 205.36 94.16C205.72 94.6933 205.974 95.3133 206.12 96.02C206.28 96.7133 206.347 97.4267 206.32 98.16H198.16ZM204.98 97.06C204.967 96.58 204.887 96.12 204.74 95.68C204.607 95.24 204.4 94.86 204.12 94.54C203.854 94.2067 203.514 93.9467 203.1 93.76C202.687 93.56 202.207 93.46 201.66 93.46C201.114 93.46 200.627 93.56 200.2 93.76C199.787 93.96 199.434 94.2267 199.14 94.56C198.847 94.8933 198.62 95.28 198.46 95.72C198.3 96.1467 198.207 96.5933 198.18 97.06H204.98ZM208.803 103V92.46H210.083L210.123 94.26C210.31 93.94 210.543 93.66 210.823 93.42C211.103 93.1667 211.397 92.9667 211.703 92.82C212.05 92.6467 212.403 92.5267 212.763 92.46C213.137 92.38 213.537 92.34 213.963 92.34C214.537 92.34 215.037 92.42 215.463 92.58C215.903 92.74 216.277 92.9533 216.583 93.22C217.09 93.6467 217.443 94.2 217.643 94.88C217.843 95.56 217.943 96.32 217.943 97.16V103H216.623V97.64C216.623 97.0133 216.57 96.4133 216.463 95.84C216.37 95.2533 216.157 94.7533 215.823 94.34C215.597 94.0733 215.317 93.86 214.983 93.7C214.65 93.54 214.23 93.46 213.723 93.46C213.177 93.46 212.677 93.5733 212.223 93.8C211.77 94.0267 211.39 94.32 211.083 94.68C210.737 95.08 210.49 95.54 210.343 96.06C210.197 96.58 210.123 97.1267 210.123 97.7V103H208.803ZM228.896 92.46H230.136V102.66C230.136 103.54 230.05 104.287 229.876 104.9C229.703 105.527 229.423 106.06 229.036 106.5C228.663 106.953 228.17 107.3 227.556 107.54C226.956 107.78 226.23 107.9 225.376 107.9C224.856 107.9 224.363 107.847 223.896 107.74C223.43 107.647 223.003 107.487 222.616 107.26C222.243 107.033 221.916 106.74 221.636 106.38C221.37 106.033 221.17 105.607 221.036 105.1H222.396C222.503 105.42 222.663 105.687 222.876 105.9C223.103 106.113 223.356 106.28 223.636 106.4C223.916 106.533 224.21 106.627 224.516 106.68C224.836 106.747 225.15 106.78 225.456 106.78C226.136 106.78 226.69 106.673 227.116 106.46C227.556 106.26 227.896 105.973 228.136 105.6C228.39 105.227 228.563 104.787 228.656 104.28C228.763 103.787 228.816 103.24 228.816 102.64V101.32C228.376 101.96 227.83 102.42 227.176 102.7C226.536 102.98 225.816 103.12 225.016 103.12C224.176 103.12 223.45 102.967 222.836 102.66C222.236 102.353 221.75 101.94 221.376 101.42C221.016 100.9 220.75 100.3 220.576 99.62C220.416 98.9267 220.35 98.2067 220.376 97.46C220.39 96.7267 220.503 96.0533 220.716 95.44C220.943 94.8133 221.256 94.2733 221.656 93.82C222.056 93.3533 222.556 92.9933 223.156 92.74C223.756 92.4733 224.443 92.34 225.216 92.34C225.95 92.34 226.63 92.4667 227.256 92.72C227.883 92.9733 228.403 93.3867 228.816 93.96L228.896 92.46ZM225.196 93.46C224.57 93.46 224.036 93.58 223.596 93.82C223.156 94.0467 222.796 94.36 222.516 94.76C222.236 95.1467 222.03 95.5933 221.896 96.1C221.763 96.6067 221.696 97.14 221.696 97.7C221.696 98.2867 221.756 98.84 221.876 99.36C222.01 99.88 222.216 100.333 222.496 100.72C222.776 101.107 223.136 101.42 223.576 101.66C224.03 101.887 224.583 102 225.236 102C225.823 102 226.35 101.873 226.816 101.62C227.296 101.353 227.69 101.02 227.996 100.62C228.303 100.22 228.523 99.7733 228.656 99.28C228.79 98.7733 228.856 98.2467 228.856 97.7C228.856 97.0467 228.75 96.4 228.536 95.76C228.336 95.1067 227.963 94.5733 227.416 94.16C226.79 93.6933 226.05 93.46 225.196 93.46ZM233.842 88.66C234.135 88.66 234.375 88.7467 234.562 88.92C234.749 89.0933 234.842 89.3267 234.842 89.62C234.842 89.9267 234.749 90.1667 234.562 90.34C234.375 90.5133 234.135 90.6 233.842 90.6C233.549 90.6 233.309 90.5133 233.122 90.34C232.949 90.1667 232.862 89.9267 232.862 89.62C232.862 89.3133 232.949 89.08 233.122 88.92C233.309 88.7467 233.549 88.66 233.842 88.66ZM233.182 92.46H234.502V103H233.182V92.46ZM237.553 103V92.46H238.833L238.873 94.26C239.06 93.94 239.293 93.66 239.573 93.42C239.853 93.1667 240.147 92.9667 240.453 92.82C240.8 92.6467 241.153 92.5267 241.513 92.46C241.887 92.38 242.287 92.34 242.713 92.34C243.287 92.34 243.787 92.42 244.213 92.58C244.653 92.74 245.027 92.9533 245.333 93.22C245.84 93.6467 246.193 94.2 246.393 94.88C246.593 95.56 246.693 96.32 246.693 97.16V103H245.373V97.64C245.373 97.0133 245.32 96.4133 245.213 95.84C245.12 95.2533 244.907 94.7533 244.573 94.34C244.347 94.0733 244.067 93.86 243.733 93.7C243.4 93.54 242.98 93.46 242.473 93.46C241.927 93.46 241.427 93.5733 240.973 93.8C240.52 94.0267 240.14 94.32 239.833 94.68C239.487 95.08 239.24 95.54 239.093 96.06C238.947 96.58 238.873 97.1267 238.873 97.7V103H237.553ZM257.646 92.46H258.886V102.66C258.886 103.54 258.8 104.287 258.626 104.9C258.453 105.527 258.173 106.06 257.786 106.5C257.413 106.953 256.92 107.3 256.306 107.54C255.706 107.78 254.98 107.9 254.126 107.9C253.606 107.9 253.113 107.847 252.646 107.74C252.18 107.647 251.753 107.487 251.366 107.26C250.993 107.033 250.666 106.74 250.386 106.38C250.12 106.033 249.92 105.607 249.786 105.1H251.146C251.253 105.42 251.413 105.687 251.626 105.9C251.853 106.113 252.106 106.28 252.386 106.4C252.666 106.533 252.96 106.627 253.266 106.68C253.586 106.747 253.9 106.78 254.206 106.78C254.886 106.78 255.44 106.673 255.866 106.46C256.306 106.26 256.646 105.973 256.886 105.6C257.14 105.227 257.313 104.787 257.406 104.28C257.513 103.787 257.566 103.24 257.566 102.64V101.32C257.126 101.96 256.58 102.42 255.926 102.7C255.286 102.98 254.566 103.12 253.766 103.12C252.926 103.12 252.2 102.967 251.586 102.66C250.986 102.353 250.5 101.94 250.126 101.42C249.766 100.9 249.5 100.3 249.326 99.62C249.166 98.9267 249.1 98.2067 249.126 97.46C249.14 96.7267 249.253 96.0533 249.466 95.44C249.693 94.8133 250.006 94.2733 250.406 93.82C250.806 93.3533 251.306 92.9933 251.906 92.74C252.506 92.4733 253.193 92.34 253.966 92.34C254.7 92.34 255.38 92.4667 256.006 92.72C256.633 92.9733 257.153 93.3867 257.566 93.96L257.646 92.46ZM253.946 93.46C253.32 93.46 252.786 93.58 252.346 93.82C251.906 94.0467 251.546 94.36 251.266 94.76C250.986 95.1467 250.78 95.5933 250.646 96.1C250.513 96.6067 250.446 97.14 250.446 97.7C250.446 98.2867 250.506 98.84 250.626 99.36C250.76 99.88 250.966 100.333 251.246 100.72C251.526 101.107 251.886 101.42 252.326 101.66C252.78 101.887 253.333 102 253.986 102C254.573 102 255.1 101.873 255.566 101.62C256.046 101.353 256.44 101.02 256.746 100.62C257.053 100.22 257.273 99.7733 257.406 99.28C257.54 98.7733 257.606 98.2467 257.606 97.7C257.606 97.0467 257.5 96.4 257.286 95.76C257.086 95.1067 256.713 94.5733 256.166 94.16C255.54 93.6933 254.8 93.46 253.946 93.46ZM275.303 92.46H276.543V102.66C276.543 103.54 276.456 104.287 276.283 104.9C276.109 105.527 275.829 106.06 275.443 106.5C275.069 106.953 274.576 107.3 273.963 107.54C273.363 107.78 272.636 107.9 271.783 107.9C271.263 107.9 270.769 107.847 270.303 107.74C269.836 107.647 269.409 107.487 269.023 107.26C268.649 107.033 268.323 106.74 268.043 106.38C267.776 106.033 267.576 105.607 267.443 105.1H268.803C268.909 105.42 269.069 105.687 269.283 105.9C269.509 106.113 269.763 106.28 270.043 106.4C270.323 106.533 270.616 106.627 270.923 106.68C271.243 106.747 271.556 106.78 271.863 106.78C272.543 106.78 273.096 106.673 273.523 106.46C273.963 106.26 274.303 105.973 274.543 105.6C274.796 105.227 274.969 104.787 275.063 104.28C275.169 103.787 275.223 103.24 275.223 102.64V101.32C274.783 101.96 274.236 102.42 273.583 102.7C272.943 102.98 272.223 103.12 271.423 103.12C270.583 103.12 269.856 102.967 269.243 102.66C268.643 102.353 268.156 101.94 267.783 101.42C267.423 100.9 267.156 100.3 266.983 99.62C266.823 98.9267 266.756 98.2067 266.783 97.46C266.796 96.7267 266.909 96.0533 267.123 95.44C267.349 94.8133 267.663 94.2733 268.063 93.82C268.463 93.3533 268.963 92.9933 269.563 92.74C270.163 92.4733 270.849 92.34 271.623 92.34C272.356 92.34 273.036 92.4667 273.663 92.72C274.289 92.9733 274.809 93.3867 275.223 93.96L275.303 92.46ZM271.603 93.46C270.976 93.46 270.443 93.58 270.003 93.82C269.563 94.0467 269.203 94.36 268.923 94.76C268.643 95.1467 268.436 95.5933 268.303 96.1C268.169 96.6067 268.103 97.14 268.103 97.7C268.103 98.2867 268.163 98.84 268.283 99.36C268.416 99.88 268.623 100.333 268.903 100.72C269.183 101.107 269.543 101.42 269.983 101.66C270.436 101.887 270.989 102 271.643 102C272.229 102 272.756 101.873 273.223 101.62C273.703 101.353 274.096 101.02 274.403 100.62C274.709 100.22 274.929 99.7733 275.063 99.28C275.196 98.7733 275.263 98.2467 275.263 97.7C275.263 97.0467 275.156 96.4 274.943 95.76C274.743 95.1067 274.369 94.5733 273.823 94.16C273.196 93.6933 272.456 93.46 271.603 93.46ZM284.008 92.34C284.835 92.34 285.555 92.4733 286.168 92.74C286.795 93.0067 287.315 93.38 287.728 93.86C288.155 94.34 288.475 94.9133 288.688 95.58C288.902 96.2333 289.008 96.9533 289.008 97.74C289.008 98.5267 288.902 99.2533 288.688 99.92C288.475 100.573 288.155 101.14 287.728 101.62C287.315 102.087 286.795 102.453 286.168 102.72C285.555 102.987 284.835 103.12 284.008 103.12C283.182 103.12 282.455 102.987 281.828 102.72C281.215 102.453 280.695 102.087 280.268 101.62C279.855 101.14 279.542 100.573 279.328 99.92C279.128 99.2533 279.028 98.5267 279.028 97.74C279.028 96.9533 279.128 96.2333 279.328 95.58C279.542 94.9133 279.855 94.34 280.268 93.86C280.695 93.38 281.215 93.0067 281.828 92.74C282.455 92.4733 283.182 92.34 284.008 92.34ZM284.008 102C284.648 102 285.202 101.893 285.668 101.68C286.135 101.453 286.515 101.147 286.808 100.76C287.115 100.373 287.335 99.92 287.468 99.4C287.615 98.88 287.688 98.3267 287.688 97.74C287.688 97.1533 287.615 96.6 287.468 96.08C287.335 95.56 287.115 95.1067 286.808 94.72C286.515 94.3333 286.135 94.0267 285.668 93.8C285.202 93.5733 284.648 93.46 284.008 93.46C283.368 93.46 282.815 93.5733 282.348 93.8C281.882 94.0267 281.495 94.3333 281.188 94.72C280.895 95.1067 280.675 95.56 280.528 96.08C280.395 96.6 280.328 97.1533 280.328 97.74C280.328 98.3267 280.395 98.88 280.528 99.4C280.675 99.92 280.895 100.373 281.188 100.76C281.495 101.147 281.882 101.453 282.348 101.68C282.815 101.893 283.368 102 284.008 102ZM298.639 101.48C298.132 102.093 297.552 102.52 296.899 102.76C296.259 103 295.552 103.12 294.779 103.12C294.312 103.12 293.859 103.067 293.419 102.96C292.992 102.84 292.606 102.653 292.259 102.4C291.912 102.147 291.632 101.827 291.419 101.44C291.219 101.04 291.119 100.593 291.119 100.1C291.119 99.5 291.232 99 291.459 98.6C291.686 98.2 291.979 97.88 292.339 97.64C292.712 97.4 293.139 97.2333 293.619 97.14C294.099 97.0333 294.599 96.98 295.119 96.98H298.579C298.579 96.5 298.526 96.0467 298.419 95.62C298.326 95.1933 298.166 94.82 297.939 94.5C297.712 94.18 297.412 93.9267 297.039 93.74C296.679 93.5533 296.232 93.46 295.699 93.46C295.446 93.46 295.186 93.48 294.919 93.52C294.666 93.56 294.419 93.6267 294.179 93.72C293.952 93.8133 293.739 93.9467 293.539 94.12C293.352 94.28 293.199 94.48 293.079 94.72H291.639C291.759 94.28 291.959 93.9133 292.239 93.62C292.519 93.3133 292.846 93.0667 293.219 92.88C293.606 92.68 294.012 92.54 294.439 92.46C294.879 92.38 295.312 92.34 295.739 92.34C296.512 92.34 297.166 92.4667 297.699 92.72C298.232 92.9733 298.659 93.3267 298.979 93.78C299.312 94.22 299.546 94.74 299.679 95.34C299.826 95.94 299.899 96.5867 299.899 97.28V103H298.819L298.639 101.48ZM295.799 98.04C295.452 98.04 295.079 98.0533 294.679 98.08C294.292 98.1067 293.932 98.1867 293.599 98.32C293.266 98.44 292.986 98.6333 292.759 98.9C292.546 99.1533 292.439 99.5067 292.439 99.96C292.439 100.32 292.506 100.627 292.639 100.88C292.786 101.133 292.972 101.347 293.199 101.52C293.439 101.693 293.706 101.82 293.999 101.9C294.306 101.98 294.619 102.02 294.939 102.02C295.459 102.02 295.939 101.953 296.379 101.82C296.832 101.687 297.219 101.487 297.539 101.22C297.872 100.94 298.126 100.6 298.299 100.2C298.486 99.7867 298.579 99.3067 298.579 98.76V98.04H295.799ZM302.749 103V88.86H304.069V103H302.749ZM310.648 93.46C310.341 93.46 310.028 93.4867 309.708 93.54C309.401 93.5933 309.121 93.6867 308.868 93.82C308.614 93.94 308.401 94.1133 308.228 94.34C308.068 94.5667 307.988 94.86 307.988 95.22C307.988 95.5 308.041 95.74 308.148 95.94C308.268 96.14 308.414 96.3067 308.588 96.44C308.774 96.5733 308.981 96.68 309.208 96.76C309.434 96.84 309.668 96.9067 309.908 96.96C310.334 97.0533 310.754 97.14 311.168 97.22C311.581 97.3 312.001 97.3933 312.428 97.5C313.134 97.6467 313.708 97.9267 314.148 98.34C314.601 98.7533 314.828 99.3467 314.828 100.12C314.828 100.707 314.701 101.193 314.448 101.58C314.208 101.967 313.894 102.28 313.508 102.52C313.121 102.747 312.681 102.907 312.188 103C311.694 103.08 311.201 103.12 310.708 103.12C310.254 103.12 309.794 103.073 309.328 102.98C308.861 102.887 308.428 102.74 308.028 102.54C307.628 102.327 307.281 102.053 306.988 101.72C306.694 101.387 306.494 100.967 306.388 100.46H307.728C307.874 100.767 308.054 101.02 308.268 101.22C308.494 101.407 308.741 101.56 309.008 101.68C309.274 101.787 309.554 101.867 309.848 101.92C310.154 101.973 310.461 102 310.768 102C311.074 102 311.388 101.98 311.708 101.94C312.041 101.9 312.341 101.82 312.608 101.7C312.874 101.567 313.094 101.38 313.268 101.14C313.441 100.9 313.528 100.587 313.528 100.2C313.528 99.9333 313.474 99.7067 313.368 99.52C313.261 99.3333 313.121 99.18 312.948 99.06C312.774 98.94 312.574 98.8467 312.348 98.78C312.134 98.7 311.914 98.6333 311.688 98.58C311.274 98.4867 310.868 98.4067 310.468 98.34C310.068 98.26 309.654 98.1667 309.228 98.06C308.494 97.8867 307.888 97.58 307.408 97.14C306.928 96.6867 306.688 96.06 306.688 95.26C306.688 94.6867 306.808 94.2133 307.048 93.84C307.288 93.4667 307.594 93.1733 307.968 92.96C308.354 92.7333 308.788 92.5733 309.268 92.48C309.748 92.3867 310.221 92.34 310.688 92.34C311.101 92.34 311.514 92.3867 311.928 92.48C312.354 92.56 312.741 92.7 313.088 92.9C313.434 93.1 313.728 93.36 313.968 93.68C314.221 94 314.388 94.3867 314.468 94.84H313.248C313.154 94.6 313.014 94.3933 312.828 94.22C312.641 94.0333 312.428 93.8867 312.188 93.78C311.948 93.6733 311.694 93.5933 311.428 93.54C311.161 93.4867 310.901 93.46 310.648 93.46Z" fill="#232323"/>
<path d="M475.555 19.4138L469.458 22.7517M469.912 0.999367L461.288 14.7745" stroke="#0223B5" stroke-width="1.45542"/>
<path d="M76.2741 14.0837C87.3316 2.11452 119.692 1.76174 130.125 13.363" stroke="#0223B5" stroke-width="1.70118"/>
</svg>
