<svg width="247" height="205" viewBox="0 0 247 205" fill="none" xmlns="http://www.w3.org/2000/svg">
<path d="M169.636 58.0826C165.714 57.4073 164.183 58.1423 161.777 59.9952" stroke="white"/>
<path d="M188.963 53.0161C185.042 52.3408 183.511 53.0757 181.105 54.9287" stroke="white"/>
<path d="M166.869 62.2318C167.687 62.0588 167.97 61.096 167.501 60.0814C167.032 59.0669 165.989 58.3847 165.171 58.5577C164.353 58.7308 164.07 59.6936 164.539 60.7081C165.008 61.7227 166.051 62.4049 166.869 62.2318Z" fill="white"/>
<path d="M186.408 56.7572C187.226 56.5842 187.509 55.6214 187.04 54.6068C186.571 53.5923 185.528 52.9101 184.71 53.0831C183.892 53.2562 183.609 54.219 184.078 55.2335C184.547 56.2481 185.59 56.9303 186.408 56.7572Z" fill="white"/>
<path d="M175.158 67.2203C177.585 69.2245 179.618 67.2203 179.618 65.9453" stroke="white"/>
<path d="M159.654 56.1693C162.481 53.6376 166.064 53.2655 169.848 53.4067" stroke="white"/>
<path d="M201.495 60.8439C198.097 86.7699 169.212 90.1699 159.867 55.5312" stroke="white"/>
<path d="M112.505 197.912L165.389 186.012L108.681 179.359M112.505 197.912L108.681 179.359M112.505 197.912L16.2946 186.012L1.42773 111.847L94.027 108.234L108.681 179.359" stroke="white"/>
<path d="M199.582 47.4565C205.316 36.1937 210.201 58.0819 201.068 61.482" stroke="white"/>
<path d="M179.193 50.2202C183.019 47.4289 185.311 46.8137 189.6 47.0326" stroke="white"/>
<path d="M181.954 3.38244C206.378 -12.3437 239.511 74.7839 222.095 93.4853M181.954 3.38244C172.609 3.38244 172.609 11.8823 172.609 11.8823M181.954 3.38244C193.635 4.01948 193.645 13.4881 190.237 14.6449" stroke="white"/>
<path d="M169.211 12.5208C193.423 7.20815 226.554 30.1589 202.767 67.3476" stroke="white"/>
<path d="M159.654 56.296C151.371 52.2583 146.91 17.6197 169.423 12.5195" stroke="white"/>
<path d="M202.026 49.793C201.294 51.5358 201.34 54.0004 202.026 55.7432" stroke="white"/>
<path d="M178.557 80.1836L180.256 93.6986C187.052 98.5857 194.911 95.6107 199.37 91.7857" stroke="white"/>
<path d="M177.918 73.8079C183.141 73.6629 184.899 72.395 186.839 68.9199" stroke="white"/>
<path d="M192.36 105.173C190.874 101.773 188.113 98.1613 188.113 98.1613L185.139 104.536C176.644 101.773 170.272 95.1856 179.405 89.0234" stroke="white"/>
<path d="M191.723 104.747C201.068 100.072 207.652 93.9094 201.917 87.1094" stroke="white"/>
<path d="M187.9 52.0459L191.334 50.0176L188.75 53.7459L187.9 52.0459Z" fill="white"/>
<path d="M210.84 118.35C210.84 130.25 222.521 140.875 219.122 152.775L160.08 161.488C161.665 164.153 162.497 165.702 161.779 170.626C161.779 170.626 210.415 179.764 234.414 170.626C258.414 161.488 237.175 139.812 232.29 112.187C227.405 84.5603 202.557 87.3231 202.557 87.3231L199.158 69.2598M172.823 148.1C143.726 150.863 148.186 122.387 155.195 118.35" stroke="white"/>
<path d="M193.211 147.886C205.317 149.374 216.361 148.736 217.211 137.898" stroke="white"/>
<path d="M179.406 88.3856C179.406 88.3856 157.544 86.0477 139.266 110.698C119.254 137.687 115.903 146.612 115.903 146.612L102.311 148.738M105.921 166.801C105.921 166.801 110.169 168.062 119.514 165.951C132.682 162.976 150.097 132.374 150.097 132.374" stroke="white"/>
<path d="M115.902 146.611C119.088 147.248 121.424 149.586 122.061 152.774" stroke="white"/>
<path d="M219.121 152.775C226.053 152.86 229.049 153.665 233.139 156.175" stroke="white"/>
<path d="M158.805 146.611C161.778 150.861 162.984 153.5 163.69 160.212" stroke="white"/>
<path d="M214.023 144.912L209.988 153.625" stroke="white"/>
<path d="M161.354 169.562H154.345L143.089 167.649L128.222 171.687M160.929 162.762L140.328 159.574C140.328 159.574 123.549 168.287 122.275 169.562C121.001 170.837 125.673 170.837 125.673 170.837" stroke="white"/>
<path d="M128.221 171.689C125.036 172.752 125.036 170.414 127.585 169.776L136.717 167.014" stroke="white"/>
<path d="M190.707 179.411C190.803 179.464 190.876 179.511 190.933 179.551C190.876 179.591 190.803 179.637 190.707 179.691C190.241 179.952 189.494 180.222 188.48 180.462C186.468 180.937 183.634 181.242 180.467 181.242C177.299 181.242 174.465 180.937 172.453 180.462C171.438 180.222 170.692 179.952 170.226 179.691C170.131 179.637 170.056 179.591 170 179.551C170.056 179.511 170.131 179.464 170.226 179.411C170.692 179.15 171.438 178.88 172.453 178.64C174.465 178.164 177.299 177.859 180.467 177.859C183.634 177.859 186.468 178.164 188.48 178.64C189.494 178.88 190.241 179.15 190.707 179.411Z" stroke="white"/>
<path d="M191.087 201.014C186.84 204.202 174.734 204.414 170.273 201.014" stroke="white"/>
<path d="M190.875 178.912V201.863" stroke="white"/>
<path d="M170.486 178.912V201.863" stroke="white"/>
<path d="M191.299 185.502C196.042 183.878 195.759 191.877 191.299 193.364" stroke="white"/>
<path d="M93.925 108.779L89.6175 114.751M89.6175 114.751L91.0545 122.576H96.4428M89.6175 114.751C81.2852 115.586 82.0097 112.751 81.2852 108.779" stroke="white"/>
<path d="M159.441 32.9216C163.084 43.2798 198.307 42.697 198.307 42.697C196.396 34.8342 193.21 30.1591 188.537 27.3965" stroke="white"/>
<path d="M163.689 37.8086C159.235 41.873 159.161 44.3695 159.442 48.8589" stroke="white"/>
<path d="M201.918 59.0594C202.387 59.0594 202.767 58.6789 202.767 58.2094C202.767 57.7399 202.387 57.3594 201.918 57.3594C201.449 57.3594 201.068 57.7399 201.068 58.2094C201.068 58.6789 201.449 59.0594 201.918 59.0594Z" fill="white"/>
</svg>
