<svg width="140" height="116" viewBox="0 0 140 116" fill="none" xmlns="http://www.w3.org/2000/svg">
<g clip-path="url(#clip0_1_32878)">
<path d="M96.1502 32.8662C93.9276 32.484 93.0596 32.8999 91.696 33.9484" stroke="#232323"/>
<path d="M107.104 29.9995C104.882 29.6173 104.014 30.0332 102.651 31.0817" stroke="#232323"/>
<path d="M94.5814 35.2137C95.0451 35.1158 95.2055 34.571 94.9397 33.9969C94.6738 33.4228 94.0824 33.0368 93.6187 33.1347C93.155 33.2326 92.9946 33.7774 93.2604 34.3515C93.5263 34.9256 94.1177 35.3116 94.5814 35.2137Z" fill="#232323"/>
<path d="M105.656 32.116C106.12 32.0181 106.28 31.4733 106.015 30.8992C105.749 30.3251 105.157 29.9391 104.694 30.037C104.23 30.135 104.07 30.6798 104.335 31.2539C104.601 31.828 105.193 32.214 105.656 32.116Z" fill="#232323"/>
<path d="M99.2798 38.0364C100.655 39.1705 101.808 38.0364 101.808 37.3149" stroke="#232323"/>
<path d="M90.4922 31.7839C92.0945 30.3513 94.1253 30.1408 96.2702 30.2207" stroke="#232323"/>
<path d="M114.207 34.429C112.281 49.0993 95.9092 51.0233 90.6123 31.4229" stroke="#232323"/>
<path d="M63.7681 111.989L93.7426 105.255L61.6009 101.49M63.7681 111.989L61.6009 101.49M63.7681 111.989L9.23591 105.255L0.809326 63.2885L53.2948 61.2441L61.6009 101.49" stroke="#232323"/>
<path d="M113.124 26.8536C116.373 20.4804 119.142 32.866 113.966 34.7899" stroke="#232323"/>
<path d="M101.567 28.4169C103.736 26.8375 105.034 26.4893 107.466 26.6132" stroke="#232323"/>
<path d="M103.132 1.9142C116.976 -6.98448 135.755 42.317 125.884 52.8993M103.132 1.9142C97.8352 1.9142 97.8352 6.72389 97.8352 6.72389M103.132 1.9142C109.753 2.27467 109.758 7.63253 107.827 8.2871" stroke="#232323"/>
<path d="M95.9094 7.08444C109.633 4.07826 128.412 17.065 114.929 38.1084" stroke="#232323"/>
<path d="M90.4923 31.8555C85.7974 29.5708 83.2693 9.97041 96.0296 7.08447" stroke="#232323"/>
<path d="M114.509 28.1763C114.094 29.1625 114.12 30.5571 114.509 31.5432" stroke="#232323"/>
<path d="M101.206 45.3716L102.169 53.0191C106.021 55.7845 110.475 54.1011 113.003 51.9367" stroke="#232323"/>
<path d="M100.844 41.7644C103.805 41.6823 104.801 40.9649 105.901 38.9985" stroke="#232323"/>
<path d="M109.03 59.5126C108.188 57.5887 106.623 55.5447 106.623 55.5447L104.938 59.152C100.123 57.5887 96.5109 53.8609 101.687 50.374" stroke="#232323"/>
<path d="M108.669 59.272C113.966 56.6266 117.698 53.1393 114.448 49.2915" stroke="#232323"/>
<path d="M106.502 29.4505L108.449 28.3027L106.984 30.4124L106.502 29.4505Z" fill="#232323"/>
<path d="M119.504 66.9686C119.504 73.7022 126.125 79.7148 124.198 86.4485L90.7329 91.3787C91.6312 92.8867 92.103 93.7633 91.6959 96.5494C91.6959 96.5494 119.263 101.72 132.866 96.5494C146.469 91.3787 134.431 79.1134 131.662 63.4813C128.893 47.8488 114.809 49.4121 114.809 49.4121L112.882 39.1909M97.9554 83.8031C81.4634 85.3665 83.9915 69.253 87.9641 66.9686" stroke="#232323"/>
<path d="M109.512 83.6824C116.374 84.5243 122.634 84.1634 123.115 78.0308" stroke="#232323"/>
<path d="M101.687 50.0136C101.687 50.0136 89.2961 48.6907 78.9357 62.6394C67.5929 77.911 65.694 82.9612 65.694 82.9612L57.9895 84.1641M60.0361 94.385C60.0361 94.385 62.4436 95.0988 67.7405 93.904C75.2038 92.2206 85.0751 74.9047 85.0751 74.9047" stroke="#232323"/>
<path d="M65.6941 82.9609C67.4995 83.3215 68.8239 84.6443 69.1848 86.4482" stroke="#232323"/>
<path d="M124.198 86.4482C128.127 86.4959 129.825 86.9519 132.143 88.3721" stroke="#232323"/>
<path d="M90.0107 82.9609C91.696 85.3658 92.3798 86.8589 92.7796 90.657" stroke="#232323"/>
<path d="M121.309 81.999L119.022 86.9292" stroke="#232323"/>
<path d="M91.4552 95.9476H87.4826L81.1024 94.8652L72.6761 97.15M91.2144 92.0998L79.5378 90.2959C79.5378 90.2959 70.0275 95.2261 69.3052 95.9476C68.583 96.669 71.2312 96.669 71.2312 96.669" stroke="#232323"/>
<path d="M72.6759 97.1503C70.8705 97.7517 70.8705 96.4288 72.315 96.0679L77.4913 94.5049" stroke="#232323"/>
<path d="M108.094 101.52C108.148 101.55 108.19 101.577 108.222 101.599C108.19 101.622 108.148 101.648 108.094 101.678C107.83 101.826 107.406 101.979 106.831 102.115C105.691 102.384 104.085 102.556 102.29 102.556C100.494 102.556 98.8879 102.384 97.7472 102.115C97.1722 101.979 96.7494 101.826 96.4848 101.678C96.431 101.648 96.3889 101.622 96.3569 101.599C96.3889 101.577 96.431 101.55 96.4848 101.52C96.7494 101.372 97.1722 101.22 97.7472 101.084C98.8879 100.815 100.494 100.642 102.29 100.642C104.085 100.642 105.691 100.815 106.831 101.084C107.406 101.22 107.83 101.372 108.094 101.52Z" stroke="#232323"/>
<path d="M108.308 113.744C105.901 115.548 99.0391 115.668 96.511 113.744" stroke="#232323"/>
<path d="M108.188 101.238V114.225" stroke="#232323"/>
<path d="M96.6316 101.238V114.225" stroke="#232323"/>
<path d="M108.429 104.966C111.117 104.047 110.957 108.574 108.429 109.415" stroke="#232323"/>
<path d="M53.2363 61.5532L50.7948 64.9322M50.7948 64.9322L51.6093 69.3604H54.6634M50.7948 64.9322C46.072 65.4051 46.4827 63.8009 46.072 61.5532" stroke="#232323"/>
<path d="M90.3721 18.6284C92.4365 24.4896 112.401 24.1598 112.401 24.1598C111.318 19.7106 109.512 17.0652 106.864 15.502" stroke="#232323"/>
<path d="M92.7791 21.394C90.2543 23.6939 90.2126 25.1066 90.3716 27.6469" stroke="#232323"/>
<path d="M114.448 33.419C114.714 33.419 114.929 33.2037 114.929 32.938C114.929 32.6724 114.714 32.457 114.448 32.457C114.182 32.457 113.966 32.6724 113.966 32.938C113.966 33.2037 114.182 33.419 114.448 33.419Z" fill="#232323"/>
</g>
<defs>
<clipPath id="clip0_1_32878">
<rect width="140" height="116" fill="white"/>
</clipPath>
</defs>
</svg>
