<svg width="132" height="52" viewBox="0 0 132 52" fill="none" xmlns="http://www.w3.org/2000/svg">
<g opacity="0.5">
<path d="M30.7417 51.6738L17.6132 35.4338L27.5965 21.6694H16.6689L8.93093 31.2219V21.6694H0V51.6694H8.93093V41.5704L18.5738 51.6694L30.7417 51.6738Z" fill="black"/>
<path d="M34.1364 44.6283C40.156 43.7795 43.2683 40.4641 44.7014 36.4706L53.8193 10.8425L43.2663 12.3307L39.1839 25.2823L31.7503 13.9547L21.1973 15.4429L35.107 34.9006C34.8351 35.4502 34.419 35.915 33.9035 36.2451C33.388 36.5751 32.7926 36.758 32.1813 36.7739C30.7354 36.9259 29.2765 36.6556 27.98 35.9957L25.1177 43.4331C27.9256 44.7672 31.0795 45.1852 34.1364 44.6283Z" fill="black"/>
<path d="M73.5979 51.6731L63.4237 34.8152L72.9126 18.9019H62.0102L57.1747 28.2375L52.2459 18.9019H41.4338L50.9242 34.8701L40.75 51.6731H51.608L57.1732 41.6498L62.7384 51.6731H73.5979Z" fill="black"/>
<path d="M112.585 51.6713L116.71 42.2243H121.463V51.6713H132.001V21.6714H113.078C106.085 21.6714 102.319 26.3496 102.319 31.9724C102.241 33.8467 102.708 35.7033 103.663 37.3161C104.618 38.9288 106.02 40.2281 107.698 41.0555L102.273 51.6713H112.585ZM114.468 34.3129C112.943 34.3129 111.508 33.5926 111.508 31.9293C111.508 30.3105 112.942 29.5902 114.468 29.5902H121.463V34.3129H114.468Z" fill="black"/>
<path d="M105.336 39.7412L97.2402 4.57742L85.9638 7.1912L88.8278 19.6314L79.6192 21.8009L76.7552 9.36074L65.4803 11.9742L73.5758 47.1379L84.8507 44.5245L81.7559 31.0819L90.9645 28.9123L94.0596 42.3564L105.336 39.7412Z" fill="black"/>
<path d="M120.686 18.7509L115.774 12.9078C116.702 12.1484 117.391 11.1342 117.755 9.98886C118.12 8.84356 118.144 7.61664 117.825 6.4577C117.654 5.57105 117.298 4.73086 116.78 3.99248C116.261 3.25409 115.593 2.63426 114.819 2.17383C114.044 1.7134 113.182 1.42281 112.287 1.3212C111.393 1.2196 110.487 1.30929 109.63 1.58437L99.667 3.89373L103.979 22.6234L109.632 21.3132L108.274 15.4157L110.317 14.9422L114.249 20.2414L120.686 18.7509ZM110.579 9.67636L107.136 10.4743L106.457 7.52485L109.9 6.72688C110.851 6.50634 111.85 6.7487 112.082 7.75838C112.322 8.79843 111.53 9.45582 110.579 9.67636Z" fill="black"/>
</g>
</svg>
