<svg width="40" height="40" viewBox="0 0 40 40" fill="none" xmlns="http://www.w3.org/2000/svg">
<g clip-path="url(#clip0_8_230)">
<path d="M20 0.00708008C31.0415 0.00708008 39.993 8.95864 39.993 20C39.993 31.0415 31.0415 39.993 20 39.993C8.95864 39.993 0.00708008 31.0415 0.00708008 20C0.00708008 8.95864 8.95864 0.00708008 20 0.00708008ZM11.761 28.6032H14.579V17.4399H11.761V28.6032ZM20.5594 22.7204C20.5594 20.9594 21.3891 19.5477 23.3 19.5477C25.1868 19.5477 25.7977 21.0688 25.7977 22.7204V28.6047H28.5985V21.4125C28.5985 18.8579 27.361 17.0711 24.6625 17.0711C23.4375 17.0711 22.0227 17.7133 21.4243 18.8282L20.5594 20.4055V17.4399H17.893V28.6032H20.5594V22.7204ZM21.4821 22.7204V29.5258H16.9704V16.5172H21.4821V17.3477C22.3727 16.55 23.4665 16.1485 24.6625 16.1485C27.8704 16.1485 29.5211 18.3469 29.5211 21.4125V29.5235L24.875 29.5243V22.7204C24.875 21.611 24.6305 20.4704 23.3 20.4704C21.9125 20.4704 21.4821 21.4797 21.4821 22.7204ZM13.1524 14.9352C14.129 14.9352 14.9032 14.1368 14.9032 13.1657C14.9032 12.1938 14.129 11.3969 13.1524 11.3969C12.1758 11.3969 11.4016 12.1938 11.4016 13.1657C11.4016 14.1368 12.175 14.9352 13.1524 14.9352ZM13.1524 15.8579C11.6704 15.8579 10.479 14.6422 10.479 13.1657C10.479 11.6891 11.6704 10.4743 13.1524 10.4743C14.6336 10.4743 15.8258 11.6891 15.8258 13.1657C15.8258 14.6415 14.6336 15.8579 13.1524 15.8579ZM10.8383 29.5258V16.5172H15.5016V29.5258H10.8383ZM20 0.930518C9.46802 0.930518 0.929736 9.46802 0.929736 20C0.929736 30.5321 9.46802 39.0696 20 39.0696C30.5321 39.0696 39.0704 30.5321 39.0704 20C39.0704 9.46802 30.5321 0.930518 20 0.930518Z" fill="#232323"/>
</g>
<defs>
<clipPath id="clip0_8_230">
<rect width="40" height="40" fill="#fff"/>
</clipPath>
</defs>
</svg>
