<svg width="494" height="86" viewBox="0 0 494 86" fill="none" xmlns="http://www.w3.org/2000/svg">
<path fill-rule="evenodd" clip-rule="evenodd" d="M0 7.54225V15.0845H8.80945H17.6189V49.8627V84.6408H26.4284H35.2378V49.8627V15.0845H44.0469H52.8564V7.54225V0H26.4284H0V7.54225Z" fill="#0223B5"/>
<path fill-rule="evenodd" clip-rule="evenodd" d="M236 42.3204V84.6408H245.299H254.597V66.6232V48.6056H265.365H276.132V41.0634V33.5211H265.365H254.597V24.3028V15.0845H268.791H282.984V7.54225V0H259.492H236V42.3204ZM388.611 15.5335L379.843 20.2174V52.6162L379.863 84.6408H389.174H398.484V62.4331V40.2253H402.399H406.315V33.5211V26.5326H402.399H398.484V19.2746C398.484 15.1264 398.484 10.5202 398.484 10.5202C398.484 10.5202 393.135 13.1065 388.611 15.5335ZM352.084 25.8741C343.406 27.3257 337.244 32.8917 335.267 40.2253C333.973 45.0296 334.054 66.1438 335.355 71.3371C336.584 76.2447 342.121 81.4162 347.652 83.8313C350.695 85.1604 353.415 85.4789 361.74 85.4789H372.056V78.3556V70.978H356.191C355.615 70.7685 353.43 70.4093 352.573 68.2694V42.6496L353.045 41.4974L353.971 40.7641C355.51 40.2254 356.134 40.4358 357.52 40.2253H372.056V33.1021V25.6048H365.369C361.914 25.6048 358.499 25.6048 357.642 25.6048C356.152 25.6048 353.556 25.7448 352.084 25.8741ZM289.206 26.2482V40.5773H296.801C304.082 40.5773 308.433 41.3298 308.433 44.4347C308.433 45.8913 307.124 45.7016 302.177 45.7174C288.716 45.7611 282.354 52.4698 282.354 65.89C282.354 75.2876 285.812 80.4675 293.192 83.3688C296.402 84.631 299.696 84.6073 311.169 84.6223L325.16 84.6408L324.872 61.3856V40.0607C324.872 37.5616 321.977 33.6394 321.772 33.6857C316.972 27.7684 310.367 25.9603 299.676 26.045C295.071 26.0812 289.88 26.016 289.206 26.2482ZM424.505 27.3706C422.191 28.3753 419.219 30.5605 417.915 32.0246C413.069 37.4617 412.409 39.7614 413.167 56.0255C413.167 70.8343 413.206 71.1025 415.901 75.5222C417.607 78.3197 420.215 80.9535 422.837 82.5314C426.697 84.8536 427.704 85.0599 435.189 85.0599C442.678 85.0599 443.685 84.8536 447.544 82.5314C450.166 80.9535 452.774 78.3197 454.481 75.5222C457.183 71.0932 457.215 70.8628 457.215 55.7289C457.215 40.595 457.816 40.0152 455.113 35.5863C451.04 28.9105 445.656 25.2567 436.724 24.9164C431.018 24.7003 427.917 25.8882 424.505 27.3706ZM467.004 55.7289V84.6408H475.81H484.62V62.4331V40.2253H489.025H493.431V33.5211V26.1435H480.18H467.004V55.7289ZM439.049 42.0882C440.255 43.5589 440.573 46.425 440.573 55.7289C440.573 68.6219 439.668 70.559 435.189 70.559C430.686 70.559 429.809 68.6447 429.809 55.3988C429.809 45.308 430.078 43.0351 431.427 41.758C433.63 39.674 437.203 39.8291 439.049 42.0882ZM308.433 64.9472V70.7834H305.271C300.749 70.7834 299.872 69.5713 299.872 64.2869C299.872 58.662 301.558 58.6946 305.741 58.6745L308.433 58.662V64.9472Z" fill="#0223B5"/>
<path fill-rule="evenodd" clip-rule="evenodd" d="M194.82 43.8785C193.85 35.1366 190.132 28.9282 185.232 26.9372C182.023 25.6337 165.47 26.1894 162 27.5C158.721 28.7387 157.714 33.8419 156.101 39.4142C155.213 42.4792 155 45.2197 155 53.6065V63.9999H164.688V48.017C164.828 47.4358 165.067 45.2345 166.497 44.3716H182.33C182.69 44.3716 183.043 44.4717 183.349 44.6608C183.546 44.7827 183.707 44.9554 183.815 45.1609L183.899 45.3206C184.059 45.6259 184.184 45.9501 184.247 46.2891C184.471 47.4878 184.376 48.1225 184.5 49.3554V59.2411C184.5 61.8693 188.363 63.9999 190.991 63.9999C193.758 63.9999 195 61.7574 195 58.9912V57.2625C195 53.7816 195 50.3416 195 49.4786C195 47.9775 194.906 45.3616 194.82 43.8785Z" fill="#0223B5"/>
<path fill-rule="evenodd" clip-rule="evenodd" d="M187.18 43.6838C188.15 34.9419 191.868 28.7335 196.768 26.7425C199.977 25.439 216.53 25.9947 220 27.3053C223.279 28.544 224.286 33.6472 225.899 39.2195C226.787 42.2845 227 45.025 227 53.4118V63.8052H217.312V47.8223C217.172 47.2411 216.933 45.0398 215.503 44.1769H199.12L198.35 44.6524L197.86 45.5857C197.5 47.1355 197.641 47.7645 197.5 49.1607V59.0464C197.5 61.6746 194.273 64 191.645 64C188.878 64 187 61.5627 187 58.7965V57.0678C187 53.5869 187 50.1469 187 49.2839C187 47.7828 187.094 45.1669 187.18 43.6838Z" fill="#0223B5"/>
<path fill-rule="evenodd" clip-rule="evenodd" d="M155 85.4974H172.617V41.0819H181.427V27H165C159.477 27 155 31.4771 155 37V85.4974Z" fill="#0223B5"/>
<path fill-rule="evenodd" clip-rule="evenodd" d="M227 85.4974H209.383V41.0819H200.573V27H217C222.523 27 227 31.4771 227 37V85.4974Z" fill="#0223B5"/>
<path fill-rule="evenodd" clip-rule="evenodd" d="M109.883 26.2075V40.6347H117.512C124.827 40.6347 129.197 41.3923 129.197 44.5184C129.197 45.9851 127.882 45.794 122.913 45.81C109.391 45.854 103 52.6087 103 66.1207C103 75.5826 106.473 80.798 113.887 83.7193C117.112 84.99 120.421 84.9662 131.945 84.9813L146 85L145.711 61.5854V40.1146C145.711 37.5983 142.802 33.6492 142.597 33.6959C137.775 27.738 131.14 25.9176 120.401 26.0028C115.775 26.0393 110.56 25.9736 109.883 26.2075ZM129.197 65.1715V71.0477H126.021C121.478 71.0477 120.598 69.8272 120.598 64.5067C120.598 58.8432 122.291 58.876 126.493 58.8558L129.197 58.8432V65.1715Z" fill="#0223B5"/>
<path fill-rule="evenodd" clip-rule="evenodd" d="M89.1166 84.7925V70.3653H81.488C74.1734 70.3653 69.8032 69.6077 69.8032 66.4816C69.8032 65.0149 71.118 65.206 76.0874 65.19C89.609 65.146 96 58.3913 96 44.8793C96 35.4174 92.5267 30.202 85.1131 27.2807C81.8881 26.01 78.5794 26.0338 67.0547 26.0187C59.3238 26.0084 53.0781 32.3233 53.1735 40.0536L53.2891 49.4146V70.8854C53.2891 73.4017 56.198 77.3508 56.4031 77.3041C61.2249 83.262 67.86 85.0824 78.5991 84.9972C83.2254 84.9607 88.4402 85.0264 89.1166 84.7925ZM69.8032 45.8285V43.1285C69.8032 41.3743 71.2252 39.9523 72.9793 39.9523C77.522 39.9523 78.4025 39.9523 78.4025 46.4933C78.4025 52.1568 76.7093 52.124 72.507 52.1442L69.8032 52.1568V45.8285Z" fill="#0223B5"/>
</svg>
