<svg width="63" height="63" viewBox="0 0 63 63" fill="none" xmlns="http://www.w3.org/2000/svg">
<g clip-path="url(#clip0_0_287)">
<path fill-rule="evenodd" clip-rule="evenodd" d="M57.7705 5.16797H45.5644C45.0715 5.16794 44.5834 5.26503 44.128 5.45369C43.6726 5.64236 43.2589 5.9189 42.9104 6.26752L14.2989 34.8785H14.2992L10.0817 39.0959C9.37787 39.7998 8.98244 40.7545 8.98242 41.7499V53.9561C8.98242 56.0285 10.6625 57.7087 12.7351 57.709H24.9416C25.937 57.709 26.8918 57.3135 27.5956 56.6094L31.813 52.392V52.3925L60.4243 23.781C61.1281 23.0771 61.5234 22.1224 61.5234 21.127V8.9209C61.5234 6.84842 59.8434 5.16821 57.7706 5.16797H57.7705Z" fill="#BEBEBE"/>
<path fill-rule="evenodd" clip-rule="evenodd" d="M12.7354 5.16797H24.9416C25.9369 5.16797 26.8915 5.56335 27.5954 6.26715L35.2529 13.9248V24.7394C35.2529 28.4392 32.2537 31.4385 28.5539 31.4385H17.7393L10.0816 23.7809C9.3778 23.0771 8.98242 22.1225 8.98242 21.1271V8.9209C8.98242 6.84817 10.6626 5.16797 12.7354 5.16797Z" fill="#E2E2E2"/>
<path fill-rule="evenodd" clip-rule="evenodd" d="M57.7715 57.708H45.5652C45.0724 57.708 44.5844 57.611 44.129 57.4224C43.6737 57.2338 43.26 56.9573 42.9115 56.6088L35.2539 48.9511V38.1365C35.2539 34.4368 38.2532 31.4375 41.9528 31.4375H52.7675L60.4252 39.0951C60.7737 39.4436 61.0502 39.8573 61.2388 40.3126C61.4274 40.768 61.5244 41.256 61.5244 41.7488V53.9551C61.5244 56.0278 59.8442 57.708 57.7715 57.708Z" fill="#AFAFAF"/>
<path fill-rule="evenodd" clip-rule="evenodd" d="M32.751 14.5508H8.98242V50.2036H32.751C34.1311 50.1996 35.249 49.0817 35.2531 47.7016V17.0527C35.2489 15.6725 34.1311 14.5548 32.7509 14.5508H32.751Z" fill="black" fill-opacity="0.1"/>
<path fill-rule="evenodd" clip-rule="evenodd" d="M30.8746 16.4258H8.98242V52.0786H30.8746C32.2546 52.0746 33.3725 50.9567 33.3766 49.5766V18.9277C33.3724 17.5475 32.2546 16.4298 30.8744 16.4258H30.8746Z" fill="black" fill-opacity="0.2"/>
<path fill-rule="evenodd" clip-rule="evenodd" d="M30.8746 16.4258H8.98242V48.3257H30.8746C32.2546 48.3216 33.3725 47.2037 33.3766 45.8236V18.9277C33.3724 17.5475 32.2546 16.4298 30.8744 16.4258H30.8746Z" fill="black" fill-opacity="0.2"/>
<path fill-rule="evenodd" clip-rule="evenodd" d="M28.9981 16.4258H8.98242V48.3257H28.9981C30.3782 48.3216 31.4961 47.2037 31.5001 45.8236V18.9277C31.4959 17.5475 30.3781 16.4298 28.998 16.4258H28.9981Z" fill="black" fill-opacity="0.2"/>
<path fill-rule="evenodd" clip-rule="evenodd" d="M3.97847 16.4258H28.9981C30.3799 16.4258 31.5 17.546 31.5 18.9277V43.9473C31.5 45.329 30.3799 46.4492 28.9981 46.4492H3.97847C2.59666 46.4492 1.47656 45.329 1.47656 43.9473V18.9277C1.47656 17.5459 2.59666 16.4258 3.97847 16.4258Z" fill="#AFAFAF"/>
<path fill-rule="evenodd" clip-rule="evenodd" d="M22.1599 25.1059H14.0597V29.8426H21.6628V32.8785H14.0597V37.7983H22.5915V40.8213H10.3828V22.0566H22.1599V25.106V25.1059Z" fill="white"/>
</g>
<defs>
<clipPath id="clip0_0_287">
<rect width="63" height="63" fill="white"/>
</clipPath>
</defs>
</svg>
