<svg width="971" height="193" viewBox="0 0 971 193" fill="none" xmlns="http://www.w3.org/2000/svg">
<path d="M66.6488 117V58.5H105.349V66.975H77.0738V81.675H99.1238V89.7H77.0738V108.525H105.799V117H66.6488ZM115.78 117V58.5H134.305L155.005 108.675H156.805V58.5H166.33V117H147.73L127.105 66.825H125.305V117H115.78ZM200.547 118.05C195.097 118.05 190.497 116.775 186.747 114.225C182.997 111.675 180.147 108.1 178.197 103.5C176.247 98.9 175.272 93.6 175.272 87.6C175.272 81.5 176.247 76.2 178.197 71.7C180.197 67.15 183.172 63.65 187.122 61.2C191.122 58.7 196.072 57.45 201.972 57.45C206.872 57.45 211.022 58.3 214.422 60C217.822 61.7 220.497 64.1 222.447 67.2C224.397 70.25 225.647 73.85 226.197 78H215.997C215.397 74 213.897 70.925 211.497 68.775C209.097 66.625 205.847 65.55 201.747 65.55C196.347 65.55 192.347 67.5 189.747 71.4C187.147 75.3 185.847 80.7 185.847 87.6C185.847 94.75 187.222 100.3 189.972 104.25C192.722 108.15 196.747 110.1 202.047 110.1C206.497 110.1 209.947 108.8 212.397 106.2C214.897 103.55 216.272 99.925 216.522 95.325H198.747V87.375H226.272V117H218.322V110.025H216.522C215.472 112.175 213.697 114.05 211.197 115.65C208.747 117.25 205.197 118.05 200.547 118.05ZM232.359 117V116.55L250.659 58.5H267.309L285.684 116.55V117H274.809L259.584 66.675H257.784L242.409 117H232.359ZM245.859 101.175L248.334 92.925H268.959L271.434 101.175H245.859ZM313.047 118.05C307.597 118.05 302.997 116.775 299.247 114.225C295.497 111.675 292.647 108.1 290.697 103.5C288.747 98.9 287.772 93.6 287.772 87.6C287.772 81.5 288.747 76.2 290.697 71.7C292.697 67.15 295.672 63.65 299.622 61.2C303.622 58.7 308.572 57.45 314.472 57.45C319.372 57.45 323.522 58.3 326.922 60C330.322 61.7 332.997 64.1 334.947 67.2C336.897 70.25 338.147 73.85 338.697 78H328.497C327.897 74 326.397 70.925 323.997 68.775C321.597 66.625 318.347 65.55 314.247 65.55C308.847 65.55 304.847 67.5 302.247 71.4C299.647 75.3 298.347 80.7 298.347 87.6C298.347 94.75 299.722 100.3 302.472 104.25C305.222 108.15 309.247 110.1 314.547 110.1C318.997 110.1 322.447 108.8 324.897 106.2C327.397 103.55 328.772 99.925 329.022 95.325H311.247V87.375H338.772V117H330.822V110.025H329.022C327.972 112.175 326.197 114.05 323.697 115.65C321.247 117.25 317.697 118.05 313.047 118.05ZM349.393 117V58.5H388.093V66.975H359.818V81.675H381.868V89.7H359.818V108.525H388.543V117H349.393ZM610.93 117V58.5H621.43V117H610.93ZM634.071 117V58.5H652.596L673.296 108.675H675.096V58.5H684.621V117H666.021L645.396 66.825H643.596V117H634.071ZM717.863 118.125C713.663 118.125 710.063 117.55 707.063 116.4C704.063 115.25 701.588 113.725 699.638 111.825C697.688 109.875 696.213 107.675 695.213 105.225C694.213 102.775 693.638 100.275 693.488 97.725H703.388C703.538 99.725 704.163 101.675 705.263 103.575C706.363 105.475 707.988 107.025 710.138 108.225C712.288 109.425 714.988 110.025 718.238 110.025C721.738 110.025 724.413 109.275 726.263 107.775C728.163 106.275 729.113 104.25 729.113 101.7C729.113 99.25 728.238 97.325 726.488 95.925C724.788 94.475 722.588 93.3 719.888 92.4L712.838 90.075C710.038 89.125 707.363 88 704.813 86.7C702.313 85.4 700.238 83.7 698.588 81.6C696.988 79.45 696.188 76.675 696.188 73.275C696.188 69.875 697.013 67 698.663 64.65C700.363 62.3 702.713 60.5 705.713 59.25C708.713 58 712.163 57.375 716.063 57.375C720.963 57.375 724.888 58.225 727.838 59.925C730.838 61.625 733.038 63.8 734.438 66.45C735.888 69.1 736.738 71.95 736.988 75H727.088C726.938 73.4 726.463 71.875 725.663 70.425C724.913 68.925 723.738 67.725 722.138 66.825C720.538 65.875 718.388 65.4 715.688 65.4C712.688 65.4 710.363 66.05 708.713 67.35C707.113 68.65 706.313 70.35 706.313 72.45C706.313 74.8 707.213 76.65 709.013 78C710.813 79.3 713.063 80.4 715.763 81.3L722.888 83.625C725.688 84.525 728.313 85.65 730.763 87C733.263 88.3 735.288 90.05 736.838 92.25C738.438 94.4 739.238 97.275 739.238 100.875C739.238 106.275 737.338 110.5 733.538 113.55C729.738 116.6 724.513 118.125 717.863 118.125ZM748.856 117V58.5H771.506C779.006 58.5 784.456 60.075 787.856 63.225C791.306 66.325 793.031 70.5 793.031 75.75C793.031 81 791.306 85.2 787.856 88.35C784.456 91.5 779.006 93.075 771.506 93.075H759.281V117H748.856ZM759.281 84.9H770.381C774.431 84.9 777.456 84.2 779.456 82.8C781.456 81.4 782.456 79.075 782.456 75.825C782.456 72.575 781.456 70.225 779.456 68.775C777.456 67.325 774.431 66.6 770.381 66.6H759.281V84.9ZM801.916 117V58.5H812.416V117H801.916ZM825.057 117V58.5H848.382C853.382 58.5 857.407 59.225 860.457 60.675C863.507 62.075 865.732 63.975 867.132 66.375C868.582 68.775 869.307 71.525 869.307 74.625C869.307 78.375 868.282 81.575 866.232 84.225C864.182 86.875 861.182 88.725 857.232 89.775L870.882 116.55V117H859.782L846.957 91.275H835.407V117H825.057ZM835.407 83.4H847.257C851.107 83.4 853.957 82.725 855.807 81.375C857.657 80.025 858.582 77.9 858.582 75C858.582 72.05 857.632 69.925 855.732 68.625C853.882 67.275 851.057 66.6 847.257 66.6H835.407V83.4ZM878.67 117V58.5H917.37V66.975H889.095V81.675H911.145V89.7H889.095V108.525H917.82V117H878.67Z" fill="#0223B5"/>
<path d="M411.216 117V116.55L429.516 58.5H446.166L464.541 116.55V117H453.666L438.441 66.675H436.641L421.266 117H411.216ZM424.716 101.175L427.191 92.925H447.816L450.291 101.175H424.716ZM471.649 117V58.5H490.174L510.874 108.675H512.674V58.5H522.199V117H503.599L482.974 66.825H481.174V117H471.649ZM534.666 117V58.5H554.691C564.941 58.5 572.366 61.075 576.966 66.225C581.566 71.325 583.866 78.5 583.866 87.75C583.866 97 581.566 104.2 576.966 109.35C572.366 114.45 564.941 117 554.691 117H534.666ZM545.241 108.6H553.941C558.341 108.6 561.941 107.9 564.741 106.5C567.591 105.1 569.691 102.875 571.041 99.825C572.391 96.775 573.066 92.75 573.066 87.75C573.066 82.75 572.391 78.725 571.041 75.675C569.691 72.625 567.591 70.4 564.741 69C561.941 67.6 558.341 66.9 553.941 66.9H545.241V108.6Z" fill="#232323"/>
<path d="M957.06 38.9572L944.494 45.8374M945.43 1.00022L927.653 29.3944" stroke="#0223B5" stroke-width="3"/>
<path d="M957.06 123.596L944.494 116.715M945.43 161.553L927.653 133.158" stroke="#0223B5" stroke-width="3"/>
<path d="M211.968 189.092H209.592V163.028H211.968V166.268C212.544 165.38 213.264 164.66 214.128 164.108C214.896 163.628 215.652 163.292 216.396 163.1C217.164 162.908 218.004 162.812 218.916 162.812C220.404 162.812 221.676 163.088 222.732 163.64C223.788 164.192 224.652 164.936 225.324 165.872C225.996 166.808 226.476 167.9 226.764 169.148C227.052 170.372 227.184 171.656 227.16 173C227.112 174.632 226.824 176.108 226.296 177.428C225.792 178.748 225 179.816 223.92 180.632C223.272 181.136 222.492 181.532 221.58 181.82C220.692 182.084 219.708 182.216 218.628 182.216C218.004 182.216 217.38 182.168 216.756 182.072C216.132 182 215.532 181.856 214.956 181.64C214.38 181.424 213.828 181.124 213.3 180.74C212.796 180.356 212.352 179.864 211.968 179.264V189.092ZM218.484 180.2C219.612 180.2 220.572 179.996 221.364 179.588C222.156 179.18 222.804 178.628 223.308 177.932C223.812 177.212 224.184 176.396 224.424 175.484C224.664 174.548 224.784 173.576 224.784 172.568C224.784 171.536 224.664 170.552 224.424 169.616C224.208 168.656 223.848 167.828 223.344 167.132C222.84 166.436 222.18 165.884 221.364 165.476C220.572 165.044 219.588 164.828 218.412 164.828C217.356 164.828 216.396 165.068 215.532 165.548C214.692 166.004 213.996 166.604 213.444 167.348C212.892 168.044 212.496 168.848 212.256 169.76C212.016 170.648 211.896 171.584 211.896 172.568C211.896 173.744 212.076 174.92 212.436 176.096C212.82 177.272 213.504 178.232 214.488 178.976C215.592 179.792 216.924 180.2 218.484 180.2ZM233.29 173.288C233.338 174.296 233.506 175.22 233.794 176.06C234.106 176.9 234.538 177.632 235.09 178.256C235.642 178.856 236.314 179.336 237.106 179.696C237.922 180.032 238.87 180.2 239.95 180.2C240.454 180.2 240.958 180.152 241.462 180.056C241.99 179.96 242.482 179.816 242.938 179.624C243.418 179.408 243.85 179.132 244.234 178.796C244.618 178.46 244.918 178.04 245.134 177.536H247.618C247.354 178.376 246.946 179.096 246.394 179.696C245.866 180.296 245.254 180.788 244.558 181.172C243.862 181.532 243.106 181.796 242.29 181.964C241.474 182.132 240.658 182.216 239.842 182.216C238.354 182.216 237.046 181.976 235.918 181.496C234.814 181.016 233.89 180.356 233.146 179.516C232.402 178.652 231.85 177.632 231.49 176.456C231.13 175.256 230.95 173.948 230.95 172.532C230.95 171.092 231.142 169.772 231.526 168.572C231.91 167.372 232.474 166.352 233.218 165.512C233.986 164.648 234.922 163.988 236.026 163.532C237.154 163.052 238.438 162.812 239.878 162.812C241.39 162.812 242.662 163.112 243.694 163.712C244.75 164.312 245.602 165.104 246.25 166.088C246.898 167.048 247.354 168.164 247.618 169.436C247.906 170.684 248.026 171.968 247.978 173.288H233.29ZM245.566 171.308C245.542 170.444 245.398 169.616 245.134 168.824C244.894 168.032 244.522 167.348 244.018 166.772C243.538 166.172 242.926 165.704 242.182 165.368C241.438 165.008 240.574 164.828 239.59 164.828C238.606 164.828 237.73 165.008 236.962 165.368C236.218 165.728 235.582 166.208 235.054 166.808C234.526 167.408 234.118 168.104 233.83 168.896C233.542 169.664 233.374 170.468 233.326 171.308H245.566ZM260.691 162.812C262.179 162.812 263.475 163.052 264.579 163.532C265.707 164.012 266.643 164.684 267.387 165.548C268.155 166.412 268.731 167.444 269.115 168.644C269.499 169.82 269.691 171.116 269.691 172.532C269.691 173.948 269.499 175.256 269.115 176.456C268.731 177.632 268.155 178.652 267.387 179.516C266.643 180.356 265.707 181.016 264.579 181.496C263.475 181.976 262.179 182.216 260.691 182.216C259.203 182.216 257.895 181.976 256.767 181.496C255.663 181.016 254.727 180.356 253.959 179.516C253.215 178.652 252.651 177.632 252.267 176.456C251.907 175.256 251.727 173.948 251.727 172.532C251.727 171.116 251.907 169.82 252.267 168.644C252.651 167.444 253.215 166.412 253.959 165.548C254.727 164.684 255.663 164.012 256.767 163.532C257.895 163.052 259.203 162.812 260.691 162.812ZM260.691 180.2C261.843 180.2 262.839 180.008 263.679 179.624C264.519 179.216 265.203 178.664 265.731 177.968C266.283 177.272 266.679 176.456 266.919 175.52C267.183 174.584 267.315 173.588 267.315 172.532C267.315 171.476 267.183 170.48 266.919 169.544C266.679 168.608 266.283 167.792 265.731 167.096C265.203 166.4 264.519 165.848 263.679 165.44C262.839 165.032 261.843 164.828 260.691 164.828C259.539 164.828 258.543 165.032 257.703 165.44C256.863 165.848 256.167 166.4 255.615 167.096C255.087 167.792 254.691 168.608 254.427 169.544C254.187 170.48 254.067 171.476 254.067 172.532C254.067 173.588 254.187 174.584 254.427 175.52C254.691 176.456 255.087 177.272 255.615 177.968C256.167 178.664 256.863 179.216 257.703 179.624C258.543 180.008 259.539 180.2 260.691 180.2ZM276.515 189.092H274.139V163.028H276.515V166.268C277.091 165.38 277.811 164.66 278.675 164.108C279.443 163.628 280.199 163.292 280.943 163.1C281.711 162.908 282.551 162.812 283.463 162.812C284.951 162.812 286.223 163.088 287.279 163.64C288.335 164.192 289.199 164.936 289.871 165.872C290.543 166.808 291.023 167.9 291.311 169.148C291.599 170.372 291.731 171.656 291.707 173C291.659 174.632 291.371 176.108 290.843 177.428C290.339 178.748 289.547 179.816 288.467 180.632C287.819 181.136 287.039 181.532 286.127 181.82C285.239 182.084 284.255 182.216 283.175 182.216C282.551 182.216 281.927 182.168 281.303 182.072C280.679 182 280.079 181.856 279.503 181.64C278.927 181.424 278.375 181.124 277.847 180.74C277.343 180.356 276.899 179.864 276.515 179.264V189.092ZM283.031 180.2C284.159 180.2 285.119 179.996 285.911 179.588C286.703 179.18 287.351 178.628 287.855 177.932C288.359 177.212 288.731 176.396 288.971 175.484C289.211 174.548 289.331 173.576 289.331 172.568C289.331 171.536 289.211 170.552 288.971 169.616C288.755 168.656 288.395 167.828 287.891 167.132C287.387 166.436 286.727 165.884 285.911 165.476C285.119 165.044 284.135 164.828 282.959 164.828C281.903 164.828 280.943 165.068 280.079 165.548C279.239 166.004 278.543 166.604 277.991 167.348C277.439 168.044 277.043 168.848 276.803 169.76C276.563 170.648 276.443 171.584 276.443 172.568C276.443 173.744 276.623 174.92 276.983 176.096C277.367 177.272 278.051 178.232 279.035 178.976C280.139 179.792 281.471 180.2 283.031 180.2ZM296.217 182V156.548H298.593V182H296.217ZM305.396 173.288C305.444 174.296 305.612 175.22 305.9 176.06C306.212 176.9 306.644 177.632 307.196 178.256C307.748 178.856 308.42 179.336 309.212 179.696C310.028 180.032 310.976 180.2 312.056 180.2C312.56 180.2 313.064 180.152 313.568 180.056C314.096 179.96 314.588 179.816 315.044 179.624C315.524 179.408 315.956 179.132 316.34 178.796C316.724 178.46 317.024 178.04 317.24 177.536H319.724C319.46 178.376 319.052 179.096 318.5 179.696C317.972 180.296 317.36 180.788 316.664 181.172C315.968 181.532 315.212 181.796 314.396 181.964C313.58 182.132 312.764 182.216 311.948 182.216C310.46 182.216 309.152 181.976 308.024 181.496C306.92 181.016 305.996 180.356 305.252 179.516C304.508 178.652 303.956 177.632 303.596 176.456C303.236 175.256 303.056 173.948 303.056 172.532C303.056 171.092 303.248 169.772 303.632 168.572C304.016 167.372 304.58 166.352 305.324 165.512C306.092 164.648 307.028 163.988 308.132 163.532C309.26 163.052 310.544 162.812 311.984 162.812C313.496 162.812 314.768 163.112 315.8 163.712C316.856 164.312 317.708 165.104 318.356 166.088C319.004 167.048 319.46 168.164 319.724 169.436C320.012 170.684 320.132 171.968 320.084 173.288H305.396ZM317.672 171.308C317.648 170.444 317.504 169.616 317.24 168.824C317 168.032 316.628 167.348 316.124 166.772C315.644 166.172 315.032 165.704 314.288 165.368C313.544 165.008 312.68 164.828 311.696 164.828C310.712 164.828 309.836 165.008 309.068 165.368C308.324 165.728 307.688 166.208 307.16 166.808C306.632 167.408 306.224 168.104 305.936 168.896C305.648 169.664 305.48 170.468 305.432 171.308H317.672ZM338.468 163.028H344.552V165.044H338.468V175.736C338.468 176.288 338.492 176.828 338.54 177.356C338.612 177.884 338.756 178.364 338.972 178.796C339.188 179.204 339.5 179.54 339.908 179.804C340.34 180.068 340.916 180.2 341.636 180.2C342.092 180.2 342.548 180.14 343.004 180.02C343.484 179.876 343.868 179.672 344.156 179.408L345.092 181.1C344.54 181.532 343.952 181.832 343.328 182C342.728 182.144 342.056 182.216 341.312 182.216C340.328 182.216 339.5 182.072 338.828 181.784C338.156 181.496 337.616 181.1 337.208 180.596C336.8 180.068 336.512 179.432 336.344 178.688C336.176 177.92 336.092 177.068 336.092 176.132V165.044H332.888V163.028H336.092V157.592H338.468V163.028ZM356.633 162.812C358.121 162.812 359.417 163.052 360.521 163.532C361.649 164.012 362.585 164.684 363.329 165.548C364.097 166.412 364.673 167.444 365.057 168.644C365.441 169.82 365.633 171.116 365.633 172.532C365.633 173.948 365.441 175.256 365.057 176.456C364.673 177.632 364.097 178.652 363.329 179.516C362.585 180.356 361.649 181.016 360.521 181.496C359.417 181.976 358.121 182.216 356.633 182.216C355.145 182.216 353.837 181.976 352.709 181.496C351.605 181.016 350.669 180.356 349.901 179.516C349.157 178.652 348.593 177.632 348.209 176.456C347.849 175.256 347.669 173.948 347.669 172.532C347.669 171.116 347.849 169.82 348.209 168.644C348.593 167.444 349.157 166.412 349.901 165.548C350.669 164.684 351.605 164.012 352.709 163.532C353.837 163.052 355.145 162.812 356.633 162.812ZM356.633 180.2C357.785 180.2 358.781 180.008 359.621 179.624C360.461 179.216 361.145 178.664 361.673 177.968C362.225 177.272 362.621 176.456 362.861 175.52C363.125 174.584 363.257 173.588 363.257 172.532C363.257 171.476 363.125 170.48 362.861 169.544C362.621 168.608 362.225 167.792 361.673 167.096C361.145 166.4 360.461 165.848 359.621 165.44C358.781 165.032 357.785 164.828 356.633 164.828C355.481 164.828 354.485 165.032 353.645 165.44C352.805 165.848 352.109 166.4 351.557 167.096C351.029 167.792 350.633 168.608 350.369 169.544C350.129 170.48 350.009 171.476 350.009 172.532C350.009 173.588 350.129 174.584 350.369 175.52C350.633 176.456 351.029 177.272 351.557 177.968C352.109 178.664 352.805 179.216 353.645 179.624C354.485 180.008 355.481 180.2 356.633 180.2ZM381.403 173.288C381.451 174.296 381.619 175.22 381.907 176.06C382.219 176.9 382.651 177.632 383.203 178.256C383.755 178.856 384.427 179.336 385.219 179.696C386.035 180.032 386.983 180.2 388.063 180.2C388.567 180.2 389.071 180.152 389.575 180.056C390.103 179.96 390.595 179.816 391.051 179.624C391.531 179.408 391.963 179.132 392.347 178.796C392.731 178.46 393.031 178.04 393.247 177.536H395.731C395.467 178.376 395.059 179.096 394.507 179.696C393.979 180.296 393.367 180.788 392.671 181.172C391.975 181.532 391.219 181.796 390.403 181.964C389.587 182.132 388.771 182.216 387.955 182.216C386.467 182.216 385.159 181.976 384.031 181.496C382.927 181.016 382.003 180.356 381.259 179.516C380.515 178.652 379.963 177.632 379.603 176.456C379.243 175.256 379.063 173.948 379.063 172.532C379.063 171.092 379.255 169.772 379.639 168.572C380.023 167.372 380.587 166.352 381.331 165.512C382.099 164.648 383.035 163.988 384.139 163.532C385.267 163.052 386.551 162.812 387.991 162.812C389.503 162.812 390.775 163.112 391.807 163.712C392.863 164.312 393.715 165.104 394.363 166.088C395.011 167.048 395.467 168.164 395.731 169.436C396.019 170.684 396.139 171.968 396.091 173.288H381.403ZM393.679 171.308C393.655 170.444 393.511 169.616 393.247 168.824C393.007 168.032 392.635 167.348 392.131 166.772C391.651 166.172 391.039 165.704 390.295 165.368C389.551 165.008 388.687 164.828 387.703 164.828C386.719 164.828 385.843 165.008 385.075 165.368C384.331 165.728 383.695 166.208 383.167 166.808C382.639 167.408 382.231 168.104 381.943 168.896C381.655 169.664 381.487 170.468 381.439 171.308H393.679ZM402.153 165.008H398.949V163.028H402.153V161.12C402.153 160.232 402.189 159.452 402.261 158.78C402.333 158.084 402.525 157.46 402.837 156.908C403.269 156.14 403.869 155.564 404.637 155.18C405.429 154.772 406.545 154.568 407.985 154.568H409.821V156.548H408.237C407.685 156.548 407.133 156.596 406.581 156.692C406.053 156.764 405.609 157.028 405.249 157.484C404.889 157.964 404.673 158.516 404.601 159.14C404.553 159.74 404.529 160.46 404.529 161.3V163.028H409.821V165.008H404.529V182H402.153V165.008ZM415.337 165.008H412.133V163.028H415.337V161.12C415.337 160.232 415.373 159.452 415.445 158.78C415.517 158.084 415.709 157.46 416.021 156.908C416.453 156.14 417.053 155.564 417.821 155.18C418.613 154.772 419.729 154.568 421.169 154.568H423.005V156.548H421.421C420.869 156.548 420.317 156.596 419.765 156.692C419.237 156.764 418.793 157.028 418.433 157.484C418.073 157.964 417.857 158.516 417.785 159.14C417.737 159.74 417.713 160.46 417.713 161.3V163.028H423.005V165.008H417.713V182H415.337V165.008ZM434.469 162.812C435.957 162.812 437.253 163.052 438.357 163.532C439.485 164.012 440.421 164.684 441.165 165.548C441.933 166.412 442.509 167.444 442.893 168.644C443.277 169.82 443.469 171.116 443.469 172.532C443.469 173.948 443.277 175.256 442.893 176.456C442.509 177.632 441.933 178.652 441.165 179.516C440.421 180.356 439.485 181.016 438.357 181.496C437.253 181.976 435.957 182.216 434.469 182.216C432.981 182.216 431.673 181.976 430.545 181.496C429.441 181.016 428.505 180.356 427.737 179.516C426.993 178.652 426.429 177.632 426.045 176.456C425.685 175.256 425.505 173.948 425.505 172.532C425.505 171.116 425.685 169.82 426.045 168.644C426.429 167.444 426.993 166.412 427.737 165.548C428.505 164.684 429.441 164.012 430.545 163.532C431.673 163.052 432.981 162.812 434.469 162.812ZM434.469 180.2C435.621 180.2 436.617 180.008 437.457 179.624C438.297 179.216 438.981 178.664 439.509 177.968C440.061 177.272 440.457 176.456 440.697 175.52C440.961 174.584 441.093 173.588 441.093 172.532C441.093 171.476 440.961 170.48 440.697 169.544C440.457 168.608 440.061 167.792 439.509 167.096C438.981 166.4 438.297 165.848 437.457 165.44C436.617 165.032 435.621 164.828 434.469 164.828C433.317 164.828 432.321 165.032 431.481 165.44C430.641 165.848 429.945 166.4 429.393 167.096C428.865 167.792 428.469 168.608 428.205 169.544C427.965 170.48 427.845 171.476 427.845 172.532C427.845 173.588 427.965 174.584 428.205 175.52C428.469 176.456 428.865 177.272 429.393 177.968C429.945 178.664 430.641 179.216 431.481 179.624C432.321 180.008 433.317 180.2 434.469 180.2ZM447.916 182V163.028H450.22L450.292 166.304C450.724 165.584 451.204 164.996 451.732 164.54C452.284 164.084 452.884 163.724 453.532 163.46C454.18 163.196 454.864 163.028 455.584 162.956C456.304 162.86 457.06 162.824 457.852 162.848V165.008H457.204C456.052 165.008 455.056 165.188 454.216 165.548C453.376 165.884 452.68 166.352 452.128 166.952C451.36 167.744 450.856 168.632 450.616 169.616C450.4 170.6 450.292 171.632 450.292 172.712V182H447.916ZM465.452 163.028H471.536V165.044H465.452V175.736C465.452 176.288 465.476 176.828 465.524 177.356C465.596 177.884 465.74 178.364 465.956 178.796C466.172 179.204 466.484 179.54 466.892 179.804C467.324 180.068 467.9 180.2 468.62 180.2C469.076 180.2 469.532 180.14 469.988 180.02C470.468 179.876 470.852 179.672 471.14 179.408L472.076 181.1C471.524 181.532 470.936 181.832 470.312 182C469.712 182.144 469.04 182.216 468.296 182.216C467.312 182.216 466.484 182.072 465.812 181.784C465.14 181.496 464.6 181.1 464.192 180.596C463.784 180.068 463.496 179.432 463.328 178.688C463.16 177.92 463.076 177.068 463.076 176.132V165.044H459.872V163.028H463.076V157.592H465.452V163.028ZM493.248 182.216C491.76 182.216 490.464 181.976 489.36 181.496C488.256 181.016 487.332 180.344 486.588 179.48C485.844 178.616 485.28 177.596 484.896 176.42C484.536 175.244 484.356 173.96 484.356 172.568C484.356 171.128 484.548 169.82 484.932 168.644C485.316 167.444 485.892 166.412 486.66 165.548C487.428 164.684 488.376 164.012 489.504 163.532C490.632 163.052 491.94 162.812 493.428 162.812C495.156 162.812 496.668 163.232 497.964 164.072C499.284 164.912 500.172 166.196 500.628 167.924H498.216C497.88 166.868 497.244 166.088 496.308 165.584C495.396 165.08 494.388 164.828 493.284 164.828C492.156 164.828 491.172 165.032 490.332 165.44C489.516 165.848 488.832 166.412 488.28 167.132C487.752 167.828 487.356 168.644 487.092 169.58C486.828 170.516 486.696 171.512 486.696 172.568C486.696 173.6 486.828 174.584 487.092 175.52C487.356 176.432 487.752 177.236 488.28 177.932C488.832 178.628 489.528 179.18 490.368 179.588C491.232 179.996 492.24 180.2 493.392 180.2C494.544 180.2 495.576 179.984 496.488 179.552C497.4 179.12 498.06 178.316 498.468 177.14H500.916C500.652 178.028 500.268 178.796 499.764 179.444C499.26 180.068 498.66 180.596 497.964 181.028C497.292 181.436 496.548 181.736 495.732 181.928C494.916 182.12 494.088 182.216 493.248 182.216ZM505.151 182V156.548H507.527V166.196C507.863 165.62 508.259 165.128 508.715 164.72C509.195 164.312 509.735 163.952 510.335 163.64C510.935 163.352 511.583 163.148 512.279 163.028C512.999 162.884 513.719 162.812 514.439 162.812C515.447 162.812 516.347 162.956 517.139 163.244C517.931 163.532 518.603 163.916 519.155 164.396C520.067 165.164 520.703 166.16 521.063 167.384C521.423 168.608 521.603 169.976 521.603 171.488V182H519.227V172.352C519.227 171.224 519.131 170.144 518.939 169.112C518.771 168.056 518.387 167.156 517.787 166.412C517.379 165.932 516.875 165.548 516.275 165.26C515.675 164.972 514.919 164.828 514.007 164.828C513.023 164.828 512.111 165.032 511.271 165.44C510.455 165.824 509.771 166.352 509.219 167.024C508.619 167.744 508.187 168.572 507.923 169.508C507.659 170.444 507.527 171.428 507.527 172.46V182H505.151ZM539.554 179.264C538.642 180.368 537.598 181.136 536.422 181.568C535.27 182 533.998 182.216 532.606 182.216C531.766 182.216 530.95 182.12 530.158 181.928C529.39 181.712 528.694 181.376 528.07 180.92C527.446 180.464 526.942 179.888 526.558 179.192C526.198 178.472 526.018 177.668 526.018 176.78C526.018 175.7 526.222 174.8 526.63 174.08C527.038 173.36 527.566 172.784 528.214 172.352C528.886 171.92 529.654 171.62 530.518 171.452C531.382 171.26 532.282 171.164 533.218 171.164H539.446C539.446 170.3 539.35 169.484 539.158 168.716C538.99 167.948 538.702 167.276 538.294 166.7C537.886 166.124 537.346 165.668 536.674 165.332C536.026 164.996 535.222 164.828 534.262 164.828C533.806 164.828 533.338 164.864 532.858 164.936C532.402 165.008 531.958 165.128 531.526 165.296C531.118 165.464 530.734 165.704 530.374 166.016C530.038 166.304 529.762 166.664 529.546 167.096H526.954C527.17 166.304 527.53 165.644 528.034 165.116C528.538 164.564 529.126 164.12 529.798 163.784C530.494 163.424 531.226 163.172 531.994 163.028C532.786 162.884 533.566 162.812 534.334 162.812C535.726 162.812 536.902 163.04 537.862 163.496C538.822 163.952 539.59 164.588 540.166 165.404C540.766 166.196 541.186 167.132 541.426 168.212C541.69 169.292 541.822 170.456 541.822 171.704V182H539.878L539.554 179.264ZM534.442 173.072C533.818 173.072 533.146 173.096 532.426 173.144C531.73 173.192 531.082 173.336 530.482 173.576C529.882 173.792 529.378 174.14 528.97 174.62C528.586 175.076 528.394 175.712 528.394 176.528C528.394 177.176 528.514 177.728 528.754 178.184C529.018 178.64 529.354 179.024 529.762 179.336C530.194 179.648 530.674 179.876 531.202 180.02C531.754 180.164 532.318 180.236 532.894 180.236C533.83 180.236 534.694 180.116 535.486 179.876C536.302 179.636 536.998 179.276 537.574 178.796C538.174 178.292 538.63 177.68 538.942 176.96C539.278 176.216 539.446 175.352 539.446 174.368V173.072H534.442ZM546.951 182V156.548H549.327V182H546.951ZM554.51 182V156.548H556.886V182H554.51ZM563.689 173.288C563.737 174.296 563.905 175.22 564.193 176.06C564.505 176.9 564.937 177.632 565.489 178.256C566.041 178.856 566.713 179.336 567.505 179.696C568.321 180.032 569.269 180.2 570.349 180.2C570.853 180.2 571.357 180.152 571.861 180.056C572.389 179.96 572.881 179.816 573.337 179.624C573.817 179.408 574.249 179.132 574.633 178.796C575.017 178.46 575.317 178.04 575.533 177.536H578.017C577.753 178.376 577.345 179.096 576.793 179.696C576.265 180.296 575.653 180.788 574.957 181.172C574.261 181.532 573.505 181.796 572.689 181.964C571.873 182.132 571.057 182.216 570.241 182.216C568.753 182.216 567.445 181.976 566.317 181.496C565.213 181.016 564.289 180.356 563.545 179.516C562.801 178.652 562.249 177.632 561.889 176.456C561.529 175.256 561.349 173.948 561.349 172.532C561.349 171.092 561.541 169.772 561.925 168.572C562.309 167.372 562.873 166.352 563.617 165.512C564.385 164.648 565.321 163.988 566.425 163.532C567.553 163.052 568.837 162.812 570.277 162.812C571.789 162.812 573.061 163.112 574.093 163.712C575.149 164.312 576.001 165.104 576.649 166.088C577.297 167.048 577.753 168.164 578.017 169.436C578.305 170.684 578.425 171.968 578.377 173.288H563.689ZM575.965 171.308C575.941 170.444 575.797 169.616 575.533 168.824C575.293 168.032 574.921 167.348 574.417 166.772C573.937 166.172 573.325 165.704 572.581 165.368C571.837 165.008 570.973 164.828 569.989 164.828C569.005 164.828 568.129 165.008 567.361 165.368C566.617 165.728 565.981 166.208 565.453 166.808C564.925 167.408 564.517 168.104 564.229 168.896C563.941 169.664 563.773 170.468 563.725 171.308H575.965ZM582.846 182V163.028H585.15L585.222 166.268C585.558 165.692 585.978 165.188 586.482 164.756C586.986 164.3 587.514 163.94 588.066 163.676C588.69 163.364 589.326 163.148 589.974 163.028C590.646 162.884 591.366 162.812 592.134 162.812C593.166 162.812 594.066 162.956 594.834 163.244C595.626 163.532 596.298 163.916 596.85 164.396C597.762 165.164 598.398 166.16 598.758 167.384C599.118 168.608 599.298 169.976 599.298 171.488V182H596.922V172.352C596.922 171.224 596.826 170.144 596.634 169.112C596.466 168.056 596.082 167.156 595.482 166.412C595.074 165.932 594.57 165.548 593.97 165.26C593.37 164.972 592.614 164.828 591.702 164.828C590.718 164.828 589.818 165.032 589.002 165.44C588.186 165.848 587.502 166.376 586.95 167.024C586.326 167.744 585.882 168.572 585.618 169.508C585.354 170.444 585.222 171.428 585.222 172.46V182H582.846ZM619.014 163.028H621.246V181.388C621.246 182.972 621.09 184.316 620.778 185.42C620.466 186.548 619.962 187.508 619.266 188.3C618.594 189.116 617.706 189.74 616.602 190.172C615.522 190.604 614.214 190.82 612.678 190.82C611.742 190.82 610.854 190.724 610.014 190.532C609.174 190.364 608.406 190.076 607.71 189.668C607.038 189.26 606.45 188.732 605.946 188.084C605.466 187.46 605.106 186.692 604.866 185.78H607.314C607.506 186.356 607.794 186.836 608.178 187.22C608.586 187.604 609.042 187.904 609.546 188.12C610.05 188.36 610.578 188.528 611.13 188.624C611.706 188.744 612.27 188.804 612.822 188.804C614.046 188.804 615.042 188.612 615.81 188.228C616.602 187.868 617.214 187.352 617.646 186.68C618.102 186.008 618.414 185.216 618.582 184.304C618.774 183.416 618.87 182.432 618.87 181.352V178.976C618.078 180.128 617.094 180.956 615.918 181.46C614.766 181.964 613.47 182.216 612.03 182.216C610.518 182.216 609.21 181.94 608.106 181.388C607.026 180.836 606.15 180.092 605.478 179.156C604.83 178.22 604.35 177.14 604.038 175.916C603.75 174.668 603.63 173.372 603.678 172.028C603.702 170.708 603.906 169.496 604.29 168.392C604.698 167.264 605.262 166.292 605.982 165.476C606.702 164.636 607.602 163.988 608.682 163.532C609.762 163.052 610.998 162.812 612.39 162.812C613.71 162.812 614.934 163.04 616.062 163.496C617.19 163.952 618.126 164.696 618.87 165.728L619.014 163.028ZM612.354 164.828C611.226 164.828 610.266 165.044 609.474 165.476C608.682 165.884 608.034 166.448 607.53 167.168C607.026 167.864 606.654 168.668 606.414 169.58C606.174 170.492 606.054 171.452 606.054 172.46C606.054 173.516 606.162 174.512 606.378 175.448C606.618 176.384 606.99 177.2 607.494 177.896C607.998 178.592 608.646 179.156 609.438 179.588C610.254 179.996 611.25 180.2 612.426 180.2C613.482 180.2 614.43 179.972 615.27 179.516C616.134 179.036 616.842 178.436 617.394 177.716C617.946 176.996 618.342 176.192 618.582 175.304C618.822 174.392 618.942 173.444 618.942 172.46C618.942 171.284 618.75 170.12 618.366 168.968C618.006 167.792 617.334 166.832 616.35 166.088C615.222 165.248 613.89 164.828 612.354 164.828ZM627.916 156.188C628.444 156.188 628.876 156.344 629.212 156.656C629.548 156.968 629.716 157.388 629.716 157.916C629.716 158.468 629.548 158.9 629.212 159.212C628.876 159.524 628.444 159.68 627.916 159.68C627.388 159.68 626.956 159.524 626.62 159.212C626.308 158.9 626.152 158.468 626.152 157.916C626.152 157.364 626.308 156.944 626.62 156.656C626.956 156.344 627.388 156.188 627.916 156.188ZM626.728 163.028H629.104V182H626.728V163.028ZM634.596 182V163.028H636.9L636.972 166.268C637.308 165.692 637.728 165.188 638.232 164.756C638.736 164.3 639.264 163.94 639.816 163.676C640.44 163.364 641.076 163.148 641.724 163.028C642.396 162.884 643.116 162.812 643.884 162.812C644.916 162.812 645.816 162.956 646.584 163.244C647.376 163.532 648.048 163.916 648.6 164.396C649.512 165.164 650.148 166.16 650.508 167.384C650.868 168.608 651.048 169.976 651.048 171.488V182H648.672V172.352C648.672 171.224 648.576 170.144 648.384 169.112C648.216 168.056 647.832 167.156 647.232 166.412C646.824 165.932 646.32 165.548 645.72 165.26C645.12 164.972 644.364 164.828 643.452 164.828C642.468 164.828 641.568 165.032 640.752 165.44C639.936 165.848 639.252 166.376 638.7 167.024C638.076 167.744 637.632 168.572 637.368 169.508C637.104 170.444 636.972 171.428 636.972 172.46V182H634.596ZM670.764 163.028H672.996V181.388C672.996 182.972 672.84 184.316 672.528 185.42C672.216 186.548 671.712 187.508 671.016 188.3C670.344 189.116 669.456 189.74 668.352 190.172C667.272 190.604 665.964 190.82 664.428 190.82C663.492 190.82 662.604 190.724 661.764 190.532C660.924 190.364 660.156 190.076 659.46 189.668C658.788 189.26 658.2 188.732 657.696 188.084C657.216 187.46 656.856 186.692 656.616 185.78H659.064C659.256 186.356 659.544 186.836 659.928 187.22C660.336 187.604 660.792 187.904 661.296 188.12C661.8 188.36 662.328 188.528 662.88 188.624C663.456 188.744 664.02 188.804 664.572 188.804C665.796 188.804 666.792 188.612 667.56 188.228C668.352 187.868 668.964 187.352 669.396 186.68C669.852 186.008 670.164 185.216 670.332 184.304C670.524 183.416 670.62 182.432 670.62 181.352V178.976C669.828 180.128 668.844 180.956 667.668 181.46C666.516 181.964 665.22 182.216 663.78 182.216C662.268 182.216 660.96 181.94 659.856 181.388C658.776 180.836 657.9 180.092 657.228 179.156C656.58 178.22 656.1 177.14 655.788 175.916C655.5 174.668 655.38 173.372 655.428 172.028C655.452 170.708 655.656 169.496 656.04 168.392C656.448 167.264 657.012 166.292 657.732 165.476C658.452 164.636 659.352 163.988 660.432 163.532C661.512 163.052 662.748 162.812 664.14 162.812C665.46 162.812 666.684 163.04 667.812 163.496C668.94 163.952 669.876 164.696 670.62 165.728L670.764 163.028ZM664.104 164.828C662.976 164.828 662.016 165.044 661.224 165.476C660.432 165.884 659.784 166.448 659.28 167.168C658.776 167.864 658.404 168.668 658.164 169.58C657.924 170.492 657.804 171.452 657.804 172.46C657.804 173.516 657.912 174.512 658.128 175.448C658.368 176.384 658.74 177.2 659.244 177.896C659.748 178.592 660.396 179.156 661.188 179.588C662.004 179.996 663 180.2 664.176 180.2C665.232 180.2 666.18 179.972 667.02 179.516C667.884 179.036 668.592 178.436 669.144 177.716C669.696 176.996 670.092 176.192 670.332 175.304C670.572 174.392 670.692 173.444 670.692 172.46C670.692 171.284 670.5 170.12 670.116 168.968C669.756 167.792 669.084 166.832 668.1 166.088C666.972 165.248 665.64 164.828 664.104 164.828ZM702.545 163.028H704.777V181.388C704.777 182.972 704.621 184.316 704.309 185.42C703.997 186.548 703.493 187.508 702.797 188.3C702.125 189.116 701.237 189.74 700.133 190.172C699.053 190.604 697.745 190.82 696.209 190.82C695.273 190.82 694.385 190.724 693.545 190.532C692.705 190.364 691.937 190.076 691.241 189.668C690.569 189.26 689.981 188.732 689.477 188.084C688.997 187.46 688.637 186.692 688.397 185.78H690.845C691.037 186.356 691.325 186.836 691.709 187.22C692.117 187.604 692.573 187.904 693.077 188.12C693.581 188.36 694.109 188.528 694.661 188.624C695.237 188.744 695.801 188.804 696.353 188.804C697.577 188.804 698.573 188.612 699.341 188.228C700.133 187.868 700.745 187.352 701.177 186.68C701.633 186.008 701.945 185.216 702.113 184.304C702.305 183.416 702.401 182.432 702.401 181.352V178.976C701.609 180.128 700.625 180.956 699.449 181.46C698.297 181.964 697.001 182.216 695.561 182.216C694.049 182.216 692.741 181.94 691.637 181.388C690.557 180.836 689.681 180.092 689.009 179.156C688.361 178.22 687.881 177.14 687.569 175.916C687.281 174.668 687.161 173.372 687.209 172.028C687.233 170.708 687.437 169.496 687.821 168.392C688.229 167.264 688.793 166.292 689.513 165.476C690.233 164.636 691.133 163.988 692.213 163.532C693.293 163.052 694.529 162.812 695.921 162.812C697.241 162.812 698.465 163.04 699.593 163.496C700.721 163.952 701.657 164.696 702.401 165.728L702.545 163.028ZM695.885 164.828C694.757 164.828 693.797 165.044 693.005 165.476C692.213 165.884 691.565 166.448 691.061 167.168C690.557 167.864 690.185 168.668 689.945 169.58C689.705 170.492 689.585 171.452 689.585 172.46C689.585 173.516 689.693 174.512 689.909 175.448C690.149 176.384 690.521 177.2 691.025 177.896C691.529 178.592 692.177 179.156 692.969 179.588C693.785 179.996 694.781 180.2 695.957 180.2C697.013 180.2 697.961 179.972 698.801 179.516C699.665 179.036 700.373 178.436 700.925 177.716C701.477 176.996 701.873 176.192 702.113 175.304C702.353 174.392 702.473 173.444 702.473 172.46C702.473 171.284 702.281 170.12 701.897 168.968C701.537 167.792 700.865 166.832 699.881 166.088C698.753 165.248 697.421 164.828 695.885 164.828ZM718.215 162.812C719.703 162.812 720.999 163.052 722.103 163.532C723.231 164.012 724.167 164.684 724.911 165.548C725.679 166.412 726.255 167.444 726.639 168.644C727.023 169.82 727.215 171.116 727.215 172.532C727.215 173.948 727.023 175.256 726.639 176.456C726.255 177.632 725.679 178.652 724.911 179.516C724.167 180.356 723.231 181.016 722.103 181.496C720.999 181.976 719.703 182.216 718.215 182.216C716.727 182.216 715.419 181.976 714.291 181.496C713.187 181.016 712.251 180.356 711.483 179.516C710.739 178.652 710.175 177.632 709.791 176.456C709.431 175.256 709.251 173.948 709.251 172.532C709.251 171.116 709.431 169.82 709.791 168.644C710.175 167.444 710.739 166.412 711.483 165.548C712.251 164.684 713.187 164.012 714.291 163.532C715.419 163.052 716.727 162.812 718.215 162.812ZM718.215 180.2C719.367 180.2 720.363 180.008 721.203 179.624C722.043 179.216 722.727 178.664 723.255 177.968C723.807 177.272 724.203 176.456 724.443 175.52C724.707 174.584 724.839 173.588 724.839 172.532C724.839 171.476 724.707 170.48 724.443 169.544C724.203 168.608 723.807 167.792 723.255 167.096C722.727 166.4 722.043 165.848 721.203 165.44C720.363 165.032 719.367 164.828 718.215 164.828C717.063 164.828 716.067 165.032 715.227 165.44C714.387 165.848 713.691 166.4 713.139 167.096C712.611 167.792 712.215 168.608 711.951 169.544C711.711 170.48 711.591 171.476 711.591 172.532C711.591 173.588 711.711 174.584 711.951 175.52C712.215 176.456 712.611 177.272 713.139 177.968C713.691 178.664 714.387 179.216 715.227 179.624C716.067 180.008 717.063 180.2 718.215 180.2ZM744.55 179.264C743.638 180.368 742.594 181.136 741.418 181.568C740.266 182 738.994 182.216 737.602 182.216C736.762 182.216 735.946 182.12 735.154 181.928C734.386 181.712 733.69 181.376 733.066 180.92C732.442 180.464 731.938 179.888 731.554 179.192C731.194 178.472 731.014 177.668 731.014 176.78C731.014 175.7 731.218 174.8 731.626 174.08C732.034 173.36 732.562 172.784 733.21 172.352C733.882 171.92 734.65 171.62 735.514 171.452C736.378 171.26 737.278 171.164 738.214 171.164H744.442C744.442 170.3 744.346 169.484 744.154 168.716C743.986 167.948 743.698 167.276 743.29 166.7C742.882 166.124 742.342 165.668 741.67 165.332C741.022 164.996 740.218 164.828 739.258 164.828C738.802 164.828 738.334 164.864 737.854 164.936C737.398 165.008 736.954 165.128 736.522 165.296C736.114 165.464 735.73 165.704 735.37 166.016C735.034 166.304 734.758 166.664 734.542 167.096H731.95C732.166 166.304 732.526 165.644 733.03 165.116C733.534 164.564 734.122 164.12 734.794 163.784C735.49 163.424 736.222 163.172 736.99 163.028C737.782 162.884 738.562 162.812 739.33 162.812C740.722 162.812 741.898 163.04 742.858 163.496C743.818 163.952 744.586 164.588 745.162 165.404C745.762 166.196 746.182 167.132 746.422 168.212C746.686 169.292 746.818 170.456 746.818 171.704V182H744.874L744.55 179.264ZM739.438 173.072C738.814 173.072 738.142 173.096 737.422 173.144C736.726 173.192 736.078 173.336 735.478 173.576C734.878 173.792 734.374 174.14 733.966 174.62C733.582 175.076 733.39 175.712 733.39 176.528C733.39 177.176 733.51 177.728 733.75 178.184C734.014 178.64 734.35 179.024 734.758 179.336C735.19 179.648 735.67 179.876 736.198 180.02C736.75 180.164 737.314 180.236 737.89 180.236C738.826 180.236 739.69 180.116 740.482 179.876C741.298 179.636 741.994 179.276 742.57 178.796C743.17 178.292 743.626 177.68 743.938 176.96C744.274 176.216 744.442 175.352 744.442 174.368V173.072H739.438ZM751.947 182V156.548H754.323V182H751.947ZM766.166 164.828C765.614 164.828 765.05 164.876 764.474 164.972C763.922 165.068 763.418 165.236 762.962 165.476C762.506 165.692 762.122 166.004 761.81 166.412C761.522 166.82 761.378 167.348 761.378 167.996C761.378 168.5 761.474 168.932 761.666 169.292C761.882 169.652 762.146 169.952 762.458 170.192C762.794 170.432 763.166 170.624 763.574 170.768C763.982 170.912 764.402 171.032 764.834 171.128C765.602 171.296 766.358 171.452 767.102 171.596C767.846 171.74 768.602 171.908 769.37 172.1C770.642 172.364 771.674 172.868 772.466 173.612C773.282 174.356 773.69 175.424 773.69 176.816C773.69 177.872 773.462 178.748 773.006 179.444C772.574 180.14 772.01 180.704 771.314 181.136C770.618 181.544 769.826 181.832 768.938 182C768.05 182.144 767.162 182.216 766.274 182.216C765.458 182.216 764.63 182.132 763.79 181.964C762.95 181.796 762.17 181.532 761.45 181.172C760.73 180.788 760.106 180.296 759.578 179.696C759.05 179.096 758.69 178.34 758.498 177.428H760.91C761.174 177.98 761.498 178.436 761.882 178.796C762.29 179.132 762.734 179.408 763.214 179.624C763.694 179.816 764.198 179.96 764.726 180.056C765.278 180.152 765.83 180.2 766.382 180.2C766.934 180.2 767.498 180.164 768.074 180.092C768.674 180.02 769.214 179.876 769.694 179.66C770.174 179.42 770.57 179.084 770.882 178.652C771.194 178.22 771.35 177.656 771.35 176.96C771.35 176.48 771.254 176.072 771.062 175.736C770.87 175.4 770.618 175.124 770.306 174.908C769.994 174.692 769.634 174.524 769.226 174.404C768.842 174.26 768.446 174.14 768.038 174.044C767.294 173.876 766.562 173.732 765.842 173.612C765.122 173.468 764.378 173.3 763.61 173.108C762.29 172.796 761.198 172.244 760.334 171.452C759.47 170.636 759.038 169.508 759.038 168.068C759.038 167.036 759.254 166.184 759.686 165.512C760.118 164.84 760.67 164.312 761.342 163.928C762.038 163.52 762.818 163.232 763.682 163.064C764.546 162.896 765.398 162.812 766.238 162.812C766.982 162.812 767.726 162.896 768.47 163.064C769.238 163.208 769.934 163.46 770.558 163.82C771.182 164.18 771.71 164.648 772.142 165.224C772.598 165.8 772.898 166.496 773.042 167.312H770.846C770.678 166.88 770.426 166.508 770.09 166.196C769.754 165.86 769.37 165.596 768.938 165.404C768.506 165.212 768.05 165.068 767.57 164.972C767.09 164.876 766.622 164.828 766.166 164.828Z" fill="#232323"/>
<path d="M97.6128 154.886C97.6128 154.886 78.7435 175.123 54.2327 150.135M54.2327 150.135C27.5446 122.927 83.3187 126.136 54.2327 150.135ZM54.2327 150.135C15.1434 158.429 9.95863 112.209 9.95863 112.209" stroke="#0223B5" stroke-width="3"/>
<path d="M211.483 25.7809C230.983 4.67348 288.051 4.05137 306.449 24.51" stroke="#0223B5" stroke-width="3"/>
</svg>
