<svg width="335" height="154" viewBox="0 0 335 154" fill="none" xmlns="http://www.w3.org/2000/svg">
<g opacity="0.4">
<path d="M171.254 42.1784C211.574 14.4792 292.485 27.071 319.88 73.2865" stroke="white"/>
<path d="M300.27 79.7297C314.527 79.9928 327.223 86.3956 330.396 89.4143L324.679 57.0994" stroke="white"/>
</g>
<g opacity="0.4" clip-path="url(#clip0_61_75)">
<path d="M112.124 43.2453L85.308 90.9815L18.5725 91.6816L116.545 29.4942L152.213 86.4616L52.3176 148.045L23.6876 101.561" stroke="white"/>
<path d="M109.466 24.6306L106.74 9.51586" stroke="white"/>
<path d="M119.625 19.3718L124.555 3.49162" stroke="white"/>
<path d="M141.65 84.2024L151.35 85.3115L142.026 70.414L135.579 74.5509L141.65 84.2024ZM141.65 84.2024C136.571 86.8324 130.326 90.432 135.614 96.3904" stroke="white"/>
</g>
<defs>
<clipPath id="clip0_61_75">
<rect width="140" height="100" fill="white" transform="translate(0 64.3694) rotate(-27.373)"/>
</clipPath>
</defs>
</svg>
