<svg width="214" height="216" viewBox="0 0 214 216" fill="none" xmlns="http://www.w3.org/2000/svg">
<path d="M207.605 182.451C207.605 182.451 211.428 194.215 196.344 198.382M196.344 198.382C179.922 202.92 193.266 181.808 196.344 198.382ZM196.344 198.382C191.115 215.464 171.919 207.473 171.919 207.473" stroke="white"/>
<path d="M23.8247 159.764C23.47 160.193 23.064 160.492 22.6067 160.66C22.1587 160.828 21.664 160.912 21.1227 160.912C20.796 160.912 20.4787 160.875 20.1707 160.8C19.872 160.716 19.6014 160.585 19.3587 160.408C19.116 160.231 18.92 160.007 18.7707 159.736C18.6307 159.456 18.5607 159.143 18.5607 158.798C18.5607 158.378 18.64 158.028 18.7987 157.748C18.9574 157.468 19.1627 157.244 19.4147 157.076C19.676 156.908 19.9747 156.791 20.3107 156.726C20.6467 156.651 20.9967 156.614 21.3607 156.614H23.7827C23.7827 156.278 23.7454 155.961 23.6707 155.662C23.6054 155.363 23.4934 155.102 23.3347 154.878C23.176 154.654 22.966 154.477 22.7047 154.346C22.4527 154.215 22.14 154.15 21.7667 154.15C21.5894 154.15 21.4074 154.164 21.2207 154.192C21.0434 154.22 20.8707 154.267 20.7027 154.332C20.544 154.397 20.3947 154.491 20.2547 154.612C20.124 154.724 20.0167 154.864 19.9327 155.032H18.9247C19.0087 154.724 19.1487 154.467 19.3447 154.262C19.5407 154.047 19.7694 153.875 20.0307 153.744C20.3014 153.604 20.586 153.506 20.8847 153.45C21.1927 153.394 21.496 153.366 21.7947 153.366C22.336 153.366 22.7934 153.455 23.1667 153.632C23.54 153.809 23.8387 154.057 24.0627 154.374C24.296 154.682 24.4594 155.046 24.5527 155.466C24.6554 155.886 24.7067 156.339 24.7067 156.824V160.828H23.9507L23.8247 159.764ZM21.8367 157.356C21.594 157.356 21.3327 157.365 21.0527 157.384C20.782 157.403 20.53 157.459 20.2967 157.552C20.0634 157.636 19.8674 157.771 19.7087 157.958C19.5594 158.135 19.4847 158.383 19.4847 158.7C19.4847 158.952 19.5314 159.167 19.6247 159.344C19.7274 159.521 19.858 159.671 20.0167 159.792C20.1847 159.913 20.3714 160.002 20.5767 160.058C20.7914 160.114 21.0107 160.142 21.2347 160.142C21.5987 160.142 21.9347 160.095 22.2427 160.002C22.56 159.909 22.8307 159.769 23.0547 159.582C23.288 159.386 23.4654 159.148 23.5867 158.868C23.7174 158.579 23.7827 158.243 23.7827 157.86V157.356H21.8367ZM26.7014 160.828V153.45H27.5974L27.6254 154.71C27.756 154.486 27.9194 154.29 28.1154 154.122C28.3114 153.945 28.5167 153.805 28.7314 153.702C28.974 153.581 29.2214 153.497 29.4734 153.45C29.7347 153.394 30.0147 153.366 30.3134 153.366C30.7147 153.366 31.0647 153.422 31.3634 153.534C31.6714 153.646 31.9327 153.795 32.1474 153.982C32.502 154.281 32.7494 154.668 32.8894 155.144C33.0294 155.62 33.0994 156.152 33.0994 156.74V160.828H32.1754V157.076C32.1754 156.637 32.138 156.217 32.0634 155.816C31.998 155.405 31.8487 155.055 31.6154 154.766C31.4567 154.579 31.2607 154.43 31.0274 154.318C30.794 154.206 30.5 154.15 30.1454 154.15C29.7627 154.15 29.4127 154.229 29.0954 154.388C28.778 154.547 28.512 154.752 28.2974 155.004C28.0547 155.284 27.882 155.606 27.7794 155.97C27.6767 156.334 27.6254 156.717 27.6254 157.118V160.828H26.7014ZM40.7105 150.93H41.6345V160.828H40.7105V159.666C40.4025 160.086 40.0152 160.399 39.5485 160.604C39.0819 160.809 38.5685 160.912 38.0085 160.912C37.4299 160.912 36.9305 160.805 36.5105 160.59C36.0999 160.375 35.7639 160.086 35.5025 159.722C35.2505 159.358 35.0639 158.938 34.9425 158.462C34.8305 157.977 34.7839 157.473 34.8025 156.95C34.8119 156.437 34.8912 155.965 35.0405 155.536C35.1992 155.097 35.4232 154.719 35.7125 154.402C36.0019 154.075 36.3519 153.823 36.7625 153.646C37.1825 153.459 37.6585 153.366 38.1905 153.366C38.4332 153.366 38.6759 153.389 38.9185 153.436C39.1612 153.473 39.3899 153.539 39.6045 153.632C39.8285 153.725 40.0339 153.847 40.2205 153.996C40.4072 154.145 40.5705 154.327 40.7105 154.542V150.93ZM38.1765 154.15C37.7379 154.15 37.3645 154.234 37.0565 154.402C36.7485 154.561 36.4965 154.78 36.3005 155.06C36.1045 155.331 35.9599 155.643 35.8665 155.998C35.7732 156.353 35.7265 156.726 35.7265 157.118C35.7265 157.529 35.7685 157.916 35.8525 158.28C35.9459 158.644 36.0905 158.961 36.2865 159.232C36.4825 159.503 36.7345 159.722 37.0425 159.89C37.3599 160.049 37.7472 160.128 38.2045 160.128C38.6152 160.128 38.9839 160.039 39.3105 159.862C39.6465 159.675 39.9219 159.442 40.1365 159.162C40.3512 158.882 40.5052 158.569 40.5985 158.224C40.6919 157.869 40.7385 157.501 40.7385 157.118C40.7385 156.661 40.6639 156.208 40.5145 155.76C40.3652 155.312 40.0992 154.943 39.7165 154.654C39.5019 154.495 39.2639 154.374 39.0025 154.29C38.7412 154.197 38.4659 154.15 38.1765 154.15ZM54.7639 160.058L56.5979 153.45H57.6479L55.4079 160.828H54.1059L52.1739 154.192L50.2419 160.828H48.9259L46.6579 153.45H47.7079L49.5839 160.058L51.4599 153.45H52.8879L54.7639 160.058ZM59.5286 157.44C59.5473 157.832 59.6126 158.191 59.7246 158.518C59.846 158.845 60.014 159.129 60.2286 159.372C60.4433 159.605 60.7046 159.792 61.0126 159.932C61.33 160.063 61.6986 160.128 62.1186 160.128C62.3146 160.128 62.5106 160.109 62.7066 160.072C62.912 160.035 63.1033 159.979 63.2806 159.904C63.4673 159.82 63.6353 159.713 63.7846 159.582C63.934 159.451 64.0506 159.288 64.1346 159.092H65.1006C64.998 159.419 64.8393 159.699 64.6246 159.932C64.4193 160.165 64.1813 160.357 63.9106 160.506C63.64 160.646 63.346 160.749 63.0286 160.814C62.7113 160.879 62.394 160.912 62.0766 160.912C61.498 160.912 60.9893 160.819 60.5506 160.632C60.1213 160.445 59.762 160.189 59.4726 159.862C59.1833 159.526 58.9686 159.129 58.8286 158.672C58.6886 158.205 58.6186 157.697 58.6186 157.146C58.6186 156.586 58.6933 156.073 58.8426 155.606C58.992 155.139 59.2113 154.743 59.5006 154.416C59.7993 154.08 60.1633 153.823 60.5926 153.646C61.0313 153.459 61.5306 153.366 62.0906 153.366C62.6786 153.366 63.1733 153.483 63.5746 153.716C63.9853 153.949 64.3166 154.257 64.5686 154.64C64.8206 155.013 64.998 155.447 65.1006 155.942C65.2126 156.427 65.2593 156.927 65.2406 157.44H59.5286ZM64.3026 156.67C64.2933 156.334 64.2373 156.012 64.1346 155.704C64.0413 155.396 63.8966 155.13 63.7006 154.906C63.514 154.673 63.276 154.491 62.9866 154.36C62.6973 154.22 62.3613 154.15 61.9786 154.15C61.596 154.15 61.2553 154.22 60.9566 154.36C60.6673 154.5 60.42 154.687 60.2146 154.92C60.0093 155.153 59.8506 155.424 59.7386 155.732C59.6266 156.031 59.5613 156.343 59.5426 156.67H64.3026ZM67.7487 154.024H67.1047L66.9787 150.93H67.8887L67.7487 154.024ZM69.9045 160.828V150.93H70.8285V160.828H69.9045ZM72.8439 160.828V150.93H73.7679V160.828H72.8439ZM82.1468 154.15C81.9322 154.15 81.7128 154.169 81.4888 154.206C81.2742 154.243 81.0782 154.309 80.9008 154.402C80.7235 154.486 80.5742 154.607 80.4528 154.766C80.3408 154.925 80.2848 155.13 80.2848 155.382C80.2848 155.578 80.3222 155.746 80.3968 155.886C80.4808 156.026 80.5835 156.143 80.7048 156.236C80.8355 156.329 80.9802 156.404 81.1388 156.46C81.2975 156.516 81.4608 156.563 81.6288 156.6C81.9275 156.665 82.2215 156.726 82.5108 156.782C82.8002 156.838 83.0942 156.903 83.3928 156.978C83.8875 157.081 84.2888 157.277 84.5968 157.566C84.9142 157.855 85.0728 158.271 85.0728 158.812C85.0728 159.223 84.9842 159.563 84.8068 159.834C84.6388 160.105 84.4195 160.324 84.1488 160.492C83.8782 160.651 83.5702 160.763 83.2248 160.828C82.8795 160.884 82.5342 160.912 82.1888 160.912C81.8715 160.912 81.5495 160.879 81.2228 160.814C80.8962 160.749 80.5928 160.646 80.3128 160.506C80.0328 160.357 79.7902 160.165 79.5848 159.932C79.3795 159.699 79.2395 159.405 79.1648 159.05H80.1028C80.2055 159.265 80.3315 159.442 80.4808 159.582C80.6395 159.713 80.8122 159.82 80.9988 159.904C81.1855 159.979 81.3815 160.035 81.5868 160.072C81.8015 160.109 82.0162 160.128 82.2308 160.128C82.4455 160.128 82.6648 160.114 82.8888 160.086C83.1222 160.058 83.3322 160.002 83.5188 159.918C83.7055 159.825 83.8595 159.694 83.9808 159.526C84.1022 159.358 84.1628 159.139 84.1628 158.868C84.1628 158.681 84.1255 158.523 84.0508 158.392C83.9762 158.261 83.8782 158.154 83.7568 158.07C83.6355 157.986 83.4955 157.921 83.3368 157.874C83.1875 157.818 83.0335 157.771 82.8748 157.734C82.5855 157.669 82.3008 157.613 82.0208 157.566C81.7408 157.51 81.4515 157.445 81.1528 157.37C80.6395 157.249 80.2148 157.034 79.8788 156.726C79.5428 156.409 79.3748 155.97 79.3748 155.41C79.3748 155.009 79.4588 154.677 79.6268 154.416C79.7948 154.155 80.0095 153.949 80.2708 153.8C80.5415 153.641 80.8448 153.529 81.1808 153.464C81.5168 153.399 81.8482 153.366 82.1748 153.366C82.4642 153.366 82.7535 153.399 83.0428 153.464C83.3415 153.52 83.6122 153.618 83.8548 153.758C84.0975 153.898 84.3028 154.08 84.4708 154.304C84.6482 154.528 84.7648 154.799 84.8208 155.116H83.9668C83.9015 154.948 83.8035 154.803 83.6728 154.682C83.5422 154.551 83.3928 154.449 83.2248 154.374C83.0568 154.299 82.8795 154.243 82.6928 154.206C82.5062 154.169 82.3242 154.15 82.1468 154.15ZM86.6935 160.828V150.93H87.6175V154.682C87.7482 154.458 87.9022 154.267 88.0795 154.108C88.2662 153.949 88.4762 153.809 88.7095 153.688C88.9429 153.576 89.1949 153.497 89.4655 153.45C89.7455 153.394 90.0255 153.366 90.3055 153.366C90.6975 153.366 91.0475 153.422 91.3555 153.534C91.6635 153.646 91.9249 153.795 92.1395 153.982C92.4942 154.281 92.7415 154.668 92.8815 155.144C93.0215 155.62 93.0915 156.152 93.0915 156.74V160.828H92.1675V157.076C92.1675 156.637 92.1302 156.217 92.0555 155.816C91.9902 155.405 91.8409 155.055 91.6075 154.766C91.4489 154.579 91.2529 154.43 91.0195 154.318C90.7862 154.206 90.4922 154.15 90.1375 154.15C89.7549 154.15 89.4002 154.229 89.0735 154.388C88.7562 154.537 88.4902 154.743 88.2755 155.004C88.0422 155.284 87.8742 155.606 87.7715 155.97C87.6689 156.334 87.6175 156.717 87.6175 157.118V160.828H86.6935ZM98.2667 153.366C98.8454 153.366 99.3494 153.459 99.7787 153.646C100.217 153.833 100.581 154.094 100.871 154.43C101.169 154.766 101.393 155.167 101.543 155.634C101.692 156.091 101.767 156.595 101.767 157.146C101.767 157.697 101.692 158.205 101.543 158.672C101.393 159.129 101.169 159.526 100.871 159.862C100.581 160.189 100.217 160.445 99.7787 160.632C99.3494 160.819 98.8454 160.912 98.2667 160.912C97.6881 160.912 97.1794 160.819 96.7407 160.632C96.3114 160.445 95.9474 160.189 95.6487 159.862C95.3594 159.526 95.1401 159.129 94.9907 158.672C94.8507 158.205 94.7807 157.697 94.7807 157.146C94.7807 156.595 94.8507 156.091 94.9907 155.634C95.1401 155.167 95.3594 154.766 95.6487 154.43C95.9474 154.094 96.3114 153.833 96.7407 153.646C97.1794 153.459 97.6881 153.366 98.2667 153.366ZM98.2667 160.128C98.7147 160.128 99.1021 160.053 99.4287 159.904C99.7554 159.745 100.021 159.531 100.227 159.26C100.441 158.989 100.595 158.672 100.689 158.308C100.791 157.944 100.843 157.557 100.843 157.146C100.843 156.735 100.791 156.348 100.689 155.984C100.595 155.62 100.441 155.303 100.227 155.032C100.021 154.761 99.7554 154.547 99.4287 154.388C99.1021 154.229 98.7147 154.15 98.2667 154.15C97.8187 154.15 97.4314 154.229 97.1047 154.388C96.7781 154.547 96.5074 154.761 96.2927 155.032C96.0874 155.303 95.9334 155.62 95.8307 155.984C95.7374 156.348 95.6907 156.735 95.6907 157.146C95.6907 157.557 95.7374 157.944 95.8307 158.308C95.9334 158.672 96.0874 158.989 96.2927 159.26C96.5074 159.531 96.7781 159.745 97.1047 159.904C97.4314 160.053 97.8187 160.128 98.2667 160.128ZM110.832 160.058L112.666 153.45H113.716L111.476 160.828H110.174L108.242 154.192L106.31 160.828H104.994L102.726 153.45H103.776L105.652 160.058L107.528 153.45H108.956L110.832 160.058ZM125.18 153.45V160.828C125.18 161.407 125.12 161.897 124.998 162.298C124.877 162.709 124.672 163.073 124.382 163.39C124.065 163.735 123.682 163.969 123.234 164.09C122.786 164.211 122.338 164.272 121.89 164.272C121.386 164.272 120.873 164.197 120.35 164.048C119.828 163.899 119.37 163.661 118.978 163.334L119.384 162.578C119.758 162.858 120.154 163.073 120.574 163.222C121.004 163.381 121.442 163.46 121.89 163.46C122.32 163.46 122.684 163.399 122.982 163.278C123.281 163.157 123.528 162.984 123.724 162.76C123.92 162.536 124.056 162.256 124.13 161.92C124.214 161.584 124.256 161.215 124.256 160.814V159.708C124.116 159.932 123.944 160.123 123.738 160.282C123.542 160.441 123.328 160.571 123.094 160.674C122.861 160.767 122.614 160.833 122.352 160.87C122.1 160.917 121.848 160.94 121.596 160.94C121.092 160.94 120.658 160.861 120.294 160.702C119.94 160.543 119.655 160.338 119.44 160.086C119.17 159.787 118.983 159.405 118.88 158.938C118.787 158.471 118.74 157.972 118.74 157.44V153.45H119.664V157.09C119.664 157.51 119.683 157.921 119.72 158.322C119.767 158.723 119.884 159.064 120.07 159.344C120.229 159.587 120.448 159.783 120.728 159.932C121.018 160.072 121.377 160.137 121.806 160.128C122.338 160.119 122.772 160.002 123.108 159.778C123.454 159.545 123.72 159.237 123.906 158.854C124.037 158.583 124.126 158.289 124.172 157.972C124.228 157.655 124.256 157.328 124.256 156.992V153.45H125.18ZM130.396 153.366C130.974 153.366 131.478 153.459 131.908 153.646C132.346 153.833 132.71 154.094 133 154.43C133.298 154.766 133.522 155.167 133.672 155.634C133.821 156.091 133.896 156.595 133.896 157.146C133.896 157.697 133.821 158.205 133.672 158.672C133.522 159.129 133.298 159.526 133 159.862C132.71 160.189 132.346 160.445 131.908 160.632C131.478 160.819 130.974 160.912 130.396 160.912C129.817 160.912 129.308 160.819 128.87 160.632C128.44 160.445 128.076 160.189 127.778 159.862C127.488 159.526 127.269 159.129 127.12 158.672C126.98 158.205 126.91 157.697 126.91 157.146C126.91 156.595 126.98 156.091 127.12 155.634C127.269 155.167 127.488 154.766 127.778 154.43C128.076 154.094 128.44 153.833 128.87 153.646C129.308 153.459 129.817 153.366 130.396 153.366ZM130.396 160.128C130.844 160.128 131.231 160.053 131.558 159.904C131.884 159.745 132.15 159.531 132.356 159.26C132.57 158.989 132.724 158.672 132.818 158.308C132.92 157.944 132.972 157.557 132.972 157.146C132.972 156.735 132.92 156.348 132.818 155.984C132.724 155.62 132.57 155.303 132.356 155.032C132.15 154.761 131.884 154.547 131.558 154.388C131.231 154.229 130.844 154.15 130.396 154.15C129.948 154.15 129.56 154.229 129.234 154.388C128.907 154.547 128.636 154.761 128.422 155.032C128.216 155.303 128.062 155.62 127.96 155.984C127.866 156.348 127.82 156.735 127.82 157.146C127.82 157.557 127.866 157.944 127.96 158.308C128.062 158.672 128.216 158.989 128.422 159.26C128.636 159.531 128.907 159.745 129.234 159.904C129.56 160.053 129.948 160.128 130.396 160.128ZM138.649 160.128C139.051 160.128 139.387 160.067 139.657 159.946C139.937 159.815 140.161 159.638 140.329 159.414C140.497 159.19 140.619 158.924 140.693 158.616C140.768 158.308 140.805 157.967 140.805 157.594V153.45H141.729V157.622C141.729 158.667 141.487 159.479 141.001 160.058C140.516 160.627 139.732 160.912 138.649 160.912C137.595 160.912 136.82 160.627 136.325 160.058C135.84 159.479 135.597 158.667 135.597 157.622V153.45H136.521V157.594C136.521 157.949 136.559 158.28 136.633 158.588C136.708 158.896 136.829 159.167 136.997 159.4C137.165 159.624 137.385 159.801 137.655 159.932C137.926 160.063 138.257 160.128 138.649 160.128ZM152.504 159.764C152.15 160.193 151.744 160.492 151.286 160.66C150.838 160.828 150.344 160.912 149.802 160.912C149.476 160.912 149.158 160.875 148.85 160.8C148.552 160.716 148.281 160.585 148.038 160.408C147.796 160.231 147.6 160.007 147.45 159.736C147.31 159.456 147.24 159.143 147.24 158.798C147.24 158.378 147.32 158.028 147.478 157.748C147.637 157.468 147.842 157.244 148.094 157.076C148.356 156.908 148.654 156.791 148.99 156.726C149.326 156.651 149.676 156.614 150.04 156.614H152.462C152.462 156.278 152.425 155.961 152.35 155.662C152.285 155.363 152.173 155.102 152.014 154.878C151.856 154.654 151.646 154.477 151.384 154.346C151.132 154.215 150.82 154.15 150.446 154.15C150.269 154.15 150.087 154.164 149.9 154.192C149.723 154.22 149.55 154.267 149.382 154.332C149.224 154.397 149.074 154.491 148.934 154.612C148.804 154.724 148.696 154.864 148.612 155.032H147.604C147.688 154.724 147.828 154.467 148.024 154.262C148.22 154.047 148.449 153.875 148.71 153.744C148.981 153.604 149.266 153.506 149.564 153.45C149.872 153.394 150.176 153.366 150.474 153.366C151.016 153.366 151.473 153.455 151.846 153.632C152.22 153.809 152.518 154.057 152.742 154.374C152.976 154.682 153.139 155.046 153.232 155.466C153.335 155.886 153.386 156.339 153.386 156.824V160.828H152.63L152.504 159.764ZM150.516 157.356C150.274 157.356 150.012 157.365 149.732 157.384C149.462 157.403 149.21 157.459 148.976 157.552C148.743 157.636 148.547 157.771 148.388 157.958C148.239 158.135 148.164 158.383 148.164 158.7C148.164 158.952 148.211 159.167 148.304 159.344C148.407 159.521 148.538 159.671 148.696 159.792C148.864 159.913 149.051 160.002 149.256 160.058C149.471 160.114 149.69 160.142 149.914 160.142C150.278 160.142 150.614 160.095 150.922 160.002C151.24 159.909 151.51 159.769 151.734 159.582C151.968 159.386 152.145 159.148 152.266 158.868C152.397 158.579 152.462 158.243 152.462 157.86V157.356H150.516ZM159.154 160.828V153.45H160.05L160.078 154.724C160.246 154.444 160.433 154.215 160.638 154.038C160.853 153.861 161.086 153.721 161.338 153.618C161.59 153.515 161.856 153.45 162.136 153.422C162.416 153.385 162.71 153.371 163.018 153.38V154.22H162.766C162.318 154.22 161.931 154.29 161.604 154.43C161.278 154.561 161.007 154.743 160.792 154.976C160.494 155.284 160.298 155.629 160.204 156.012C160.12 156.395 160.078 156.796 160.078 157.216V160.828H159.154ZM164.829 157.44C164.848 157.832 164.913 158.191 165.025 158.518C165.147 158.845 165.315 159.129 165.529 159.372C165.744 159.605 166.005 159.792 166.313 159.932C166.631 160.063 166.999 160.128 167.419 160.128C167.615 160.128 167.811 160.109 168.007 160.072C168.213 160.035 168.404 159.979 168.581 159.904C168.768 159.82 168.936 159.713 169.085 159.582C169.235 159.451 169.351 159.288 169.435 159.092H170.401C170.299 159.419 170.14 159.699 169.925 159.932C169.72 160.165 169.482 160.357 169.211 160.506C168.941 160.646 168.647 160.749 168.329 160.814C168.012 160.879 167.695 160.912 167.377 160.912C166.799 160.912 166.29 160.819 165.851 160.632C165.422 160.445 165.063 160.189 164.773 159.862C164.484 159.526 164.269 159.129 164.129 158.672C163.989 158.205 163.919 157.697 163.919 157.146C163.919 156.586 163.994 156.073 164.143 155.606C164.293 155.139 164.512 154.743 164.801 154.416C165.1 154.08 165.464 153.823 165.893 153.646C166.332 153.459 166.831 153.366 167.391 153.366C167.979 153.366 168.474 153.483 168.875 153.716C169.286 153.949 169.617 154.257 169.869 154.64C170.121 155.013 170.299 155.447 170.401 155.942C170.513 156.427 170.56 156.927 170.541 157.44H164.829ZM169.603 156.67C169.594 156.334 169.538 156.012 169.435 155.704C169.342 155.396 169.197 155.13 169.001 154.906C168.815 154.673 168.577 154.491 168.287 154.36C167.998 154.22 167.662 154.15 167.279 154.15C166.897 154.15 166.556 154.22 166.257 154.36C165.968 154.5 165.721 154.687 165.515 154.92C165.31 155.153 165.151 155.424 165.039 155.732C164.927 156.031 164.862 156.343 164.843 156.67H169.603ZM177.291 159.764C176.937 160.193 176.531 160.492 176.073 160.66C175.625 160.828 175.131 160.912 174.589 160.912C174.263 160.912 173.945 160.875 173.637 160.8C173.339 160.716 173.068 160.585 172.825 160.408C172.583 160.231 172.387 160.007 172.237 159.736C172.097 159.456 172.027 159.143 172.027 158.798C172.027 158.378 172.107 158.028 172.265 157.748C172.424 157.468 172.629 157.244 172.881 157.076C173.143 156.908 173.441 156.791 173.777 156.726C174.113 156.651 174.463 156.614 174.827 156.614H177.249C177.249 156.278 177.212 155.961 177.137 155.662C177.072 155.363 176.96 155.102 176.801 154.878C176.643 154.654 176.433 154.477 176.171 154.346C175.919 154.215 175.607 154.15 175.233 154.15C175.056 154.15 174.874 154.164 174.687 154.192C174.51 154.22 174.337 154.267 174.169 154.332C174.011 154.397 173.861 154.491 173.721 154.612C173.591 154.724 173.483 154.864 173.399 155.032H172.391C172.475 154.724 172.615 154.467 172.811 154.262C173.007 154.047 173.236 153.875 173.497 153.744C173.768 153.604 174.053 153.506 174.351 153.45C174.659 153.394 174.963 153.366 175.261 153.366C175.803 153.366 176.26 153.455 176.633 153.632C177.007 153.809 177.305 154.057 177.529 154.374C177.763 154.682 177.926 155.046 178.019 155.466C178.122 155.886 178.173 156.339 178.173 156.824V160.828H177.417L177.291 159.764ZM175.303 157.356C175.061 157.356 174.799 157.365 174.519 157.384C174.249 157.403 173.997 157.459 173.763 157.552C173.53 157.636 173.334 157.771 173.175 157.958C173.026 158.135 172.951 158.383 172.951 158.7C172.951 158.952 172.998 159.167 173.091 159.344C173.194 159.521 173.325 159.671 173.483 159.792C173.651 159.913 173.838 160.002 174.043 160.058C174.258 160.114 174.477 160.142 174.701 160.142C175.065 160.142 175.401 160.095 175.709 160.002C176.027 159.909 176.297 159.769 176.521 159.582C176.755 159.386 176.932 159.148 177.053 158.868C177.184 158.579 177.249 158.243 177.249 157.86V157.356H175.303ZM185.81 150.93H186.734V160.828H185.81V159.666C185.502 160.086 185.115 160.399 184.648 160.604C184.181 160.809 183.668 160.912 183.108 160.912C182.529 160.912 182.03 160.805 181.61 160.59C181.199 160.375 180.863 160.086 180.602 159.722C180.35 159.358 180.163 158.938 180.042 158.462C179.93 157.977 179.883 157.473 179.902 156.95C179.911 156.437 179.991 155.965 180.14 155.536C180.299 155.097 180.523 154.719 180.812 154.402C181.101 154.075 181.451 153.823 181.862 153.646C182.282 153.459 182.758 153.366 183.29 153.366C183.533 153.366 183.775 153.389 184.018 153.436C184.261 153.473 184.489 153.539 184.704 153.632C184.928 153.725 185.133 153.847 185.32 153.996C185.507 154.145 185.67 154.327 185.81 154.542V150.93ZM183.276 154.15C182.837 154.15 182.464 154.234 182.156 154.402C181.848 154.561 181.596 154.78 181.4 155.06C181.204 155.331 181.059 155.643 180.966 155.998C180.873 156.353 180.826 156.726 180.826 157.118C180.826 157.529 180.868 157.916 180.952 158.28C181.045 158.644 181.19 158.961 181.386 159.232C181.582 159.503 181.834 159.722 182.142 159.89C182.459 160.049 182.847 160.128 183.304 160.128C183.715 160.128 184.083 160.039 184.41 159.862C184.746 159.675 185.021 159.442 185.236 159.162C185.451 158.882 185.605 158.569 185.698 158.224C185.791 157.869 185.838 157.501 185.838 157.118C185.838 156.661 185.763 156.208 185.614 155.76C185.465 155.312 185.199 154.943 184.816 154.654C184.601 154.495 184.363 154.374 184.102 154.29C183.841 154.197 183.565 154.15 183.276 154.15ZM195.194 153.45V160.828C195.194 161.407 195.133 161.897 195.012 162.298C194.891 162.709 194.685 163.073 194.396 163.39C194.079 163.735 193.696 163.969 193.248 164.09C192.8 164.211 192.352 164.272 191.904 164.272C191.4 164.272 190.887 164.197 190.364 164.048C189.841 163.899 189.384 163.661 188.992 163.334L189.398 162.578C189.771 162.858 190.168 163.073 190.588 163.222C191.017 163.381 191.456 163.46 191.904 163.46C192.333 163.46 192.697 163.399 192.996 163.278C193.295 163.157 193.542 162.984 193.738 162.76C193.934 162.536 194.069 162.256 194.144 161.92C194.228 161.584 194.27 161.215 194.27 160.814V159.708C194.13 159.932 193.957 160.123 193.752 160.282C193.556 160.441 193.341 160.571 193.108 160.674C192.875 160.767 192.627 160.833 192.366 160.87C192.114 160.917 191.862 160.94 191.61 160.94C191.106 160.94 190.672 160.861 190.308 160.702C189.953 160.543 189.669 160.338 189.454 160.086C189.183 159.787 188.997 159.405 188.894 158.938C188.801 158.471 188.754 157.972 188.754 157.44V153.45H189.678V157.09C189.678 157.51 189.697 157.921 189.734 158.322C189.781 158.723 189.897 159.064 190.084 159.344C190.243 159.587 190.462 159.783 190.742 159.932C191.031 160.072 191.391 160.137 191.82 160.128C192.352 160.119 192.786 160.002 193.122 159.778C193.467 159.545 193.733 159.237 193.92 158.854C194.051 158.583 194.139 158.289 194.186 157.972C194.242 157.655 194.27 157.328 194.27 156.992V153.45H195.194ZM38.9642 174.15C38.7495 174.15 38.5302 174.169 38.3062 174.206C38.0915 174.243 37.8955 174.309 37.7182 174.402C37.5409 174.486 37.3915 174.607 37.2702 174.766C37.1582 174.925 37.1022 175.13 37.1022 175.382C37.1022 175.578 37.1395 175.746 37.2142 175.886C37.2982 176.026 37.4009 176.143 37.5222 176.236C37.6529 176.329 37.7975 176.404 37.9562 176.46C38.1149 176.516 38.2782 176.563 38.4462 176.6C38.7449 176.665 39.0389 176.726 39.3282 176.782C39.6175 176.838 39.9115 176.903 40.2102 176.978C40.7049 177.081 41.1062 177.277 41.4142 177.566C41.7315 177.855 41.8902 178.271 41.8902 178.812C41.8902 179.223 41.8015 179.563 41.6242 179.834C41.4562 180.105 41.2369 180.324 40.9662 180.492C40.6955 180.651 40.3875 180.763 40.0422 180.828C39.6969 180.884 39.3515 180.912 39.0062 180.912C38.6889 180.912 38.3669 180.879 38.0402 180.814C37.7135 180.749 37.4102 180.646 37.1302 180.506C36.8502 180.357 36.6075 180.165 36.4022 179.932C36.1969 179.699 36.0569 179.405 35.9822 179.05H36.9202C37.0229 179.265 37.1489 179.442 37.2982 179.582C37.4569 179.713 37.6295 179.82 37.8162 179.904C38.0029 179.979 38.1989 180.035 38.4042 180.072C38.6189 180.109 38.8335 180.128 39.0482 180.128C39.2629 180.128 39.4822 180.114 39.7062 180.086C39.9395 180.058 40.1495 180.002 40.3362 179.918C40.5229 179.825 40.6769 179.694 40.7982 179.526C40.9195 179.358 40.9802 179.139 40.9802 178.868C40.9802 178.681 40.9429 178.523 40.8682 178.392C40.7935 178.261 40.6955 178.154 40.5742 178.07C40.4529 177.986 40.3129 177.921 40.1542 177.874C40.0049 177.818 39.8509 177.771 39.6922 177.734C39.4029 177.669 39.1182 177.613 38.8382 177.566C38.5582 177.51 38.2689 177.445 37.9702 177.37C37.4569 177.249 37.0322 177.034 36.6962 176.726C36.3602 176.409 36.1922 175.97 36.1922 175.41C36.1922 175.009 36.2762 174.677 36.4442 174.416C36.6122 174.155 36.8269 173.949 37.0882 173.8C37.3589 173.641 37.6622 173.529 37.9982 173.464C38.3342 173.399 38.6655 173.366 38.9922 173.366C39.2815 173.366 39.5709 173.399 39.8602 173.464C40.1589 173.52 40.4295 173.618 40.6722 173.758C40.9149 173.898 41.1202 174.08 41.2882 174.304C41.4655 174.528 41.5822 174.799 41.6382 175.116H40.7842C40.7189 174.948 40.6209 174.803 40.4902 174.682C40.3595 174.551 40.2102 174.449 40.0422 174.374C39.8742 174.299 39.6969 174.243 39.5102 174.206C39.3235 174.169 39.1415 174.15 38.9642 174.15ZM46.7169 173.366C47.2956 173.366 47.7996 173.459 48.2289 173.646C48.6676 173.833 49.0316 174.094 49.3209 174.43C49.6196 174.766 49.8436 175.167 49.9929 175.634C50.1423 176.091 50.2169 176.595 50.2169 177.146C50.2169 177.697 50.1423 178.205 49.9929 178.672C49.8436 179.129 49.6196 179.526 49.3209 179.862C49.0316 180.189 48.6676 180.445 48.2289 180.632C47.7996 180.819 47.2956 180.912 46.7169 180.912C46.1383 180.912 45.6296 180.819 45.1909 180.632C44.7616 180.445 44.3976 180.189 44.0989 179.862C43.8096 179.526 43.5903 179.129 43.4409 178.672C43.3009 178.205 43.2309 177.697 43.2309 177.146C43.2309 176.595 43.3009 176.091 43.4409 175.634C43.5903 175.167 43.8096 174.766 44.0989 174.43C44.3976 174.094 44.7616 173.833 45.1909 173.646C45.6296 173.459 46.1383 173.366 46.7169 173.366ZM46.7169 180.128C47.1649 180.128 47.5523 180.053 47.8789 179.904C48.2056 179.745 48.4716 179.531 48.6769 179.26C48.8916 178.989 49.0456 178.672 49.1389 178.308C49.2416 177.944 49.2929 177.557 49.2929 177.146C49.2929 176.735 49.2416 176.348 49.1389 175.984C49.0456 175.62 48.8916 175.303 48.6769 175.032C48.4716 174.761 48.2056 174.547 47.8789 174.388C47.5523 174.229 47.1649 174.15 46.7169 174.15C46.2689 174.15 45.8816 174.229 45.5549 174.388C45.2283 174.547 44.9576 174.761 44.7429 175.032C44.5376 175.303 44.3836 175.62 44.2809 175.984C44.1876 176.348 44.1409 176.735 44.1409 177.146C44.1409 177.557 44.1876 177.944 44.2809 178.308C44.3836 178.672 44.5376 178.989 44.7429 179.26C44.9576 179.531 45.2283 179.745 45.5549 179.904C45.8816 180.053 46.2689 180.128 46.7169 180.128ZM51.9465 180.828V170.93H52.8705V180.828H51.9465ZM57.9099 180.128C58.3113 180.128 58.6473 180.067 58.9179 179.946C59.1979 179.815 59.4219 179.638 59.5899 179.414C59.7579 179.19 59.8793 178.924 59.9539 178.616C60.0286 178.308 60.0659 177.967 60.0659 177.594V173.45H60.9899V177.622C60.9899 178.667 60.7473 179.479 60.2619 180.058C59.7766 180.627 58.9926 180.912 57.9099 180.912C56.8553 180.912 56.0806 180.627 55.5859 180.058C55.1006 179.479 54.8579 178.667 54.8579 177.622V173.45H55.7819V177.594C55.7819 177.949 55.8193 178.28 55.8939 178.588C55.9686 178.896 56.0899 179.167 56.2579 179.4C56.4259 179.624 56.6453 179.801 56.9159 179.932C57.1866 180.063 57.5179 180.128 57.9099 180.128ZM64.6177 173.45H66.6757V174.234H64.6177V178.378C64.6177 178.63 64.641 178.896 64.6877 179.176C64.7437 179.456 64.8883 179.671 65.1217 179.82C65.243 179.895 65.3877 179.951 65.5557 179.988C65.7237 180.016 65.887 180.03 66.0457 180.03H66.6057V180.828H65.9617C65.6443 180.828 65.327 180.791 65.0097 180.716C64.7017 180.641 64.431 180.487 64.1977 180.254C64.0203 180.067 63.8897 179.82 63.8057 179.512C63.731 179.195 63.6937 178.835 63.6937 178.434V174.234H62.4477V173.45H63.6937V171.336H64.6177V173.45ZM68.7353 170.79C68.9407 170.79 69.1087 170.851 69.2393 170.972C69.37 171.093 69.4353 171.257 69.4353 171.462C69.4353 171.677 69.37 171.845 69.2393 171.966C69.1087 172.087 68.9407 172.148 68.7353 172.148C68.53 172.148 68.362 172.087 68.2313 171.966C68.11 171.845 68.0493 171.677 68.0493 171.462C68.0493 171.247 68.11 171.084 68.2313 170.972C68.362 170.851 68.53 170.79 68.7353 170.79ZM68.2733 173.45H69.1973V180.828H68.2733V173.45ZM74.5392 173.366C75.1179 173.366 75.6219 173.459 76.0512 173.646C76.4899 173.833 76.8539 174.094 77.1432 174.43C77.4419 174.766 77.6659 175.167 77.8152 175.634C77.9645 176.091 78.0392 176.595 78.0392 177.146C78.0392 177.697 77.9645 178.205 77.8152 178.672C77.6659 179.129 77.4419 179.526 77.1432 179.862C76.8539 180.189 76.4899 180.445 76.0512 180.632C75.6219 180.819 75.1179 180.912 74.5392 180.912C73.9605 180.912 73.4519 180.819 73.0132 180.632C72.5839 180.445 72.2199 180.189 71.9212 179.862C71.6319 179.526 71.4125 179.129 71.2632 178.672C71.1232 178.205 71.0532 177.697 71.0532 177.146C71.0532 176.595 71.1232 176.091 71.2632 175.634C71.4125 175.167 71.6319 174.766 71.9212 174.43C72.2199 174.094 72.5839 173.833 73.0132 173.646C73.4519 173.459 73.9605 173.366 74.5392 173.366ZM74.5392 180.128C74.9872 180.128 75.3745 180.053 75.7012 179.904C76.0279 179.745 76.2939 179.531 76.4992 179.26C76.7139 178.989 76.8679 178.672 76.9612 178.308C77.0639 177.944 77.1152 177.557 77.1152 177.146C77.1152 176.735 77.0639 176.348 76.9612 175.984C76.8679 175.62 76.7139 175.303 76.4992 175.032C76.2939 174.761 76.0279 174.547 75.7012 174.388C75.3745 174.229 74.9872 174.15 74.5392 174.15C74.0912 174.15 73.7039 174.229 73.3772 174.388C73.0505 174.547 72.7799 174.761 72.5652 175.032C72.3599 175.303 72.2059 175.62 72.1032 175.984C72.0099 176.348 71.9632 176.735 71.9632 177.146C71.9632 177.557 72.0099 177.944 72.1032 178.308C72.2059 178.672 72.3599 178.989 72.5652 179.26C72.7799 179.531 73.0505 179.745 73.3772 179.904C73.7039 180.053 74.0912 180.128 74.5392 180.128ZM79.7687 180.828V173.45H80.6647L80.6927 174.71C80.8234 174.486 80.9867 174.29 81.1827 174.122C81.3787 173.945 81.5841 173.805 81.7987 173.702C82.0414 173.581 82.2887 173.497 82.5407 173.45C82.8021 173.394 83.0821 173.366 83.3807 173.366C83.7821 173.366 84.1321 173.422 84.4307 173.534C84.7387 173.646 85.0001 173.795 85.2147 173.982C85.5694 174.281 85.8167 174.668 85.9567 175.144C86.0967 175.62 86.1667 176.152 86.1667 176.74V180.828H85.2427V177.076C85.2427 176.637 85.2054 176.217 85.1307 175.816C85.0654 175.405 84.9161 175.055 84.6827 174.766C84.5241 174.579 84.3281 174.43 84.0947 174.318C83.8614 174.206 83.5674 174.15 83.2127 174.15C82.8301 174.15 82.4801 174.229 82.1627 174.388C81.8454 174.547 81.5794 174.752 81.3647 175.004C81.1221 175.284 80.9494 175.606 80.8467 175.97C80.7441 176.334 80.6927 176.717 80.6927 177.118V180.828H79.7687ZM92.6654 174.22H91.4194V173.45H92.6654V172.708C92.6654 172.363 92.6794 172.059 92.7074 171.798C92.7354 171.527 92.81 171.285 92.9314 171.07C93.0994 170.771 93.3327 170.547 93.6314 170.398C93.9394 170.239 94.3734 170.16 94.9334 170.16H95.6474V170.93H95.0314C94.8167 170.93 94.602 170.949 94.3874 170.986C94.182 171.014 94.0094 171.117 93.8694 171.294C93.7294 171.481 93.6454 171.695 93.6174 171.938C93.5987 172.171 93.5894 172.451 93.5894 172.778V173.45H95.6474V174.22H93.5894V180.828H92.6654V174.22ZM100.106 173.366C100.684 173.366 101.188 173.459 101.618 173.646C102.056 173.833 102.42 174.094 102.71 174.43C103.008 174.766 103.232 175.167 103.382 175.634C103.531 176.091 103.606 176.595 103.606 177.146C103.606 177.697 103.531 178.205 103.382 178.672C103.232 179.129 103.008 179.526 102.71 179.862C102.42 180.189 102.056 180.445 101.618 180.632C101.188 180.819 100.684 180.912 100.106 180.912C99.5269 180.912 99.0183 180.819 98.5796 180.632C98.1503 180.445 97.7863 180.189 97.4876 179.862C97.1983 179.526 96.9789 179.129 96.8296 178.672C96.6896 178.205 96.6196 177.697 96.6196 177.146C96.6196 176.595 96.6896 176.091 96.8296 175.634C96.9789 175.167 97.1983 174.766 97.4876 174.43C97.7863 174.094 98.1503 173.833 98.5796 173.646C99.0183 173.459 99.5269 173.366 100.106 173.366ZM100.106 180.128C100.554 180.128 100.941 180.053 101.268 179.904C101.594 179.745 101.86 179.531 102.066 179.26C102.28 178.989 102.434 178.672 102.528 178.308C102.63 177.944 102.682 177.557 102.682 177.146C102.682 176.735 102.63 176.348 102.528 175.984C102.434 175.62 102.28 175.303 102.066 175.032C101.86 174.761 101.594 174.547 101.268 174.388C100.941 174.229 100.554 174.15 100.106 174.15C99.6576 174.15 99.2703 174.229 98.9436 174.388C98.6169 174.547 98.3463 174.761 98.1316 175.032C97.9263 175.303 97.7723 175.62 97.6696 175.984C97.5763 176.348 97.5296 176.735 97.5296 177.146C97.5296 177.557 97.5763 177.944 97.6696 178.308C97.7723 178.672 97.9263 178.989 98.1316 179.26C98.3463 179.531 98.6169 179.745 98.9436 179.904C99.2703 180.053 99.6576 180.128 100.106 180.128ZM105.335 180.828V173.45H106.231L106.259 174.724C106.427 174.444 106.614 174.215 106.819 174.038C107.034 173.861 107.267 173.721 107.519 173.618C107.771 173.515 108.037 173.45 108.317 173.422C108.597 173.385 108.891 173.371 109.199 173.38V174.22H108.947C108.499 174.22 108.112 174.29 107.785 174.43C107.458 174.561 107.188 174.743 106.973 174.976C106.674 175.284 106.478 175.629 106.385 176.012C106.301 176.395 106.259 176.796 106.259 177.216V180.828H105.335ZM120.73 173.45V180.828C120.73 181.407 120.67 181.897 120.548 182.298C120.427 182.709 120.222 183.073 119.932 183.39C119.615 183.735 119.232 183.969 118.784 184.09C118.336 184.211 117.888 184.272 117.44 184.272C116.936 184.272 116.423 184.197 115.9 184.048C115.378 183.899 114.92 183.661 114.528 183.334L114.934 182.578C115.308 182.858 115.704 183.073 116.124 183.222C116.554 183.381 116.992 183.46 117.44 183.46C117.87 183.46 118.234 183.399 118.532 183.278C118.831 183.157 119.078 182.984 119.274 182.76C119.47 182.536 119.606 182.256 119.68 181.92C119.764 181.584 119.806 181.215 119.806 180.814V179.708C119.666 179.932 119.494 180.123 119.288 180.282C119.092 180.441 118.878 180.571 118.644 180.674C118.411 180.767 118.164 180.833 117.902 180.87C117.65 180.917 117.398 180.94 117.146 180.94C116.642 180.94 116.208 180.861 115.844 180.702C115.49 180.543 115.205 180.338 114.99 180.086C114.72 179.787 114.533 179.405 114.43 178.938C114.337 178.471 114.29 177.972 114.29 177.44V173.45H115.214V177.09C115.214 177.51 115.233 177.921 115.27 178.322C115.317 178.723 115.434 179.064 115.62 179.344C115.779 179.587 115.998 179.783 116.278 179.932C116.568 180.072 116.927 180.137 117.356 180.128C117.888 180.119 118.322 180.002 118.658 179.778C119.004 179.545 119.27 179.237 119.456 178.854C119.587 178.583 119.676 178.289 119.722 177.972C119.778 177.655 119.806 177.328 119.806 176.992V173.45H120.73ZM125.945 173.366C126.524 173.366 127.028 173.459 127.457 173.646C127.896 173.833 128.26 174.094 128.549 174.43C128.848 174.766 129.072 175.167 129.221 175.634C129.371 176.091 129.445 176.595 129.445 177.146C129.445 177.697 129.371 178.205 129.221 178.672C129.072 179.129 128.848 179.526 128.549 179.862C128.26 180.189 127.896 180.445 127.457 180.632C127.028 180.819 126.524 180.912 125.945 180.912C125.367 180.912 124.858 180.819 124.419 180.632C123.99 180.445 123.626 180.189 123.327 179.862C123.038 179.526 122.819 179.129 122.669 178.672C122.529 178.205 122.459 177.697 122.459 177.146C122.459 176.595 122.529 176.091 122.669 175.634C122.819 175.167 123.038 174.766 123.327 174.43C123.626 174.094 123.99 173.833 124.419 173.646C124.858 173.459 125.367 173.366 125.945 173.366ZM125.945 180.128C126.393 180.128 126.781 180.053 127.107 179.904C127.434 179.745 127.7 179.531 127.905 179.26C128.12 178.989 128.274 178.672 128.367 178.308C128.47 177.944 128.521 177.557 128.521 177.146C128.521 176.735 128.47 176.348 128.367 175.984C128.274 175.62 128.12 175.303 127.905 175.032C127.7 174.761 127.434 174.547 127.107 174.388C126.781 174.229 126.393 174.15 125.945 174.15C125.497 174.15 125.11 174.229 124.783 174.388C124.457 174.547 124.186 174.761 123.971 175.032C123.766 175.303 123.612 175.62 123.509 175.984C123.416 176.348 123.369 176.735 123.369 177.146C123.369 177.557 123.416 177.944 123.509 178.308C123.612 178.672 123.766 178.989 123.971 179.26C124.186 179.531 124.457 179.745 124.783 179.904C125.11 180.053 125.497 180.128 125.945 180.128ZM134.199 180.128C134.6 180.128 134.936 180.067 135.207 179.946C135.487 179.815 135.711 179.638 135.879 179.414C136.047 179.19 136.168 178.924 136.243 178.616C136.318 178.308 136.355 177.967 136.355 177.594V173.45H137.279V177.622C137.279 178.667 137.036 179.479 136.551 180.058C136.066 180.627 135.282 180.912 134.199 180.912C133.144 180.912 132.37 180.627 131.875 180.058C131.39 179.479 131.147 178.667 131.147 177.622V173.45H132.071V177.594C132.071 177.949 132.108 178.28 132.183 178.588C132.258 178.896 132.379 179.167 132.547 179.4C132.715 179.624 132.934 179.801 133.205 179.932C133.476 180.063 133.807 180.128 134.199 180.128ZM139.269 180.828V173.45H140.165L140.193 174.724C140.361 174.444 140.547 174.215 140.753 174.038C140.967 173.861 141.201 173.721 141.453 173.618C141.705 173.515 141.971 173.45 142.251 173.422C142.531 173.385 142.825 173.371 143.133 173.38V174.22H142.881C142.433 174.22 142.045 174.29 141.719 174.43C141.392 174.561 141.121 174.743 140.907 174.976C140.608 175.284 140.412 175.629 140.319 176.012C140.235 176.395 140.193 176.796 140.193 177.216V180.828H139.269ZM149.862 173.45H152.228V174.234H149.862V178.392C149.862 178.607 149.871 178.817 149.89 179.022C149.918 179.227 149.974 179.414 150.058 179.582C150.142 179.741 150.263 179.871 150.422 179.974C150.59 180.077 150.814 180.128 151.094 180.128C151.271 180.128 151.448 180.105 151.626 180.058C151.812 180.002 151.962 179.923 152.074 179.82L152.438 180.478C152.223 180.646 151.994 180.763 151.752 180.828C151.518 180.884 151.257 180.912 150.968 180.912C150.585 180.912 150.263 180.856 150.002 180.744C149.74 180.632 149.53 180.478 149.372 180.282C149.213 180.077 149.101 179.829 149.036 179.54C148.97 179.241 148.938 178.91 148.938 178.546V174.234H147.692V173.45H148.938V171.336H149.862V173.45ZM158.732 179.764C158.377 180.193 157.971 180.492 157.514 180.66C157.066 180.828 156.571 180.912 156.03 180.912C155.703 180.912 155.386 180.875 155.078 180.8C154.779 180.716 154.509 180.585 154.266 180.408C154.023 180.231 153.827 180.007 153.678 179.736C153.538 179.456 153.468 179.143 153.468 178.798C153.468 178.378 153.547 178.028 153.706 177.748C153.865 177.468 154.07 177.244 154.322 177.076C154.583 176.908 154.882 176.791 155.218 176.726C155.554 176.651 155.904 176.614 156.268 176.614H158.69C158.69 176.278 158.653 175.961 158.578 175.662C158.513 175.363 158.401 175.102 158.242 174.878C158.083 174.654 157.873 174.477 157.612 174.346C157.36 174.215 157.047 174.15 156.674 174.15C156.497 174.15 156.315 174.164 156.128 174.192C155.951 174.22 155.778 174.267 155.61 174.332C155.451 174.397 155.302 174.491 155.162 174.612C155.031 174.724 154.924 174.864 154.84 175.032H153.832C153.916 174.724 154.056 174.467 154.252 174.262C154.448 174.047 154.677 173.875 154.938 173.744C155.209 173.604 155.493 173.506 155.792 173.45C156.1 173.394 156.403 173.366 156.702 173.366C157.243 173.366 157.701 173.455 158.074 173.632C158.447 173.809 158.746 174.057 158.97 174.374C159.203 174.682 159.367 175.046 159.46 175.466C159.563 175.886 159.614 176.339 159.614 176.824V180.828H158.858L158.732 179.764ZM156.744 177.356C156.501 177.356 156.24 177.365 155.96 177.384C155.689 177.403 155.437 177.459 155.204 177.552C154.971 177.636 154.775 177.771 154.616 177.958C154.467 178.135 154.392 178.383 154.392 178.7C154.392 178.952 154.439 179.167 154.532 179.344C154.635 179.521 154.765 179.671 154.924 179.792C155.092 179.913 155.279 180.002 155.484 180.058C155.699 180.114 155.918 180.142 156.142 180.142C156.506 180.142 156.842 180.095 157.15 180.002C157.467 179.909 157.738 179.769 157.962 179.582C158.195 179.386 158.373 179.148 158.494 178.868C158.625 178.579 158.69 178.243 158.69 177.86V177.356H156.744ZM164.199 174.15C163.984 174.15 163.765 174.169 163.541 174.206C163.326 174.243 163.13 174.309 162.953 174.402C162.775 174.486 162.626 174.607 162.505 174.766C162.393 174.925 162.337 175.13 162.337 175.382C162.337 175.578 162.374 175.746 162.449 175.886C162.533 176.026 162.635 176.143 162.757 176.236C162.887 176.329 163.032 176.404 163.191 176.46C163.349 176.516 163.513 176.563 163.681 176.6C163.979 176.665 164.273 176.726 164.563 176.782C164.852 176.838 165.146 176.903 165.445 176.978C165.939 177.081 166.341 177.277 166.649 177.566C166.966 177.855 167.125 178.271 167.125 178.812C167.125 179.223 167.036 179.563 166.859 179.834C166.691 180.105 166.471 180.324 166.201 180.492C165.93 180.651 165.622 180.763 165.277 180.828C164.931 180.884 164.586 180.912 164.241 180.912C163.923 180.912 163.601 180.879 163.275 180.814C162.948 180.749 162.645 180.646 162.365 180.506C162.085 180.357 161.842 180.165 161.637 179.932C161.431 179.699 161.291 179.405 161.217 179.05H162.155C162.257 179.265 162.383 179.442 162.533 179.582C162.691 179.713 162.864 179.82 163.051 179.904C163.237 179.979 163.433 180.035 163.639 180.072C163.853 180.109 164.068 180.128 164.283 180.128C164.497 180.128 164.717 180.114 164.941 180.086C165.174 180.058 165.384 180.002 165.571 179.918C165.757 179.825 165.911 179.694 166.033 179.526C166.154 179.358 166.215 179.139 166.215 178.868C166.215 178.681 166.177 178.523 166.103 178.392C166.028 178.261 165.93 178.154 165.809 178.07C165.687 177.986 165.547 177.921 165.389 177.874C165.239 177.818 165.085 177.771 164.927 177.734C164.637 177.669 164.353 177.613 164.073 177.566C163.793 177.51 163.503 177.445 163.205 177.37C162.691 177.249 162.267 177.034 161.931 176.726C161.595 176.409 161.427 175.97 161.427 175.41C161.427 175.009 161.511 174.677 161.679 174.416C161.847 174.155 162.061 173.949 162.323 173.8C162.593 173.641 162.897 173.529 163.233 173.464C163.569 173.399 163.9 173.366 164.227 173.366C164.516 173.366 164.805 173.399 165.095 173.464C165.393 173.52 165.664 173.618 165.907 173.758C166.149 173.898 166.355 174.08 166.523 174.304C166.7 174.528 166.817 174.799 166.873 175.116H166.019C165.953 174.948 165.855 174.803 165.725 174.682C165.594 174.551 165.445 174.449 165.277 174.374C165.109 174.299 164.931 174.243 164.745 174.206C164.558 174.169 164.376 174.15 164.199 174.15ZM168.745 180.828V170.93H169.669V176.754H171.251L173.533 173.45H174.555L172.077 176.992L174.793 180.828H173.729L171.349 177.524H169.669V180.828H168.745ZM176.384 178.098L176.356 170.93H177.252L177.224 178.098H176.384ZM176.804 179.526C177 179.526 177.163 179.596 177.294 179.736C177.425 179.867 177.49 180.03 177.49 180.226C177.49 180.431 177.425 180.604 177.294 180.744C177.173 180.875 177.009 180.94 176.804 180.94C176.589 180.94 176.417 180.875 176.286 180.744C176.165 180.613 176.104 180.441 176.104 180.226C176.104 180.011 176.165 179.843 176.286 179.722C176.417 179.591 176.589 179.526 176.804 179.526Z" fill="white"/>
<rect y="84.9922" width="111" height="41" rx="15" transform="rotate(-5.12112 0 84.9922)" fill="white"/>
<path d="M24.8918 113.886L23.0351 93.1686L36.5808 91.9547L36.8498 94.956L26.996 95.8391L27.4744 101.178L35.1238 100.492L35.3761 103.308L27.7267 103.993L28.5836 113.555L24.8918 113.886ZM41.357 112.41L39.5004 91.693L47.7606 90.9528C49.5313 90.7941 50.9797 90.9231 52.1058 91.3398C53.2304 91.7388 54.0786 92.341 54.6506 93.1465C55.2403 93.9504 55.5843 94.9013 55.6827 95.9991C55.8017 97.3271 55.5403 98.4929 54.8984 99.4964C54.2565 100.5 53.2528 101.25 51.8873 101.747L57.571 110.796L57.5853 110.956L53.6544 111.308L48.2962 102.605L44.2059 102.971L45.0223 112.082L41.357 112.41ZM43.956 100.183L48.1525 99.8064C49.5159 99.6843 50.5038 99.3548 51.1161 98.818C51.7284 98.2812 51.9885 97.4993 51.8965 96.4723C51.8028 95.4276 51.399 94.7052 50.6849 94.3051C49.9869 93.8857 48.965 93.7364 47.6193 93.857L43.4228 94.233L43.956 100.183ZM60.3434 110.708L58.4868 89.9915L72.1919 88.7632L72.4608 91.7645L62.4476 92.6619L62.9142 97.8677L70.7229 97.1679L70.9776 100.01L63.1689 100.71L63.7663 107.376L73.9389 106.465L74.2079 109.466L60.3434 110.708ZM77.7424 109.149L75.8858 88.4322L89.5909 87.204L89.8599 90.2053L79.8467 91.1026L80.3132 96.3084L88.1219 95.6086L88.3766 98.4506L80.5679 99.1504L81.1653 105.817L91.3379 104.905L91.6069 107.907L77.7424 109.149Z" fill="#0223B5"/>
<path d="M27.7667 55.9922V29.9922H38.1333C40.3556 29.9922 42.1444 30.3144 43.5 30.9589C44.8556 31.5811 45.8444 32.4255 46.4667 33.4922C47.1111 34.5589 47.4333 35.7811 47.4333 37.1589C47.4333 38.8255 46.9778 40.2477 46.0667 41.4255C45.1556 42.6033 43.8222 43.4255 42.0667 43.8922L48.1333 55.7922V55.9922H43.2L37.5 44.5589H32.3667V55.9922H27.7667ZM32.3667 41.0589H37.6333C39.3444 41.0589 40.6111 40.7589 41.4333 40.1589C42.2556 39.5589 42.6667 38.6144 42.6667 37.3255C42.6667 36.0144 42.2444 35.07 41.4 34.4922C40.5778 33.8922 39.3222 33.5922 37.6333 33.5922H32.3667V41.0589ZM51.5948 55.9922V29.9922H68.7948V33.7589H56.2281V40.2922H66.0281V43.8589H56.2281V52.2255H68.9948V55.9922H51.5948ZM83.2333 56.4589C80.5444 56.4589 78.3 55.9144 76.5 54.8255C74.7222 53.7144 73.3889 52.1477 72.5 50.1255C71.6333 48.1033 71.2 45.7255 71.2 42.9922C71.2 40.2366 71.6333 37.8589 72.5 35.8589C73.3889 33.8366 74.7222 32.2811 76.5 31.1922C78.3 30.0811 80.5444 29.5255 83.2333 29.5255C85.9667 29.5255 88.2222 30.0811 90 31.1922C91.7778 32.2811 93.1 33.8366 93.9667 35.8589C94.8556 37.8589 95.3 40.2366 95.3 42.9922C95.3 45.7255 94.8556 48.1033 93.9667 50.1255C93.1 52.1477 91.7778 53.7144 90 54.8255C88.2222 55.9144 85.9667 56.4589 83.2333 56.4589ZM83.2333 52.8589C85.7222 52.8589 87.5556 52.0033 88.7333 50.2922C89.9111 48.5589 90.5 46.1255 90.5 42.9922C90.5 39.8589 89.9111 37.4366 88.7333 35.7255C87.5556 33.9922 85.7222 33.1255 83.2333 33.1255C80.7667 33.1255 78.9444 33.9922 77.7667 35.7255C76.5889 37.4366 76 39.8589 76 42.9922C76 46.1255 76.5889 48.5589 77.7667 50.2922C78.9444 52.0033 80.7667 52.8589 83.2333 52.8589ZM88.2 60.9922L83.4667 54.9589L88.2 54.1922L93.3667 60.7922V60.9922H88.2ZM109.651 56.4922C105.984 56.4922 103.273 55.5255 101.518 53.5922C99.7844 51.6366 98.9177 48.8477 98.9177 45.2255V29.9922H103.651V45.2255C103.651 47.6922 104.118 49.5477 105.051 50.7922C105.984 52.0366 107.54 52.6589 109.718 52.6589C111.895 52.6589 113.44 52.0366 114.351 50.7922C115.284 49.5477 115.751 47.6922 115.751 45.2255V29.9922H120.351V45.2255C120.351 48.8477 119.484 51.6366 117.751 53.5922C116.04 55.5255 113.34 56.4922 109.651 56.4922ZM125.579 55.9922V29.9922H142.779V33.7589H130.213V40.2922H140.013V43.8589H130.213V52.2255H142.979V55.9922H125.579ZM155.984 56.4922C154.118 56.4922 152.518 56.2366 151.184 55.7255C149.851 55.2144 148.751 54.5366 147.884 53.6922C147.018 52.8255 146.362 51.8477 145.918 50.7589C145.473 49.67 145.218 48.5589 145.151 47.4255H149.551C149.618 48.3144 149.895 49.1811 150.384 50.0255C150.873 50.87 151.595 51.5589 152.551 52.0922C153.507 52.6255 154.707 52.8922 156.151 52.8922C157.707 52.8922 158.895 52.5589 159.718 51.8922C160.562 51.2255 160.984 50.3255 160.984 49.1922C160.984 48.1033 160.595 47.2477 159.818 46.6255C159.062 45.9811 158.084 45.4589 156.884 45.0589L153.751 44.0255C152.507 43.6033 151.318 43.1033 150.184 42.5255C149.073 41.9477 148.151 41.1922 147.418 40.2589C146.707 39.3033 146.351 38.07 146.351 36.5589C146.351 35.0477 146.718 33.77 147.451 32.7255C148.207 31.6811 149.251 30.8811 150.584 30.3255C151.918 29.77 153.451 29.4922 155.184 29.4922C157.362 29.4922 159.107 29.87 160.418 30.6255C161.751 31.3811 162.729 32.3477 163.351 33.5255C163.995 34.7033 164.373 35.97 164.484 37.3255H160.084C160.018 36.6144 159.807 35.9366 159.451 35.2922C159.118 34.6255 158.595 34.0922 157.884 33.6922C157.173 33.27 156.218 33.0589 155.018 33.0589C153.684 33.0589 152.651 33.3477 151.918 33.9255C151.207 34.5033 150.851 35.2589 150.851 36.1922C150.851 37.2366 151.251 38.0589 152.051 38.6589C152.851 39.2366 153.851 39.7255 155.051 40.1255L158.218 41.1589C159.462 41.5589 160.629 42.0589 161.718 42.6589C162.829 43.2366 163.729 44.0144 164.418 44.9922C165.129 45.9477 165.484 47.2255 165.484 48.8255C165.484 51.2255 164.64 53.1033 162.951 54.4589C161.262 55.8144 158.94 56.4922 155.984 56.4922ZM173.815 55.9922V33.7589H165.648V29.9922H186.648V33.7589H178.482V55.9922H173.815Z" fill="white"/>
<path d="M127.213 113.992V93.1922H134.333C137.978 93.1922 140.618 94.1077 142.253 95.9389C143.889 97.7522 144.707 100.303 144.707 103.592C144.707 106.881 143.889 109.441 142.253 111.272C140.618 113.086 137.978 113.992 134.333 113.992H127.213ZM130.973 111.006H134.067C135.631 111.006 136.911 110.757 137.907 110.259C138.92 109.761 139.667 108.97 140.147 107.886C140.627 106.801 140.867 105.37 140.867 103.592C140.867 101.814 140.627 100.383 140.147 99.2989C139.667 98.2144 138.92 97.4233 137.907 96.9255C136.911 96.4277 135.631 96.1789 134.067 96.1789H130.973V111.006ZM147.87 113.992V93.1922H161.63V96.2055H151.576V101.432H159.416V104.286H151.576V110.979H161.79V113.992H147.87ZM165.338 113.992V93.1922H172.005L176.698 111.032H177.498L182.245 93.1922H188.912V113.992H185.338V96.3122H184.672L180.058 113.992H173.952L169.338 96.3122H168.672V113.992H165.338ZM201.712 114.366C199.561 114.366 197.765 113.93 196.325 113.059C194.903 112.17 193.836 110.917 193.125 109.299C192.432 107.681 192.085 105.779 192.085 103.592C192.085 101.388 192.432 99.4855 193.125 97.8855C193.836 96.2677 194.903 95.0233 196.325 94.1522C197.765 93.2633 199.561 92.8189 201.712 92.8189C203.898 92.8189 205.703 93.2633 207.125 94.1522C208.547 95.0233 209.605 96.2677 210.298 97.8855C211.009 99.4855 211.365 101.388 211.365 103.592C211.365 105.779 211.009 107.681 210.298 109.299C209.605 110.917 208.547 112.17 207.125 113.059C205.703 113.93 203.898 114.366 201.712 114.366ZM201.712 111.486C203.703 111.486 205.169 110.801 206.112 109.432C207.054 108.046 207.525 106.099 207.525 103.592C207.525 101.086 207.054 99.1477 206.112 97.7789C205.169 96.3922 203.703 95.6989 201.712 95.6989C199.738 95.6989 198.281 96.3922 197.338 97.7789C196.396 99.1477 195.925 101.086 195.925 103.592C195.925 106.099 196.396 108.046 197.338 109.432C198.281 110.801 199.738 111.486 201.712 111.486Z" fill="white"/>
<path d="M9.29733 21.2571L15.9793 24.9155M15.4817 1.07399L24.9344 16.1722" stroke="white"/>
</svg>
