<svg width="584" height="158" viewBox="0 0 584 158" fill="none" xmlns="http://www.w3.org/2000/svg">
<path d="M574.414 103.351C574.414 103.351 580.618 122.446 556.137 129.209M556.137 129.209C529.482 136.574 551.14 102.308 556.137 129.209ZM556.137 129.209C547.649 156.934 516.493 143.964 516.493 143.964" stroke="white"/>
<path d="M61.6 108.478C61.0933 109.092 60.5133 109.518 59.86 109.758C59.22 109.998 58.5133 110.118 57.74 110.118C57.2733 110.118 56.82 110.065 56.38 109.958C55.9533 109.838 55.5667 109.652 55.22 109.398C54.8733 109.145 54.5933 108.825 54.38 108.438C54.18 108.038 54.08 107.592 54.08 107.098C54.08 106.498 54.1933 105.998 54.42 105.598C54.6467 105.198 54.94 104.878 55.3 104.638C55.6733 104.398 56.1 104.232 56.58 104.138C57.06 104.032 57.56 103.978 58.08 103.978H61.54C61.54 103.498 61.4867 103.045 61.38 102.618C61.2867 102.192 61.1267 101.818 60.9 101.498C60.6733 101.178 60.3733 100.925 60 100.738C59.64 100.552 59.1933 100.458 58.66 100.458C58.4067 100.458 58.1467 100.478 57.88 100.518C57.6267 100.558 57.38 100.625 57.14 100.718C56.9133 100.812 56.7 100.945 56.5 101.118C56.3133 101.278 56.16 101.478 56.04 101.718H54.6C54.72 101.278 54.92 100.912 55.2 100.618C55.48 100.312 55.8067 100.065 56.18 99.8783C56.5667 99.6783 56.9733 99.5383 57.4 99.4583C57.84 99.3783 58.2733 99.3383 58.7 99.3383C59.4733 99.3383 60.1267 99.465 60.66 99.7183C61.1933 99.9716 61.62 100.325 61.94 100.778C62.2733 101.218 62.5067 101.738 62.64 102.338C62.7867 102.938 62.86 103.585 62.86 104.278V109.998H61.78L61.6 108.478ZM58.76 105.038C58.4133 105.038 58.04 105.052 57.64 105.078C57.2533 105.105 56.8933 105.185 56.56 105.318C56.2267 105.438 55.9467 105.632 55.72 105.898C55.5067 106.152 55.4 106.505 55.4 106.958C55.4 107.318 55.4667 107.625 55.6 107.878C55.7467 108.132 55.9333 108.345 56.16 108.518C56.4 108.692 56.6667 108.818 56.96 108.898C57.2667 108.978 57.58 109.018 57.9 109.018C58.42 109.018 58.9 108.952 59.34 108.818C59.7933 108.685 60.18 108.485 60.5 108.218C60.8333 107.938 61.0867 107.598 61.26 107.198C61.4467 106.785 61.54 106.305 61.54 105.758V105.038H58.76ZM65.7095 109.998V99.4583H66.9895L67.0295 101.258C67.2162 100.938 67.4495 100.658 67.7295 100.418C68.0095 100.165 68.3029 99.965 68.6095 99.8183C68.9562 99.645 69.3095 99.525 69.6695 99.4583C70.0429 99.3783 70.4429 99.3383 70.8695 99.3383C71.4429 99.3383 71.9429 99.4183 72.3695 99.5783C72.8095 99.7383 73.1829 99.9516 73.4895 100.218C73.9962 100.645 74.3495 101.198 74.5495 101.878C74.7495 102.558 74.8495 103.318 74.8495 104.158V109.998H73.5295V104.638C73.5295 104.012 73.4762 103.412 73.3695 102.838C73.2762 102.252 73.0629 101.752 72.7295 101.338C72.5029 101.072 72.2229 100.858 71.8895 100.698C71.5562 100.538 71.1362 100.458 70.6295 100.458C70.0829 100.458 69.5829 100.572 69.1295 100.798C68.6762 101.025 68.2962 101.318 67.9895 101.678C67.6429 102.078 67.3962 102.538 67.2495 103.058C67.1029 103.578 67.0295 104.125 67.0295 104.698V109.998H65.7095ZM85.7227 95.8583H87.0427V109.998H85.7227V108.338C85.2827 108.938 84.7293 109.385 84.0627 109.678C83.396 109.972 82.6627 110.118 81.8627 110.118C81.036 110.118 80.3227 109.965 79.7227 109.658C79.136 109.352 78.656 108.938 78.2827 108.418C77.9227 107.898 77.656 107.298 77.4827 106.618C77.3227 105.925 77.256 105.205 77.2827 104.458C77.296 103.725 77.4093 103.052 77.6227 102.438C77.8493 101.812 78.1693 101.272 78.5827 100.818C78.996 100.352 79.496 99.9916 80.0827 99.7383C80.6827 99.4716 81.3627 99.3383 82.1227 99.3383C82.4693 99.3383 82.816 99.3716 83.1627 99.4383C83.5093 99.4916 83.836 99.585 84.1427 99.7183C84.4627 99.8516 84.756 100.025 85.0227 100.238C85.2893 100.452 85.5227 100.712 85.7227 101.018V95.8583ZM82.1027 100.458C81.476 100.458 80.9427 100.578 80.5027 100.818C80.0627 101.045 79.7027 101.358 79.4227 101.758C79.1427 102.145 78.936 102.592 78.8027 103.098C78.6693 103.605 78.6027 104.138 78.6027 104.698C78.6027 105.285 78.6627 105.838 78.7827 106.358C78.916 106.878 79.1227 107.332 79.4027 107.718C79.6827 108.105 80.0427 108.418 80.4827 108.658C80.936 108.885 81.4893 108.998 82.1427 108.998C82.7293 108.998 83.256 108.872 83.7227 108.618C84.2027 108.352 84.596 108.018 84.9027 107.618C85.2093 107.218 85.4293 106.772 85.5627 106.278C85.696 105.772 85.7627 105.245 85.7627 104.698C85.7627 104.045 85.656 103.398 85.4427 102.758C85.2293 102.118 84.8493 101.592 84.3027 101.178C83.996 100.952 83.656 100.778 83.2827 100.658C82.9093 100.525 82.516 100.458 82.1027 100.458ZM105.799 108.898L108.419 99.4583H109.919L106.719 109.998H104.859L102.099 100.518L99.3389 109.998H97.4589L94.2189 99.4583H95.7189L98.3989 108.898L101.079 99.4583H103.119L105.799 108.898ZM112.606 105.158C112.632 105.718 112.726 106.232 112.886 106.698C113.059 107.165 113.299 107.572 113.606 107.918C113.912 108.252 114.286 108.518 114.726 108.718C115.179 108.905 115.706 108.998 116.306 108.998C116.586 108.998 116.866 108.972 117.146 108.918C117.439 108.865 117.712 108.785 117.966 108.678C118.232 108.558 118.472 108.405 118.686 108.218C118.899 108.032 119.066 107.798 119.186 107.518H120.566C120.419 107.985 120.192 108.385 119.886 108.718C119.592 109.052 119.252 109.325 118.866 109.538C118.479 109.738 118.059 109.885 117.606 109.978C117.152 110.072 116.699 110.118 116.246 110.118C115.419 110.118 114.692 109.985 114.066 109.718C113.452 109.452 112.939 109.085 112.526 108.618C112.112 108.138 111.806 107.572 111.606 106.918C111.406 106.252 111.306 105.525 111.306 104.738C111.306 103.938 111.412 103.205 111.626 102.538C111.839 101.872 112.152 101.305 112.566 100.838C112.992 100.358 113.512 99.9916 114.126 99.7383C114.752 99.4716 115.466 99.3383 116.266 99.3383C117.106 99.3383 117.812 99.505 118.386 99.8383C118.972 100.172 119.446 100.612 119.806 101.158C120.166 101.692 120.419 102.312 120.566 103.018C120.726 103.712 120.792 104.425 120.766 105.158H112.606ZM119.426 104.058C119.412 103.578 119.332 103.118 119.186 102.678C119.052 102.238 118.846 101.858 118.566 101.538C118.299 101.205 117.959 100.945 117.546 100.758C117.132 100.558 116.652 100.458 116.106 100.458C115.559 100.458 115.072 100.558 114.646 100.758C114.232 100.958 113.879 101.225 113.586 101.558C113.292 101.892 113.066 102.278 112.906 102.718C112.746 103.145 112.652 103.592 112.626 104.058H119.426ZM124.349 100.278H123.429L123.249 95.8583H124.549L124.349 100.278ZM127.428 109.998V95.8583H128.748V109.998H127.428ZM131.628 109.998V95.8583H132.948V109.998H131.628ZM144.917 100.458C144.611 100.458 144.297 100.485 143.977 100.538C143.671 100.592 143.391 100.685 143.137 100.818C142.884 100.938 142.671 101.112 142.497 101.338C142.337 101.565 142.257 101.858 142.257 102.218C142.257 102.498 142.311 102.738 142.417 102.938C142.537 103.138 142.684 103.305 142.857 103.438C143.044 103.572 143.251 103.678 143.477 103.758C143.704 103.838 143.937 103.905 144.177 103.958C144.604 104.052 145.024 104.138 145.437 104.218C145.851 104.298 146.271 104.392 146.697 104.498C147.404 104.645 147.977 104.925 148.417 105.338C148.871 105.752 149.097 106.345 149.097 107.118C149.097 107.705 148.971 108.192 148.717 108.578C148.477 108.965 148.164 109.278 147.777 109.518C147.391 109.745 146.951 109.905 146.457 109.998C145.964 110.078 145.471 110.118 144.977 110.118C144.524 110.118 144.064 110.072 143.597 109.978C143.131 109.885 142.697 109.738 142.297 109.538C141.897 109.325 141.551 109.052 141.257 108.718C140.964 108.385 140.764 107.965 140.657 107.458H141.997C142.144 107.765 142.324 108.018 142.537 108.218C142.764 108.405 143.011 108.558 143.277 108.678C143.544 108.785 143.824 108.865 144.117 108.918C144.424 108.972 144.731 108.998 145.037 108.998C145.344 108.998 145.657 108.978 145.977 108.938C146.311 108.898 146.611 108.818 146.877 108.698C147.144 108.565 147.364 108.378 147.537 108.138C147.711 107.898 147.797 107.585 147.797 107.198C147.797 106.932 147.744 106.705 147.637 106.518C147.531 106.332 147.391 106.178 147.217 106.058C147.044 105.938 146.844 105.845 146.617 105.778C146.404 105.698 146.184 105.632 145.957 105.578C145.544 105.485 145.137 105.405 144.737 105.338C144.337 105.258 143.924 105.165 143.497 105.058C142.764 104.885 142.157 104.578 141.677 104.138C141.197 103.685 140.957 103.058 140.957 102.258C140.957 101.685 141.077 101.212 141.317 100.838C141.557 100.465 141.864 100.172 142.237 99.9583C142.624 99.7316 143.057 99.5716 143.537 99.4783C144.017 99.385 144.491 99.3383 144.957 99.3383C145.371 99.3383 145.784 99.385 146.197 99.4783C146.624 99.5583 147.011 99.6983 147.357 99.8983C147.704 100.098 147.997 100.358 148.237 100.678C148.491 100.998 148.657 101.385 148.737 101.838H147.517C147.424 101.598 147.284 101.392 147.097 101.218C146.911 101.032 146.697 100.885 146.457 100.778C146.217 100.672 145.964 100.592 145.697 100.538C145.431 100.485 145.171 100.458 144.917 100.458ZM151.413 109.998V95.8583H152.733V101.218C152.919 100.898 153.139 100.625 153.393 100.398C153.659 100.172 153.959 99.9716 154.293 99.7983C154.626 99.6383 154.986 99.525 155.373 99.4583C155.773 99.3783 156.173 99.3383 156.573 99.3383C157.133 99.3383 157.633 99.4183 158.073 99.5783C158.513 99.7383 158.886 99.9516 159.193 100.218C159.699 100.645 160.053 101.198 160.253 101.878C160.453 102.558 160.553 103.318 160.553 104.158V109.998H159.233V104.638C159.233 104.012 159.179 103.412 159.073 102.838C158.979 102.252 158.766 101.752 158.433 101.338C158.206 101.072 157.926 100.858 157.593 100.698C157.259 100.538 156.839 100.458 156.333 100.458C155.786 100.458 155.279 100.572 154.813 100.798C154.359 101.012 153.979 101.305 153.673 101.678C153.339 102.078 153.099 102.538 152.953 103.058C152.806 103.578 152.733 104.125 152.733 104.698V109.998H151.413ZM167.946 99.3383C168.772 99.3383 169.492 99.4716 170.106 99.7383C170.732 100.005 171.252 100.378 171.666 100.858C172.092 101.338 172.412 101.912 172.626 102.578C172.839 103.232 172.946 103.952 172.946 104.738C172.946 105.525 172.839 106.252 172.626 106.918C172.412 107.572 172.092 108.138 171.666 108.618C171.252 109.085 170.732 109.452 170.106 109.718C169.492 109.985 168.772 110.118 167.946 110.118C167.119 110.118 166.392 109.985 165.766 109.718C165.152 109.452 164.632 109.085 164.206 108.618C163.792 108.138 163.479 107.572 163.266 106.918C163.066 106.252 162.966 105.525 162.966 104.738C162.966 103.952 163.066 103.232 163.266 102.578C163.479 101.912 163.792 101.338 164.206 100.858C164.632 100.378 165.152 100.005 165.766 99.7383C166.392 99.4716 167.119 99.3383 167.946 99.3383ZM167.946 108.998C168.586 108.998 169.139 108.892 169.606 108.678C170.072 108.452 170.452 108.145 170.746 107.758C171.052 107.372 171.272 106.918 171.406 106.398C171.552 105.878 171.626 105.325 171.626 104.738C171.626 104.152 171.552 103.598 171.406 103.078C171.272 102.558 171.052 102.105 170.746 101.718C170.452 101.332 170.072 101.025 169.606 100.798C169.139 100.572 168.586 100.458 167.946 100.458C167.306 100.458 166.752 100.572 166.286 100.798C165.819 101.025 165.432 101.332 165.126 101.718C164.832 102.105 164.612 102.558 164.466 103.078C164.332 103.598 164.266 104.152 164.266 104.738C164.266 105.325 164.332 105.878 164.466 106.398C164.612 106.918 164.832 107.372 165.126 107.758C165.432 108.145 165.819 108.452 166.286 108.678C166.752 108.892 167.306 108.998 167.946 108.998ZM185.897 108.898L188.517 99.4583H190.017L186.817 109.998H184.957L182.197 100.518L179.437 109.998H177.557L174.317 99.4583H175.817L178.497 108.898L181.177 99.4583H183.217L185.897 108.898ZM206.394 99.4583V109.998C206.394 110.825 206.307 111.525 206.134 112.098C205.961 112.685 205.667 113.205 205.254 113.658C204.801 114.152 204.254 114.485 203.614 114.658C202.974 114.832 202.334 114.918 201.694 114.918C200.974 114.918 200.241 114.812 199.494 114.598C198.747 114.385 198.094 114.045 197.534 113.578L198.114 112.498C198.647 112.898 199.214 113.205 199.814 113.418C200.427 113.645 201.054 113.758 201.694 113.758C202.307 113.758 202.827 113.672 203.254 113.498C203.681 113.325 204.034 113.078 204.314 112.758C204.594 112.438 204.787 112.038 204.894 111.558C205.014 111.078 205.074 110.552 205.074 109.978V108.398C204.874 108.718 204.627 108.992 204.334 109.218C204.054 109.445 203.747 109.632 203.414 109.778C203.081 109.912 202.727 110.005 202.354 110.058C201.994 110.125 201.634 110.158 201.274 110.158C200.554 110.158 199.934 110.045 199.414 109.818C198.907 109.592 198.501 109.298 198.194 108.938C197.807 108.512 197.541 107.965 197.394 107.298C197.261 106.632 197.194 105.918 197.194 105.158V99.4583H198.514V104.658C198.514 105.258 198.541 105.845 198.594 106.418C198.661 106.992 198.827 107.478 199.094 107.878C199.321 108.225 199.634 108.505 200.034 108.718C200.447 108.918 200.961 109.012 201.574 108.998C202.334 108.985 202.954 108.818 203.434 108.498C203.927 108.165 204.307 107.725 204.574 107.178C204.761 106.792 204.887 106.372 204.954 105.918C205.034 105.465 205.074 104.998 205.074 104.518V99.4583H206.394ZM213.844 99.3383C214.671 99.3383 215.391 99.4716 216.004 99.7383C216.631 100.005 217.151 100.378 217.564 100.858C217.991 101.338 218.311 101.912 218.524 102.578C218.738 103.232 218.844 103.952 218.844 104.738C218.844 105.525 218.738 106.252 218.524 106.918C218.311 107.572 217.991 108.138 217.564 108.618C217.151 109.085 216.631 109.452 216.004 109.718C215.391 109.985 214.671 110.118 213.844 110.118C213.018 110.118 212.291 109.985 211.664 109.718C211.051 109.452 210.531 109.085 210.104 108.618C209.691 108.138 209.378 107.572 209.164 106.918C208.964 106.252 208.864 105.525 208.864 104.738C208.864 103.952 208.964 103.232 209.164 102.578C209.378 101.912 209.691 101.338 210.104 100.858C210.531 100.378 211.051 100.005 211.664 99.7383C212.291 99.4716 213.018 99.3383 213.844 99.3383ZM213.844 108.998C214.484 108.998 215.038 108.892 215.504 108.678C215.971 108.452 216.351 108.145 216.644 107.758C216.951 107.372 217.171 106.918 217.304 106.398C217.451 105.878 217.524 105.325 217.524 104.738C217.524 104.152 217.451 103.598 217.304 103.078C217.171 102.558 216.951 102.105 216.644 101.718C216.351 101.332 215.971 101.025 215.504 100.798C215.038 100.572 214.484 100.458 213.844 100.458C213.204 100.458 212.651 100.572 212.184 100.798C211.718 101.025 211.331 101.332 211.024 101.718C210.731 102.105 210.511 102.558 210.364 103.078C210.231 103.598 210.164 104.152 210.164 104.738C210.164 105.325 210.231 105.878 210.364 106.398C210.511 106.918 210.731 107.372 211.024 107.758C211.331 108.145 211.718 108.452 212.184 108.678C212.651 108.892 213.204 108.998 213.844 108.998ZM225.635 108.998C226.208 108.998 226.688 108.912 227.075 108.738C227.475 108.552 227.795 108.298 228.035 107.978C228.275 107.658 228.448 107.278 228.555 106.838C228.662 106.398 228.715 105.912 228.715 105.378V99.4583H230.035V105.418C230.035 106.912 229.688 108.072 228.995 108.898C228.302 109.712 227.182 110.118 225.635 110.118C224.128 110.118 223.022 109.712 222.315 108.898C221.622 108.072 221.275 106.912 221.275 105.418V99.4583H222.595V105.378C222.595 105.885 222.648 106.358 222.755 106.798C222.862 107.238 223.035 107.625 223.275 107.958C223.515 108.278 223.828 108.532 224.215 108.718C224.602 108.905 225.075 108.998 225.635 108.998ZM245.428 108.478C244.921 109.092 244.341 109.518 243.688 109.758C243.048 109.998 242.341 110.118 241.568 110.118C241.101 110.118 240.648 110.065 240.208 109.958C239.781 109.838 239.395 109.652 239.048 109.398C238.701 109.145 238.421 108.825 238.208 108.438C238.008 108.038 237.908 107.592 237.908 107.098C237.908 106.498 238.021 105.998 238.248 105.598C238.475 105.198 238.768 104.878 239.128 104.638C239.501 104.398 239.928 104.232 240.408 104.138C240.888 104.032 241.388 103.978 241.908 103.978H245.368C245.368 103.498 245.315 103.045 245.208 102.618C245.115 102.192 244.955 101.818 244.728 101.498C244.501 101.178 244.201 100.925 243.828 100.738C243.468 100.552 243.021 100.458 242.488 100.458C242.235 100.458 241.975 100.478 241.708 100.518C241.455 100.558 241.208 100.625 240.968 100.718C240.741 100.812 240.528 100.945 240.328 101.118C240.141 101.278 239.988 101.478 239.868 101.718H238.428C238.548 101.278 238.748 100.912 239.028 100.618C239.308 100.312 239.635 100.065 240.008 99.8783C240.395 99.6783 240.801 99.5383 241.228 99.4583C241.668 99.3783 242.101 99.3383 242.528 99.3383C243.301 99.3383 243.955 99.465 244.488 99.7183C245.021 99.9716 245.448 100.325 245.768 100.778C246.101 101.218 246.335 101.738 246.468 102.338C246.615 102.938 246.688 103.585 246.688 104.278V109.998H245.608L245.428 108.478ZM242.588 105.038C242.241 105.038 241.868 105.052 241.468 105.078C241.081 105.105 240.721 105.185 240.388 105.318C240.055 105.438 239.775 105.632 239.548 105.898C239.335 106.152 239.228 106.505 239.228 106.958C239.228 107.318 239.295 107.625 239.428 107.878C239.575 108.132 239.761 108.345 239.988 108.518C240.228 108.692 240.495 108.818 240.788 108.898C241.095 108.978 241.408 109.018 241.728 109.018C242.248 109.018 242.728 108.952 243.168 108.818C243.621 108.685 244.008 108.485 244.328 108.218C244.661 107.938 244.915 107.598 245.088 107.198C245.275 106.785 245.368 106.305 245.368 105.758V105.038H242.588ZM254.928 109.998V99.4583H256.208L256.248 101.278C256.488 100.878 256.755 100.552 257.048 100.298C257.355 100.045 257.688 99.845 258.048 99.6983C258.408 99.5516 258.788 99.4583 259.188 99.4183C259.588 99.365 260.008 99.345 260.448 99.3583V100.558H260.088C259.448 100.558 258.895 100.658 258.428 100.858C257.962 101.045 257.575 101.305 257.268 101.638C256.842 102.078 256.562 102.572 256.428 103.118C256.308 103.665 256.248 104.238 256.248 104.838V109.998H254.928ZM263.035 105.158C263.062 105.718 263.155 106.232 263.315 106.698C263.489 107.165 263.729 107.572 264.035 107.918C264.342 108.252 264.715 108.518 265.155 108.718C265.609 108.905 266.135 108.998 266.735 108.998C267.015 108.998 267.295 108.972 267.575 108.918C267.869 108.865 268.142 108.785 268.395 108.678C268.662 108.558 268.902 108.405 269.115 108.218C269.329 108.032 269.495 107.798 269.615 107.518H270.995C270.849 107.985 270.622 108.385 270.315 108.718C270.022 109.052 269.682 109.325 269.295 109.538C268.909 109.738 268.489 109.885 268.035 109.978C267.582 110.072 267.129 110.118 266.675 110.118C265.849 110.118 265.122 109.985 264.495 109.718C263.882 109.452 263.369 109.085 262.955 108.618C262.542 108.138 262.235 107.572 262.035 106.918C261.835 106.252 261.735 105.525 261.735 104.738C261.735 103.938 261.842 103.205 262.055 102.538C262.269 101.872 262.582 101.305 262.995 100.838C263.422 100.358 263.942 99.9916 264.555 99.7383C265.182 99.4716 265.895 99.3383 266.695 99.3383C267.535 99.3383 268.242 99.505 268.815 99.8383C269.402 100.172 269.875 100.612 270.235 101.158C270.595 101.692 270.849 102.312 270.995 103.018C271.155 103.712 271.222 104.425 271.195 105.158H263.035ZM269.855 104.058C269.842 103.578 269.762 103.118 269.615 102.678C269.482 102.238 269.275 101.858 268.995 101.538C268.729 101.205 268.389 100.945 267.975 100.758C267.562 100.558 267.082 100.458 266.535 100.458C265.989 100.458 265.502 100.558 265.075 100.758C264.662 100.958 264.309 101.225 264.015 101.558C263.722 101.892 263.495 102.278 263.335 102.718C263.175 103.145 263.082 103.592 263.055 104.058H269.855ZM280.838 108.478C280.332 109.092 279.752 109.518 279.098 109.758C278.458 109.998 277.752 110.118 276.978 110.118C276.512 110.118 276.058 110.065 275.618 109.958C275.192 109.838 274.805 109.652 274.458 109.398C274.112 109.145 273.832 108.825 273.618 108.438C273.418 108.038 273.318 107.592 273.318 107.098C273.318 106.498 273.432 105.998 273.658 105.598C273.885 105.198 274.178 104.878 274.538 104.638C274.912 104.398 275.338 104.232 275.818 104.138C276.298 104.032 276.798 103.978 277.318 103.978H280.778C280.778 103.498 280.725 103.045 280.618 102.618C280.525 102.192 280.365 101.818 280.138 101.498C279.912 101.178 279.612 100.925 279.238 100.738C278.878 100.552 278.432 100.458 277.898 100.458C277.645 100.458 277.385 100.478 277.118 100.518C276.865 100.558 276.618 100.625 276.378 100.718C276.152 100.812 275.938 100.945 275.738 101.118C275.552 101.278 275.398 101.478 275.278 101.718H273.838C273.958 101.278 274.158 100.912 274.438 100.618C274.718 100.312 275.045 100.065 275.418 99.8783C275.805 99.6783 276.212 99.5383 276.638 99.4583C277.078 99.3783 277.512 99.3383 277.938 99.3383C278.712 99.3383 279.365 99.465 279.898 99.7183C280.432 99.9716 280.858 100.325 281.178 100.778C281.512 101.218 281.745 101.738 281.878 102.338C282.025 102.938 282.098 103.585 282.098 104.278V109.998H281.018L280.838 108.478ZM277.998 105.038C277.652 105.038 277.278 105.052 276.878 105.078C276.492 105.105 276.132 105.185 275.798 105.318C275.465 105.438 275.185 105.632 274.958 105.898C274.745 106.152 274.638 106.505 274.638 106.958C274.638 107.318 274.705 107.625 274.838 107.878C274.985 108.132 275.172 108.345 275.398 108.518C275.638 108.692 275.905 108.818 276.198 108.898C276.505 108.978 276.818 109.018 277.138 109.018C277.658 109.018 278.138 108.952 278.578 108.818C279.032 108.685 279.418 108.485 279.738 108.218C280.072 107.938 280.325 107.598 280.498 107.198C280.685 106.785 280.778 106.305 280.778 105.758V105.038H277.998ZM293.008 95.8583H294.328V109.998H293.008V108.338C292.568 108.938 292.014 109.385 291.348 109.678C290.681 109.972 289.948 110.118 289.148 110.118C288.321 110.118 287.608 109.965 287.008 109.658C286.421 109.352 285.941 108.938 285.568 108.418C285.208 107.898 284.941 107.298 284.768 106.618C284.608 105.925 284.541 105.205 284.568 104.458C284.581 103.725 284.694 103.052 284.908 102.438C285.134 101.812 285.454 101.272 285.868 100.818C286.281 100.352 286.781 99.9916 287.368 99.7383C287.968 99.4716 288.648 99.3383 289.408 99.3383C289.754 99.3383 290.101 99.3716 290.448 99.4383C290.794 99.4916 291.121 99.585 291.428 99.7183C291.748 99.8516 292.041 100.025 292.308 100.238C292.574 100.452 292.808 100.712 293.008 101.018V95.8583ZM289.388 100.458C288.761 100.458 288.228 100.578 287.788 100.818C287.348 101.045 286.988 101.358 286.708 101.758C286.428 102.145 286.221 102.592 286.088 103.098C285.954 103.605 285.888 104.138 285.888 104.698C285.888 105.285 285.948 105.838 286.068 106.358C286.201 106.878 286.408 107.332 286.688 107.718C286.968 108.105 287.328 108.418 287.768 108.658C288.221 108.885 288.774 108.998 289.428 108.998C290.014 108.998 290.541 108.872 291.008 108.618C291.488 108.352 291.881 108.018 292.188 107.618C292.494 107.218 292.714 106.772 292.848 106.278C292.981 105.772 293.048 105.245 293.048 104.698C293.048 104.045 292.941 103.398 292.728 102.758C292.514 102.118 292.134 101.592 291.588 101.178C291.281 100.952 290.941 100.778 290.568 100.658C290.194 100.525 289.801 100.458 289.388 100.458ZM306.413 99.4583V109.998C306.413 110.825 306.327 111.525 306.153 112.098C305.98 112.685 305.687 113.205 305.273 113.658C304.82 114.152 304.273 114.485 303.633 114.658C302.993 114.832 302.353 114.918 301.713 114.918C300.993 114.918 300.26 114.812 299.513 114.598C298.767 114.385 298.113 114.045 297.553 113.578L298.133 112.498C298.667 112.898 299.233 113.205 299.833 113.418C300.447 113.645 301.073 113.758 301.713 113.758C302.327 113.758 302.847 113.672 303.273 113.498C303.7 113.325 304.053 113.078 304.333 112.758C304.613 112.438 304.807 112.038 304.913 111.558C305.033 111.078 305.093 110.552 305.093 109.978V108.398C304.893 108.718 304.647 108.992 304.353 109.218C304.073 109.445 303.767 109.632 303.433 109.778C303.1 109.912 302.747 110.005 302.373 110.058C302.013 110.125 301.653 110.158 301.293 110.158C300.573 110.158 299.953 110.045 299.433 109.818C298.927 109.592 298.52 109.298 298.213 108.938C297.827 108.512 297.56 107.965 297.413 107.298C297.28 106.632 297.213 105.918 297.213 105.158V99.4583H298.533V104.658C298.533 105.258 298.56 105.845 298.613 106.418C298.68 106.992 298.847 107.478 299.113 107.878C299.34 108.225 299.653 108.505 300.053 108.718C300.467 108.918 300.98 109.012 301.593 108.998C302.353 108.985 302.973 108.818 303.453 108.498C303.947 108.165 304.327 107.725 304.593 107.178C304.78 106.792 304.907 106.372 304.973 105.918C305.053 105.465 305.093 104.998 305.093 104.518V99.4583H306.413ZM318.374 100.458C318.068 100.458 317.754 100.485 317.434 100.538C317.128 100.592 316.848 100.685 316.594 100.818C316.341 100.938 316.128 101.112 315.954 101.338C315.794 101.565 315.714 101.858 315.714 102.218C315.714 102.498 315.768 102.738 315.874 102.938C315.994 103.138 316.141 103.305 316.314 103.438C316.501 103.572 316.708 103.678 316.934 103.758C317.161 103.838 317.394 103.905 317.634 103.958C318.061 104.052 318.481 104.138 318.894 104.218C319.308 104.298 319.728 104.392 320.154 104.498C320.861 104.645 321.434 104.925 321.874 105.338C322.328 105.752 322.554 106.345 322.554 107.118C322.554 107.705 322.428 108.192 322.174 108.578C321.934 108.965 321.621 109.278 321.234 109.518C320.848 109.745 320.408 109.905 319.914 109.998C319.421 110.078 318.928 110.118 318.434 110.118C317.981 110.118 317.521 110.072 317.054 109.978C316.588 109.885 316.154 109.738 315.754 109.538C315.354 109.325 315.008 109.052 314.714 108.718C314.421 108.385 314.221 107.965 314.114 107.458H315.454C315.601 107.765 315.781 108.018 315.994 108.218C316.221 108.405 316.468 108.558 316.734 108.678C317.001 108.785 317.281 108.865 317.574 108.918C317.881 108.972 318.188 108.998 318.494 108.998C318.801 108.998 319.114 108.978 319.434 108.938C319.768 108.898 320.068 108.818 320.334 108.698C320.601 108.565 320.821 108.378 320.994 108.138C321.168 107.898 321.254 107.585 321.254 107.198C321.254 106.932 321.201 106.705 321.094 106.518C320.988 106.332 320.848 106.178 320.674 106.058C320.501 105.938 320.301 105.845 320.074 105.778C319.861 105.698 319.641 105.632 319.414 105.578C319.001 105.485 318.594 105.405 318.194 105.338C317.794 105.258 317.381 105.165 316.954 105.058C316.221 104.885 315.614 104.578 315.134 104.138C314.654 103.685 314.414 103.058 314.414 102.258C314.414 101.685 314.534 101.212 314.774 100.838C315.014 100.465 315.321 100.172 315.694 99.9583C316.081 99.7316 316.514 99.5716 316.994 99.4783C317.474 99.385 317.948 99.3383 318.414 99.3383C318.828 99.3383 319.241 99.385 319.654 99.4783C320.081 99.5583 320.468 99.6983 320.814 99.8983C321.161 100.098 321.454 100.358 321.694 100.678C321.948 100.998 322.114 101.385 322.194 101.838H320.974C320.881 101.598 320.741 101.392 320.554 101.218C320.368 101.032 320.154 100.885 319.914 100.778C319.674 100.672 319.421 100.592 319.154 100.538C318.888 100.485 318.628 100.458 318.374 100.458ZM329.45 99.3383C330.276 99.3383 330.996 99.4716 331.61 99.7383C332.236 100.005 332.756 100.378 333.17 100.858C333.596 101.338 333.916 101.912 334.13 102.578C334.343 103.232 334.45 103.952 334.45 104.738C334.45 105.525 334.343 106.252 334.13 106.918C333.916 107.572 333.596 108.138 333.17 108.618C332.756 109.085 332.236 109.452 331.61 109.718C330.996 109.985 330.276 110.118 329.45 110.118C328.623 110.118 327.896 109.985 327.27 109.718C326.656 109.452 326.136 109.085 325.71 108.618C325.296 108.138 324.983 107.572 324.77 106.918C324.57 106.252 324.47 105.525 324.47 104.738C324.47 103.952 324.57 103.232 324.77 102.578C324.983 101.912 325.296 101.338 325.71 100.858C326.136 100.378 326.656 100.005 327.27 99.7383C327.896 99.4716 328.623 99.3383 329.45 99.3383ZM329.45 108.998C330.09 108.998 330.643 108.892 331.11 108.678C331.576 108.452 331.956 108.145 332.25 107.758C332.556 107.372 332.776 106.918 332.91 106.398C333.056 105.878 333.13 105.325 333.13 104.738C333.13 104.152 333.056 103.598 332.91 103.078C332.776 102.558 332.556 102.105 332.25 101.718C331.956 101.332 331.576 101.025 331.11 100.798C330.643 100.572 330.09 100.458 329.45 100.458C328.81 100.458 328.256 100.572 327.79 100.798C327.323 101.025 326.936 101.332 326.63 101.718C326.336 102.105 326.116 102.558 325.97 103.078C325.836 103.598 325.77 104.152 325.77 104.738C325.77 105.325 325.836 105.878 325.97 106.398C326.116 106.918 326.336 107.372 326.63 107.758C326.936 108.145 327.323 108.452 327.79 108.678C328.256 108.892 328.81 108.998 329.45 108.998ZM336.92 109.998V95.8583H338.24V109.998H336.92ZM345.44 108.998C346.013 108.998 346.493 108.912 346.88 108.738C347.28 108.552 347.6 108.298 347.84 107.978C348.08 107.658 348.253 107.278 348.36 106.838C348.466 106.398 348.52 105.912 348.52 105.378V99.4583H349.84V105.418C349.84 106.912 349.493 108.072 348.8 108.898C348.106 109.712 346.986 110.118 345.44 110.118C343.933 110.118 342.826 109.712 342.12 108.898C341.426 108.072 341.08 106.912 341.08 105.418V99.4583H342.4V105.378C342.4 105.885 342.453 106.358 342.56 106.798C342.666 107.238 342.84 107.625 343.08 107.958C343.32 108.278 343.633 108.532 344.02 108.718C344.406 108.905 344.88 108.998 345.44 108.998ZM355.022 99.4583H357.962V100.578H355.022V106.498C355.022 106.858 355.056 107.238 355.122 107.638C355.202 108.038 355.409 108.345 355.742 108.558C355.916 108.665 356.122 108.745 356.362 108.798C356.602 108.838 356.836 108.858 357.062 108.858H357.862V109.998H356.942C356.489 109.998 356.036 109.945 355.582 109.838C355.142 109.732 354.756 109.512 354.422 109.178C354.169 108.912 353.982 108.558 353.862 108.118C353.756 107.665 353.702 107.152 353.702 106.578V100.578H351.922V99.4583H353.702V96.4383H355.022V99.4583ZM360.905 95.6583C361.198 95.6583 361.438 95.745 361.625 95.9183C361.811 96.0916 361.905 96.325 361.905 96.6183C361.905 96.925 361.811 97.165 361.625 97.3383C361.438 97.5116 361.198 97.5983 360.905 97.5983C360.611 97.5983 360.371 97.5116 360.185 97.3383C360.011 97.165 359.925 96.925 359.925 96.6183C359.925 96.3116 360.011 96.0783 360.185 95.9183C360.371 95.745 360.611 95.6583 360.905 95.6583ZM360.245 99.4583H361.565V109.998H360.245V99.4583ZM369.196 99.3383C370.022 99.3383 370.742 99.4716 371.356 99.7383C371.982 100.005 372.502 100.378 372.916 100.858C373.342 101.338 373.662 101.912 373.876 102.578C374.089 103.232 374.196 103.952 374.196 104.738C374.196 105.525 374.089 106.252 373.876 106.918C373.662 107.572 373.342 108.138 372.916 108.618C372.502 109.085 371.982 109.452 371.356 109.718C370.742 109.985 370.022 110.118 369.196 110.118C368.369 110.118 367.642 109.985 367.016 109.718C366.402 109.452 365.882 109.085 365.456 108.618C365.042 108.138 364.729 107.572 364.516 106.918C364.316 106.252 364.216 105.525 364.216 104.738C364.216 103.952 364.316 103.232 364.516 102.578C364.729 101.912 365.042 101.338 365.456 100.858C365.882 100.378 366.402 100.005 367.016 99.7383C367.642 99.4716 368.369 99.3383 369.196 99.3383ZM369.196 108.998C369.836 108.998 370.389 108.892 370.856 108.678C371.322 108.452 371.702 108.145 371.996 107.758C372.302 107.372 372.522 106.918 372.656 106.398C372.802 105.878 372.876 105.325 372.876 104.738C372.876 104.152 372.802 103.598 372.656 103.078C372.522 102.558 372.302 102.105 371.996 101.718C371.702 101.332 371.322 101.025 370.856 100.798C370.389 100.572 369.836 100.458 369.196 100.458C368.556 100.458 368.002 100.572 367.536 100.798C367.069 101.025 366.682 101.332 366.376 101.718C366.082 102.105 365.862 102.558 365.716 103.078C365.582 103.598 365.516 104.152 365.516 104.738C365.516 105.325 365.582 105.878 365.716 106.398C365.862 106.918 366.082 107.372 366.376 107.758C366.682 108.145 367.069 108.452 367.536 108.678C368.002 108.892 368.556 108.998 369.196 108.998ZM376.667 109.998V99.4583H377.947L377.987 101.258C378.173 100.938 378.407 100.658 378.687 100.418C378.967 100.165 379.26 99.965 379.567 99.8183C379.913 99.645 380.267 99.525 380.627 99.4583C381 99.3783 381.4 99.3383 381.827 99.3383C382.4 99.3383 382.9 99.4183 383.327 99.5783C383.767 99.7383 384.14 99.9516 384.447 100.218C384.953 100.645 385.307 101.198 385.507 101.878C385.707 102.558 385.807 103.318 385.807 104.158V109.998H384.487V104.638C384.487 104.012 384.433 103.412 384.327 102.838C384.233 102.252 384.02 101.752 383.687 101.338C383.46 101.072 383.18 100.858 382.847 100.698C382.513 100.538 382.093 100.458 381.587 100.458C381.04 100.458 380.54 100.572 380.087 100.798C379.633 101.025 379.253 101.318 378.947 101.678C378.6 102.078 378.353 102.538 378.207 103.058C378.06 103.578 377.987 104.125 377.987 104.698V109.998H376.667ZM395.09 100.558H393.31V99.4583H395.09V98.3983C395.09 97.905 395.11 97.4716 395.15 97.0983C395.19 96.7116 395.297 96.365 395.47 96.0583C395.71 95.6316 396.044 95.3116 396.47 95.0983C396.91 94.8716 397.53 94.7583 398.33 94.7583H399.35V95.8583H398.47C398.164 95.8583 397.857 95.885 397.55 95.9383C397.257 95.9783 397.01 96.125 396.81 96.3783C396.61 96.645 396.49 96.9516 396.45 97.2983C396.424 97.6316 396.41 98.0316 396.41 98.4983V99.4583H399.35V100.558H396.41V109.998H395.09V100.558ZM405.719 99.3383C406.546 99.3383 407.266 99.4716 407.879 99.7383C408.506 100.005 409.026 100.378 409.439 100.858C409.866 101.338 410.186 101.912 410.399 102.578C410.613 103.232 410.719 103.952 410.719 104.738C410.719 105.525 410.613 106.252 410.399 106.918C410.186 107.572 409.866 108.138 409.439 108.618C409.026 109.085 408.506 109.452 407.879 109.718C407.266 109.985 406.546 110.118 405.719 110.118C404.893 110.118 404.166 109.985 403.539 109.718C402.926 109.452 402.406 109.085 401.979 108.618C401.566 108.138 401.253 107.572 401.039 106.918C400.839 106.252 400.739 105.525 400.739 104.738C400.739 103.952 400.839 103.232 401.039 102.578C401.253 101.912 401.566 101.338 401.979 100.858C402.406 100.378 402.926 100.005 403.539 99.7383C404.166 99.4716 404.893 99.3383 405.719 99.3383ZM405.719 108.998C406.359 108.998 406.913 108.892 407.379 108.678C407.846 108.452 408.226 108.145 408.519 107.758C408.826 107.372 409.046 106.918 409.179 106.398C409.326 105.878 409.399 105.325 409.399 104.738C409.399 104.152 409.326 103.598 409.179 103.078C409.046 102.558 408.826 102.105 408.519 101.718C408.226 101.332 407.846 101.025 407.379 100.798C406.913 100.572 406.359 100.458 405.719 100.458C405.079 100.458 404.526 100.572 404.059 100.798C403.593 101.025 403.206 101.332 402.899 101.718C402.606 102.105 402.386 102.558 402.239 103.078C402.106 103.598 402.039 104.152 402.039 104.738C402.039 105.325 402.106 105.878 402.239 106.398C402.386 106.918 402.606 107.372 402.899 107.758C403.206 108.145 403.593 108.452 404.059 108.678C404.526 108.892 405.079 108.998 405.719 108.998ZM413.19 109.998V99.4583H414.47L414.51 101.278C414.75 100.878 415.017 100.552 415.31 100.298C415.617 100.045 415.95 99.845 416.31 99.6983C416.67 99.5516 417.05 99.4583 417.45 99.4183C417.85 99.365 418.27 99.345 418.71 99.3583V100.558H418.35C417.71 100.558 417.157 100.658 416.69 100.858C416.223 101.045 415.837 101.305 415.53 101.638C415.103 102.078 414.823 102.572 414.69 103.118C414.57 103.665 414.51 104.238 414.51 104.838V109.998H413.19ZM435.183 99.4583V109.998C435.183 110.825 435.096 111.525 434.923 112.098C434.75 112.685 434.456 113.205 434.043 113.658C433.59 114.152 433.043 114.485 432.403 114.658C431.763 114.832 431.123 114.918 430.483 114.918C429.763 114.918 429.03 114.812 428.283 114.598C427.536 114.385 426.883 114.045 426.323 113.578L426.903 112.498C427.436 112.898 428.003 113.205 428.603 113.418C429.216 113.645 429.843 113.758 430.483 113.758C431.096 113.758 431.616 113.672 432.043 113.498C432.47 113.325 432.823 113.078 433.103 112.758C433.383 112.438 433.576 112.038 433.683 111.558C433.803 111.078 433.863 110.552 433.863 109.978V108.398C433.663 108.718 433.416 108.992 433.123 109.218C432.843 109.445 432.536 109.632 432.203 109.778C431.87 109.912 431.516 110.005 431.143 110.058C430.783 110.125 430.423 110.158 430.063 110.158C429.343 110.158 428.723 110.045 428.203 109.818C427.696 109.592 427.29 109.298 426.983 108.938C426.596 108.512 426.33 107.965 426.183 107.298C426.05 106.632 425.983 105.918 425.983 105.158V99.4583H427.303V104.658C427.303 105.258 427.33 105.845 427.383 106.418C427.45 106.992 427.616 107.478 427.883 107.878C428.11 108.225 428.423 108.505 428.823 108.718C429.236 108.918 429.75 109.012 430.363 108.998C431.123 108.985 431.743 108.818 432.223 108.498C432.716 108.165 433.096 107.725 433.363 107.178C433.55 106.792 433.676 106.372 433.743 105.918C433.823 105.465 433.863 104.998 433.863 104.518V99.4583H435.183ZM442.633 99.3383C443.46 99.3383 444.18 99.4716 444.793 99.7383C445.42 100.005 445.94 100.378 446.353 100.858C446.78 101.338 447.1 101.912 447.313 102.578C447.527 103.232 447.633 103.952 447.633 104.738C447.633 105.525 447.527 106.252 447.313 106.918C447.1 107.572 446.78 108.138 446.353 108.618C445.94 109.085 445.42 109.452 444.793 109.718C444.18 109.985 443.46 110.118 442.633 110.118C441.807 110.118 441.08 109.985 440.453 109.718C439.84 109.452 439.32 109.085 438.893 108.618C438.48 108.138 438.167 107.572 437.953 106.918C437.753 106.252 437.653 105.525 437.653 104.738C437.653 103.952 437.753 103.232 437.953 102.578C438.167 101.912 438.48 101.338 438.893 100.858C439.32 100.378 439.84 100.005 440.453 99.7383C441.08 99.4716 441.807 99.3383 442.633 99.3383ZM442.633 108.998C443.273 108.998 443.827 108.892 444.293 108.678C444.76 108.452 445.14 108.145 445.433 107.758C445.74 107.372 445.96 106.918 446.093 106.398C446.24 105.878 446.313 105.325 446.313 104.738C446.313 104.152 446.24 103.598 446.093 103.078C445.96 102.558 445.74 102.105 445.433 101.718C445.14 101.332 444.76 101.025 444.293 100.798C443.827 100.572 443.273 100.458 442.633 100.458C441.993 100.458 441.44 100.572 440.973 100.798C440.507 101.025 440.12 101.332 439.813 101.718C439.52 102.105 439.3 102.558 439.153 103.078C439.02 103.598 438.953 104.152 438.953 104.738C438.953 105.325 439.02 105.878 439.153 106.398C439.3 106.918 439.52 107.372 439.813 107.758C440.12 108.145 440.507 108.452 440.973 108.678C441.44 108.892 441.993 108.998 442.633 108.998ZM454.424 108.998C454.997 108.998 455.477 108.912 455.864 108.738C456.264 108.552 456.584 108.298 456.824 107.978C457.064 107.658 457.237 107.278 457.344 106.838C457.451 106.398 457.504 105.912 457.504 105.378V99.4583H458.824V105.418C458.824 106.912 458.477 108.072 457.784 108.898C457.091 109.712 455.971 110.118 454.424 110.118C452.917 110.118 451.811 109.712 451.104 108.898C450.411 108.072 450.064 106.912 450.064 105.418V99.4583H451.384V105.378C451.384 105.885 451.437 106.358 451.544 106.798C451.651 107.238 451.824 107.625 452.064 107.958C452.304 108.278 452.617 108.532 453.004 108.718C453.391 108.905 453.864 108.998 454.424 108.998ZM461.667 109.998V99.4583H462.947L462.987 101.278C463.227 100.878 463.493 100.552 463.787 100.298C464.093 100.045 464.427 99.845 464.787 99.6983C465.147 99.5516 465.527 99.4583 465.927 99.4183C466.327 99.365 466.747 99.345 467.187 99.3583V100.558H466.827C466.187 100.558 465.633 100.658 465.167 100.858C464.7 101.045 464.313 101.305 464.007 101.638C463.58 102.078 463.3 102.572 463.167 103.118C463.047 103.665 462.987 104.238 462.987 104.838V109.998H461.667ZM476.8 99.4583H480.18V100.578H476.8V106.518C476.8 106.825 476.813 107.125 476.84 107.418C476.88 107.712 476.96 107.978 477.08 108.218C477.2 108.445 477.373 108.632 477.6 108.778C477.84 108.925 478.16 108.998 478.56 108.998C478.813 108.998 479.066 108.965 479.32 108.898C479.586 108.818 479.8 108.705 479.96 108.558L480.48 109.498C480.173 109.738 479.846 109.905 479.5 109.998C479.166 110.078 478.793 110.118 478.38 110.118C477.833 110.118 477.373 110.038 477 109.878C476.626 109.718 476.326 109.498 476.1 109.218C475.873 108.925 475.713 108.572 475.62 108.158C475.526 107.732 475.48 107.258 475.48 106.738V100.578H473.7V99.4583H475.48V96.4383H476.8V99.4583ZM489.471 108.478C488.964 109.092 488.384 109.518 487.731 109.758C487.091 109.998 486.384 110.118 485.611 110.118C485.144 110.118 484.691 110.065 484.251 109.958C483.824 109.838 483.438 109.652 483.091 109.398C482.744 109.145 482.464 108.825 482.251 108.438C482.051 108.038 481.951 107.592 481.951 107.098C481.951 106.498 482.064 105.998 482.291 105.598C482.518 105.198 482.811 104.878 483.171 104.638C483.544 104.398 483.971 104.232 484.451 104.138C484.931 104.032 485.431 103.978 485.951 103.978H489.411C489.411 103.498 489.358 103.045 489.251 102.618C489.158 102.192 488.998 101.818 488.771 101.498C488.544 101.178 488.244 100.925 487.871 100.738C487.511 100.552 487.064 100.458 486.531 100.458C486.278 100.458 486.018 100.478 485.751 100.518C485.498 100.558 485.251 100.625 485.011 100.718C484.784 100.812 484.571 100.945 484.371 101.118C484.184 101.278 484.031 101.478 483.911 101.718H482.471C482.591 101.278 482.791 100.912 483.071 100.618C483.351 100.312 483.678 100.065 484.051 99.8783C484.438 99.6783 484.844 99.5383 485.271 99.4583C485.711 99.3783 486.144 99.3383 486.571 99.3383C487.344 99.3383 487.998 99.465 488.531 99.7183C489.064 99.9716 489.491 100.325 489.811 100.778C490.144 101.218 490.378 101.738 490.511 102.338C490.658 102.938 490.731 103.585 490.731 104.278V109.998H489.651L489.471 108.478ZM486.631 105.038C486.284 105.038 485.911 105.052 485.511 105.078C485.124 105.105 484.764 105.185 484.431 105.318C484.098 105.438 483.818 105.632 483.591 105.898C483.378 106.152 483.271 106.505 483.271 106.958C483.271 107.318 483.338 107.625 483.471 107.878C483.618 108.132 483.804 108.345 484.031 108.518C484.271 108.692 484.538 108.818 484.831 108.898C485.138 108.978 485.451 109.018 485.771 109.018C486.291 109.018 486.771 108.952 487.211 108.818C487.664 108.685 488.051 108.485 488.371 108.218C488.704 107.938 488.958 107.598 489.131 107.198C489.318 106.785 489.411 106.305 489.411 105.758V105.038H486.631ZM497.281 100.458C496.974 100.458 496.661 100.485 496.341 100.538C496.034 100.592 495.754 100.685 495.501 100.818C495.247 100.938 495.034 101.112 494.861 101.338C494.701 101.565 494.621 101.858 494.621 102.218C494.621 102.498 494.674 102.738 494.781 102.938C494.901 103.138 495.047 103.305 495.221 103.438C495.407 103.572 495.614 103.678 495.841 103.758C496.067 103.838 496.301 103.905 496.541 103.958C496.967 104.052 497.387 104.138 497.801 104.218C498.214 104.298 498.634 104.392 499.061 104.498C499.767 104.645 500.341 104.925 500.781 105.338C501.234 105.752 501.461 106.345 501.461 107.118C501.461 107.705 501.334 108.192 501.081 108.578C500.841 108.965 500.527 109.278 500.141 109.518C499.754 109.745 499.314 109.905 498.821 109.998C498.327 110.078 497.834 110.118 497.341 110.118C496.887 110.118 496.427 110.072 495.961 109.978C495.494 109.885 495.061 109.738 494.661 109.538C494.261 109.325 493.914 109.052 493.621 108.718C493.327 108.385 493.127 107.965 493.021 107.458H494.361C494.507 107.765 494.687 108.018 494.901 108.218C495.127 108.405 495.374 108.558 495.641 108.678C495.907 108.785 496.187 108.865 496.481 108.918C496.787 108.972 497.094 108.998 497.401 108.998C497.707 108.998 498.021 108.978 498.341 108.938C498.674 108.898 498.974 108.818 499.241 108.698C499.507 108.565 499.727 108.378 499.901 108.138C500.074 107.898 500.161 107.585 500.161 107.198C500.161 106.932 500.107 106.705 500.001 106.518C499.894 106.332 499.754 106.178 499.581 106.058C499.407 105.938 499.207 105.845 498.981 105.778C498.767 105.698 498.547 105.632 498.321 105.578C497.907 105.485 497.501 105.405 497.101 105.338C496.701 105.258 496.287 105.165 495.861 105.058C495.127 104.885 494.521 104.578 494.041 104.138C493.561 103.685 493.321 103.058 493.321 102.258C493.321 101.685 493.441 101.212 493.681 100.838C493.921 100.465 494.227 100.172 494.601 99.9583C494.987 99.7316 495.421 99.5716 495.901 99.4783C496.381 99.385 496.854 99.3383 497.321 99.3383C497.734 99.3383 498.147 99.385 498.561 99.4783C498.987 99.5583 499.374 99.6983 499.721 99.8983C500.067 100.098 500.361 100.358 500.601 100.678C500.854 100.998 501.021 101.385 501.101 101.838H499.881C499.787 101.598 499.647 101.392 499.461 101.218C499.274 101.032 499.061 100.885 498.821 100.778C498.581 100.672 498.327 100.592 498.061 100.538C497.794 100.485 497.534 100.458 497.281 100.458ZM503.776 109.998V95.8583H505.096V104.178H507.356L510.616 99.4583H512.076L508.536 104.518L512.416 109.998H510.896L507.496 105.278H505.096V109.998H503.776ZM514.688 106.098L514.648 95.8583H515.928L515.888 106.098H514.688ZM515.288 108.138C515.568 108.138 515.802 108.238 515.988 108.438C516.175 108.625 516.268 108.858 516.268 109.138C516.268 109.432 516.175 109.678 515.988 109.878C515.815 110.065 515.582 110.158 515.288 110.158C514.982 110.158 514.735 110.065 514.548 109.878C514.375 109.692 514.288 109.445 514.288 109.138C514.288 108.832 514.375 108.592 514.548 108.418C514.735 108.232 514.982 108.138 515.288 108.138Z" fill="white"/>
<rect x="243" y="31.0276" width="146" height="51" rx="15" transform="rotate(-5.12112 243 31.0276)" fill="white"/>
<path d="M269.887 69.7823L267.102 38.7068L287.42 36.8859L287.824 41.3879L273.043 42.7125L273.761 50.7204L285.235 49.6921L285.613 53.9152L274.139 54.9435L275.424 69.286L269.887 69.7823ZM294.584 67.5689L291.8 36.4934L304.19 35.383C306.846 35.145 309.019 35.3385 310.708 35.9636C312.395 36.562 313.667 37.4654 314.525 38.6736C315.409 39.8795 315.925 41.3058 316.073 42.9525C316.251 44.9446 315.859 46.6932 314.897 48.1985C313.934 49.7038 312.428 50.8293 310.38 51.5751L318.906 65.1483L318.927 65.3873L313.031 65.9158L304.993 52.8611L298.858 53.4109L300.082 67.0762L294.584 67.5689ZM298.483 49.2277L304.778 48.6636C306.823 48.4803 308.305 47.986 309.223 47.1809C310.142 46.3757 310.532 45.2028 310.394 43.6623C310.253 42.0953 309.647 41.0117 308.576 40.4116C307.529 39.7825 305.996 39.5584 303.978 39.7393L297.683 40.3035L298.483 49.2277ZM323.064 65.0166L320.279 33.9411L340.837 32.0988L341.24 36.6007L326.22 37.9468L326.92 45.7555L338.633 44.7058L339.015 48.9687L327.302 50.0184L328.198 60.0183L343.457 58.6508L343.861 63.1528L323.064 65.0166ZM349.163 62.6776L346.378 31.6022L366.935 29.7598L367.339 34.2618L352.319 35.6079L353.019 43.4166L364.732 42.3668L365.114 46.6298L353.401 47.6795L354.297 57.6794L369.556 56.3119L369.959 60.8139L349.163 62.6776Z" fill="#0223B5"/>
<path d="M40.32 67.9963V36.7963H52.76C55.4267 36.7963 57.5733 37.183 59.2 37.9563C60.8267 38.703 62.0133 39.7163 62.76 40.9963C63.5333 42.2763 63.92 43.743 63.92 45.3963C63.92 47.3963 63.3733 49.103 62.28 50.5163C61.1867 51.9297 59.5867 52.9163 57.48 53.4763L64.76 67.7563V67.9963H58.84L52 54.2763H45.84V67.9963H40.32ZM45.84 50.0763H52.16C54.2133 50.0763 55.7333 49.7163 56.72 48.9963C57.7067 48.2763 58.2 47.143 58.2 45.5963C58.2 44.023 57.6933 42.8897 56.68 42.1963C55.6933 41.4763 54.1867 41.1163 52.16 41.1163H45.84V50.0763ZM68.9138 67.9963V36.7963H89.5538V41.3163H74.4738V49.1563H86.2338V53.4363H74.4738V63.4763H89.7937V67.9963H68.9138ZM106.88 68.5563C103.653 68.5563 100.96 67.903 98.8 66.5963C96.6667 65.263 95.0667 63.383 94 60.9563C92.96 58.5297 92.44 55.6763 92.44 52.3963C92.44 49.0897 92.96 46.2363 94 43.8363C95.0667 41.4097 96.6667 39.543 98.8 38.2363C100.96 36.903 103.653 36.2363 106.88 36.2363C110.16 36.2363 112.867 36.903 115 38.2363C117.133 39.543 118.72 41.4097 119.76 43.8363C120.827 46.2363 121.36 49.0897 121.36 52.3963C121.36 55.6763 120.827 58.5297 119.76 60.9563C118.72 63.383 117.133 65.263 115 66.5963C112.867 67.903 110.16 68.5563 106.88 68.5563ZM106.88 64.2363C109.867 64.2363 112.067 63.2097 113.48 61.1563C114.893 59.0763 115.6 56.1563 115.6 52.3963C115.6 48.6363 114.893 45.7297 113.48 43.6763C112.067 41.5963 109.867 40.5563 106.88 40.5563C103.92 40.5563 101.733 41.5963 100.32 43.6763C98.9067 45.7297 98.2 48.6363 98.2 52.3963C98.2 56.1563 98.9067 59.0763 100.32 61.1563C101.733 63.2097 103.92 64.2363 106.88 64.2363ZM112.84 73.9963L107.16 66.7563L112.84 65.8363L119.04 73.7563V73.9963H112.84ZM138.581 68.5963C134.181 68.5963 130.928 67.4363 128.821 65.1163C126.741 62.7697 125.701 59.423 125.701 55.0763V36.7963H131.381V55.0763C131.381 58.0363 131.941 60.263 133.061 61.7563C134.181 63.2497 136.048 63.9963 138.661 63.9963C141.275 63.9963 143.128 63.2497 144.221 61.7563C145.341 60.263 145.901 58.0363 145.901 55.0763V36.7963H151.421V55.0763C151.421 59.423 150.381 62.7697 148.301 65.1163C146.248 67.4363 143.008 68.5963 138.581 68.5963ZM157.695 67.9963V36.7963H178.335V41.3163H163.255V49.1563H175.015V53.4363H163.255V63.4763H178.575V67.9963H157.695ZM194.181 68.5963C191.941 68.5963 190.021 68.2897 188.421 67.6763C186.821 67.063 185.501 66.2497 184.461 65.2363C183.421 64.1963 182.635 63.023 182.101 61.7163C181.568 60.4097 181.261 59.0763 181.181 57.7163H186.461C186.541 58.783 186.875 59.823 187.461 60.8363C188.048 61.8497 188.915 62.6763 190.061 63.3163C191.208 63.9563 192.648 64.2763 194.381 64.2763C196.248 64.2763 197.675 63.8763 198.661 63.0763C199.675 62.2763 200.181 61.1963 200.181 59.8363C200.181 58.5297 199.715 57.503 198.781 56.7563C197.875 55.983 196.701 55.3563 195.261 54.8763L191.501 53.6363C190.008 53.1297 188.581 52.5297 187.221 51.8363C185.888 51.143 184.781 50.2363 183.901 49.1163C183.048 47.9697 182.621 46.4897 182.621 44.6763C182.621 42.863 183.061 41.3297 183.941 40.0763C184.848 38.823 186.101 37.863 187.701 37.1963C189.301 36.5297 191.141 36.1963 193.221 36.1963C195.835 36.1963 197.928 36.6497 199.501 37.5563C201.101 38.463 202.275 39.623 203.021 41.0363C203.795 42.4497 204.248 43.9697 204.381 45.5963H199.101C199.021 44.743 198.768 43.9297 198.341 43.1563C197.941 42.3563 197.315 41.7163 196.461 41.2363C195.608 40.7297 194.461 40.4763 193.021 40.4763C191.421 40.4763 190.181 40.823 189.301 41.5163C188.448 42.2097 188.021 43.1163 188.021 44.2363C188.021 45.4897 188.501 46.4763 189.461 47.1963C190.421 47.8897 191.621 48.4763 193.061 48.9563L196.861 50.1963C198.355 50.6763 199.755 51.2763 201.061 51.9963C202.395 52.6897 203.475 53.623 204.301 54.7963C205.155 55.943 205.581 57.4763 205.581 59.3963C205.581 62.2763 204.568 64.5297 202.541 66.1563C200.515 67.783 197.728 68.5963 194.181 68.5963ZM215.578 67.9963V41.3163H205.778V36.7963H230.978V41.3163H221.178V67.9963H215.578Z" fill="white"/>
<path d="M406.289 67.9963V36.7963H416.969C422.435 36.7963 426.395 38.1697 428.849 40.9163C431.302 43.6363 432.529 47.463 432.529 52.3963C432.529 57.3297 431.302 61.1697 428.849 63.9163C426.395 66.6363 422.435 67.9963 416.969 67.9963H406.289ZM411.929 63.5163H416.569C418.915 63.5163 420.835 63.143 422.329 62.3963C423.849 61.6497 424.969 60.463 425.689 58.8363C426.409 57.2097 426.769 55.063 426.769 52.3963C426.769 49.7297 426.409 47.583 425.689 45.9563C424.969 44.3297 423.849 43.143 422.329 42.3963C420.835 41.6497 418.915 41.2763 416.569 41.2763H411.929V63.5163ZM437.273 67.9963V36.7963H457.913V41.3163H442.833V49.1563H454.593V53.4363H442.833V63.4763H458.153V67.9963H437.273ZM463.476 67.9963V36.7963H473.476L480.516 63.5563H481.716L488.836 36.7963H498.836V67.9963H493.476V41.4763H492.476L485.556 67.9963H476.396L469.476 41.4763H468.476V67.9963H463.476ZM518.036 68.5563C514.81 68.5563 512.116 67.903 509.956 66.5963C507.823 65.263 506.223 63.383 505.156 60.9563C504.116 58.5297 503.596 55.6763 503.596 52.3963C503.596 49.0897 504.116 46.2363 505.156 43.8363C506.223 41.4097 507.823 39.543 509.956 38.2363C512.116 36.903 514.81 36.2363 518.036 36.2363C521.316 36.2363 524.023 36.903 526.156 38.2363C528.29 39.543 529.876 41.4097 530.916 43.8363C531.983 46.2363 532.516 49.0897 532.516 52.3963C532.516 55.6763 531.983 58.5297 530.916 60.9563C529.876 63.383 528.29 65.263 526.156 66.5963C524.023 67.903 521.316 68.5563 518.036 68.5563ZM518.036 64.2363C521.023 64.2363 523.223 63.2097 524.636 61.1563C526.05 59.0763 526.756 56.1563 526.756 52.3963C526.756 48.6363 526.05 45.7297 524.636 43.6763C523.223 41.5963 521.023 40.5563 518.036 40.5563C515.076 40.5563 512.89 41.5963 511.476 43.6763C510.063 45.7297 509.356 48.6363 509.356 52.3963C509.356 56.1563 510.063 59.0763 511.476 61.1563C512.89 63.2097 515.076 64.2363 518.036 64.2363Z" fill="white"/>
<path d="M9.33779 26.6813L17.8408 31.3369M17.2076 0.99766L29.2365 20.2106" stroke="white"/>
</svg>
