<svg width="18" height="18" viewBox="0 0 18 18" fill="none" xmlns="http://www.w3.org/2000/svg">
<path d="M8.9183 0C3.94953 0 0 3.94953 0 8.9183C0 13.8871 3.94953 17.8366 8.9183 17.8366C13.8871 17.8366 17.8366 13.8871 17.8366 8.9183C17.8366 3.94953 13.8871 0 8.9183 0ZM8.9183 16.5626C4.71396 16.5626 1.27404 13.1226 1.27404 8.9183C1.27404 4.71396 4.71396 1.27404 8.9183 1.27404C13.1226 1.27404 16.5626 4.71396 16.5626 8.9183C16.5626 13.1226 13.1226 16.5626 8.9183 16.5626Z" fill="black" fill-opacity="0.1"/>
<path d="M12.3582 13.3775L8.9183 9.93754L5.47839 13.3775L4.45915 12.3582L7.89907 8.9183L4.45915 5.47839L5.47839 4.45915L8.9183 7.89907L12.3582 4.45915L13.3775 5.47839L9.93754 8.9183L13.3775 12.3582L12.3582 13.3775Z" fill="black" fill-opacity="0.1"/>
</svg>
