<svg width="52" height="52" viewBox="0 0 52 52" fill="none" xmlns="http://www.w3.org/2000/svg">
<path fill-rule="evenodd" clip-rule="evenodd" d="M25.0655 13.5334C25.5028 12.8222 26.4979 12.8222 26.9352 13.5334L29.1754 17.1766C29.3258 17.4213 29.5588 17.5981 29.828 17.672L33.8374 18.7717C34.62 18.9864 34.9275 19.9749 34.4151 20.6291L31.7903 23.9805C31.614 24.2056 31.5251 24.4916 31.541 24.782L31.7787 29.1049C31.8251 29.9487 31.0201 30.5597 30.2661 30.2528L26.4037 28.6808C26.1443 28.5753 25.8564 28.5753 25.597 28.6808L21.7345 30.2528C20.9806 30.5597 20.1755 29.9487 20.2219 29.1049L20.4596 24.782C20.4756 24.4916 20.3866 24.2056 20.2103 23.9805L17.5855 20.6291C17.0732 19.9749 17.3807 18.9864 18.1633 18.7717L22.1726 17.672C22.4419 17.5981 22.6748 17.4213 22.8253 17.1766L25.0655 13.5334ZM25.5938 18.879L26.0003 18.2178L26.4069 18.879C26.9753 19.8034 27.8793 20.5075 28.9683 20.8062L29.9396 21.0726L29.2317 21.9766C28.5606 22.8334 28.2375 23.8982 28.2959 24.9604L28.3511 25.9646L27.6288 25.6706C26.5839 25.2453 25.4167 25.2453 24.3718 25.6706L23.6495 25.9646L23.7047 24.9604C23.7631 23.8982 23.4401 22.8334 22.769 21.9766L22.061 21.0726L23.0323 20.8062C24.1213 20.5075 25.0254 19.8034 25.5938 18.879Z" fill="#6482FE"/>
<path fill-rule="evenodd" clip-rule="evenodd" d="M15.167 4.875C10.6797 4.875 7.04199 8.51269 7.04199 13V39.3161C7.04199 42.1953 8.33887 44.5861 10.5651 45.5717C12.8217 46.5708 15.435 45.8652 17.4788 43.7876C18.4578 42.7923 19.5565 41.662 20.7888 40.3785C23.627 37.4223 28.3737 37.4223 31.2119 40.3785C32.4442 41.662 33.5428 42.7923 34.5219 43.7876C36.5656 45.8652 39.179 46.5708 41.4356 45.5717C43.6618 44.5861 44.9587 42.1953 44.9587 39.3161V13C44.9587 8.51269 41.321 4.875 36.8337 4.875H15.167ZM10.292 13C10.292 10.3076 12.4746 8.125 15.167 8.125H36.8337C39.526 8.125 41.7087 10.3076 41.7087 13V39.3161C41.7087 41.2689 40.8731 42.2664 40.1198 42.6C39.3969 42.92 38.1836 42.8756 36.8388 41.5085C35.8699 40.5235 34.7805 39.4027 33.5563 38.1277C29.4391 33.8393 22.5616 33.8393 18.4444 38.1277C17.2202 39.4027 16.1307 40.5235 15.1618 41.5085C13.817 42.8756 12.6038 42.92 11.8808 42.6C11.1275 42.2664 10.292 41.2689 10.292 39.3161V13Z" fill="#6482FE"/>
</svg>
