<svg width="52" height="52" viewBox="0 0 52 52" fill="none" xmlns="http://www.w3.org/2000/svg">
<path d="M16.7913 6.5C16.7913 5.60254 16.0638 4.875 15.1663 4.875C14.2689 4.875 13.5413 5.60254 13.5413 6.5H12.9997C8.21321 6.5 4.33301 10.3802 4.33301 15.1667V39C4.33301 43.7865 8.21321 47.6667 12.9997 47.6667H28.708C29.6055 47.6667 30.333 46.9391 30.333 46.0417C30.333 45.1442 29.6055 44.4167 28.708 44.4167H12.9997C10.0081 44.4167 7.58301 41.9915 7.58301 39V15.1667C7.58301 12.1751 10.0081 9.75 12.9997 9.75H13.5413V13C13.5413 13.8975 14.2689 14.625 15.1663 14.625C16.0638 14.625 16.7913 13.8975 16.7913 13V9.75H35.208V13C35.208 13.8975 35.9355 14.625 36.833 14.625C37.7305 14.625 38.458 13.8975 38.458 13V9.75H38.9997C41.9912 9.75 44.4163 12.1751 44.4163 15.1667V28.7083C44.4163 29.6058 45.1439 30.3333 46.0413 30.3333C46.9388 30.3333 47.6663 29.6058 47.6663 28.7083V15.1667C47.6663 10.3802 43.7861 6.5 38.9997 6.5H38.458C38.458 5.60254 37.7305 4.875 36.833 4.875C35.9355 4.875 35.208 5.60254 35.208 6.5H16.7913Z" fill="#6482FE"/>
<path d="M41.2836 46.5975L47.7321 40.1491C48.3667 39.5144 48.3667 38.4856 47.7321 37.851C47.0975 37.2164 46.0686 37.2164 45.434 37.851L40.0952 43.1897L37.9413 41.181C37.285 40.5689 36.2567 40.6048 35.6446 41.2611C35.0325 41.9175 35.0684 42.9457 35.7247 43.5578L39.0263 46.6368C39.6665 47.2339 40.6646 47.2165 41.2836 46.5975Z" fill="#6482FE"/>
<path d="M17.333 21.6667C17.333 22.8633 16.363 23.8333 15.1663 23.8333C13.9697 23.8333 12.9997 22.8633 12.9997 21.6667C12.9997 20.47 13.9697 19.5 15.1663 19.5C16.363 19.5 17.333 20.47 17.333 21.6667Z" fill="#6482FE"/>
<path d="M25.9997 23.8333C27.1963 23.8333 28.1663 22.8633 28.1663 21.6667C28.1663 20.47 27.1963 19.5 25.9997 19.5C24.8031 19.5 23.833 20.47 23.833 21.6667C23.833 22.8633 24.8031 23.8333 25.9997 23.8333Z" fill="#6482FE"/>
<path d="M38.9997 21.6667C38.9997 22.8633 38.0296 23.8333 36.833 23.8333C35.6364 23.8333 34.6663 22.8633 34.6663 21.6667C34.6663 20.47 35.6364 19.5 36.833 19.5C38.0296 19.5 38.9997 20.47 38.9997 21.6667Z" fill="#6482FE"/>
<path d="M15.1663 31.4167C16.363 31.4167 17.333 30.4466 17.333 29.25C17.333 28.0534 16.363 27.0833 15.1663 27.0833C13.9697 27.0833 12.9997 28.0534 12.9997 29.25C12.9997 30.4466 13.9697 31.4167 15.1663 31.4167Z" fill="#6482FE"/>
<path d="M28.1663 29.25C28.1663 30.4466 27.1963 31.4167 25.9997 31.4167C24.8031 31.4167 23.833 30.4466 23.833 29.25C23.833 28.0534 24.8031 27.0833 25.9997 27.0833C27.1963 27.0833 28.1663 28.0534 28.1663 29.25Z" fill="#6482FE"/>
<path d="M36.833 31.4167C38.0296 31.4167 38.9997 30.4466 38.9997 29.25C38.9997 28.0534 38.0296 27.0833 36.833 27.0833C35.6364 27.0833 34.6663 28.0534 34.6663 29.25C34.6663 30.4466 35.6364 31.4167 36.833 31.4167Z" fill="#6482FE"/>
<path d="M17.333 36.8333C17.333 38.0299 16.363 39 15.1663 39C13.9697 39 12.9997 38.0299 12.9997 36.8333C12.9997 35.6367 13.9697 34.6667 15.1663 34.6667C16.363 34.6667 17.333 35.6367 17.333 36.8333Z" fill="#6482FE"/>
<path d="M25.9997 39C27.1963 39 28.1663 38.0299 28.1663 36.8333C28.1663 35.6367 27.1963 34.6667 25.9997 34.6667C24.8031 34.6667 23.833 35.6367 23.833 36.8333C23.833 38.0299 24.8031 39 25.9997 39Z" fill="#6482FE"/>
</svg>
