<svg width="52" height="52" viewBox="0 0 52 52" fill="none" xmlns="http://www.w3.org/2000/svg">
<path d="M14.8586 17.4532C13.2421 19.8227 12.508 23.0091 13.5553 26.897C13.7736 27.7075 13.3387 28.5509 12.5517 28.8431C9.16404 30.1006 8.08366 32.2116 8.12629 33.9667C8.17144 35.8253 9.47306 37.853 11.971 38.8848C12.8005 39.2274 13.1952 40.1776 12.8526 41.0071C12.5099 41.8366 11.5598 42.2313 10.7303 41.8886C7.22716 40.4416 4.95822 37.3791 4.87725 34.0456C4.80259 30.9718 6.58472 28.101 10.1017 26.3632C9.31519 22.1705 10.2139 18.4946 12.1738 15.6217C14.322 12.4728 17.6792 10.3816 21.2466 9.57904C24.8158 8.77601 28.7078 9.24034 31.9008 11.3615C34.844 13.3166 37.0356 16.5738 37.8755 21.1555C43.172 21.7435 46.4002 25.6325 47.0159 29.9595C47.6813 34.6361 45.3048 39.8245 39.5551 41.914C38.7116 42.2205 37.7793 41.7852 37.4728 40.9417C37.1662 40.0982 37.6015 39.166 38.445 38.8594C42.652 37.3306 44.2622 33.6776 43.7983 30.4173C43.3376 27.179 40.8412 24.3289 36.4659 24.3289C35.6426 24.3289 34.9494 23.7132 34.8522 22.8956C34.3165 18.3878 32.4137 15.6039 30.1025 14.0686C27.7585 12.5115 24.802 12.1104 21.9599 12.7498C19.1159 13.3896 16.4989 15.0488 14.8586 17.4532Z" fill="#6482FE"/>
<path d="M15.0365 39.6443C14.4019 39.0097 14.4019 37.9808 15.0365 37.3462L16.9019 35.4808C17.5365 34.8462 18.5654 34.8462 19.2 35.4808L21.0654 37.3462C21.7 37.9808 21.7 39.0097 21.0654 39.6443C20.8075 39.9021 20.4845 40.0552 20.1493 40.1035C21.0439 42.1791 23.1081 43.632 25.5118 43.632C27.0175 43.632 28.3867 43.064 29.4228 42.1279C30.0888 41.5263 31.1163 41.5784 31.718 42.2443C32.3196 42.9102 32.2675 43.9378 31.6016 44.5394C29.9914 45.9942 27.8534 46.882 25.5118 46.882C21.2665 46.882 17.7013 43.9708 16.7035 40.0358C16.1373 40.2257 15.4874 40.0952 15.0365 39.6443Z" fill="#6482FE"/>
<path d="M35.9221 35.947C36.5568 36.5816 36.5568 37.6105 35.9221 38.2451L34.0568 40.1105C33.4222 40.7451 32.3933 40.7451 31.7587 40.1105L29.8933 38.2451C29.2587 37.6105 29.2587 36.5816 29.8933 35.947C30.1512 35.6891 30.4742 35.536 30.8094 35.4877C29.915 33.4119 27.8505 31.9587 25.4467 31.9587C23.9921 31.9587 22.6654 32.4887 21.643 33.3682C20.9626 33.9535 19.9366 33.8764 19.3513 33.196C18.7661 32.5156 18.8432 31.4896 19.5235 30.9044C21.1133 29.5368 23.1853 28.7087 25.4467 28.7087C29.6921 28.7087 33.2575 31.6202 34.2551 35.5554C34.8213 35.3656 35.4712 35.4961 35.9221 35.947Z" fill="#6482FE"/>
</svg>
