<svg width="52" height="52" viewBox="0 0 52 52" fill="none" xmlns="http://www.w3.org/2000/svg">
<path d="M22.5276 19.7947C23.2886 19.319 23.52 18.3165 23.0443 17.5554C22.5687 16.7944 21.5661 16.563 20.8051 17.0387L15.0782 20.618C12.702 22.1031 12.702 25.5636 15.0782 27.0487L20.8051 30.628C21.5661 31.1037 22.5687 30.8723 23.0443 30.1112C23.52 29.3502 23.2886 28.3477 22.5276 27.872L16.8007 24.2927C16.4612 24.0805 16.4612 23.5862 16.8007 23.374L22.5276 19.7947Z" fill="#6482FE"/>
<path d="M28.955 17.5554C28.4794 18.3165 28.7107 19.319 29.4718 19.7947L35.1987 23.374C35.5381 23.5862 35.5381 24.0805 35.1987 24.2927L29.4718 27.872C28.7107 28.3477 28.4794 29.3502 28.955 30.1112C29.4307 30.8723 30.4332 31.1037 31.1943 30.628L36.9212 27.0487C39.2973 25.5636 39.2973 22.1031 36.9212 20.618L31.1943 17.0387C30.4332 16.563 29.4307 16.7944 28.955 17.5554Z" fill="#6482FE"/>
<path fill-rule="evenodd" clip-rule="evenodd" d="M38.9997 6.5H12.9997C8.21321 6.5 4.33301 10.3802 4.33301 15.1667V32.5C4.33301 37.2865 8.21321 41.1667 12.9997 41.1667H38.9997C43.7861 41.1667 47.6663 37.2865 47.6663 32.5V15.1667C47.6663 10.3802 43.7861 6.5 38.9997 6.5ZM12.9997 9.75H38.9997C41.9912 9.75 44.4163 12.1751 44.4163 15.1667V32.5C44.4163 35.4915 41.9912 37.9167 38.9997 37.9167H12.9997C10.0081 37.9167 7.58301 35.4915 7.58301 32.5V15.1667C7.58301 12.1751 10.0081 9.75 12.9997 9.75Z" fill="#6482FE"/>
<path d="M21.6663 41.7083C20.7689 41.7083 20.0413 42.4359 20.0413 43.3333C20.0413 44.2308 20.7689 44.9583 21.6663 44.9583H30.333C31.2305 44.9583 31.958 44.2308 31.958 43.3333C31.958 42.4359 31.2305 41.7083 30.333 41.7083H21.6663Z" fill="#6482FE"/>
</svg>
