<svg width="293" height="71" viewBox="0 0 293 71" fill="none" xmlns="http://www.w3.org/2000/svg">
<path d="M11.1094 60.001V33.321H1.30938V28.801H26.5094V33.321H16.7094V60.001H11.1094ZM38.1281 60.601C34.4748 60.601 31.6881 59.4676 29.7681 57.201C27.8481 54.9076 26.8881 51.8276 26.8881 47.961C26.8881 45.401 27.3148 43.1876 28.1681 41.321C29.0215 39.4543 30.2748 38.001 31.9281 36.961C33.6081 35.921 35.6481 35.401 38.0481 35.401C41.4881 35.401 44.1148 36.481 45.9281 38.641C47.7415 40.7743 48.6481 43.9076 48.6481 48.041V49.321H32.1681C32.3015 51.5076 32.8615 53.2676 33.8481 54.601C34.8615 55.9343 36.2881 56.601 38.1281 56.601C39.5148 56.601 40.6215 56.201 41.4481 55.401C42.3015 54.601 42.8881 53.5743 43.2081 52.321H48.3681C48.0748 53.8676 47.5148 55.2676 46.6881 56.521C45.8881 57.7476 44.7815 58.7343 43.3681 59.481C41.9548 60.2276 40.2081 60.601 38.1281 60.601ZM32.2081 45.721H43.3681C43.2615 43.6676 42.7415 42.081 41.8081 40.961C40.9015 39.841 39.6348 39.281 38.0081 39.281C36.3281 39.281 34.9948 39.8276 34.0081 40.921C33.0215 42.0143 32.4215 43.6143 32.2081 45.721ZM61.405 60.521C59.2717 60.521 57.485 60.001 56.045 58.961C54.605 57.8943 53.5117 56.4143 52.765 54.521C52.045 52.6276 51.685 50.441 51.685 47.961C51.685 45.4543 52.045 43.2676 52.765 41.401C53.5117 39.5343 54.605 38.081 56.045 37.041C57.5117 36.001 59.3117 35.481 61.445 35.481C63.1783 35.481 64.5783 35.8276 65.645 36.521C66.7383 37.2143 67.5383 38.081 68.045 39.121H69.005V36.001H73.925V60.001H69.005V56.881H68.045C67.5383 57.8676 66.7383 58.721 65.645 59.441C64.5783 60.161 63.165 60.521 61.405 60.521ZM62.645 56.441C64.4583 56.441 65.8983 55.681 66.965 54.161C68.0317 52.6143 68.565 50.561 68.565 48.001C68.565 45.441 68.0317 43.401 66.965 41.881C65.8983 40.3343 64.4583 39.561 62.645 39.561C60.9383 39.561 59.6183 40.281 58.685 41.721C57.7517 43.161 57.285 45.2543 57.285 48.001C57.285 50.7476 57.7517 52.841 58.685 54.281C59.6183 55.721 60.9383 56.441 62.645 56.441ZM80.325 60.001V36.001H85.245V39.601H86.205C86.6317 38.3743 87.3517 37.3743 88.365 36.601C89.3783 35.801 90.765 35.401 92.525 35.401C94.205 35.401 95.5917 35.7743 96.685 36.521C97.805 37.2676 98.6317 38.2943 99.165 39.601H100.125C100.605 38.3476 101.365 37.3343 102.405 36.561C103.472 35.7876 104.885 35.401 106.645 35.401C109.258 35.401 111.178 36.2543 112.405 37.961C113.632 39.641 114.245 41.881 114.245 44.681V60.001H108.845V45.681C108.845 43.841 108.538 42.4143 107.925 41.401C107.338 40.3876 106.378 39.881 105.045 39.881C103.418 39.881 102.165 40.5743 101.285 41.961C100.432 43.3476 100.005 45.041 100.005 47.041V60.001H94.565V45.681C94.565 43.841 94.2717 42.4143 93.685 41.401C93.0983 40.3876 92.1383 39.881 90.805 39.881C89.1783 39.881 87.925 40.5743 87.045 41.961C86.165 43.3476 85.725 45.041 85.725 47.041V60.001H80.325ZM120.429 60.001V28.801H132.869C135.536 28.801 137.683 29.1876 139.309 29.961C140.936 30.7076 142.123 31.721 142.869 33.001C143.643 34.281 144.029 35.7476 144.029 37.401C144.029 39.401 143.483 41.1076 142.389 42.521C141.296 43.9343 139.696 44.921 137.589 45.481L144.869 59.761V60.001H138.949L132.109 46.281H125.949V60.001H120.429ZM125.949 42.081H132.269C134.323 42.081 135.843 41.721 136.829 41.001C137.816 40.281 138.309 39.1476 138.309 37.601C138.309 36.0276 137.803 34.8943 136.789 34.201C135.803 33.481 134.296 33.121 132.269 33.121H125.949V42.081ZM158.503 60.601C154.85 60.601 152.063 59.4676 150.143 57.201C148.223 54.9076 147.263 51.8276 147.263 47.961C147.263 45.401 147.69 43.1876 148.543 41.321C149.396 39.4543 150.65 38.001 152.303 36.961C153.983 35.921 156.023 35.401 158.423 35.401C161.863 35.401 164.49 36.481 166.303 38.641C168.116 40.7743 169.023 43.9076 169.023 48.041V49.321H152.543C152.676 51.5076 153.236 53.2676 154.223 54.601C155.236 55.9343 156.663 56.601 158.503 56.601C159.89 56.601 160.996 56.201 161.823 55.401C162.676 54.601 163.263 53.5743 163.583 52.321H168.743C168.45 53.8676 167.89 55.2676 167.063 56.521C166.263 57.7476 165.156 58.7343 163.743 59.481C162.33 60.2276 160.583 60.601 158.503 60.601ZM152.583 45.721H163.743C163.636 43.6676 163.116 42.081 162.183 40.961C161.276 39.841 160.01 39.281 158.383 39.281C156.703 39.281 155.37 39.8276 154.383 40.921C153.396 42.0143 152.796 43.6143 152.583 45.721ZM183.02 60.601C179.42 60.601 176.687 59.4676 174.82 57.201C172.98 54.9076 172.06 51.841 172.06 48.001C172.06 44.0276 173.02 40.9343 174.94 38.721C176.887 36.5076 179.593 35.401 183.06 35.401C186.047 35.401 188.42 36.2143 190.18 37.841C191.94 39.4676 193.007 41.721 193.38 44.601H188.06C187.847 42.9743 187.313 41.7076 186.46 40.801C185.633 39.8943 184.527 39.441 183.14 39.441C181.3 39.441 179.927 40.201 179.02 41.721C178.113 43.2143 177.66 45.3076 177.66 48.001C177.66 50.6943 178.113 52.801 179.02 54.321C179.927 55.8143 181.287 56.561 183.1 56.561C184.513 56.561 185.633 56.1076 186.46 55.201C187.313 54.2943 187.847 53.0276 188.06 51.401H193.38C192.98 54.281 191.887 56.5343 190.1 58.161C188.34 59.7876 185.98 60.601 183.02 60.601ZM197.888 60.001V36.001H202.768V40.241H203.727C203.888 39.521 204.181 38.8143 204.608 38.121C205.034 37.4276 205.688 36.8676 206.568 36.441C207.474 35.9876 208.701 35.761 210.248 35.761H211.287V40.721H209.807C207.488 40.721 205.821 41.321 204.808 42.521C203.794 43.721 203.288 45.5476 203.288 48.001V60.001H197.888ZM223.42 60.601C220.673 60.601 218.647 59.7476 217.34 58.041C216.033 56.3343 215.38 54.0943 215.38 51.321V36.001H220.78V50.321C220.78 52.161 221.113 53.5876 221.78 54.601C222.447 55.6143 223.5 56.121 224.94 56.121C226.727 56.121 228.1 55.4276 229.06 54.041C230.02 52.6543 230.5 50.961 230.5 48.961V36.001H235.9V60.001H231.06V56.401H230.1C229.673 57.6543 228.913 58.6676 227.82 59.441C226.727 60.2143 225.26 60.601 223.42 60.601ZM242.278 60.001V36.001H247.678V60.001H242.278ZM244.998 32.961C244.011 32.961 243.251 32.6943 242.718 32.161C242.185 31.601 241.918 30.881 241.918 30.001C241.918 29.121 242.185 28.4143 242.718 27.881C243.251 27.321 244.011 27.041 244.998 27.041C246.011 27.041 246.771 27.321 247.278 27.881C247.811 28.4143 248.078 29.121 248.078 30.001C248.078 30.881 247.811 31.601 247.278 32.161C246.771 32.6943 246.011 32.961 244.998 32.961ZM257.371 60.001C256.757 59.281 256.264 58.4143 255.891 57.401C255.544 56.3876 255.371 54.8676 255.371 52.841V39.961H252.091V36.001H255.451V30.001H260.731V36.001H264.691V39.961H260.771V52.161C260.771 54.2943 260.997 55.921 261.451 57.041C261.931 58.1343 262.504 59.041 263.171 59.761V60.001H257.371Z" fill="#0223B5"/>
<path d="M285.554 19.4158L279.457 22.7536M279.911 1.00132L271.287 14.7765" stroke="#0223B5" stroke-width="1.45542"/>
<path d="M31.2741 19.0837C42.3316 7.11452 74.6923 6.76174 85.1253 18.363" stroke="#0223B5" stroke-width="1.70118"/>
</svg>
