<svg width="52" height="52" viewBox="0 0 52 52" fill="none" xmlns="http://www.w3.org/2000/svg">
<path fill-rule="evenodd" clip-rule="evenodd" d="M19.5 41.167C19.5 38.1431 17.4351 35.6015 14.6385 34.8753C14.7207 32.2976 15.167 30.8451 15.6725 30.0262C16.1667 29.2256 16.7969 28.9005 17.6458 28.7463C18.1042 28.663 18.6135 28.6345 19.1995 28.6267C19.3883 28.6242 19.6048 28.6241 19.8326 28.624C20.2339 28.6238 20.6701 28.6237 21.0502 28.6101C22.2754 28.5665 23.9135 28.3855 25.1469 27.147C25.4719 26.8206 25.7544 26.4829 26 26.1345C26.2456 26.4829 26.5281 26.8206 26.8531 27.147C28.0865 28.3855 29.7246 28.5665 30.9498 28.6101C31.3299 28.6237 31.766 28.6238 32.1673 28.624C32.3951 28.6241 32.6117 28.6242 32.8005 28.6267C33.3865 28.6345 33.8958 28.663 34.3542 28.7463C35.2031 28.9005 35.8333 29.2256 36.3275 30.0262C36.833 30.8451 37.2793 32.2976 37.3615 34.8753C34.5649 35.6015 32.5 38.1431 32.5 41.167C32.5 44.7568 35.4101 47.667 39 47.667C42.5899 47.667 45.5 44.7568 45.5 41.167C45.5 38.1339 43.4225 35.586 40.6128 34.8686C40.5302 31.9579 40.0269 29.832 39.0931 28.3191C38.0016 26.5509 36.4542 25.8245 34.935 25.5486C34.2093 25.4168 33.487 25.3856 32.844 25.377C32.5541 25.3731 32.3002 25.3734 32.0618 25.3736C31.7182 25.374 31.4066 25.3743 31.0656 25.3622C29.9436 25.3222 29.4458 25.1447 29.156 24.8537C28.3645 24.0589 27.9739 23.143 27.7847 21.8042C27.6164 20.6133 27.6214 19.2294 27.6278 17.4134C27.6282 17.3195 27.6285 17.2241 27.6288 17.1279C30.4304 16.405 32.5 13.861 32.5 10.8337C32.5 7.2438 29.5899 4.33366 26 4.33366C22.4101 4.33366 19.5 7.2438 19.5 10.8337C19.5 13.861 21.5696 16.405 24.3712 17.1279L24.3722 17.413C24.3786 19.2291 24.3836 20.6133 24.2153 21.8042C24.0261 23.143 23.6355 24.0589 22.844 24.8537C22.5542 25.1447 22.0564 25.3222 20.9344 25.3622C20.5934 25.3743 20.2819 25.374 19.9383 25.3736C19.6999 25.3734 19.4459 25.3731 19.156 25.377C18.513 25.3856 17.7907 25.4168 17.065 25.5486C15.5458 25.8245 13.9984 26.5509 12.9069 28.3191C11.9731 29.832 11.4698 31.9579 11.3872 34.8686C8.57751 35.586 6.5 38.1339 6.5 41.167C6.5 44.7568 9.41015 47.667 13 47.667C16.5899 47.667 19.5 44.7568 19.5 41.167ZM13 37.917C14.7949 37.917 16.25 39.3721 16.25 41.167C16.25 42.9619 14.7949 44.417 13 44.417C11.2051 44.417 9.75 42.9619 9.75 41.167C9.75 39.3721 11.2051 37.917 13 37.917ZM39 37.917C40.7949 37.917 42.25 39.3721 42.25 41.167C42.25 42.9619 40.7949 44.417 39 44.417C37.2051 44.417 35.75 42.9619 35.75 41.167C35.75 39.3721 37.2051 37.917 39 37.917ZM29.25 10.8337C29.25 9.03873 27.7949 7.58366 26 7.58366C24.2051 7.58366 22.75 9.03873 22.75 10.8337C22.75 12.6286 24.2051 14.0837 26 14.0837C27.7949 14.0837 29.25 12.6286 29.25 10.8337Z" fill="#6482FE"/>
</svg>
