<svg width="289" height="444" viewBox="0 0 289 444" fill="none" xmlns="http://www.w3.org/2000/svg">
<path d="M126.277 120.064C124.652 120.064 123.335 118.18 123.335 115.856C123.335 113.532 124.652 111.648 126.277 111.648C127.902 111.648 129.22 113.532 129.22 115.856C129.22 118.18 127.902 120.064 126.277 120.064Z" fill="#C4CCEB"/>
<path d="M160.321 139.421C158.464 139.421 156.959 137.537 156.959 135.213C156.959 132.889 158.464 131.005 160.321 131.005C162.178 131.005 163.684 132.889 163.684 135.213C163.684 137.537 162.178 139.421 160.321 139.421Z" fill="#C4CCEB"/>
<path d="M123.947 108.508C129.402 112.458 130.583 115.951 131.252 123.134" stroke="#C4CCEB" stroke-width="3"/>
<path d="M157.549 128.01C163.003 131.96 164.186 135.454 164.854 142.636" stroke="#C4CCEB" stroke-width="3"/>
<path d="M132.582 142.367C126.277 137.317 128.378 133.373 138.557 133.373" stroke="#C4CCEB" stroke-width="3"/>
<path d="M254.086 310.54C266.095 324.26 262.246 340.557 261.291 338.667C256.087 328.376 246.08 312.941 246.08 312.941" stroke="#C4CCEB" stroke-width="3"/>
<path d="M247.227 314.835C257.537 329.613 252.009 339.289 251.414 337.298C247.227 323.276 237.891 317.463 237.891 317.463" stroke="#C4CCEB" stroke-width="3"/>
<path d="M278.056 326.27C284.589 342.975 261.315 310.277 251.924 309.565" stroke="#C4CCEB" stroke-width="3"/>
<path d="M221.243 299.325C244.512 295.889 269.241 303.127 278.222 326.141" stroke="#C4CCEB" stroke-width="3"/>
<path d="M170.109 306.639C129.689 315.903 90.729 323.704 69.7895 336.868" stroke="#C4CCEB" stroke-width="3"/>
<path d="M182.385 159.701C204.787 145.562 147.707 198.403 175.466 237.894" stroke="#C4CCEB" stroke-width="3"/>
<path d="M180.924 200.654C244.131 200.654 206.633 211.566 272.377 304.688" stroke="#C4CCEB" stroke-width="3"/>
<path d="M196.887 157.514C181.336 179.394 206.974 180.656 203.191 163.826" stroke="#C4CCEB" stroke-width="3"/>
<path d="M155.114 242.095C155.114 242.095 167.227 245.483 181.311 234.97" stroke="#C4CCEB" stroke-width="3"/>
<path d="M112.156 191.578C99.982 196.454 132.934 242.8 157.447 242.279" stroke="#C4CCEB" stroke-width="3"/>
<path d="M237.392 244.183C283.205 201.684 259.668 28.3242 194.102 65.3526" stroke="#C4CCEB" stroke-width="3"/>
<path d="M209.041 145.594C197.982 141.535 194.755 150.463 195.825 153.046" stroke="#C4CCEB" stroke-width="3"/>
<path d="M132.713 92.418C92.2925 146.048 124.434 214.792 182.873 159.212" stroke="#C4CCEB" stroke-width="3"/>
<path d="M130.764 92.418C154.14 107.044 192.775 114.683 197.482 93.3931" stroke="#C4CCEB" stroke-width="3"/>
<path d="M193.261 140.252C193.261 134.97 195.047 121.737 185.693 105.281" stroke="#C4CCEB" stroke-width="3"/>
<path d="M194.074 138.734C238.39 126.059 212.018 175.187 191.152 161.65" stroke="#C4CCEB" stroke-width="3"/>
<path d="M194.56 181.151C235.974 171.82 257.83 91.8728 206.248 76.3284C144.927 16.5431 107.107 99.7788 115.927 128.47" stroke="#C4CCEB" stroke-width="3"/>
<path d="M127.93 202.71C101.827 169.359 100.162 149.371 110.546 157.094" stroke="#C4CCEB" stroke-width="3"/>
<path d="M115.152 185.727C109.356 188.805 114.371 195.977 122.385 208.154" stroke="#C4CCEB" stroke-width="3"/>
<path d="M179.362 234.97L252.898 351.98" stroke="#C4CCEB" stroke-width="3"/>
<path d="M97.0605 197.916C48.3606 197.916 68.9538 274.271 35.4078 321.961C16.131 349.366 16.8205 416.901 97.0605 385.08" stroke="#C4CCEB" stroke-width="3"/>
<path d="M150.629 253.008C177.414 377.82 286.987 442.664 286.987 331.015C285.039 320.29 279.682 313.951 271.403 303.225" stroke="#C4CCEB" stroke-width="3"/>
<path d="M161.932 116.795C169.233 118.023 172.002 121.484 176.542 128.497M140.504 106.069C135.856 101.582 133.394 99.9363 129.304 98.7559" stroke="#C4CCEB" stroke-width="3"/>
<path d="M124.819 152.573C129.202 157.479 137.231 157.187 141.863 155.267" stroke="#C4CCEB" stroke-width="3"/>
<path d="M165.239 139.896H166.213L173.031 142.334L163.291 142.822L165.239 139.896Z" fill="#C4CCEB"/>
<path d="M96.0868 385.622C128.227 371.97 139.915 360.269 183.745 333.454" stroke="#C4CCEB" stroke-width="3"/>
<path d="M105.339 253.008C80.0161 272.022 80.5039 309.563 118.976 306.15" stroke="#C4CCEB" stroke-width="3"/>
<path d="M205.304 253.008C225.14 271.534 225.627 281.773 216.861 292.5" stroke="#C4CCEB" stroke-width="3"/>
<path d="M100.956 304.688C102.417 311.026 103.988 316.795 103.422 322.239" stroke="#C4CCEB" stroke-width="3"/>
<path d="M202.251 359.294C208.095 387.571 222.532 418.5 230.01 428.525C189.589 444.126 104.366 447.541 71.2506 428.525C86.3463 404.636 92.6779 387.084 90.7292 387.571" stroke="#C4CCEB" stroke-width="3"/>
<path d="M87.3213 327.115L94.1387 299.325" stroke="#C4CCEB" stroke-width="3"/>
<path opacity="0.5" d="M93.1246 5.74765L90.9125 3.53553C88.9599 1.58291 85.794 1.58292 83.8414 3.53554L74.919 12.4579C72.9664 14.4106 72.9664 17.5764 74.919 19.529L83.8414 28.4514C85.794 30.404 88.9599 30.404 90.9125 28.4514L99.8349 19.529C101.788 17.5764 101.788 14.4106 99.8349 12.4579L99.3721 11.9951" stroke="#C4CCEB" stroke-width="3"/>
<path opacity="0.5" d="M24.7631 63.4824L29.9593 72.4824C32.0762 76.1491 29.4301 80.7324 25.1962 80.7324H14.8039C10.57 80.7324 7.92376 76.1491 10.0407 72.4824L15.2369 63.4824C17.3538 59.8158 22.6462 59.8158 24.7631 63.4824Z" stroke="#C4CCEB" stroke-width="3"/>
<path opacity="0.5" d="M71.8209 78.2191C71.9219 79.4337 72.441 80.5757 73.2897 81.4506C74.1383 82.3254 75.2641 82.8789 76.4751 83.0168C77.6861 83.1546 78.9074 82.8683 79.931 82.2066C80.9546 81.545 81.7171 80.5488 82.0886 79.388C82.46 78.2271 82.4175 76.9734 81.9682 75.8404C81.519 74.7074 80.6907 73.7652 79.6247 73.1744C78.5586 72.5836 77.3206 72.3807 76.1218 72.6003C74.9229 72.8199 73.8372 73.4484 73.0498 74.3788" stroke="#C4CCEB" stroke-width="3"/>
</svg>
