<svg width="52" height="52" viewBox="0 0 52 52" fill="none" xmlns="http://www.w3.org/2000/svg">
<path d="M41.1663 4.875C42.0638 4.875 42.7913 5.60254 42.7913 6.5V13.4102L44.3506 11.851C44.9852 11.2163 46.0141 11.2163 46.6487 11.851C47.2833 12.4856 47.2833 13.5144 46.6487 14.149L42.3154 18.4824C42.1596 18.6382 41.98 18.7557 41.7884 18.835C41.6212 18.9044 41.4399 18.9466 41.25 18.9562C41.2223 18.9576 41.1944 18.9583 41.1663 18.9583C40.946 18.9583 40.7359 18.9145 40.5443 18.835C40.3527 18.7557 40.1731 18.6382 40.0173 18.4824L35.684 14.149C35.0494 13.5144 35.0494 12.4856 35.684 11.851C36.3186 11.2163 37.3475 11.2163 37.9821 11.851L39.5413 13.4102V6.5C39.5413 5.60254 40.2689 4.875 41.1663 4.875Z" fill="#6482FE"/>
<path d="M30.8747 8.66667C31.7721 8.66667 32.4997 9.3942 32.4997 10.2917C32.4997 11.1891 31.7721 11.9167 30.8747 11.9167H12.9997C10.0081 11.9167 7.58301 14.3418 7.58301 17.3333V34.6667C7.58301 37.6582 10.0081 40.0833 12.9997 40.0833H38.9997C41.9912 40.0833 44.4163 37.6582 44.4163 34.6667V23.2917C44.4163 22.3942 45.1439 21.6667 46.0413 21.6667C46.9388 21.6667 47.6663 22.3942 47.6663 23.2917V34.6667C47.6663 39.4531 43.7861 43.3333 38.9997 43.3333H12.9997C8.21321 43.3333 4.33301 39.4531 4.33301 34.6667V17.3333C4.33301 12.5469 8.21321 8.66667 12.9997 8.66667H30.8747Z" fill="#6482FE"/>
<path d="M34.8558 17.9834C35.1627 17.5742 35.6444 17.3334 36.1558 17.3334C37.4949 17.3334 38.2593 18.8622 37.4558 19.9334L34.233 24.2306C30.1163 29.7195 21.883 29.7195 17.7663 24.2306L11.6996 16.1417C11.1612 15.4237 11.3067 14.4052 12.0246 13.8667C12.7426 13.3282 13.7612 13.4737 14.2996 14.1917L20.3663 22.2806C23.183 26.0361 28.8163 26.0361 31.633 22.2806L34.8558 17.9834Z" fill="#6482FE"/>
</svg>
