<svg width="52" height="52" viewBox="0 0 52 52" fill="none" xmlns="http://www.w3.org/2000/svg">
<path fill-rule="evenodd" clip-rule="evenodd" d="M30.399 6.56604C31.0337 5.93144 31.0337 4.90254 30.399 4.26794C29.7644 3.63334 28.7356 3.63334 28.101 4.26795L22.6843 9.68463C22.628 9.74095 22.5762 9.80098 22.5292 9.86415C22.3602 10.0911 22.2491 10.3638 22.2176 10.6602C22.2115 10.7176 22.2083 10.7755 22.2083 10.8337C22.2083 10.8936 22.2116 10.9531 22.2182 11.0121C22.2492 11.2963 22.3535 11.5584 22.5118 11.7793C22.5633 11.8512 22.6209 11.9193 22.6843 11.9827L28.101 17.3994C28.7356 18.034 29.7645 18.034 30.399 17.3994C31.0337 16.7648 31.0337 15.7359 30.399 15.1013L27.7564 12.4587H30.3335C34.2225 12.4587 37.3751 15.6113 37.3751 19.5003V34.667C37.3751 34.7353 37.3793 34.8025 37.3875 34.8686C34.5777 35.5858 32.5 38.1337 32.5 41.167C32.5 44.7568 35.4101 47.667 39 47.667C42.5899 47.667 45.5 44.7568 45.5 41.167C45.5 38.1338 43.4225 35.5859 40.6127 34.8686C40.6209 34.8026 40.6251 34.7353 40.6251 34.667V19.5003C40.6251 13.8164 36.0174 9.20866 30.3335 9.20866H27.7564L30.399 6.56604ZM42.25 41.167C42.25 42.9619 40.7949 44.417 39 44.417C37.2051 44.417 35.75 42.9619 35.75 41.167C35.75 39.3721 37.2051 37.917 39 37.917C40.7949 37.917 42.25 39.3721 42.25 41.167Z" fill="#6482FE"/>
<path fill-rule="evenodd" clip-rule="evenodd" d="M14.625 17.1289C17.4285 16.4073 19.5 13.8624 19.5 10.8337C19.5 7.24381 16.5899 4.33366 13 4.33366C9.41015 4.33366 6.5 7.24381 6.5 10.8337C6.5 13.8624 8.57151 16.4073 11.375 17.1289V34.8718C8.57151 35.5933 6.5 38.1383 6.5 41.167C6.5 44.7568 9.41015 47.667 13 47.667C16.5899 47.667 19.5 44.7568 19.5 41.167C19.5 38.1383 17.4285 35.5933 14.625 34.8718V17.1289ZM16.25 10.8337C16.25 12.6286 14.7949 14.0837 13 14.0837C11.2051 14.0837 9.75 12.6286 9.75 10.8337C9.75 9.03873 11.2051 7.58366 13 7.58366C14.7949 7.58366 16.25 9.03873 16.25 10.8337ZM13 44.417C14.7949 44.417 16.25 42.9619 16.25 41.167C16.25 39.3721 14.7949 37.917 13 37.917C11.2051 37.917 9.75 39.3721 9.75 41.167C9.75 42.9619 11.2051 44.417 13 44.417Z" fill="#6482FE"/>
</svg>
