<svg width="52" height="52" viewBox="0 0 52 52" fill="none" xmlns="http://www.w3.org/2000/svg">
<path d="M32.5461 22.8353C33.1915 22.2117 33.2092 21.183 32.5857 20.5375C31.9621 19.8921 30.9334 19.8743 30.2879 20.4979L24.6937 25.9025L21.7177 23.0027C21.0749 22.3764 20.0461 22.3898 19.4198 23.0326C18.7935 23.6754 18.8068 24.7042 19.4496 25.3305L23.5549 29.3305C24.184 29.9434 25.1863 29.9456 25.818 29.3353L32.5461 22.8353Z" fill="#6482FE"/>
<path fill-rule="evenodd" clip-rule="evenodd" d="M28.0924 3.3823C26.7436 2.87647 25.2571 2.87647 23.9082 3.3823L10.9082 8.25731C8.5828 9.12934 7.042 11.3521 7.04199 13.8359L7.042 25.9999C7.04202 30.5545 10.1879 34.8196 13.5089 38.1159C16.9052 41.4869 20.8598 44.209 23.1689 45.6796C24.8903 46.776 27.0553 46.8312 28.8287 45.7953C31.162 44.4324 35.1229 41.8897 38.5209 38.5571C41.8726 35.2699 44.9587 30.938 44.9587 25.9999V13.8359C44.9587 11.3521 43.4179 9.12933 41.0924 8.2573L28.0924 3.3823ZM25.0494 6.42537C25.6625 6.19545 26.3382 6.19545 26.9513 6.42537L39.9513 11.3004C41.0085 11.6968 41.7087 12.7071 41.7087 13.8359V25.9999C41.7087 29.5973 39.4147 33.1283 36.2453 36.2368C33.1221 39.2999 29.4208 41.6856 27.1894 42.989C26.4786 43.4043 25.62 43.3875 24.9148 42.9384C22.6884 41.5204 18.9556 38.943 15.7984 35.8092C12.5659 32.6007 10.292 29.1555 10.292 25.9999L10.292 13.8359C10.292 12.7071 10.9922 11.6968 12.0494 11.3004L25.0494 6.42537Z" fill="#6482FE"/>
</svg>
